<svg width="335" height="118" viewBox="0 0 335 118" fill="none" xmlns="http://www.w3.org/2000/svg">
<path d="M141.925 5.81326C132.631 9.71767 126.796 19.9559 126.796 32.45C126.796 37.2221 128.092 43.903 130.326 50.6706L133.919 57.9154L132.919 51.1912C134.36 49.5427 130.848 51.8419 131.569 52.7096C132.217 53.5772 136.233 51.1912 135.081 50.6706C134.288 50.3236 133.856 50.4103 134.216 50.7574C134.504 51.1912 129.407 53.6857 132.649 51.7335C131.569 53.729 132.631 55.7897 135.009 59.7809C136.449 62.1236 140.268 66.9824 143.438 70.6265L149.273 77.3074L153.74 70.453C156.117 66.7221 161.232 58.7397 164.978 52.753C168.725 46.6794 171.967 41.7338 172.183 41.7338C172.543 41.7338 179.387 52.9265 190.842 72.1015L195.453 79.7368L197.686 77.9147C202.225 74.0971 211.086 64.9 214.112 60.8221C220.956 51.625 223.838 41.0397 222.541 29.5C220.812 14.5765 213.752 6.9412 201.648 6.76767C194.588 6.76767 189.833 8.58973 185.655 13.0147C182.701 16.1383 176.505 26.3765 176.505 28.2853C176.505 28.7191 176.001 29.7603 175.497 30.628C174.56 32.0162 174.344 31.7559 173.191 27.2441C170.382 16.5721 164.114 8.4162 156.549 5.63972C152.155 3.9912 146.031 4.07796 141.925 5.81326Z" fill="#B3261E"/>
<path d="M80.6883 57.6985C70.242 78.9559 61.4528 96.2221 61.1646 96.1353C60.8764 95.9618 54.9689 89.5412 48.0528 81.7324C41.0646 74.0103 35.1571 67.6765 34.8689 67.6765C34.5807 67.6765 31.9151 70.2794 28.9614 73.4897C17.5786 85.7236 5.40332 99.1721 5.18719 99.7794C4.89902 100.56 7.85278 104.985 8.7173 104.985C9.14955 104.985 15.2012 98.7383 22.1893 91.103L34.8689 77.2206L38.9033 81.8191C49.2055 93.7059 62.7496 108.629 62.9657 108.369C63.1098 108.196 71.3947 91.45 81.4087 71.1471C91.4227 50.8441 99.6356 34.1853 99.7797 34.0118C99.8517 33.925 108.281 50.8441 118.511 71.5809C128.741 92.3177 137.386 109.063 137.674 108.716C137.962 108.282 141.781 102.382 146.175 95.4412L154.172 82.9471L152.227 80.5177C151.146 79.2162 150.066 78.0883 149.705 78.0883C149.417 78.0883 146.68 82.0794 143.654 86.9383C138.539 95.0074 138.035 95.6147 137.098 94.1397C136.594 93.1853 128.165 76.2662 118.439 56.3971C108.641 36.6147 100.428 20.1294 100.212 19.7824C99.9958 19.4353 91.2066 36.528 80.6883 57.6985Z" fill="#6750A4"/>
<path d="M295.448 32.7103C283.273 59.2603 265.767 95.875 265.19 95.875C264.83 95.875 258.418 89.7147 251.07 82.1662C243.722 74.6177 237.238 68.2838 236.805 68.0236C236.301 67.85 229.313 74.2706 221.244 82.4265C213.175 90.5824 206.475 97.0897 206.403 97.003C206.259 96.8294 204.17 93.4456 201.72 89.3677C199.271 85.2897 196.966 81.6456 196.677 81.2118C196.317 80.8647 194.948 81.4721 193.58 82.6L191.058 84.5956L197.902 95.875C201.648 102.122 204.962 107.241 205.323 107.415C205.611 107.588 212.743 100.821 221.1 92.4044L236.301 77.0471L244.37 85.2897C248.837 89.8883 255.753 96.9162 259.715 100.907C263.677 104.985 267.136 108.022 267.424 107.762C267.856 107.241 284.066 72.6221 292.999 53.1868C294.368 50.15 295.809 47.5471 296.097 47.2868C296.457 47.0265 302.797 59.6074 310.145 75.225C317.566 90.9294 323.761 103.857 323.977 104.118C324.338 104.551 329.237 101.428 329.237 100.734C329.237 100.387 327.58 96.6559 325.562 92.4044C323.473 88.0662 316.197 72.7088 309.281 58.1324C302.365 43.5559 296.529 31.4956 296.457 31.4088C296.313 31.2353 295.881 31.8427 295.448 32.7103Z" fill="#6750A4"/>
<path d="M169.373 59.3471C168.148 61.5162 166.707 63.7721 166.203 64.3794C165.699 64.9868 162.961 69.325 160.007 73.9235L154.748 82.3397L156.765 84.5956C160.007 87.9794 168.22 94.4 170.165 95.0074C171.318 95.3544 173.624 94.7471 176.433 93.3588C181.62 90.8427 189.473 85.2897 189.473 84.075C189.473 83.1206 173.047 56.05 172.255 55.703C171.967 55.6162 170.67 57.2647 169.373 59.3471Z" fill="#B3261E"/>
</svg>
