<svg width="216" height="148" viewBox="0 0 216 148" fill="none" xmlns="http://www.w3.org/2000/svg">
<g filter="url(#filter0_d_54360_36252)">
<path fill-rule="evenodd" clip-rule="evenodd" d="M70.6064 45.4146C71.157 42.9073 71.8576 40.3981 72.603 37.919C70.5759 44.663 68.8798 51.6292 69.6318 58.1742C69.5424 57.3974 69.4876 56.6148 69.4637 55.8272C69.3604 52.4181 69.837 48.9182 70.6064 45.4146Z" fill="#21005D"/>
<path d="M53.6991 139.9C68.8931 139.9 81.8667 128.319 86.5456 115.989H14.5508C26.5463 134.09 44.6997 139.583 53.6991 139.9Z" fill="#21005D"/>
<path d="M8.9617 45.4146C7.92891 48.828 7.04745 52.3141 6.32673 55.8272C5.43267 60.1854 4.78598 64.5851 4.40463 68.9395H72.9681C72.2411 67.2068 71.5191 65.3508 70.8098 63.3475C70.5946 62.7399 70.4078 62.1268 70.2474 61.5087C70.0654 60.8077 69.9174 60.1002 69.8005 59.3871C69.7637 59.1623 69.7299 58.9369 69.6992 58.711C69.6748 58.5324 69.6524 58.3534 69.6318 58.1742C69.5424 57.3974 69.4876 56.6148 69.4637 55.8272C69.3604 52.4181 69.837 48.9182 70.6064 45.4146H8.9617Z" fill="#7F67BE"/>
<path d="M7.75024 102.298C8.95493 105.657 10.3463 108.735 11.8822 111.554C12.7301 113.11 13.622 114.588 14.5508 115.989H86.5456C87.1049 114.515 87.5457 113.031 87.8575 111.554C88.37 109.128 88.5345 106.722 88.3049 104.42C87.8355 99.7112 86.7033 95.9728 85.1491 92.4643H5.19126C5.80059 95.9306 6.6493 99.2294 7.75024 102.298Z" fill="#381E72"/>
<path d="M4.40463 68.9395C3.96184 73.9953 3.87677 78.99 4.17756 83.7871C4.36437 86.7666 4.70003 89.6699 5.19126 92.4643H85.1491C83.86 89.5546 82.2806 86.8029 80.5481 83.7871L80.5288 83.7535C78.1754 79.6571 75.5408 75.0711 72.9681 68.9395H4.40463Z" fill="#4F378B"/>
<path d="M19.277 22.0826C18.1266 23.9328 17.0332 25.8656 15.9996 27.8674C13.1952 33.2984 10.8307 39.2376 8.9617 45.4146H70.6064C71.157 42.9073 71.8576 40.3981 72.603 37.919C73.0268 36.5094 73.465 35.1095 73.8985 33.7252L73.8991 33.723L73.8994 33.7222C74.5433 31.6655 75.1765 29.6432 75.7354 27.6745C76.2809 25.7535 76.7556 23.8835 77.1008 22.0826H19.277Z" fill="#6750A4"/>
<path d="M70.0982 4.30652C65.8598 2.19121 60.4799 0.673025 53.6991 0.100311C39.7963 -1.07393 27.9266 8.17064 19.277 22.0826H77.1008C78.4558 15.0119 77.8128 9.0051 71.6042 5.14514C71.1346 4.85316 70.6331 4.57347 70.0982 4.30652Z" fill="#7F67BE"/>
</g>
<path d="M52.0068 8.35187V16.199H50.7124V9.888L48.7949 10.5379V9.46906L51.851 8.35187H52.0068Z" fill="white"/>
<path d="M45.7348 36.4751V37.5063H40.4926V36.6201L43.0385 33.8432C43.3178 33.5281 43.538 33.256 43.6992 33.0268C43.8603 32.7977 43.9731 32.5918 44.0375 32.4092C44.1056 32.223 44.1396 32.0421 44.1396 31.8667C44.1396 31.6196 44.093 31.403 44 31.2168C43.9104 31.027 43.7779 30.8784 43.6025 30.771C43.427 30.66 43.214 30.6045 42.9633 30.6045C42.6733 30.6045 42.4298 30.6671 42.2329 30.7925C42.0359 30.9178 41.8873 31.0915 41.7871 31.3135C41.6868 31.5319 41.6367 31.7825 41.6367 32.0654H40.3422C40.3422 31.6107 40.4461 31.1953 40.6538 30.8193C40.8614 30.4398 41.1622 30.139 41.5561 29.917C41.95 29.6914 42.4244 29.5786 42.9794 29.5786C43.5022 29.5786 43.9462 29.6663 44.3115 29.8418C44.6767 30.0172 44.9542 30.2661 45.144 30.5884C45.3374 30.9106 45.434 31.292 45.434 31.7324C45.434 31.9759 45.3946 32.2176 45.3159 32.4575C45.2371 32.6974 45.1243 32.9373 44.9775 33.1772C44.8343 33.4136 44.6642 33.6517 44.4672 33.8916C44.2703 34.1279 44.0537 34.3678 43.8173 34.6113L42.1254 36.4751H45.7348Z" fill="white"/>
<path d="M35.226 56.5347H35.9995C36.3003 56.5347 36.5491 56.4828 36.7461 56.3789C36.9466 56.2751 37.0952 56.1319 37.1919 55.9492C37.2885 55.7666 37.3369 55.5572 37.3369 55.3208C37.3369 55.0738 37.2921 54.8625 37.2026 54.687C37.1167 54.508 36.9842 54.3701 36.8051 54.2735C36.6297 54.1768 36.4059 54.1284 36.1338 54.1284C35.9046 54.1284 35.6969 54.175 35.5107 54.2681C35.3281 54.3576 35.1831 54.4865 35.0757 54.6548C34.9682 54.8195 34.9145 55.0165 34.9145 55.2456H33.6147C33.6147 54.8303 33.7239 54.4615 33.9424 54.1392C34.1608 53.8169 34.458 53.5645 34.834 53.3819C35.2135 53.1957 35.6396 53.1026 36.1123 53.1026C36.6172 53.1026 37.0576 53.1867 37.4336 53.355C37.8131 53.5197 38.1085 53.7668 38.3198 54.0962C38.5311 54.4256 38.6367 54.8339 38.6367 55.3208C38.6367 55.5428 38.5848 55.7684 38.4809 55.9976C38.3771 56.2268 38.2231 56.4362 38.019 56.626C37.8149 56.8122 37.5607 56.9644 37.2563 57.0826C36.952 57.1971 36.5993 57.2544 36.1982 57.2544H35.226V56.5347ZM35.226 57.5445V56.8355H36.1982C36.6565 56.8355 37.0468 56.8892 37.3691 56.9966C37.695 57.104 37.9599 57.2526 38.164 57.4424C38.3681 57.6286 38.5167 57.8417 38.6098 58.0816C38.7065 58.3215 38.7549 58.5757 38.7549 58.8443C38.7549 59.2095 38.6886 59.5353 38.5561 59.8218C38.4272 60.1047 38.2428 60.3446 38.0029 60.5415C37.763 60.7385 37.4819 60.8871 37.1596 60.9873C36.841 61.0876 36.4936 61.1377 36.1176 61.1377C35.7811 61.1377 35.4588 61.0912 35.1508 60.9981C34.8429 60.905 34.5672 60.7671 34.3237 60.5845C34.0802 60.3983 33.8869 60.1673 33.7436 59.8916C33.604 59.6123 33.5341 59.2901 33.5341 58.9248H34.8286C34.8286 59.1576 34.8823 59.3635 34.9897 59.5425C35.1007 59.718 35.2547 59.8558 35.4516 59.9561C35.6521 60.0563 35.8813 60.1065 36.1391 60.1065C36.4113 60.1065 36.6458 60.0581 36.8427 59.9615C37.0397 59.8648 37.1901 59.7215 37.2939 59.5318C37.4013 59.342 37.455 59.1128 37.455 58.8443C37.455 58.5399 37.396 58.2928 37.2778 58.1031C37.1596 57.9133 36.9913 57.7736 36.7729 57.6841C36.5545 57.591 36.2967 57.5445 35.9995 57.5445H35.226ZM43.8095 59.8648V57.0933C43.8095 56.8856 43.7719 56.7066 43.6967 56.5562C43.6216 56.4058 43.507 56.2894 43.353 56.2071C43.2026 56.1247 43.0128 56.0835 42.7837 56.0835C42.5724 56.0835 42.3898 56.1193 42.2358 56.1909C42.0818 56.2626 41.9619 56.3592 41.8759 56.481C41.79 56.6027 41.747 56.7406 41.747 56.8946H40.458C40.458 56.6654 40.5135 56.4434 40.6245 56.2285C40.7355 56.0137 40.8966 55.8221 41.1079 55.6538C41.3191 55.4855 41.5716 55.3531 41.8652 55.2564C42.1588 55.1597 42.4882 55.1114 42.8535 55.1114C43.2903 55.1114 43.6771 55.1848 44.0136 55.3316C44.3538 55.4784 44.6206 55.7004 44.8139 55.9976C45.0109 56.2912 45.1093 56.66 45.1093 57.104V59.6875C45.1093 59.9525 45.1272 60.1906 45.1631 60.4019C45.2024 60.6096 45.2579 60.7904 45.3296 60.9444V61.0303H44.0029C43.942 60.8907 43.8937 60.7134 43.8579 60.4986C43.8257 60.2801 43.8095 60.0689 43.8095 59.8648ZM43.9975 57.4961L44.0083 58.2964H43.0791C42.8392 58.2964 42.6279 58.3197 42.4453 58.3662C42.2627 58.4092 42.1105 58.4737 41.9887 58.5596C41.867 58.6455 41.7757 58.7494 41.7148 58.8711C41.6539 58.9929 41.6235 59.1307 41.6235 59.2847C41.6235 59.4387 41.6593 59.5801 41.7309 59.709C41.8025 59.8343 41.9064 59.9328 42.0424 60.0044C42.1821 60.076 42.3504 60.1118 42.5473 60.1118C42.8123 60.1118 43.0433 60.0581 43.2402 59.9507C43.4407 59.8397 43.5983 59.7054 43.7129 59.5479C43.8274 59.3867 43.8883 59.2346 43.8955 59.0913L44.3144 59.666C44.2715 59.8129 44.198 59.9704 44.0942 60.1387C43.9904 60.307 43.8543 60.4681 43.686 60.6221C43.5213 60.7725 43.3226 60.896 43.0898 60.9927C42.8606 61.0894 42.5957 61.1377 42.2949 61.1377C41.9153 61.1377 41.577 61.0625 41.2798 60.9121C40.9826 60.7582 40.7498 60.5523 40.5815 60.2945C40.4132 60.0331 40.3291 59.7377 40.3291 59.4082C40.3291 59.1003 40.3864 58.8282 40.5009 58.5918C40.6191 58.3519 40.791 58.1514 41.0166 57.9903C41.2457 57.8291 41.525 57.7074 41.8545 57.625C42.1839 57.5391 42.5599 57.4961 42.9824 57.4961H43.9975Z" fill="white"/>
<path d="M38.8017 79.9286H39.5752C39.8759 79.9286 40.1248 79.8767 40.3217 79.7729C40.5223 79.669 40.6709 79.5258 40.7675 79.3432C40.8642 79.1606 40.9126 78.9511 40.9126 78.7148C40.9126 78.4677 40.8678 78.2564 40.7783 78.081C40.6923 77.9019 40.5599 77.7641 40.3808 77.6674C40.2054 77.5707 39.9816 77.5224 39.7094 77.5224C39.4803 77.5224 39.2726 77.5689 39.0864 77.662C38.9038 77.7516 38.7587 77.8805 38.6513 78.0488C38.5439 78.2135 38.4902 78.4104 38.4902 78.6396H37.1904C37.1904 78.2242 37.2996 77.8554 37.518 77.5331C37.7364 77.2109 38.0336 76.9584 38.4096 76.7758C38.7892 76.5896 39.2153 76.4965 39.6879 76.4965C40.1928 76.4965 40.6333 76.5807 41.0092 76.7489C41.3888 76.9137 41.6842 77.1607 41.8955 77.4902C42.1067 77.8196 42.2124 78.2278 42.2124 78.7148C42.2124 78.9368 42.1604 79.1624 42.0566 79.3915C41.9528 79.6207 41.7988 79.8302 41.5947 80.0199C41.3906 80.2061 41.1364 80.3583 40.832 80.4765C40.5276 80.5911 40.1749 80.6484 39.7739 80.6484H38.8017V79.9286ZM38.8017 80.9384V80.2294H39.7739C40.2322 80.2294 40.6225 80.2831 40.9448 80.3905C41.2706 80.498 41.5356 80.6466 41.7397 80.8363C41.9438 81.0225 42.0924 81.2356 42.1855 81.4755C42.2822 81.7154 42.3305 81.9697 42.3305 82.2382C42.3305 82.6034 42.2643 82.9293 42.1318 83.2157C42.0029 83.4986 41.8185 83.7385 41.5786 83.9355C41.3387 84.1324 41.0576 84.281 40.7353 84.3813C40.4166 84.4815 40.0693 84.5317 39.6933 84.5317C39.3567 84.5317 39.0345 84.4851 38.7265 84.392C38.4186 84.2989 38.1429 84.1611 37.8994 83.9784C37.6559 83.7922 37.4625 83.5613 37.3193 83.2856C37.1796 83.0063 37.1098 82.684 37.1098 82.3188H38.4043C38.4043 82.5515 38.458 82.7574 38.5654 82.9364C38.6764 83.1119 38.8304 83.2498 39.0273 83.35C39.2278 83.4503 39.457 83.5004 39.7148 83.5004C39.9869 83.5004 40.2215 83.4521 40.4184 83.3554C40.6154 83.2587 40.7657 83.1155 40.8696 82.9257C40.977 82.7359 41.0307 82.5068 41.0307 82.2382C41.0307 81.9338 40.9716 81.6868 40.8535 81.497C40.7353 81.3072 40.567 81.1676 40.3486 81.078C40.1302 80.9849 39.8724 80.9384 39.5752 80.9384H38.8017ZM44.1142 76.1742H45.4086V83.1835L45.2851 84.4242H44.1142V76.1742ZM49.2006 81.4648V81.5776C49.2006 82.0072 49.1523 82.4029 49.0556 82.7646C48.9625 83.1226 48.8193 83.4342 48.6259 83.6991C48.4362 83.9641 48.1998 84.17 47.917 84.3168C47.6377 84.46 47.3136 84.5317 46.9448 84.5317C46.5831 84.5317 46.268 84.4636 45.9995 84.3276C45.7309 84.1915 45.5053 83.9981 45.3227 83.7475C45.1437 83.4968 44.9987 83.1978 44.8877 82.8505C44.7767 82.5032 44.6979 82.12 44.6513 81.7011V81.3412C44.6979 80.9187 44.7767 80.5356 44.8877 80.1918C44.9987 79.8445 45.1437 79.5455 45.3227 79.2948C45.5053 79.0406 45.7291 78.8455 45.9941 78.7094C46.2627 78.5733 46.576 78.5053 46.934 78.5053C47.3064 78.5053 47.6341 78.5769 47.917 78.7201C48.2034 78.8634 48.4415 79.0675 48.6313 79.3324C48.8211 79.5938 48.9625 79.9054 49.0556 80.267C49.1523 80.6287 49.2006 81.0279 49.2006 81.4648ZM47.9062 81.5776V81.4648C47.9062 81.2034 47.8847 80.9581 47.8418 80.7289C47.7988 80.4962 47.7272 80.2921 47.6269 80.1166C47.5302 79.9412 47.3977 79.8033 47.2295 79.703C47.0647 79.5992 46.8588 79.5473 46.6118 79.5473C46.3826 79.5473 46.1857 79.5867 46.021 79.6655C45.8562 79.7442 45.7184 79.8516 45.6074 79.9877C45.4964 80.1238 45.4086 80.2813 45.3442 80.4604C45.2833 80.6394 45.2421 80.8328 45.2207 81.0405V82.0126C45.2529 82.2812 45.3209 82.5282 45.4248 82.7538C45.5322 82.9758 45.6826 83.1549 45.8759 83.2909C46.0693 83.4234 46.3182 83.4897 46.6225 83.4897C46.8624 83.4897 47.0647 83.4413 47.2295 83.3447C47.3942 83.248 47.5249 83.1137 47.6215 82.9418C47.7218 82.7664 47.7934 82.5623 47.8364 82.3295C47.8829 82.0968 47.9062 81.8461 47.9062 81.5776Z" fill="white"/>
<path d="M49.1464 105.679V106.71H43.5068L43.4638 105.931L46.8369 100.646H47.8735L46.7509 102.569L44.812 105.679H49.1464ZM48.1689 100.646V108.467H46.8745V100.646H48.1689Z" fill="white"/>
<path d="M51.7539 128.259L50.7226 128.006L51.1469 124.075H55.3632V125.17H52.2211L52.0063 127.088C52.128 127.016 52.2963 126.947 52.5112 126.878C52.726 126.807 52.9713 126.771 53.247 126.771C53.6158 126.771 53.9453 126.832 54.2353 126.954C54.5289 127.072 54.7778 127.245 54.9819 127.475C55.186 127.7 55.3417 127.976 55.4492 128.302C55.5566 128.624 55.6103 128.988 55.6103 129.392C55.6103 129.754 55.5566 130.092 55.4492 130.407C55.3453 130.722 55.1878 131 54.9765 131.24C54.7652 131.48 54.4985 131.668 54.1762 131.804C53.8575 131.936 53.4798 132.002 53.0429 132.002C52.7171 132.002 52.4038 131.956 52.103 131.863C51.8058 131.766 51.539 131.625 51.3027 131.439C51.0664 131.249 50.8766 131.016 50.7333 130.74C50.5901 130.461 50.5078 130.141 50.4863 129.779H51.7539C51.7861 130.033 51.8559 130.25 51.9633 130.429C52.0743 130.604 52.2211 130.738 52.4038 130.832C52.5864 130.925 52.7976 130.971 53.0375 130.971C53.256 130.971 53.444 130.934 53.6015 130.858C53.7591 130.78 53.8898 130.669 53.9936 130.525C54.101 130.379 54.1798 130.207 54.2299 130.01C54.2836 129.813 54.3105 129.594 54.3105 129.355C54.3105 129.125 54.2801 128.916 54.2192 128.726C54.1619 128.536 54.0742 128.372 53.956 128.232C53.8414 128.092 53.6964 127.985 53.5209 127.91C53.3455 127.831 53.1432 127.792 52.914 127.792C52.6061 127.792 52.3697 127.836 52.205 127.926C52.0439 128.015 51.8935 128.126 51.7539 128.259Z" fill="white"/>
<g filter="url(#filter1_d_54360_36252)">
<path fill-rule="evenodd" clip-rule="evenodd" d="M144.839 45.5149C144.288 43.0076 143.588 40.4984 142.842 38.0193C144.869 44.7633 146.566 51.7296 145.814 58.2745C145.903 57.4978 145.958 56.7151 145.982 55.9276C146.085 52.5184 145.608 49.0185 144.839 45.5149Z" fill="#21005D"/>
<path d="M161.746 140C146.552 140 133.579 128.42 128.9 116.089H200.895C188.899 134.191 170.746 139.683 161.746 140Z" fill="#21005D"/>
<path d="M206.484 45.5149C207.516 48.9284 208.398 52.4144 209.119 55.9276C210.013 60.2857 210.659 64.6854 211.041 69.0398H142.477C143.204 67.3071 143.926 65.4511 144.636 63.4478C144.851 62.8403 145.037 62.2271 145.198 61.609C145.38 60.908 145.528 60.2005 145.645 59.4875C145.682 59.2626 145.715 59.0372 145.746 58.8113C145.77 58.6327 145.793 58.4538 145.814 58.2745C145.903 57.4978 145.958 56.7151 145.982 55.9276C146.085 52.5184 145.608 49.0185 144.839 45.5149H206.484Z" fill="#7F67BE"/>
<path d="M207.695 102.399C206.49 105.757 205.099 108.835 203.563 111.654C202.715 113.211 201.823 114.688 200.895 116.089H128.9C128.34 114.616 127.9 113.131 127.588 111.654C127.075 109.228 126.911 106.822 127.14 104.52C127.61 99.8115 128.742 96.0731 130.296 92.5646H210.254C209.645 96.0309 208.796 99.3297 207.695 102.399Z" fill="#381E72"/>
<path d="M211.041 69.0398C211.483 74.0956 211.569 79.0903 211.268 83.8874C211.081 86.8669 210.745 89.7702 210.254 92.5646H130.296C131.585 89.6549 133.165 86.9032 134.897 83.8874L134.917 83.8538C137.27 79.7574 139.905 75.1714 142.477 69.0398H211.041Z" fill="#4F378B"/>
<path d="M196.168 22.1829C197.319 24.0331 198.412 25.9659 199.446 27.9677C202.25 33.3987 204.615 39.3379 206.484 45.5149H144.839C144.288 43.0076 143.588 40.4984 142.842 38.0193C142.419 36.6097 141.98 35.2098 141.547 33.8255L141.546 33.8225C140.902 31.7658 140.269 29.7435 139.71 27.7749C139.164 25.8538 138.69 23.9838 138.345 22.1829H196.168Z" fill="#6750A4"/>
<path d="M145.347 4.40685C149.586 2.29154 154.965 0.773352 161.746 0.200637C175.649 -0.973607 187.519 8.27097 196.168 22.1829H138.345C136.989 15.1122 137.632 9.10543 143.841 5.24547C144.311 4.95349 144.812 4.67379 145.347 4.40685Z" fill="#7F67BE"/>
</g>
<path d="M159.558 11.7734L155.943 10.5864V9.51218L160.584 11.2524V11.9775L159.558 11.7734ZM155.943 12.7939L159.569 11.5854L160.584 11.4028V12.1279L155.943 13.8735V12.7939ZM160.509 14.4912V15.4848H155.938V14.4912H160.509ZM163.114 14.4643H163.221C163.716 14.4643 164.127 14.3999 164.457 14.271C164.79 14.1385 165.055 13.9559 165.252 13.7231C165.449 13.4904 165.59 13.2164 165.676 12.9013C165.762 12.5862 165.805 12.2443 165.805 11.8755V10.5273C165.805 10.2086 165.771 9.92933 165.703 9.68942C165.638 9.44593 165.545 9.24362 165.424 9.08249C165.305 8.91778 165.168 8.79424 165.01 8.71188C164.856 8.62953 164.69 8.58835 164.511 8.58835C164.314 8.58835 164.136 8.63311 163.979 8.72263C163.825 8.80856 163.694 8.92852 163.587 9.08249C163.483 9.23288 163.402 9.41013 163.345 9.61423C163.291 9.81475 163.264 10.0296 163.264 10.2588C163.264 10.4736 163.289 10.6813 163.34 10.8818C163.393 11.0787 163.472 11.2542 163.576 11.4082C163.68 11.5621 163.81 11.6839 163.968 11.7734C164.126 11.8629 164.31 11.9077 164.521 11.9077C164.722 11.9077 164.906 11.8701 165.074 11.7949C165.243 11.7161 165.39 11.6105 165.515 11.478C165.64 11.3455 165.739 11.1969 165.81 11.0322C165.882 10.8675 165.921 10.6992 165.928 10.5273L166.423 10.6777C166.423 10.9498 166.365 11.2184 166.251 11.4834C166.14 11.7448 165.984 11.9847 165.783 12.2031C165.587 12.4179 165.356 12.5898 165.091 12.7187C164.829 12.8476 164.545 12.9121 164.237 12.9121C163.864 12.9121 163.535 12.8423 163.248 12.7026C162.965 12.5594 162.729 12.366 162.539 12.1225C162.353 11.879 162.213 11.5997 162.12 11.2846C162.027 10.9695 161.981 10.6383 161.981 10.291C161.981 9.91501 162.038 9.56231 162.153 9.23288C162.267 8.90345 162.434 8.61341 162.652 8.36276C162.871 8.10853 163.136 7.91159 163.447 7.77194C163.762 7.62871 164.118 7.5571 164.516 7.5571C164.938 7.5571 165.309 7.63946 165.628 7.80417C165.946 7.96888 166.215 8.19626 166.433 8.4863C166.652 8.77634 166.816 9.11293 166.927 9.49606C167.039 9.8792 167.094 10.291 167.094 10.7314V11.188C167.094 11.6499 167.053 12.0957 166.97 12.5254C166.888 12.9515 166.754 13.3471 166.568 13.7124C166.385 14.074 166.143 14.3927 165.843 14.6684C165.545 14.9406 165.18 15.1536 164.747 15.3076C164.317 15.458 163.812 15.5332 163.232 15.5332H163.114V14.4643ZM173.921 10.9194V12.1977C173.921 12.81 173.86 13.3328 173.739 13.7661C173.62 14.1958 173.448 14.5449 173.223 14.8134C172.997 15.082 172.727 15.2789 172.412 15.4043C172.1 15.5296 171.751 15.5923 171.365 15.5923C171.057 15.5923 170.77 15.5529 170.505 15.4741C170.244 15.3953 170.007 15.2718 169.796 15.1035C169.585 14.9352 169.404 14.7186 169.254 14.4536C169.107 14.185 168.992 13.8646 168.91 13.4922C168.831 13.1198 168.792 12.6883 168.792 12.1977V10.9194C168.792 10.3035 168.853 9.78431 168.974 9.36179C169.096 8.93568 169.27 8.59014 169.495 8.32516C169.721 8.05661 169.99 7.86146 170.301 7.73972C170.616 7.61797 170.967 7.5571 171.354 7.5571C171.665 7.5571 171.952 7.59649 172.213 7.67526C172.478 7.75046 172.714 7.87041 172.922 8.03513C173.133 8.19984 173.312 8.41468 173.459 8.67966C173.61 8.94105 173.724 9.25794 173.803 9.63034C173.882 9.99916 173.921 10.4288 173.921 10.9194ZM172.627 12.3803V10.726C172.627 10.4145 172.609 10.1406 172.573 9.90427C172.537 9.66436 172.483 9.46205 172.412 9.29733C172.344 9.12904 172.258 8.99297 172.154 8.88913C172.05 8.78171 171.932 8.70472 171.8 8.65817C171.667 8.60804 171.518 8.58298 171.354 8.58298C171.153 8.58298 170.974 8.62237 170.817 8.70114C170.659 8.77634 170.527 8.89808 170.419 9.06638C170.312 9.23467 170.229 9.45668 170.172 9.73239C170.118 10.0045 170.092 10.3357 170.092 10.726V12.3803C170.092 12.6954 170.109 12.973 170.145 13.2129C170.181 13.4528 170.235 13.6587 170.306 13.8305C170.378 13.9988 170.464 14.1385 170.564 14.2495C170.668 14.3569 170.786 14.4357 170.919 14.4858C171.055 14.5359 171.203 14.561 171.365 14.561C171.569 14.561 171.749 14.5216 171.907 14.4428C172.065 14.3641 172.197 14.2387 172.304 14.0669C172.412 13.8914 172.492 13.664 172.546 13.3847C172.6 13.1054 172.627 12.7706 172.627 12.3803Z" fill="white"/>
<path d="M160.883 29.8889H161.044V30.947H160.953C160.491 30.947 160.092 31.0186 159.755 31.1619C159.422 31.3051 159.148 31.502 158.934 31.7527C158.719 32.0033 158.558 32.297 158.45 32.6335C158.346 32.9666 158.294 33.321 158.294 33.697V34.927C158.294 35.2385 158.328 35.5142 158.396 35.7542C158.464 35.9905 158.559 36.1892 158.681 36.3503C158.806 36.5079 158.95 36.6278 159.111 36.7102C159.272 36.7926 159.446 36.8337 159.632 36.8337C159.825 36.8337 160.001 36.7944 160.158 36.7156C160.316 36.6332 160.45 36.5204 160.561 36.3772C160.672 36.234 160.756 36.0639 160.813 35.8669C160.871 35.67 160.899 35.4552 160.899 35.2224C160.899 35.0004 160.871 34.7927 160.813 34.5994C160.76 34.4024 160.679 34.2306 160.572 34.0837C160.464 33.9333 160.33 33.817 160.169 33.7346C160.011 33.6487 159.829 33.6057 159.621 33.6057C159.363 33.6057 159.129 33.6666 158.917 33.7883C158.71 33.9101 158.541 34.0694 158.413 34.2664C158.287 34.4597 158.219 34.6656 158.208 34.884L157.714 34.7229C157.743 34.3899 157.816 34.0909 157.935 33.8259C158.056 33.561 158.216 33.3354 158.413 33.1492C158.609 32.963 158.837 32.8215 159.095 32.7249C159.356 32.6246 159.643 32.5745 159.954 32.5745C160.334 32.5745 160.663 32.6461 160.942 32.7893C161.222 32.9325 161.453 33.1277 161.635 33.3748C161.821 33.6182 161.959 33.8975 162.049 34.2126C162.142 34.5242 162.188 34.85 162.188 35.1902C162.188 35.5662 162.131 35.9171 162.017 36.2429C161.902 36.5652 161.734 36.8481 161.512 37.0916C161.293 37.335 161.026 37.5248 160.711 37.6609C160.4 37.797 160.045 37.865 159.648 37.865C159.229 37.865 158.855 37.7844 158.525 37.6233C158.199 37.4622 157.922 37.2402 157.693 36.9573C157.467 36.6744 157.295 36.3486 157.177 35.9797C157.059 35.6109 157 35.2206 157 34.8088V34.2717C157 33.6773 157.075 33.1169 157.226 32.5906C157.376 32.0606 157.607 31.5933 157.918 31.1887C158.233 30.7841 158.636 30.4672 159.127 30.238C159.617 30.0053 160.203 29.8889 160.883 29.8889ZM168.822 33.1921V34.4705C168.822 35.0828 168.761 35.6056 168.64 36.0388C168.521 36.4685 168.35 36.8176 168.124 37.0862C167.898 37.3547 167.628 37.5517 167.313 37.677C167.001 37.8023 166.652 37.865 166.266 37.865C165.958 37.865 165.671 37.8256 165.406 37.7468C165.145 37.6681 164.908 37.5445 164.697 37.3762C164.486 37.2079 164.305 36.9913 164.155 36.7263C164.008 36.4578 163.893 36.1373 163.811 35.7649C163.732 35.3925 163.693 34.961 163.693 34.4705V33.1921C163.693 32.5763 163.754 32.057 163.875 31.6345C163.997 31.2084 164.171 30.8629 164.396 30.5979C164.622 30.3293 164.891 30.1342 165.202 30.0125C165.517 29.8907 165.868 29.8298 166.255 29.8298C166.566 29.8298 166.853 29.8692 167.114 29.948C167.379 30.0232 167.615 30.1431 167.823 30.3079C168.034 30.4726 168.213 30.6874 168.36 30.9524C168.511 31.2138 168.625 31.5307 168.704 31.9031C168.783 32.2719 168.822 32.7016 168.822 33.1921ZM167.528 34.6531V32.9988C167.528 32.6873 167.51 32.4133 167.474 32.177C167.438 31.9371 167.385 31.7348 167.313 31.5701C167.245 31.4018 167.159 31.2657 167.055 31.1619C166.951 31.0544 166.833 30.9775 166.701 30.9309C166.568 30.8808 166.42 30.8557 166.255 30.8557C166.054 30.8557 165.875 30.8951 165.718 30.9739C165.56 31.0491 165.428 31.1708 165.32 31.3391C165.213 31.5074 165.13 31.7294 165.073 32.0051C165.019 32.2773 164.993 32.6085 164.993 32.9988V34.6531C164.993 34.9682 165.011 35.2457 165.046 35.4856C165.082 35.7255 165.136 35.9314 165.207 36.1033C165.279 36.2716 165.365 36.4112 165.465 36.5222C165.569 36.6296 165.687 36.7084 165.82 36.7585C165.956 36.8087 166.104 36.8337 166.266 36.8337C166.47 36.8337 166.65 36.7944 166.808 36.7156C166.966 36.6368 167.098 36.5115 167.205 36.3396C167.313 36.1641 167.393 35.9368 167.447 35.6575C167.501 35.3782 167.528 35.0434 167.528 34.6531ZM173.157 33.9011V34.9324H170.316V33.9011H173.157ZM179.829 35.6252C179.829 36.1122 179.716 36.5222 179.49 36.8552C179.265 37.1882 178.957 37.4407 178.566 37.6125C178.18 37.7808 177.743 37.865 177.256 37.865C176.769 37.865 176.33 37.7808 175.94 37.6125C175.55 37.4407 175.242 37.1882 175.016 36.8552C174.79 36.5222 174.678 36.1122 174.678 35.6252C174.678 35.303 174.74 35.0111 174.866 34.7498C174.991 34.4848 175.168 34.2574 175.397 34.0676C175.63 33.8743 175.902 33.7257 176.214 33.6218C176.529 33.518 176.873 33.4661 177.245 33.4661C177.739 33.4661 178.181 33.5574 178.572 33.74C178.962 33.9226 179.268 34.175 179.49 34.4973C179.716 34.8196 179.829 35.1956 179.829 35.6252ZM178.529 35.5608C178.529 35.2994 178.475 35.0702 178.368 34.8733C178.26 34.6764 178.11 34.5242 177.916 34.4167C177.723 34.3093 177.499 34.2556 177.245 34.2556C176.987 34.2556 176.763 34.3093 176.574 34.4167C176.384 34.5242 176.235 34.6764 176.128 34.8733C176.024 35.0702 175.972 35.2994 175.972 35.5608C175.972 35.8258 176.024 36.0549 176.128 36.2483C176.232 36.4381 176.38 36.5831 176.574 36.6833C176.767 36.7836 176.994 36.8337 177.256 36.8337C177.517 36.8337 177.743 36.7836 177.933 36.6833C178.122 36.5831 178.269 36.4381 178.373 36.2483C178.477 36.0549 178.529 35.8258 178.529 35.5608ZM179.651 31.9944C179.651 32.3847 179.547 32.732 179.34 33.0364C179.136 33.3407 178.853 33.5806 178.491 33.7561C178.129 33.928 177.718 34.0139 177.256 34.0139C176.79 34.0139 176.375 33.928 176.01 33.7561C175.648 33.5806 175.363 33.3407 175.156 33.0364C174.952 32.732 174.85 32.3847 174.85 31.9944C174.85 31.5289 174.952 31.1368 175.156 30.8181C175.363 30.4958 175.648 30.2506 176.01 30.0823C176.371 29.914 176.785 29.8298 177.25 29.8298C177.716 29.8298 178.129 29.914 178.491 30.0823C178.853 30.2506 179.136 30.4958 179.34 30.8181C179.547 31.1368 179.651 31.5289 179.651 31.9944ZM178.357 32.0374C178.357 31.8046 178.31 31.6005 178.217 31.425C178.128 31.246 178.001 31.1064 177.836 31.0061C177.671 30.9058 177.476 30.8557 177.25 30.8557C177.025 30.8557 176.83 30.9041 176.665 31.0007C176.5 31.0974 176.373 31.2335 176.284 31.4089C176.194 31.5844 176.149 31.7939 176.149 32.0374C176.149 32.2773 176.194 32.4867 176.284 32.6658C176.373 32.8412 176.5 32.9791 176.665 33.0793C176.833 33.1796 177.03 33.2297 177.256 33.2297C177.481 33.2297 177.677 33.1796 177.841 33.0793C178.006 32.9791 178.133 32.8412 178.223 32.6658C178.312 32.4867 178.357 32.2773 178.357 32.0374ZM182.509 36.7371H182.617C183.111 36.7371 183.523 36.6726 183.852 36.5437C184.185 36.4112 184.45 36.2286 184.647 35.9958C184.844 35.7631 184.985 35.4892 185.071 35.1741C185.157 34.859 185.2 34.517 185.2 34.1482V32.8C185.2 32.4814 185.166 32.2021 185.098 31.9622C185.034 31.7187 184.941 31.5164 184.819 31.3552C184.701 31.1905 184.563 31.067 184.405 30.9846C184.251 30.9023 184.085 30.8611 183.906 30.8611C183.709 30.8611 183.532 30.9058 183.374 30.9954C183.22 31.0813 183.089 31.2013 182.982 31.3552C182.878 31.5056 182.797 31.6829 182.74 31.887C182.686 32.0875 182.66 32.3023 182.66 32.5315C182.66 32.7463 182.685 32.954 182.735 33.1545C182.789 33.3515 182.867 33.5269 182.971 33.6809C183.075 33.8349 183.206 33.9566 183.363 34.0461C183.521 34.1357 183.705 34.1804 183.916 34.1804C184.117 34.1804 184.301 34.1428 184.47 34.0676C184.638 33.9889 184.785 33.8832 184.91 33.7507C185.035 33.6182 185.134 33.4696 185.205 33.3049C185.277 33.1402 185.317 32.9719 185.324 32.8L185.818 32.9504C185.818 33.2226 185.761 33.4911 185.646 33.7561C185.535 34.0175 185.379 34.2574 185.179 34.4758C184.982 34.6907 184.751 34.8625 184.486 34.9915C184.224 35.1204 183.94 35.1848 183.632 35.1848C183.259 35.1848 182.93 35.115 182.643 34.9753C182.361 34.8321 182.124 34.6388 181.935 34.3953C181.748 34.1518 181.609 33.8725 181.516 33.5574C181.422 33.2423 181.376 32.9111 181.376 32.5637C181.376 32.1877 181.433 31.835 181.548 31.5056C181.662 31.1762 181.829 30.8861 182.047 30.6355C182.266 30.3813 182.531 30.1843 182.842 30.0447C183.157 29.9014 183.514 29.8298 183.911 29.8298C184.334 29.8298 184.704 29.9122 185.023 30.0769C185.342 30.2416 185.61 30.469 185.829 30.759C186.047 31.0491 186.212 31.3857 186.323 31.7688C186.434 32.1519 186.489 32.5637 186.489 33.0042V33.4607C186.489 33.9226 186.448 34.3684 186.366 34.7981C186.283 35.2242 186.149 35.6199 185.963 35.9851C185.78 36.3468 185.539 36.6654 185.238 36.9412C184.941 37.2133 184.575 37.4264 184.142 37.5803C183.712 37.7307 183.207 37.8059 182.627 37.8059H182.509V36.7371Z" fill="white"/>
<path d="M169.24 58.2427V59.2739H163.601L163.558 58.4951L166.931 53.21H167.967L166.845 55.1328L164.906 58.2427H169.24ZM168.263 53.21V61.0303H166.968V53.21H168.263ZM171.964 57.3941L170.933 57.1416L171.357 53.21H175.573V54.3057H172.431L172.216 56.2232C172.338 56.1515 172.506 56.0817 172.721 56.0137C172.936 55.9421 173.181 55.9063 173.457 55.9063C173.826 55.9063 174.155 55.9671 174.445 56.0889C174.739 56.207 174.988 56.3807 175.192 56.6099C175.396 56.8355 175.552 57.1112 175.659 57.437C175.767 57.7593 175.82 58.1227 175.82 58.5274C175.82 58.889 175.767 59.2274 175.659 59.5425C175.555 59.8576 175.398 60.1351 175.187 60.375C174.975 60.6149 174.709 60.8029 174.386 60.939C174.068 61.0715 173.69 61.1377 173.253 61.1377C172.927 61.1377 172.614 61.0912 172.313 60.9981C172.016 60.9014 171.749 60.7599 171.513 60.5737C171.276 60.384 171.087 60.1512 170.943 59.8755C170.8 59.5962 170.718 59.2757 170.696 58.9141H171.964C171.996 59.1683 172.066 59.3849 172.173 59.564C172.284 59.7394 172.431 59.8737 172.614 59.9668C172.796 60.0599 173.008 60.1065 173.248 60.1065C173.466 60.1065 173.654 60.0689 173.812 59.9937C173.969 59.9149 174.1 59.8039 174.204 59.6607C174.311 59.5138 174.39 59.342 174.44 59.145C174.494 58.9481 174.521 58.7297 174.521 58.4898C174.521 58.2606 174.49 58.0511 174.429 57.8613C174.372 57.6716 174.284 57.5069 174.166 57.3672C174.051 57.2276 173.906 57.1201 173.731 57.0449C173.556 56.9662 173.353 56.9268 173.124 56.9268C172.816 56.9268 172.58 56.9715 172.415 57.0611C172.254 57.1506 172.104 57.2616 171.964 57.3941ZM180.037 57.1738V58.2051H177.196V57.1738H180.037ZM182.954 57.3941L181.923 57.1416L182.347 53.21H186.563V54.3057H183.421L183.207 56.2232C183.328 56.1515 183.497 56.0817 183.711 56.0137C183.926 55.9421 184.172 55.9063 184.447 55.9063C184.816 55.9063 185.146 55.9671 185.436 56.0889C185.729 56.207 185.978 56.3807 186.182 56.6099C186.386 56.8355 186.542 57.1112 186.649 57.437C186.757 57.7593 186.811 58.1227 186.811 58.5274C186.811 58.889 186.757 59.2274 186.649 59.5425C186.546 59.8576 186.388 60.1351 186.177 60.375C185.966 60.6149 185.699 60.8029 185.376 60.939C185.058 61.0715 184.68 61.1377 184.243 61.1377C183.917 61.1377 183.604 61.0912 183.303 60.9981C183.006 60.9014 182.739 60.7599 182.503 60.5737C182.267 60.384 182.077 60.1512 181.934 59.8755C181.79 59.5962 181.708 59.2757 181.687 58.9141H182.954C182.986 59.1683 183.056 59.3849 183.164 59.564C183.275 59.7394 183.421 59.8737 183.604 59.9668C183.787 60.0599 183.998 60.1065 184.238 60.1065C184.456 60.1065 184.644 60.0689 184.802 59.9937C184.959 59.9149 185.09 59.8039 185.194 59.6607C185.301 59.5138 185.38 59.342 185.43 59.145C185.484 58.9481 185.511 58.7297 185.511 58.4898C185.511 58.2606 185.48 58.0511 185.419 57.8613C185.362 57.6716 185.274 57.5069 185.156 57.3672C185.042 57.2276 184.897 57.1201 184.721 57.0449C184.546 56.9662 184.343 56.9268 184.114 56.9268C183.806 56.9268 183.57 56.9715 183.405 57.0611C183.244 57.1506 183.094 57.2616 182.954 57.3941ZM189.389 60.0098H189.497C189.991 60.0098 190.403 59.9453 190.732 59.8164C191.065 59.6839 191.33 59.5013 191.527 59.2686C191.724 59.0358 191.865 58.7619 191.951 58.4468C192.037 58.1317 192.08 57.7897 192.08 57.4209V56.0728C192.08 55.7541 192.046 55.4748 191.978 55.2349C191.914 54.9914 191.82 54.7891 191.699 54.6279C191.581 54.4632 191.443 54.3397 191.285 54.2573C191.131 54.175 190.965 54.1338 190.786 54.1338C190.589 54.1338 190.411 54.1786 190.254 54.2681C190.1 54.354 189.969 54.474 189.862 54.6279C189.758 54.7783 189.677 54.9556 189.62 55.1597C189.566 55.3602 189.54 55.575 189.54 55.8042C189.54 56.0191 189.565 56.2267 189.615 56.4273C189.668 56.6242 189.747 56.7997 189.851 56.9536C189.955 57.1076 190.086 57.2293 190.243 57.3189C190.401 57.4084 190.585 57.4531 190.796 57.4531C190.997 57.4531 191.181 57.4155 191.35 57.3403C191.518 57.2616 191.665 57.1559 191.79 57.0235C191.915 56.891 192.014 56.7424 192.085 56.5777C192.157 56.4129 192.196 56.2446 192.204 56.0728L192.698 56.2232C192.698 56.4953 192.64 56.7638 192.526 57.0288C192.415 57.2902 192.259 57.5301 192.059 57.7486C191.862 57.9634 191.631 58.1353 191.366 58.2642C191.104 58.3931 190.82 58.4575 190.512 58.4575C190.139 58.4575 189.81 58.3877 189.523 58.2481C189.241 58.1048 189.004 57.9115 188.814 57.668C188.628 57.4245 188.489 57.1452 188.396 56.8301C188.302 56.515 188.256 56.1838 188.256 55.8364C188.256 55.4605 188.313 55.1078 188.428 54.7783C188.542 54.4489 188.709 54.1589 188.927 53.9082C189.146 53.654 189.411 53.457 189.722 53.3174C190.037 53.1742 190.394 53.1026 190.791 53.1026C191.214 53.1026 191.584 53.1849 191.903 53.3496C192.222 53.5143 192.49 53.7417 192.709 54.0318C192.927 54.3218 193.092 54.6584 193.203 55.0415C193.314 55.4247 193.369 55.8364 193.369 56.2769V56.7334C193.369 57.1953 193.328 57.6411 193.246 58.0708C193.163 58.4969 193.029 58.8926 192.843 59.2578C192.66 59.6195 192.418 59.9382 192.118 60.2139C191.82 60.486 191.455 60.6991 191.022 60.853C190.592 61.0034 190.087 61.0786 189.507 61.0786H189.389V60.0098Z" fill="white"/>
<path d="M165.373 80.9286H166.147C166.447 80.9286 166.696 80.8767 166.893 80.7729C167.094 80.669 167.242 80.5258 167.339 80.3432C167.436 80.1606 167.484 79.9511 167.484 79.7148C167.484 79.4677 167.439 79.2564 167.35 79.081C167.264 78.9019 167.131 78.7641 166.952 78.6674C166.777 78.5707 166.553 78.5224 166.281 78.5224C166.052 78.5224 165.844 78.5689 165.658 78.662C165.475 78.7515 165.33 78.8804 165.223 79.0487C165.115 79.2135 165.062 79.4104 165.062 79.6396H163.762C163.762 79.2242 163.871 78.8554 164.089 78.5331C164.308 78.2108 164.605 77.9584 164.981 77.7758C165.361 77.5896 165.787 77.4965 166.259 77.4965C166.764 77.4965 167.205 77.5806 167.581 77.7489C167.96 77.9136 168.256 78.1607 168.467 78.4901C168.678 78.8196 168.784 79.2278 168.784 79.7148C168.784 79.9368 168.732 80.1623 168.628 80.3915C168.524 80.6207 168.37 80.8301 168.166 81.0199C167.962 81.2061 167.708 81.3583 167.403 81.4765C167.099 81.5911 166.746 81.6483 166.345 81.6483H165.373V80.9286ZM165.373 81.9384V81.2294H166.345C166.804 81.2294 167.194 81.2831 167.516 81.3905C167.842 81.498 168.107 81.6466 168.311 81.8363C168.515 82.0225 168.664 82.2356 168.757 82.4755C168.854 82.7154 168.902 82.9696 168.902 83.2382C168.902 83.6034 168.836 83.9293 168.703 84.2157C168.574 84.4986 168.39 84.7385 168.15 84.9355C167.91 85.1324 167.629 85.281 167.307 85.3813C166.988 85.4815 166.641 85.5316 166.265 85.5316C165.928 85.5316 165.606 85.4851 165.298 85.392C164.99 85.2989 164.714 85.161 164.471 84.9784C164.227 84.7922 164.034 84.5613 163.891 84.2856C163.751 84.0063 163.681 83.684 163.681 83.3188H164.976C164.976 83.5515 165.029 83.7574 165.137 83.9364C165.248 84.1119 165.402 84.2497 165.599 84.35C165.799 84.4503 166.028 84.5004 166.286 84.5004C166.558 84.5004 166.793 84.4521 166.99 84.3554C167.187 84.2587 167.337 84.1155 167.441 83.9257C167.548 83.7359 167.602 83.5067 167.602 83.2382C167.602 82.9338 167.543 82.6868 167.425 82.497C167.307 82.3072 167.138 82.1676 166.92 82.078C166.702 81.9849 166.444 81.9384 166.147 81.9384H165.373ZM175.702 80.8588V82.1371C175.702 82.7494 175.641 83.2722 175.52 83.7055C175.401 84.1352 175.23 84.4843 175.004 84.7528C174.778 85.0214 174.508 85.2183 174.193 85.3437C173.881 85.469 173.532 85.5316 173.146 85.5316C172.838 85.5316 172.551 85.4923 172.286 85.4135C172.025 85.3347 171.788 85.2112 171.577 85.0429C171.366 84.8746 171.185 84.6579 171.035 84.393C170.888 84.1244 170.773 83.8039 170.691 83.4315C170.612 83.0592 170.573 82.6277 170.573 82.1371V80.8588C170.573 80.2429 170.634 79.7237 170.755 79.3012C170.877 78.8751 171.051 78.5295 171.276 78.2646C171.502 77.996 171.771 77.8009 172.082 77.6791C172.397 77.5574 172.748 77.4965 173.135 77.4965C173.446 77.4965 173.733 77.5359 173.994 77.6147C174.259 77.6898 174.495 77.8098 174.703 77.9745C174.914 78.1392 175.093 78.3541 175.24 78.619C175.391 78.8804 175.505 79.1973 175.584 79.5697C175.663 79.9385 175.702 80.3682 175.702 80.8588ZM174.408 82.3197V80.6654C174.408 80.3539 174.39 80.08 174.354 79.8437C174.318 79.6037 174.265 79.4014 174.193 79.2367C174.125 79.0684 174.039 78.9324 173.935 78.8285C173.831 78.7211 173.713 78.6441 173.581 78.5976C173.448 78.5474 173.3 78.5224 173.135 78.5224C172.934 78.5224 172.755 78.5618 172.598 78.6405C172.44 78.7157 172.308 78.8375 172.2 79.0058C172.093 79.1741 172.01 79.3961 171.953 79.6718C171.899 79.9439 171.873 80.2751 171.873 80.6654V82.3197C171.873 82.6348 171.89 82.9123 171.926 83.1523C171.962 83.3922 172.016 83.5981 172.087 83.7699C172.159 83.9382 172.245 84.0779 172.345 84.1889C172.449 84.2963 172.567 84.3751 172.7 84.4252C172.836 84.4753 172.984 84.5004 173.146 84.5004C173.35 84.5004 173.53 84.461 173.688 84.3822C173.846 84.3035 173.978 84.1781 174.085 84.0063C174.193 83.8308 174.273 83.6034 174.327 83.3241C174.381 83.0448 174.408 82.71 174.408 82.3197ZM180.037 81.5678V82.599H177.196V81.5678H180.037ZM186.982 82.6366V83.6679H181.343L181.3 82.8891L184.673 77.6039H185.709L184.587 79.5268L182.648 82.6366H186.982ZM186.005 77.6039V85.4242H184.71V77.6039H186.005ZM193.734 82.6366V83.6679H188.095L188.052 82.8891L191.425 77.6039H192.461L191.339 79.5268L189.4 82.6366H193.734ZM192.757 77.6039V85.4242H191.462V77.6039H192.757Z" fill="white"/>
<path d="M159.978 100.971V108.818H158.684V102.507L156.766 103.157V102.088L159.822 100.971H159.978ZM164.555 105.182L163.523 104.929L163.948 100.998H168.164V102.094H165.022L164.807 104.011C164.929 103.939 165.097 103.87 165.312 103.802C165.527 103.73 165.772 103.694 166.048 103.694C166.417 103.694 166.746 103.755 167.036 103.877C167.33 103.995 167.579 104.169 167.783 104.398C167.987 104.623 168.143 104.899 168.25 105.225C168.357 105.547 168.411 105.911 168.411 106.315C168.411 106.677 168.357 107.015 168.25 107.33C168.146 107.645 167.989 107.923 167.777 108.163C167.566 108.403 167.299 108.591 166.977 108.727C166.658 108.859 166.281 108.926 165.844 108.926C165.518 108.926 165.205 108.879 164.904 108.786C164.607 108.689 164.34 108.548 164.104 108.362C163.867 108.172 163.677 107.939 163.534 107.663C163.391 107.384 163.309 107.064 163.287 106.702H164.555C164.587 106.956 164.657 107.173 164.764 107.352C164.875 107.527 165.022 107.662 165.205 107.755C165.387 107.848 165.599 107.894 165.838 107.894C166.057 107.894 166.245 107.857 166.402 107.782C166.56 107.703 166.691 107.592 166.794 107.449C166.902 107.302 166.981 107.13 167.031 106.933C167.085 106.736 167.111 106.518 167.111 106.278C167.111 106.048 167.081 105.839 167.02 105.649C166.963 105.459 166.875 105.295 166.757 105.155C166.642 105.015 166.497 104.908 166.322 104.833C166.146 104.754 165.944 104.715 165.715 104.715C165.407 104.715 165.171 104.759 165.006 104.849C164.845 104.938 164.694 105.049 164.555 105.182ZM172.628 104.962V105.993H169.787V104.962H172.628ZM179.428 107.787V108.818H174.186V107.932L176.732 105.155C177.011 104.84 177.231 104.568 177.393 104.339C177.554 104.11 177.667 103.904 177.731 103.721C177.799 103.535 177.833 103.354 177.833 103.179C177.833 102.931 177.786 102.715 177.693 102.529C177.604 102.339 177.471 102.19 177.296 102.083C177.12 101.972 176.907 101.916 176.657 101.916C176.367 101.916 176.123 101.979 175.926 102.104C175.729 102.23 175.581 102.403 175.48 102.625C175.38 102.844 175.33 103.094 175.33 103.377H174.036C174.036 102.922 174.14 102.507 174.347 102.131C174.555 101.752 174.856 101.451 175.25 101.229C175.643 101.003 176.118 100.89 176.673 100.89C177.196 100.89 177.64 100.978 178.005 101.154C178.37 101.329 178.648 101.578 178.837 101.9C179.031 102.222 179.127 102.604 179.127 103.044C179.127 103.288 179.088 103.529 179.009 103.769C178.931 104.009 178.818 104.249 178.671 104.489C178.528 104.725 178.358 104.964 178.161 105.203C177.964 105.44 177.747 105.68 177.511 105.923L175.819 107.787H179.428ZM181.98 107.798H182.087C182.582 107.798 182.993 107.733 183.323 107.604C183.656 107.472 183.921 107.289 184.118 107.056C184.315 106.824 184.456 106.55 184.542 106.235C184.628 105.92 184.671 105.578 184.671 105.209V103.861C184.671 103.542 184.637 103.263 184.569 103.023C184.504 102.779 184.411 102.577 184.29 102.416C184.171 102.251 184.034 102.128 183.876 102.045C183.722 101.963 183.556 101.922 183.376 101.922C183.18 101.922 183.002 101.966 182.845 102.056C182.691 102.142 182.56 102.262 182.453 102.416C182.349 102.566 182.268 102.743 182.211 102.948C182.157 103.148 182.13 103.363 182.13 103.592C182.13 103.807 182.155 104.015 182.206 104.215C182.259 104.412 182.338 104.588 182.442 104.742C182.546 104.895 182.676 105.017 182.834 105.107C182.992 105.196 183.176 105.241 183.387 105.241C183.588 105.241 183.772 105.203 183.94 105.128C184.109 105.049 184.256 104.944 184.381 104.811C184.506 104.679 184.605 104.53 184.676 104.366C184.748 104.201 184.787 104.033 184.794 103.861L185.289 104.011C185.289 104.283 185.231 104.552 185.117 104.817C185.006 105.078 184.85 105.318 184.649 105.536C184.453 105.751 184.222 105.923 183.957 106.052C183.695 106.181 183.411 106.245 183.103 106.245C182.73 106.245 182.401 106.176 182.114 106.036C181.831 105.893 181.595 105.699 181.405 105.456C181.219 105.212 181.079 104.933 180.986 104.618C180.893 104.303 180.847 103.972 180.847 103.624C180.847 103.248 180.904 102.896 181.019 102.566C181.133 102.237 181.3 101.947 181.518 101.696C181.737 101.442 182.001 101.245 182.313 101.105C182.628 100.962 182.984 100.89 183.382 100.89C183.804 100.89 184.175 100.973 184.494 101.138C184.812 101.302 185.081 101.53 185.299 101.82C185.518 102.11 185.682 102.446 185.793 102.829C185.904 103.213 185.96 103.624 185.96 104.065V104.521C185.96 104.983 185.919 105.429 185.836 105.859C185.754 106.285 185.62 106.68 185.434 107.046C185.251 107.407 185.009 107.726 184.709 108.002C184.411 108.274 184.046 108.487 183.613 108.641C183.183 108.791 182.678 108.867 182.098 108.867H181.98V107.798Z" fill="white"/>
<path d="M151.344 127.562L154.895 128.921V130.194L150.367 128.196V127.353L151.344 127.562ZM154.895 126.45L151.344 127.831L150.367 128.019V127.175L154.895 125.183V126.45ZM160.256 123.244V131.091H158.961V124.78L157.044 125.43V124.361L160.1 123.244H160.256ZM164.832 127.455L163.801 127.202L164.225 123.271H168.442V124.366H165.3L165.085 126.284C165.206 126.212 165.375 126.142 165.59 126.074C165.804 126.003 166.05 125.967 166.325 125.967C166.694 125.967 167.024 126.028 167.314 126.149C167.607 126.268 167.856 126.441 168.06 126.67C168.264 126.896 168.42 127.172 168.528 127.498C168.635 127.82 168.689 128.183 168.689 128.588C168.689 128.95 168.635 129.288 168.528 129.603C168.424 129.918 168.266 130.196 168.055 130.436C167.844 130.676 167.577 130.864 167.255 131C166.936 131.132 166.558 131.198 166.121 131.198C165.795 131.198 165.482 131.152 165.181 131.059C164.884 130.962 164.617 130.821 164.381 130.634C164.145 130.445 163.955 130.212 163.812 129.936C163.669 129.657 163.586 129.336 163.565 128.975H164.832C164.865 129.229 164.934 129.446 165.042 129.625C165.153 129.8 165.3 129.934 165.482 130.027C165.665 130.121 165.876 130.167 166.116 130.167C166.334 130.167 166.522 130.129 166.68 130.054C166.837 129.975 166.968 129.864 167.072 129.721C167.179 129.574 167.258 129.403 167.308 129.206C167.362 129.009 167.389 128.79 167.389 128.55C167.389 128.321 167.358 128.112 167.298 127.922C167.24 127.732 167.153 127.567 167.034 127.428C166.92 127.288 166.775 127.181 166.599 127.106C166.424 127.027 166.222 126.987 165.992 126.987C165.684 126.987 165.448 127.032 165.283 127.122C165.122 127.211 164.972 127.322 164.832 127.455Z" fill="white"/>
<defs>
<filter id="filter0_d_54360_36252" x="0" y="0" width="92.4062" height="147.9" filterUnits="userSpaceOnUse" color-interpolation-filters="sRGB">
<feFlood flood-opacity="0" result="BackgroundImageFix"/>
<feColorMatrix in="SourceAlpha" type="matrix" values="0 0 0 0 0 0 0 0 0 0 0 0 0 0 0 0 0 0 127 0" result="hardAlpha"/>
<feOffset dy="4"/>
<feGaussianBlur stdDeviation="2"/>
<feComposite in2="hardAlpha" operator="out"/>
<feColorMatrix type="matrix" values="0 0 0 0 0 0 0 0 0 0 0 0 0 0 0 0 0 0 0.25 0"/>
<feBlend mode="normal" in2="BackgroundImageFix" result="effect1_dropShadow_54360_36252"/>
<feBlend mode="normal" in="SourceGraphic" in2="effect1_dropShadow_54360_36252" result="shape"/>
</filter>
<filter id="filter1_d_54360_36252" x="123.039" y="0.100327" width="92.4062" height="147.9" filterUnits="userSpaceOnUse" color-interpolation-filters="sRGB">
<feFlood flood-opacity="0" result="BackgroundImageFix"/>
<feColorMatrix in="SourceAlpha" type="matrix" values="0 0 0 0 0 0 0 0 0 0 0 0 0 0 0 0 0 0 127 0" result="hardAlpha"/>
<feOffset dy="4"/>
<feGaussianBlur stdDeviation="2"/>
<feComposite in2="hardAlpha" operator="out"/>
<feColorMatrix type="matrix" values="0 0 0 0 0 0 0 0 0 0 0 0 0 0 0 0 0 0 0.25 0"/>
<feBlend mode="normal" in2="BackgroundImageFix" result="effect1_dropShadow_54360_36252"/>
<feBlend mode="normal" in="SourceGraphic" in2="effect1_dropShadow_54360_36252" result="shape"/>
</filter>
</defs>
</svg>
