<svg width="270" height="200" viewBox="0 0 270 200" fill="none" xmlns="http://www.w3.org/2000/svg">
<path d="M265.991 171.832H0.530857C0.413504 171.832 0.300958 171.785 0.217977 171.702C0.134997 171.619 0.0883789 171.507 0.0883789 171.389C0.0883789 171.272 0.134997 171.159 0.217977 171.077C0.300958 170.994 0.413504 170.947 0.530857 170.947H266.018C266.134 170.949 266.245 170.997 266.328 171.079C266.41 171.161 266.458 171.273 266.46 171.389C266.46 171.45 266.448 171.51 266.424 171.565C266.4 171.621 266.365 171.671 266.321 171.712C266.277 171.753 266.225 171.786 266.169 171.806C266.112 171.827 266.051 171.835 265.991 171.832Z" fill="#EADDFF"/>
<path d="M244.425 188.894H83.4688L107.531 1.15045H268.495L244.425 188.894Z" fill="white"/>
<path d="M244.433 189.381H83.4688C83.4052 189.381 83.3423 189.368 83.2842 189.342C83.2262 189.316 83.1745 189.278 83.1325 189.23C83.092 189.183 83.0617 189.128 83.0434 189.069C83.0251 189.009 83.0193 188.947 83.0263 188.885L107.079 1.09735C107.092 0.990935 107.143 0.892803 107.223 0.821187C107.303 0.749571 107.406 0.709339 107.513 0.707968H268.495C268.559 0.70734 268.622 0.720479 268.68 0.746483C268.738 0.772487 268.79 0.810744 268.832 0.858639C268.874 0.906534 268.906 0.962936 268.924 1.02399C268.942 1.08504 268.947 1.14931 268.938 1.21239L244.867 188.947C244.865 189.061 244.818 189.17 244.738 189.251C244.657 189.332 244.548 189.378 244.433 189.381ZM83.9732 188.496H244.035L267.991 1.59292H107.964L83.9732 188.496Z" fill="#21005D"/>
<path d="M245.133 24.0177H143.097C142.591 24.0309 142.087 23.9321 141.623 23.7282C141.159 23.5243 140.746 23.2205 140.412 22.8384C140.079 22.4562 139.835 22.0053 139.696 21.5177C139.558 21.0301 139.528 20.5179 139.611 20.0177L139.876 17.938C140.038 16.8479 140.58 15.85 141.405 15.1199C142.231 14.3899 143.288 13.9745 144.389 13.9469H246.416C246.922 13.9339 247.424 14.0326 247.888 14.2359C248.351 14.4393 248.764 14.7423 249.097 15.1234C249.43 15.5045 249.675 15.9543 249.814 16.4408C249.953 16.9273 249.983 17.4385 249.903 17.938L249.628 20.0177C249.469 21.1065 248.93 22.1042 248.108 22.8357C247.286 23.5671 246.233 23.9856 245.133 24.0177Z" fill="#D0BCFF"/>
<path d="M128.787 15.5929H119.69C119.573 15.5929 119.46 15.5463 119.377 15.4633C119.294 15.3803 119.248 15.2678 119.248 15.1504C119.25 15.0338 119.297 14.9225 119.38 14.8401C119.462 14.7576 119.573 14.7102 119.69 14.7079H128.787C128.904 14.7102 129.015 14.7576 129.098 14.8401C129.18 14.9225 129.228 15.0338 129.23 15.1504C129.23 15.2678 129.183 15.3803 129.1 15.4633C129.017 15.5463 128.905 15.5929 128.787 15.5929Z" fill="#EADDFF"/>
<path d="M128.318 19.5841H119.177C119.06 19.5841 118.947 19.5374 118.864 19.4545C118.781 19.3715 118.734 19.2589 118.734 19.1416C118.734 19.0242 118.781 18.9117 118.864 18.8287C118.947 18.7457 119.06 18.6991 119.177 18.6991H128.318C128.436 18.6991 128.548 18.7457 128.631 18.8287C128.714 18.9117 128.761 19.0242 128.761 19.1416C128.761 19.2589 128.714 19.3715 128.631 19.4545C128.548 19.5374 128.436 19.5841 128.318 19.5841Z" fill="#EADDFF"/>
<path d="M127.761 23.5664H118.672C118.555 23.5664 118.443 23.5197 118.36 23.4368C118.277 23.3538 118.23 23.2412 118.23 23.1239C118.23 23.0065 118.277 22.894 118.36 22.811C118.443 22.728 118.555 22.6814 118.672 22.6814H127.761C127.878 22.6814 127.991 22.728 128.074 22.811C128.157 22.894 128.203 23.0065 128.203 23.1239C128.203 23.2412 128.157 23.3538 128.074 23.4368C127.991 23.5197 127.878 23.5664 127.761 23.5664Z" fill="#EADDFF"/>
<path d="M128.787 15.5929H119.69C119.573 15.5929 119.46 15.5463 119.377 15.4633C119.294 15.3803 119.248 15.2678 119.248 15.1504C119.25 15.0338 119.297 14.9225 119.38 14.8401C119.462 14.7576 119.573 14.7102 119.69 14.7079H128.787C128.904 14.7102 129.015 14.7576 129.098 14.8401C129.18 14.9225 129.228 15.0338 129.23 15.1504C129.23 15.2678 129.183 15.3803 129.1 15.4633C129.017 15.5463 128.905 15.5929 128.787 15.5929Z" stroke="#21005D" stroke-linecap="round" stroke-linejoin="round"/>
<path d="M128.318 19.5841H119.177C119.06 19.5841 118.947 19.5374 118.864 19.4545C118.781 19.3715 118.734 19.2589 118.734 19.1416C118.734 19.0242 118.781 18.9117 118.864 18.8287C118.947 18.7457 119.06 18.6991 119.177 18.6991H128.318C128.436 18.6991 128.548 18.7457 128.631 18.8287C128.714 18.9117 128.761 19.0242 128.761 19.1416C128.761 19.2589 128.714 19.3715 128.631 19.4545C128.548 19.5374 128.436 19.5841 128.318 19.5841Z" stroke="#21005D" stroke-linecap="round" stroke-linejoin="round"/>
<path d="M127.761 23.5664H118.672C118.555 23.5664 118.443 23.5197 118.36 23.4368C118.277 23.3538 118.23 23.2412 118.23 23.1239C118.23 23.0065 118.277 22.894 118.36 22.811C118.443 22.728 118.555 22.6814 118.672 22.6814H127.761C127.878 22.6814 127.991 22.728 128.074 22.811C128.157 22.894 128.203 23.0065 128.203 23.1239C128.203 23.2412 128.157 23.3538 128.074 23.4368C127.991 23.5197 127.878 23.5664 127.761 23.5664Z" stroke="#21005D" stroke-linecap="round" stroke-linejoin="round"/>
<path d="M238.61 73.1593H120.805C119.495 73.194 118.193 72.9395 116.992 72.414C115.792 71.8886 114.722 71.105 113.858 70.119C112.995 69.133 112.359 67.9689 111.996 66.7094C111.634 65.4499 111.553 64.126 111.761 62.8318L113.699 47.6903C114.107 44.853 115.505 42.2515 117.646 40.3454C119.787 38.4394 122.532 37.3516 125.398 37.2743H243.212C244.522 37.2467 245.823 37.5078 247.021 38.0393C248.219 38.5707 249.285 39.3594 250.144 40.3494C251.003 41.3393 251.634 42.5062 251.991 43.7673C252.349 45.0283 252.424 46.3526 252.212 47.646L250.309 62.8318C249.884 65.6537 248.478 68.2354 246.339 70.124C244.199 72.0125 241.463 73.0872 238.61 73.1593Z" fill="white"/>
<path d="M238.61 73.6018H120.805C119.439 73.6292 118.084 73.3611 116.831 72.8158C115.579 72.2705 114.459 71.4609 113.549 70.4425C112.643 69.3942 111.975 68.1628 111.591 66.8324C111.206 65.502 111.113 64.1041 111.318 62.7345L113.274 47.5929C113.708 44.6603 115.161 41.9741 117.378 40.0062C119.595 38.0383 122.435 36.9144 125.398 36.8319H243.212C244.573 36.8094 245.923 37.0799 247.171 37.625C248.418 38.1701 249.534 38.977 250.442 39.9912C251.347 41.0413 252.015 42.2744 252.4 43.6061C252.785 44.9379 252.878 46.337 252.672 47.708L250.752 62.8319C250.318 65.7683 248.863 68.4578 246.642 70.4276C244.422 72.3973 241.578 73.5213 238.61 73.6018ZM125.398 37.7168C122.65 37.7974 120.017 38.8427 117.963 40.6695C115.908 42.4963 114.561 44.988 114.159 47.708L112.195 62.8319C112.009 64.0765 112.093 65.3465 112.441 66.5557C112.789 67.765 113.393 68.8853 114.212 69.8407C115.04 70.7639 116.058 71.4972 117.196 71.9905C118.334 72.4839 119.565 72.7256 120.805 72.6991H238.61C241.361 72.6247 243.997 71.5831 246.056 69.7574C248.115 67.9317 249.464 65.4388 249.867 62.7168L251.814 47.5752C252 46.3292 251.916 45.0578 251.568 43.8471C251.22 42.6364 250.616 41.5146 249.796 40.5575C248.969 39.636 247.952 38.9036 246.816 38.4104C245.68 37.9171 244.451 37.6745 243.212 37.6991L125.398 37.7168Z" fill="#21005D"/>
<path d="M144.093 63.7324C149.443 58.7133 150.202 50.8302 145.788 46.125C141.375 41.4197 133.459 41.6742 128.109 46.6933C122.758 51.7124 121.999 59.5955 126.413 64.3008C130.827 69.006 138.742 68.7515 144.093 63.7324Z" fill="#6750A4"/>
<path d="M144.62 51.2567C144.523 51.3834 144.42 51.5046 144.31 51.6195L133.735 60.9823C133.372 61.3009 133.124 61.3098 132.85 60.9823L128.319 55.531C128.071 55.236 128.115 54.941 128.452 54.646L129.929 53.4602C130.239 53.2124 130.496 53.2124 130.726 53.4602L133.434 56.6372C133.717 56.9646 133.956 56.9735 134.319 56.6372L142.478 49.4514C142.832 49.1416 143.08 49.1416 143.363 49.4514C143.646 49.7611 144.089 50.2744 144.443 50.6903C144.522 50.7965 144.575 50.9292 144.646 51.0443L144.62 51.2567Z" fill="white"/>
<path d="M236.018 49.7788H160.274C159.922 49.7788 159.585 49.6389 159.336 49.39C159.087 49.141 158.947 48.8034 158.947 48.4513C158.947 48.0993 159.087 47.7616 159.336 47.5127C159.585 47.2638 159.922 47.1239 160.274 47.1239H236.018C236.37 47.1239 236.707 47.2638 236.956 47.5127C237.205 47.7616 237.345 48.0993 237.345 48.4513C237.345 48.8034 237.205 49.141 236.956 49.39C236.707 49.6389 236.37 49.7788 236.018 49.7788Z" fill="#D0BCFF"/>
<path d="M218.938 62.5487H158.637C158.285 62.5487 157.947 62.4088 157.698 62.1599C157.449 61.9109 157.31 61.5733 157.31 61.2212C157.31 60.8692 157.449 60.5315 157.698 60.2826C157.947 60.0337 158.285 59.8938 158.637 59.8938H218.938C219.29 59.8938 219.628 60.0337 219.877 60.2826C220.125 60.5315 220.265 60.8692 220.265 61.2212C220.265 61.5733 220.125 61.9109 219.877 62.1599C219.628 62.4088 219.29 62.5487 218.938 62.5487Z" fill="#D0BCFF"/>
<path d="M233.283 114.673H115.477C114.163 114.707 112.858 114.451 111.654 113.922C110.451 113.393 109.379 112.606 108.515 111.615C107.651 110.624 107.016 109.455 106.656 108.191C106.297 106.926 106.22 105.598 106.433 104.301L108.38 89.1593C108.792 86.3253 110.192 83.7279 112.332 81.8255C114.473 79.923 117.216 78.8377 120.079 78.7611H237.885C239.199 78.7301 240.504 78.9898 241.707 79.5216C242.909 80.0534 243.979 80.8443 244.841 81.8376C245.702 82.831 246.334 84.0023 246.69 85.268C247.046 86.5337 247.119 87.8624 246.902 89.1593L244.964 104.301C244.549 107.128 243.15 109.718 241.013 111.615C238.876 113.512 236.139 114.595 233.283 114.673Z" fill="white"/>
<path d="M233.292 115.115H115.478C114.114 115.142 112.761 114.875 111.51 114.331C110.259 113.788 109.141 112.98 108.23 111.965C107.326 110.914 106.659 109.681 106.274 108.349C105.889 107.018 105.796 105.619 106 104.248L107.965 89.1062C108.403 86.1729 109.859 83.4876 112.08 81.5214C114.3 79.5552 117.142 78.4338 120.106 78.354H237.885C239.25 78.3266 240.605 78.5938 241.857 79.1375C243.109 79.6812 244.23 80.4885 245.142 81.5044C246.045 82.5558 246.711 83.789 247.096 85.1204C247.48 86.4517 247.575 87.8503 247.372 89.2212L245.425 104.363C244.989 107.295 243.534 109.981 241.315 111.947C239.096 113.913 236.256 115.035 233.292 115.115ZM120.08 79.2389C117.335 79.3229 114.707 80.3685 112.654 82.193C110.601 84.0175 109.255 86.505 108.85 89.2212L106.912 104.363C106.726 105.609 106.81 106.88 107.158 108.091C107.506 109.302 108.11 110.423 108.929 111.381C109.757 112.301 110.774 113.032 111.91 113.524C113.047 114.015 114.276 114.256 115.513 114.23H233.292C236.042 114.154 238.678 113.112 240.736 111.286C242.795 109.461 244.144 106.969 244.549 104.248L246.487 89.1062C246.677 87.8601 246.595 86.5877 246.247 85.3764C245.898 84.165 245.292 83.0434 244.469 82.0885C243.641 81.1676 242.625 80.4363 241.488 79.9445C240.352 79.4527 239.123 79.212 237.885 79.2389H120.08Z" fill="#21005D"/>
<path d="M129.204 109.637C127.577 109.669 125.963 109.349 124.472 108.698C122.981 108.047 121.649 107.082 120.566 105.867C119.491 104.616 118.698 103.148 118.239 101.563C117.781 99.9783 117.67 98.3134 117.912 96.6814C118.427 93.1754 120.164 89.964 122.816 87.6132C125.468 85.2625 128.865 83.9234 132.407 83.8319C134.034 83.7993 135.649 84.1185 137.141 84.7676C138.633 85.4167 139.968 86.3805 141.053 87.5929C142.13 88.8452 142.924 90.3145 143.382 91.9011C143.84 93.4877 143.951 95.1543 143.708 96.7876C143.192 100.295 141.454 103.508 138.8 105.859C136.146 108.209 132.748 109.548 129.204 109.637ZM132.398 84.7168C129.073 84.8095 125.887 86.07 123.398 88.2772C120.909 90.4844 119.277 93.4973 118.788 96.7876C118.558 98.3008 118.658 99.8458 119.081 101.317C119.504 102.788 120.24 104.15 121.239 105.31C122.238 106.428 123.467 107.316 124.842 107.915C126.217 108.514 127.704 108.808 129.204 108.779C132.53 108.688 135.719 107.429 138.209 105.221C140.7 103.014 142.333 99.9997 142.823 96.708C143.051 95.1982 142.951 93.6569 142.53 92.1893C142.108 90.7216 141.375 89.3621 140.381 88.2035C139.378 87.0793 138.144 86.1855 136.763 85.5836C135.382 84.9817 133.887 84.686 132.381 84.7168H132.398Z" fill="#EADDFF"/>
<path d="M139.301 92.7699C139.204 92.8967 139.101 93.0178 138.991 93.1327L128.416 102.496C128.044 102.814 127.796 102.823 127.531 102.496L122.956 97.0531C122.708 96.7611 122.761 96.4779 123.097 96.1681L124.575 94.9823C124.885 94.7345 125.141 94.7345 125.363 94.9823L128.079 98.1593C128.363 98.4956 128.602 98.4956 128.964 98.1593L137.186 90.9115C137.54 90.6018 137.779 90.6018 138.071 90.9115C138.363 91.2212 138.787 91.7345 139.141 92.1593C139.222 92.2677 139.293 92.3832 139.354 92.5044L139.301 92.7699Z" fill="white"/>
<path d="M230.699 91.2921H154.955C154.603 91.2921 154.266 91.1522 154.017 90.9033C153.768 90.6543 153.628 90.3167 153.628 89.9646C153.628 89.6126 153.768 89.2749 154.017 89.026C154.266 88.7771 154.603 88.6372 154.955 88.6372H230.699C231.051 88.6372 231.388 88.7771 231.637 89.026C231.886 89.2749 232.026 89.6126 232.026 89.9646C232.026 90.3167 231.886 90.6543 231.637 90.9033C231.388 91.1522 231.051 91.2921 230.699 91.2921Z" fill="#D0BCFF"/>
<path d="M213.611 104.062H153.319C152.967 104.062 152.629 103.922 152.38 103.673C152.131 103.424 151.991 103.087 151.991 102.735C151.991 102.382 152.131 102.045 152.38 101.796C152.629 101.547 152.967 101.407 153.319 101.407H213.611C213.963 101.407 214.3 101.547 214.549 101.796C214.798 102.045 214.938 102.382 214.938 102.735C214.938 103.087 214.798 103.424 214.549 103.673C214.3 103.922 213.963 104.062 213.611 104.062Z" fill="#D0BCFF"/>
<path d="M227.964 156.186H110.159C108.845 156.22 107.54 155.964 106.336 155.435C105.132 154.907 104.06 154.119 103.196 153.128C102.332 152.137 101.698 150.968 101.338 149.704C100.978 148.44 100.902 147.111 101.115 145.814L103.053 130.681C103.479 127.858 104.886 125.275 107.027 123.386C109.168 121.498 111.907 120.424 114.761 120.354H232.566C233.874 120.324 235.173 120.581 236.371 121.108C237.569 121.635 238.636 122.419 239.497 123.405C240.358 124.39 240.992 125.552 241.355 126.81C241.717 128.067 241.798 129.389 241.593 130.681L239.646 145.814C239.23 148.641 237.831 151.231 235.695 153.128C233.558 155.025 230.821 156.108 227.964 156.186Z" fill="white"/>
<path d="M227.965 156.637H110.159C108.796 156.666 107.442 156.399 106.191 155.855C104.94 155.311 103.821 154.503 102.912 153.487C102.006 152.437 101.337 151.204 100.95 149.873C100.564 148.541 100.469 147.142 100.673 145.77L102.655 130.62C103.091 127.686 104.547 124.999 106.768 123.033C108.989 121.066 111.831 119.945 114.797 119.867H232.566C233.931 119.836 235.286 120.101 236.539 120.644C237.791 121.186 238.912 121.993 239.823 123.009C240.727 124.059 241.395 125.292 241.78 126.624C242.164 127.956 242.258 129.355 242.053 130.726L240.115 145.867C239.683 148.806 238.227 151.498 236.004 153.468C233.781 155.438 230.934 156.56 227.965 156.637ZM114.761 120.752C112.018 120.838 109.392 121.885 107.341 123.709C105.29 125.533 103.945 128.02 103.54 130.735L101.602 145.876C101.412 147.122 101.494 148.395 101.842 149.606C102.191 150.817 102.797 151.939 103.62 152.894C104.447 153.815 105.464 154.546 106.6 155.038C107.737 155.53 108.966 155.77 110.204 155.743H227.965C230.716 155.668 233.353 154.626 235.412 152.8C237.472 150.975 238.824 148.483 239.23 145.761L241.168 130.62C241.358 129.373 241.276 128.101 240.928 126.89C240.58 125.678 239.973 124.557 239.151 123.602C238.323 122.681 237.306 121.95 236.17 121.458C235.033 120.966 233.804 120.725 232.566 120.752H114.761Z" fill="#21005D"/>
<path d="M123.894 151.15C122.268 151.182 120.654 150.862 119.163 150.211C117.672 149.561 116.339 148.595 115.257 147.381C114.182 146.129 113.388 144.661 112.93 143.077C112.472 141.492 112.36 139.827 112.602 138.195C113.118 134.689 114.855 131.477 117.507 129.127C120.158 126.776 123.555 125.437 127.098 125.345C128.725 125.313 130.341 125.633 131.833 126.284C133.325 126.935 134.659 127.901 135.744 129.115C136.819 130.366 137.612 131.834 138.071 133.419C138.529 135.004 138.64 136.669 138.398 138.301C137.882 141.808 136.144 145.021 133.491 147.372C130.837 149.723 127.438 151.061 123.894 151.15ZM127.089 126.23C123.762 126.321 120.573 127.58 118.083 129.788C115.592 131.995 113.959 135.009 113.469 138.301C113.244 139.81 113.346 141.35 113.769 142.816C114.192 144.282 114.926 145.64 115.921 146.796C116.92 147.914 118.149 148.803 119.524 149.402C120.898 150.001 122.386 150.295 123.885 150.266C127.212 150.175 130.4 148.915 132.891 146.708C135.382 144.501 137.015 141.486 137.505 138.195C137.732 136.686 137.631 135.147 137.209 133.681C136.788 132.215 136.056 130.857 135.062 129.699C134.058 128.578 132.823 127.687 131.442 127.088C130.061 126.489 128.567 126.196 127.062 126.23H127.089Z" fill="#EADDFF"/>
<path d="M133.973 134.292C133.882 134.42 133.778 134.539 133.663 134.646C130.124 137.767 126.598 140.888 123.088 144.009C122.725 144.336 122.477 144.336 122.203 144.009L117.628 138.566C117.38 138.274 117.433 137.991 117.77 137.726L119.247 136.531C119.557 136.283 119.805 136.283 120.035 136.531C120.938 137.593 121.843 138.652 122.752 139.708C123.026 140.044 123.274 140.044 123.637 139.708L131.849 132.451C132.203 132.142 132.451 132.142 132.734 132.451C133.017 132.761 133.451 133.274 133.805 133.699C133.886 133.806 133.955 133.922 134.008 134.044L133.973 134.292Z" fill="white"/>
<path d="M225.38 132.805H149.628C149.276 132.805 148.939 132.665 148.69 132.417C148.441 132.168 148.301 131.83 148.301 131.478C148.301 131.126 148.441 130.788 148.69 130.539C148.939 130.29 149.276 130.15 149.628 130.15H225.38C225.732 130.15 226.07 130.29 226.319 130.539C226.568 130.788 226.708 131.126 226.708 131.478C226.708 131.83 226.568 132.168 226.319 132.417C226.07 132.665 225.732 132.805 225.38 132.805Z" fill="#D0BCFF"/>
<path d="M208.292 145.575H147.991C147.639 145.575 147.301 145.435 147.052 145.186C146.803 144.937 146.664 144.6 146.664 144.248C146.664 143.896 146.803 143.558 147.052 143.309C147.301 143.06 147.639 142.92 147.991 142.92H208.292C208.644 142.92 208.982 143.06 209.231 143.309C209.479 143.558 209.619 143.896 209.619 144.248C209.619 144.6 209.479 144.937 209.231 145.186C208.982 145.435 208.644 145.575 208.292 145.575Z" fill="#D0BCFF"/>
<path d="M221 179.504C220.909 179.504 220.819 179.476 220.743 179.425L213.841 174.619C213.78 174.577 213.731 174.52 213.698 174.453C213.666 174.387 213.651 174.313 213.655 174.239C213.659 174.166 213.68 174.095 213.717 174.032C213.754 173.969 213.806 173.915 213.867 173.876L222.009 169.071C222.059 169.034 222.116 169.009 222.177 168.996C222.237 168.983 222.3 168.983 222.36 168.996C222.421 169.008 222.478 169.034 222.528 169.07C222.579 169.106 222.621 169.153 222.652 169.206C222.683 169.26 222.702 169.319 222.709 169.381C222.716 169.442 222.709 169.505 222.691 169.564C222.672 169.623 222.641 169.677 222.599 169.723C222.558 169.769 222.508 169.806 222.451 169.832L214.912 174.257L221.248 178.681C221.325 178.735 221.383 178.812 221.413 178.9C221.444 178.989 221.445 179.085 221.418 179.174C221.39 179.264 221.335 179.342 221.26 179.399C221.185 179.455 221.094 179.486 221 179.487V179.504Z" fill="#EADDFF"/>
<path d="M226.938 179.504C226.841 179.505 226.746 179.474 226.668 179.416C226.59 179.357 226.534 179.275 226.508 179.181C226.481 179.087 226.487 178.988 226.523 178.897C226.559 178.807 226.624 178.731 226.708 178.681L234.248 174.257L227.911 169.832C227.815 169.764 227.75 169.66 227.73 169.544C227.71 169.428 227.737 169.309 227.805 169.212C227.873 169.116 227.977 169.051 228.093 169.031C228.209 169.011 228.329 169.038 228.425 169.106L235.319 173.912C235.379 173.955 235.428 174.012 235.462 174.078C235.496 174.144 235.513 174.218 235.513 174.292C235.509 174.366 235.487 174.438 235.448 174.501C235.409 174.564 235.356 174.617 235.292 174.655L227.159 179.46C227.091 179.495 227.014 179.51 226.938 179.504Z" fill="#EADDFF"/>
<path d="M66.9111 186.46L67.4598 192.124L75.3625 191.513L74.6191 184.708L66.9111 186.46Z" fill="white"/>
<path d="M49.3364 87.3806L46.3807 88.8407L48.1063 91.1947L42.9824 113.071L47.8408 118.602L52.1063 111.097L49.6461 91.2213L51.6019 89.0974L49.3364 87.3806Z" fill="white"/>
<path d="M93.4244 117.027C107.833 117.027 119.513 105.346 119.513 90.938C119.513 76.5298 107.833 64.8495 93.4244 64.8495C79.0162 64.8495 67.3359 76.5298 67.3359 90.938C67.3359 105.346 79.0162 117.027 93.4244 117.027Z" fill="#21005D"/>
<path d="M93.4071 117.478C88.2223 117.478 83.151 115.959 78.8192 113.11C74.4873 110.261 71.0846 106.206 69.0309 101.445C66.9772 96.6844 66.3624 91.4265 67.2625 86.3204C68.1626 81.2143 70.5381 76.4835 74.0959 72.7119C77.6536 68.9403 82.2379 66.2931 87.2828 65.0968C92.3278 63.9006 97.6126 64.2078 102.485 65.9804C107.357 67.7531 111.604 70.9137 114.701 75.072C117.798 79.2304 119.609 84.2046 119.912 89.3806C120.318 96.4042 117.92 103.302 113.244 108.559C108.568 113.815 101.997 117.001 94.9735 117.416C94.4543 117.457 93.9322 117.478 93.4071 117.478ZM93.4602 65.2655C92.9558 65.2655 92.4425 65.2655 91.9292 65.2655C86.8603 65.558 81.992 67.3475 77.9404 70.4075C73.8888 73.4676 70.8359 77.6607 69.168 82.4563C67.5002 87.2519 67.2923 92.4345 68.5707 97.3483C69.8491 102.262 72.5563 106.686 76.3498 110.061C80.1433 113.436 84.8526 115.609 89.8818 116.307C94.911 117.005 100.034 116.195 104.603 113.98C109.172 111.765 112.981 108.244 115.548 103.864C118.116 99.4837 119.326 94.4402 119.027 89.3717C118.641 82.8477 115.781 76.7165 111.031 72.2287C106.28 67.7409 99.9956 65.2347 93.4602 65.2213V65.2655Z" fill="#21005D"/>
<path d="M89.3981 117.265C103.806 117.265 115.487 105.585 115.487 91.177C115.487 76.7687 103.806 65.0885 89.3981 65.0885C74.9898 65.0885 63.3096 76.7687 63.3096 91.177C63.3096 105.585 74.9898 117.265 89.3981 117.265Z" fill="#6750A4"/>
<path d="M89.3804 117.699C82.4227 117.491 75.8261 114.554 71.0157 109.523C66.2052 104.492 63.567 97.7705 63.671 90.8105C63.775 83.8504 66.6129 77.2107 71.5716 72.3255C76.5302 67.4404 83.2117 64.7021 90.1725 64.7021C97.1333 64.7021 103.815 67.4404 108.773 72.3255C113.732 77.2107 116.57 83.8504 116.674 90.8105C116.778 97.7705 114.14 104.492 109.329 109.523C104.519 114.554 97.9222 117.491 90.9645 117.699C90.4158 117.699 89.8849 117.699 89.3804 117.699ZM89.4335 65.4867C88.9291 65.4867 88.4247 65.4867 87.9203 65.4867C81.1823 65.6855 74.793 68.5272 70.1331 73.398C65.4731 78.2688 62.9166 84.7775 63.016 91.5176C63.1154 98.2578 65.8626 104.688 70.6642 109.42C75.4657 114.151 81.936 116.803 88.6769 116.803C95.4178 116.803 101.888 114.151 106.69 109.42C111.491 104.688 114.238 98.2578 114.338 91.5176C114.437 84.7775 111.881 78.2688 107.221 73.398C102.561 68.5272 96.1715 65.6855 89.4335 65.4867Z" fill="#21005D"/>
<path d="M105.84 82.3894C105.671 82.6648 105.479 82.9253 105.265 83.1681L85.0175 103.389C84.9156 103.552 84.774 103.686 84.6061 103.779C84.4381 103.872 84.2493 103.921 84.0573 103.921C83.8653 103.921 83.6764 103.872 83.5085 103.779C83.3405 103.686 83.199 103.552 83.0971 103.389C79.2918 99.4661 75.4953 95.5457 71.7077 91.6283C71.5636 91.521 71.4479 91.3803 71.3704 91.2182C71.2929 91.0562 71.2561 90.8777 71.263 90.6982C71.27 90.5187 71.3206 90.3436 71.4104 90.188C71.5002 90.0325 71.6266 89.9011 71.7785 89.8053L74.6369 87.2301C74.7397 87.101 74.8703 86.9968 75.0189 86.9252C75.1675 86.8536 75.3303 86.8163 75.4953 86.8163C75.6603 86.8163 75.8232 86.8536 75.9718 86.9252C76.1204 86.9968 76.251 87.101 76.3537 87.2301C78.5897 89.5251 80.8346 91.8142 83.0883 94.0974C83.7874 94.8053 84.3095 94.8142 85.0086 94.0974L100.752 78.4336C100.854 78.2785 100.994 78.1511 101.157 78.063C101.321 77.9749 101.504 77.9288 101.69 77.9288C101.876 77.9288 102.059 77.9749 102.223 78.063C102.386 78.1511 102.526 78.2785 102.628 78.4336C103.513 79.3186 104.398 80.2036 105.283 81.0885C105.483 81.3265 105.666 81.5778 105.832 81.8407L105.84 82.3894Z" fill="white"/>
<path d="M61.5499 137.017L74.6226 184.521C74.6226 184.521 84.9256 186.942 84.7256 187.584C84.5256 188.226 68.459 190.405 68.459 190.405L52.1681 141.176" fill="white"/>
<path d="M68.4588 190.714H68.4952C84.7315 188.522 84.9376 187.911 85.0164 187.687C85.0316 187.636 85.0363 187.582 85.03 187.529C85.0238 187.476 85.0068 187.425 84.98 187.378C84.5558 186.615 77.9073 184.987 74.8709 184.279L61.8406 136.95C61.8194 136.873 61.7686 136.808 61.6994 136.768C61.6301 136.729 61.5481 136.718 61.4709 136.738C61.4322 136.749 61.3959 136.767 61.3642 136.791C61.3325 136.816 61.306 136.847 61.2863 136.881C61.2666 136.916 61.254 136.955 61.2492 136.995C61.2445 137.035 61.2478 137.075 61.2588 137.113L74.3315 184.612C74.3455 184.665 74.3738 184.713 74.4133 184.752C74.4528 184.79 74.5021 184.817 74.5558 184.83C78.6467 185.78 83.0406 186.973 84.2043 187.53C82.4528 188.093 74.1012 189.346 68.6649 190.084L52.4588 141.091C52.4325 141.016 52.3781 140.953 52.3069 140.917C52.2358 140.881 52.1534 140.874 52.077 140.897C52.0385 140.909 52.0029 140.929 51.9722 140.956C51.9415 140.982 51.9164 141.014 51.8983 141.05C51.8802 141.086 51.8696 141.125 51.867 141.166C51.8643 141.206 51.8698 141.246 51.883 141.285L68.1679 190.514C68.1894 190.574 68.2291 190.625 68.2812 190.661C68.3334 190.697 68.3955 190.715 68.4588 190.714Z" fill="#21005D"/>
<path d="M33.6285 135.031L30.2225 190.417C30.2225 190.417 46.3497 193.91 46.4103 193.493C46.4709 193.075 37.7194 186.864 37.7194 186.864L44.3073 135.715" fill="white"/>
<path d="M46.3134 193.789C46.5195 193.789 46.5619 193.789 46.5922 193.741C46.6616 193.687 46.709 193.609 46.7256 193.523C46.7619 193.299 46.8165 192.918 38.065 186.706L44.6225 135.733C44.633 135.653 44.6111 135.572 44.5616 135.508C44.5122 135.443 44.4393 135.402 44.3589 135.391C44.2785 135.381 44.1973 135.403 44.1331 135.452C44.0689 135.501 44.0269 135.574 44.0165 135.655L37.4286 186.803C37.4222 186.859 37.4306 186.915 37.4529 186.966C37.4753 187.017 37.5108 187.061 37.5559 187.094C40.2468 189.001 44.368 192.009 45.7195 193.148C43.4468 192.851 35.6831 191.253 30.568 190.121L33.9316 135.067C33.9341 135.028 33.9287 134.988 33.9157 134.95C33.9027 134.912 33.8824 134.878 33.8559 134.848C33.8294 134.818 33.7973 134.794 33.7614 134.776C33.7256 134.759 33.6866 134.749 33.6468 134.746C33.5668 134.743 33.4886 134.771 33.4287 134.824C33.3687 134.877 33.3318 134.951 33.3256 135.031L29.9377 190.417C29.9318 190.49 29.9525 190.561 29.9961 190.619C30.0396 190.677 30.1029 190.718 30.1741 190.732C42.6286 193.408 45.5619 193.789 46.3134 193.789Z" fill="#21005D"/>
<path d="M78.0345 184.321L75.8527 187.639L67.3678 188.643L68.1981 191.894C68.1981 191.894 86.9133 189.558 87.3436 187.844C87.7739 186.131 78.0345 184.321 78.0345 184.321Z" fill="#21005D"/>
<path d="M55.1436 83.9005C55.1436 83.9005 61.0224 85.2989 62.7921 88.9312C64.5618 92.5635 62.4466 112.045 62.4466 112.045L36.386 113.159C36.386 113.159 33.7133 98.811 35.0224 92.6603C36.3315 86.5096 41.5254 78.3128 55.1436 83.9005Z" fill="#6750A4"/>
<path d="M54.3798 80.583L56.0525 86.0314C56.0525 86.0314 56.0162 89.252 52.4465 88.8827C51.3919 88.7621 50.3775 88.4082 49.477 87.847C48.5765 87.2857 47.8124 86.531 47.2404 85.6379L45.9677 75.8912C46.5231 75.434 46.8883 74.7866 46.9919 74.0751C47.0859 73.5384 47.0859 72.9894 46.9919 72.4527C46.9556 72.2469 46.7253 71.0421 46.4889 70.9998C47.1663 71.1079 47.8598 71.0504 48.51 70.8322C49.1602 70.6139 49.7477 70.2414 50.2222 69.7466C50.7185 69.1632 51.1268 68.5106 51.4344 67.8094C51.7167 67.3834 51.8271 66.8665 51.7435 66.3625C52.8626 67.0729 53.9475 67.8356 54.998 68.6509C55.5792 69.0734 56.1063 69.5654 56.5677 70.1159C57.3253 71.0966 57.5313 72.4466 57.7071 73.6392C57.9392 75.0556 58.0386 76.4905 58.0041 77.9253C57.9253 80.6556 54.3798 80.583 54.3798 80.583Z" fill="white"/>
<path d="M53.0041 89.2217C53.8279 89.2608 54.6359 88.986 55.2647 88.4529C55.914 87.8249 56.2942 86.9699 56.3253 86.0677C56.3312 86.0397 56.3312 86.0109 56.3253 85.9829L54.7617 80.8735C56.1374 80.7827 58.2344 80.0986 58.3132 77.9374C58.3464 76.4863 58.245 75.0353 58.0102 73.6029C57.8405 72.4406 57.6283 70.9937 56.798 69.9706C56.3244 69.4003 55.7807 68.8918 55.1798 68.4572C54.1253 67.6399 53.0223 66.865 51.9011 66.1507C51.8544 66.1197 51.7996 66.1031 51.7435 66.1031C51.6874 66.1031 51.6326 66.1197 51.5859 66.1507C51.5408 66.1852 51.5073 66.2327 51.49 66.2868C51.4726 66.3409 51.4723 66.399 51.4889 66.4533C51.5468 66.8905 51.4434 67.3338 51.198 67.7004C50.8886 68.3803 50.4801 69.0107 49.9859 69.5711C49.5412 70.0308 48.9929 70.3779 48.3867 70.5832C47.7806 70.7885 47.1341 70.8462 46.5011 70.7515C46.4648 70.7455 46.4278 70.7466 46.392 70.7549C46.3562 70.7632 46.3224 70.7785 46.2926 70.7999C46.2627 70.8213 46.2374 70.8483 46.2181 70.8795C46.1987 70.9107 46.1857 70.9454 46.1798 70.9816C46.1712 71.0413 46.1818 71.1023 46.2102 71.1556C46.2385 71.2089 46.2831 71.2519 46.3374 71.2782C46.5071 71.6769 46.6232 72.0962 46.6829 72.5253C46.7708 73.03 46.7708 73.5461 46.6829 74.0509C46.5929 74.6979 46.2697 75.2898 45.7738 75.7157C45.7324 75.7442 45.6998 75.7837 45.6795 75.8296C45.6592 75.8756 45.6519 75.9262 45.6586 75.976L46.9253 85.7226C46.931 85.7589 46.9433 85.7938 46.9617 85.8255C47.5529 86.7601 48.3478 87.5493 49.287 88.1342C50.2262 88.7192 51.2855 89.0847 52.3859 89.2036C52.6465 89.2096 52.8162 89.2217 53.0041 89.2217ZM55.7738 86.098C55.7313 86.8337 55.4184 87.5279 54.895 88.0473C54.5572 88.3146 54.1663 88.5068 53.7483 88.6112C53.3302 88.7156 52.8947 88.7297 52.4708 88.6527C51.4716 88.5405 50.509 88.2114 49.6506 87.6886C48.7921 87.1657 48.0585 86.4616 47.5011 85.6258L46.2889 76.085C46.8318 75.583 47.1849 74.9096 47.2889 74.178C47.3889 73.6093 47.3889 73.0275 47.2889 72.4587C47.232 72.0935 47.1469 71.7333 47.0344 71.3811C47.6704 71.4004 48.3034 71.2858 48.8923 71.0449C49.4812 70.804 50.0128 70.4421 50.4526 69.9827C50.9742 69.3805 51.405 68.7054 51.7314 67.9789C51.9125 67.653 52.0375 67.2989 52.1011 66.9316C53.0506 67.5531 53.9758 68.213 54.8768 68.9112C55.4279 69.3093 55.9285 69.7728 56.3677 70.2915C57.089 71.2237 57.2829 72.5314 57.4526 73.6876C57.6794 75.0884 57.7788 76.5067 57.7496 77.9253C57.6647 80.3468 54.5071 80.3468 54.3859 80.3468C54.3426 80.3459 54.2996 80.3553 54.2606 80.3742C54.2216 80.3932 54.1877 80.4211 54.1617 80.4558C54.135 80.4906 54.1167 80.5312 54.1083 80.5742C54.0999 80.6173 54.1016 80.6617 54.1132 80.704L55.7738 86.098Z" fill="#21005D"/>
<path d="M47.8893 75.1345C47.731 74.7337 47.4458 74.3957 47.0772 74.172C46.7279 73.976 46.346 73.8447 45.9499 73.7845C45.7368 73.7331 45.5145 73.7331 45.3014 73.7845C45.153 73.8268 45.0149 73.8989 44.8954 73.9964C44.5981 74.2025 44.3834 74.507 44.2893 74.856C44.247 75.1464 44.2718 75.4425 44.362 75.7217C44.4426 76.0305 44.5628 76.3276 44.7196 76.6056C45.0526 77.1544 45.5901 77.5487 46.2139 77.702C46.8378 77.8552 47.4971 77.7548 48.0469 77.4229" fill="white"/>
<path d="M46.7616 77.9556C47.2512 77.9571 47.7316 77.823 48.1495 77.5682C48.2039 77.5343 48.2431 77.4808 48.2589 77.4187C48.2747 77.3567 48.2659 77.2909 48.2343 77.2352C48.2182 77.2076 48.1966 77.1835 48.1708 77.1645C48.1451 77.1454 48.1157 77.1318 48.0846 77.1244C48.0534 77.1171 48.0211 77.1161 47.9895 77.1217C47.9579 77.1272 47.9278 77.139 47.901 77.1565C47.6563 77.3058 47.3843 77.4052 47.1009 77.4489C46.8175 77.4926 46.5282 77.4797 46.2498 77.411C45.9714 77.3424 45.7094 77.2192 45.4789 77.0488C45.2484 76.8783 45.0541 76.6639 44.9071 76.4179C44.7632 76.1586 44.6532 75.8819 44.5798 75.5946C44.493 75.3544 44.468 75.0963 44.5071 74.844C44.5952 74.5506 44.784 74.2976 45.0404 74.1296C45.1344 74.0498 45.2437 73.99 45.3616 73.954C45.542 73.928 45.7258 73.9404 45.901 73.9904C46.2707 74.047 46.6276 74.1678 46.9555 74.3475C47.276 74.5449 47.5246 74.8399 47.6646 75.189C47.6754 75.2187 47.692 75.246 47.7135 75.2691C47.735 75.2923 47.7609 75.3109 47.7897 75.3239C47.8186 75.3369 47.8497 75.344 47.8813 75.3447C47.9129 75.3455 47.9443 75.3399 47.9737 75.3283C48.0037 75.3169 48.0311 75.2997 48.0543 75.2776C48.0776 75.2556 48.0962 75.2292 48.1092 75.1999C48.1221 75.1706 48.1292 75.1391 48.1298 75.1071C48.1305 75.0751 48.1248 75.0433 48.1131 75.0135C47.9359 74.558 47.6117 74.1746 47.1919 73.9238C46.8151 73.7155 46.405 73.5742 45.9798 73.5061C45.7309 73.4452 45.4711 73.4452 45.2222 73.5061C45.0441 73.5594 44.8776 73.6456 44.7313 73.7603C44.3807 73.9968 44.1269 74.3513 44.0162 74.7592C43.9646 75.0877 43.9916 75.4238 44.095 75.7399C44.18 76.0701 44.3084 76.3877 44.4768 76.6843C44.6566 76.9836 44.8936 77.2445 45.1744 77.4523C45.4552 77.66 45.7741 77.8105 46.1131 77.8951C46.3262 77.9404 46.5438 77.9608 46.7616 77.9556Z" fill="#21005D"/>
<path d="M55.2163 83.1316C54.5874 83.2897 53.9319 83.3109 53.2941 83.194C52.6562 83.077 52.051 82.8245 51.5194 82.4536C51.0391 82.1368 50.6329 81.7203 50.3285 81.2324C50.0241 80.7445 49.8288 80.1967 49.7557 79.6265C49.7557 79.6265 52.4587 81.3397 54.6648 80.5769L55.2163 83.1316Z" fill="#21005D"/>
<path d="M54.0889 83.5372C54.498 83.5415 54.9057 83.4906 55.3011 83.3859C55.3656 83.3661 55.4203 83.3227 55.4541 83.2643C55.4878 83.2058 55.4981 83.1368 55.4829 83.0711L54.9314 80.5224C54.9223 80.4856 54.9058 80.4511 54.8828 80.4209C54.8599 80.3907 54.831 80.3655 54.798 80.3469C54.7636 80.3319 54.7265 80.3241 54.6889 80.3241C54.6514 80.3241 54.6143 80.3319 54.5799 80.3469C52.5253 81.0552 49.9314 79.4388 49.9071 79.4206C49.8661 79.3955 49.8189 79.3821 49.7708 79.3821C49.7226 79.3821 49.6754 79.3955 49.6344 79.4206C49.5915 79.4431 49.5557 79.4772 49.5311 79.5189C49.5064 79.5606 49.4939 79.6083 49.495 79.6567C49.5688 80.2667 49.7745 80.8534 50.0979 81.376C50.4213 81.8987 50.8546 82.3449 51.3677 82.6836C52.1596 83.2524 53.1137 83.5517 54.0889 83.5372ZM54.9011 82.9318C54.3457 83.0367 53.7749 83.0297 53.2222 82.9112C52.6696 82.7927 52.1462 82.5651 51.6829 82.2417C50.9426 81.7357 50.394 80.9959 50.1253 80.141C50.9859 80.589 52.798 81.3518 54.4647 80.922L54.9011 82.9318Z" fill="#21005D"/>
<path d="M52.2042 71.248C52.2042 71.248 54.4648 73.6271 54.1133 74.1659C53.7618 74.7047 52.5133 74.6018 52.5133 74.6018" fill="white"/>
<path d="M52.7739 74.8803C53.2103 74.8803 54.0224 74.8076 54.3376 74.3112C54.7254 73.7059 53.4951 72.2166 52.3982 71.0603C52.3491 71.009 52.2817 70.9791 52.2107 70.9774C52.1396 70.9757 52.0708 71.0023 52.0194 71.0513C51.9679 71.1002 51.9381 71.1676 51.9364 71.2386C51.9347 71.3095 51.9613 71.3782 52.0103 71.4296C53.0648 72.5435 53.9436 73.7603 53.883 74.0388C53.6951 74.3233 52.8951 74.3657 52.5376 74.3354C52.5025 74.3327 52.4673 74.3368 52.4339 74.3476C52.4005 74.3584 52.3695 74.3757 52.3428 74.3985C52.3161 74.4213 52.2941 74.4491 52.2781 74.4803C52.2621 74.5116 52.2525 74.5456 52.2497 74.5806C52.2469 74.6156 52.251 74.6508 52.2619 74.6842C52.2727 74.7176 52.29 74.7485 52.3128 74.7752C52.3356 74.8019 52.3634 74.8238 52.3947 74.8398C52.426 74.8558 52.4601 74.8654 52.4951 74.8682C52.5877 74.8783 52.6808 74.8824 52.7739 74.8803Z" fill="#21005D"/>
<path d="M48.8146 72.0622C48.6834 71.7365 48.7658 71.3966 48.9987 71.303C49.2316 71.2094 49.5267 71.3975 49.6579 71.7232C49.7891 72.0489 49.7067 72.3888 49.4738 72.4824C49.2409 72.576 48.9458 72.3879 48.8146 72.0622Z" fill="#21005D"/>
<path d="M54.4259 71.7513C54.2947 71.4256 54.3771 71.0857 54.61 70.9921C54.8429 70.8985 55.1381 71.0866 55.2693 71.4123C55.4005 71.738 55.318 72.0779 55.0852 72.1715C54.8523 72.2651 54.5571 72.077 54.4259 71.7513Z" fill="#21005D"/>
<path d="M55.6163 76.0123L51.1436 75.8368C51.1436 75.8368 51.2648 78.8637 53.8708 79.1058C56.4769 79.348 55.6163 76.0123 55.6163 76.0123Z" fill="#21005D"/>
<path d="M38.992 112.91C38.992 112.91 32.7011 119.909 30.9435 127.621C27.2526 143.845 27.1435 168.666 27.1435 168.666L74.9253 165.258L63.5556 111.621L38.992 112.91Z" fill="#21005D"/>
<path d="M30.2226 109.248C31.177 109.251 32.1253 109.095 33.0287 108.788C33.0685 108.774 33.1052 108.753 33.1368 108.725C33.1684 108.698 33.1942 108.664 33.2128 108.626C33.2313 108.589 33.2423 108.548 33.2451 108.506C33.2478 108.464 33.2422 108.422 33.2287 108.382C33.2152 108.342 33.1939 108.306 33.1662 108.274C33.1385 108.243 33.1048 108.217 33.0671 108.198C33.0294 108.18 32.9884 108.169 32.9464 108.166C32.9045 108.163 32.8624 108.169 32.8226 108.182C31.1097 108.715 29.2765 108.724 27.5584 108.208C25.8403 107.693 24.3157 106.676 23.1802 105.289C22.0905 103.855 21.3914 102.164 21.1513 100.381C20.9113 98.5972 21.1384 96.7819 21.8105 95.1121C23.1802 91.722 26.1196 89.252 28.962 86.8608C29.459 86.4431 29.962 86.0193 30.4469 85.5955C34.0044 82.5262 35.9014 79.5054 36.865 75.4978C37.7438 71.7444 38.7742 67.8457 40.8166 65.0005C42.5135 62.6395 46.6651 59.9092 49.7317 61.1684C50.6836 61.6096 51.5624 62.1935 52.3378 62.8998C52.3727 62.9268 52.4127 62.9466 52.4553 62.958C52.498 62.9694 52.5425 62.9723 52.5863 62.9664C54.2478 62.6809 55.945 62.6687 57.6105 62.93C59.2518 63.196 60.7287 64.0799 61.7378 65.4C62.5971 66.7874 62.9702 68.4209 62.7984 70.0433C62.7681 70.5155 62.6044 71.0845 62.2408 71.1269C62.1593 71.1375 62.0851 71.1795 62.0342 71.244C61.9832 71.3085 61.9595 71.3903 61.9681 71.472C61.9725 71.5132 61.9853 71.5531 62.0055 71.5893C62.0258 71.6256 62.0531 71.6573 62.0859 71.6828C62.1187 71.7082 62.1563 71.7268 62.1965 71.7373C62.2366 71.7479 62.2785 71.7503 62.3196 71.7444C62.9257 71.6718 63.356 71.0482 63.4226 70.0796C63.6129 68.3161 63.1983 66.5404 62.2469 65.0428C61.1497 63.5953 59.5376 62.6243 57.7438 62.3307C56.0561 62.0544 54.3346 62.0544 52.6469 62.3307C51.8515 61.6196 50.9523 61.0337 49.9802 60.5933C46.5741 59.1948 42.1802 62.0462 40.3196 64.6372C38.2105 67.5733 37.162 71.5386 36.2651 75.3525C35.3681 79.1664 33.5014 82.1448 30.0529 85.1233C29.5681 85.5471 29.0711 85.9648 28.5681 86.3825C25.6711 88.804 22.6711 91.3466 21.2408 94.8578C20.5135 96.629 20.2661 98.5603 20.5235 100.457C20.781 102.354 21.5343 104.15 22.7075 105.664C23.6209 106.775 24.7675 107.671 26.0661 108.291C27.3647 108.91 28.7837 109.237 30.2226 109.248Z" fill="#6750A4"/>
<path d="M28.7376 191.168L29.2285 187.826L39.077 190.538L40.9922 188.014C40.9922 188.014 48.2043 193.238 47.1922 194.395C46.1801 195.551 35.5679 193.438 28.7376 191.168Z" fill="#21005D"/>
<path d="M46.0162 87.9141C46.3687 88.4993 46.6845 89.1059 46.9616 89.7303C49.6162 95.3058 53.0525 102.171 59.9192 103.164C64.7374 103.86 69.695 102.928 74.2404 101.348C75.6544 100.876 76.9918 100.201 78.2101 99.3437C79.6525 98.248 80.8707 96.6013 82.1435 95.3058C82.4647 94.9729 83.0283 94.6399 83.3556 94.991C83.6828 95.3421 83.4162 95.663 83.2283 95.9596C82.5622 97.0173 81.8036 98.014 80.9616 98.9381C81.9859 98.5264 83.0344 98.1632 84.095 97.8424C85.0141 97.5076 85.9585 97.2465 86.9192 97.0614C87.0979 97.0627 87.2717 97.1198 87.4162 97.2249C87.4858 97.2806 87.534 97.3586 87.5528 97.4457C87.5716 97.5328 87.5597 97.6237 87.5192 97.7031C87.4703 97.7731 87.406 97.8311 87.3313 97.8726C86.6133 98.3445 85.8261 98.7019 84.998 98.932C85.7107 98.5778 86.488 98.3718 87.2828 98.3267C87.6283 98.3267 88.0586 98.3751 88.1738 98.702C88.2889 99.0289 87.9495 99.374 87.6344 99.5677C86.9276 100.004 86.1679 100.347 85.3738 100.591C85.9956 100.279 86.6398 100.014 87.301 99.7977C87.7131 99.6646 88.2465 99.5798 88.5131 99.9309C88.589 100.047 88.6294 100.183 88.6294 100.321C88.6294 100.46 88.589 100.596 88.5131 100.712C88.355 100.937 88.1478 101.123 87.9071 101.257C87.2721 101.651 86.59 101.964 85.8768 102.189L87.798 101.523C87.9358 101.452 88.0885 101.416 88.2435 101.416C88.3984 101.416 88.5511 101.452 88.6889 101.523C88.998 101.771 88.8768 102.28 88.6404 102.607C88.1468 103.132 87.5364 103.534 86.8586 103.781C85.9677 104.206 85.0554 104.583 84.1253 104.913C77.9374 107.335 72.5374 110.767 65.7495 111.33C58.2525 111.936 49.8404 109.926 44.2525 104.671C40.8707 101.493 37.3737 96.0141 37.9798 91.1045C38.1798 89.5002 38.4283 87.2845 39.8404 86.2614C41.3495 85.1415 44.0828 85.6924 45.295 86.9697C45.5651 87.2608 45.8066 87.577 46.0162 87.9141Z" fill="white"/>
<path d="M63.0044 111.76C63.9135 111.76 64.8226 111.724 65.762 111.645C70.6529 111.233 74.7438 109.387 79.0953 107.407C80.762 106.651 82.4893 105.87 84.2529 105.186L84.859 104.968C85.5997 104.699 86.326 104.392 87.0347 104.048L87.3923 103.872C87.9853 103.64 88.5104 103.264 88.9196 102.776C89.1079 102.573 89.2124 102.306 89.2124 102.029C89.2124 101.751 89.1079 101.485 88.9196 101.281C88.8067 101.193 88.6733 101.134 88.5317 101.111C88.6232 101.028 88.7028 100.932 88.7681 100.827C88.8793 100.661 88.9387 100.466 88.9387 100.267C88.9387 100.068 88.8793 99.8726 88.7681 99.707C88.651 99.5488 88.4848 99.4339 88.2953 99.3801C88.3955 99.2721 88.4655 99.1399 88.4985 98.9965C88.5314 98.8531 88.5262 98.7035 88.4832 98.5628C88.4161 98.3982 88.3024 98.2567 88.156 98.1556C88.0096 98.0545 87.8369 97.9983 87.659 97.9937C87.7372 97.932 87.8004 97.8533 87.8438 97.7637C87.8873 97.674 87.9098 97.5757 87.9098 97.4761C87.9098 97.3765 87.8873 97.2783 87.8438 97.1886C87.8004 97.099 87.7372 97.0203 87.659 96.9585C87.4649 96.8081 87.2259 96.7271 86.9802 96.7285C86.1499 96.8278 85.3354 97.0312 84.5559 97.3339L84.0529 97.4913C83.3681 97.6971 82.6893 97.9211 82.0105 98.1693C82.5594 97.4996 83.0654 96.7959 83.5256 96.0626C83.962 95.3724 83.8226 94.9608 83.6287 94.7368C83.5641 94.6576 83.4828 94.5938 83.3906 94.5498C83.2984 94.5059 83.1975 94.4829 83.0953 94.4825C82.6702 94.5167 82.2748 94.7142 81.9923 95.0334C81.5559 95.4754 81.1196 95.9718 80.7014 96.444C79.9165 97.3915 79.044 98.2631 78.0953 99.0471C76.9016 99.8827 75.5931 100.541 74.2105 101.002C69.0347 102.819 64.265 103.424 60.0287 102.819C53.1196 101.82 49.6226 94.428 47.3014 89.5366C47.0203 88.9108 46.6984 88.3041 46.3378 87.7204C46.1148 87.361 45.857 87.0244 45.5681 86.7155C44.2832 85.3655 41.3802 84.7359 39.7075 85.9709C38.2166 87.0787 37.9378 89.3186 37.7378 90.9592V91.05C37.1317 95.8931 40.5014 101.493 44.1075 104.877C48.6832 109.284 55.6287 111.76 63.0044 111.76ZM88.3014 101.723C88.3654 101.722 88.4284 101.738 88.4832 101.771C88.6226 101.886 88.5378 102.213 88.3741 102.437C88.0244 102.845 87.5757 103.155 87.0711 103.339L86.7014 103.527C86.0119 103.859 85.306 104.156 84.5863 104.417L83.9802 104.641C82.2044 105.331 80.4711 106.118 78.7984 106.875C74.5196 108.812 70.4832 110.64 65.6893 111.04C57.4832 111.724 49.5317 109.272 44.4226 104.471C40.9317 101.19 37.6711 95.8023 38.2469 91.1529V91.0621C38.4408 89.5366 38.6953 87.4298 39.9802 86.4915C41.3741 85.4563 43.9257 85.9951 45.0408 87.1635C45.3004 87.4443 45.5337 87.7483 45.7378 88.0715C46.0837 88.6408 46.3934 89.2312 46.665 89.8393C49.0347 94.8458 52.6166 102.413 59.8469 103.46C64.1802 104.066 69.0469 103.46 74.3135 101.608C75.7543 101.119 77.1191 100.43 78.3681 99.5617C79.3477 98.7567 80.2487 97.8608 81.059 96.8859C81.4953 96.3895 81.9075 95.9294 82.3317 95.4935C82.4996 95.3004 82.7283 95.1702 82.9802 95.1242C82.9985 95.1235 83.0168 95.127 83.0336 95.1343C83.0504 95.1416 83.0653 95.1527 83.0772 95.1666C83.156 95.2574 83.0772 95.4935 82.9135 95.772C82.2657 96.8247 81.5275 97.8192 80.7075 98.7444C80.6607 98.7944 80.6323 98.8586 80.6268 98.9268C80.6213 98.995 80.639 99.063 80.6772 99.1198C80.7163 99.1766 80.7736 99.2184 80.8398 99.2382C80.9059 99.258 80.9768 99.2547 81.0408 99.2287C82.059 98.8231 83.1075 98.4599 84.156 98.1451L84.6711 97.9816C85.3862 97.7187 86.1221 97.5162 86.8711 97.3763C86.9825 97.377 87.0916 97.4084 87.1863 97.4671C87.2006 97.4786 87.2119 97.4935 87.2193 97.5103C87.2267 97.5272 87.2299 97.5456 87.2287 97.5639C87.2017 97.5904 87.1711 97.6128 87.1378 97.6305C86.8121 97.8471 86.4696 98.0374 86.1135 98.1996C85.6694 98.3127 85.2386 98.473 84.8287 98.6778C84.7616 98.7107 84.7094 98.7675 84.6825 98.8371C84.6555 98.9066 84.6558 98.9838 84.6832 99.0532C84.7116 99.1226 84.7637 99.1796 84.8304 99.214C84.897 99.2484 84.9738 99.2579 85.0469 99.2408C85.481 99.1199 85.9046 98.964 86.3135 98.7747C86.6282 98.7013 86.9485 98.6547 87.2711 98.6354C87.5257 98.6354 87.8044 98.6718 87.8772 98.805C87.9499 98.9381 87.7075 99.1682 87.465 99.3195C87.3256 99.4103 87.1741 99.4951 87.0287 99.5738C86.4069 99.7841 85.7995 100.035 85.2105 100.324C85.1439 100.359 85.0925 100.418 85.0657 100.488C85.0389 100.558 85.0387 100.635 85.065 100.706C85.0946 100.775 85.1482 100.832 85.2161 100.865C85.2839 100.899 85.3616 100.907 85.4347 100.887C86.0638 100.694 86.6728 100.441 87.2529 100.131L87.3741 100.088C87.5802 100.022 88.0711 99.8946 88.2347 100.088C88.2708 100.158 88.2865 100.236 88.2801 100.315C88.2737 100.393 88.2454 100.467 88.1984 100.53C88.064 100.718 87.8876 100.871 87.6832 100.978C87.0943 101.345 86.4635 101.639 85.8044 101.856L85.7196 101.886C85.6495 101.915 85.5929 101.969 85.5609 102.038C85.5288 102.107 85.5237 102.185 85.5466 102.257C85.5694 102.329 85.6185 102.39 85.6842 102.428C85.7499 102.466 85.8274 102.478 85.9014 102.461H85.9923L87.8832 101.856C88.0159 101.793 88.1566 101.748 88.3014 101.723Z" fill="#21005D"/>
<path d="M32.1497 157.606C32.2238 157.605 32.2951 157.578 32.3508 157.529C32.4064 157.48 32.4426 157.413 32.4527 157.339C32.4527 157.115 35.1921 135.019 36.3133 129.637C36.3294 129.557 36.3129 129.473 36.2674 129.405C36.222 129.337 36.1513 129.29 36.0709 129.274C35.9905 129.258 35.9071 129.274 35.8389 129.32C35.7707 129.365 35.7233 129.436 35.7073 129.516C34.58 134.922 31.8588 157.043 31.8346 157.267C31.8295 157.306 31.8322 157.345 31.8426 157.383C31.853 157.421 31.8708 157.457 31.8951 157.488C31.9193 157.519 31.9495 157.544 31.9839 157.564C32.0182 157.583 32.056 157.595 32.0952 157.6L32.1497 157.606Z" fill="white"/>
</svg>
