<svg width="270" height="200" viewBox="0 0 270 200" fill="none" xmlns="http://www.w3.org/2000/svg">
<path d="M265.991 171.832H0.530857C0.413504 171.832 0.300958 171.785 0.217977 171.702C0.134997 171.619 0.0883789 171.507 0.0883789 171.389C0.0883789 171.272 0.134997 171.16 0.217977 171.077C0.300958 170.994 0.413504 170.947 0.530857 170.947H266.018C266.134 170.949 266.245 170.997 266.328 171.079C266.41 171.162 266.458 171.273 266.46 171.389C266.46 171.45 266.448 171.51 266.424 171.565C266.4 171.621 266.365 171.671 266.321 171.712C266.277 171.753 266.225 171.786 266.169 171.806C266.112 171.827 266.051 171.835 265.991 171.832V171.832Z" fill="#EADDFF"/>
<path d="M244.425 188.894H83.4688L107.531 1.15045H268.495L244.425 188.894Z" fill="white"/>
<path d="M244.433 189.381H83.4688C83.4052 189.381 83.3423 189.368 83.2842 189.342C83.2262 189.316 83.1745 189.278 83.1325 189.23C83.092 189.183 83.0617 189.128 83.0434 189.069C83.0251 189.009 83.0193 188.947 83.0263 188.885L107.079 1.09735C107.092 0.990935 107.143 0.892803 107.223 0.821187C107.303 0.749571 107.406 0.709339 107.513 0.707968H268.495C268.559 0.70734 268.622 0.720479 268.68 0.746483C268.738 0.772487 268.79 0.810744 268.832 0.858639C268.874 0.906534 268.906 0.962936 268.924 1.02399C268.942 1.08504 268.947 1.14931 268.938 1.21239L244.867 188.947C244.865 189.061 244.818 189.17 244.738 189.251C244.657 189.332 244.548 189.378 244.433 189.381V189.381ZM83.9732 188.496H244.035L267.991 1.59292H107.964L83.9732 188.496Z" fill="#21005D"/>
<path d="M245.133 24.0177H143.097C142.591 24.0309 142.087 23.9321 141.623 23.7282C141.159 23.5244 140.746 23.2205 140.412 22.8384C140.079 22.4563 139.835 22.0053 139.696 21.5177C139.558 21.0301 139.528 20.5179 139.611 20.0177L139.876 17.9381C140.038 16.848 140.58 15.85 141.405 15.12C142.231 14.3899 143.288 13.9745 144.389 13.9469H246.416C246.922 13.9339 247.424 14.0326 247.888 14.2359C248.351 14.4393 248.764 14.7423 249.097 15.1234C249.43 15.5045 249.675 15.9543 249.814 16.4408C249.953 16.9273 249.983 17.4385 249.903 17.9381L249.628 20.0177C249.469 21.1065 248.93 22.1042 248.108 22.8357C247.286 23.5672 246.233 23.9857 245.133 24.0177Z" fill="#D0BCFF"/>
<path d="M128.787 15.5929H119.69C119.573 15.5929 119.46 15.5463 119.377 15.4633C119.294 15.3803 119.248 15.2678 119.248 15.1504C119.25 15.0338 119.297 14.9226 119.38 14.8401C119.462 14.7576 119.573 14.7102 119.69 14.708H128.787C128.904 14.7102 129.015 14.7576 129.098 14.8401C129.18 14.9226 129.228 15.0338 129.23 15.1504C129.23 15.2678 129.183 15.3803 129.1 15.4633C129.017 15.5463 128.905 15.5929 128.787 15.5929Z" fill="#EADDFF"/>
<path d="M128.318 19.5841H119.177C119.06 19.5841 118.947 19.5375 118.864 19.4545C118.781 19.3715 118.734 19.259 118.734 19.1416C118.734 19.0243 118.781 18.9117 118.864 18.8287C118.947 18.7457 119.06 18.6991 119.177 18.6991H128.318C128.436 18.6991 128.548 18.7457 128.631 18.8287C128.714 18.9117 128.761 19.0243 128.761 19.1416C128.761 19.259 128.714 19.3715 128.631 19.4545C128.548 19.5375 128.436 19.5841 128.318 19.5841Z" fill="#EADDFF"/>
<path d="M127.761 23.5664H118.672C118.555 23.5664 118.443 23.5198 118.36 23.4368C118.277 23.3538 118.23 23.2413 118.23 23.1239C118.23 23.0066 118.277 22.894 118.36 22.811C118.443 22.728 118.555 22.6814 118.672 22.6814H127.761C127.878 22.6814 127.991 22.728 128.074 22.811C128.157 22.894 128.203 23.0066 128.203 23.1239C128.203 23.2413 128.157 23.3538 128.074 23.4368C127.991 23.5198 127.878 23.5664 127.761 23.5664Z" fill="#EADDFF"/>
<path d="M128.787 15.5929H119.69C119.573 15.5929 119.46 15.5463 119.377 15.4633C119.294 15.3803 119.248 15.2678 119.248 15.1504C119.25 15.0338 119.297 14.9226 119.38 14.8401C119.462 14.7576 119.573 14.7102 119.69 14.708H128.787C128.904 14.7102 129.015 14.7576 129.098 14.8401C129.18 14.9226 129.228 15.0338 129.23 15.1504C129.23 15.2678 129.183 15.3803 129.1 15.4633C129.017 15.5463 128.905 15.5929 128.787 15.5929Z" stroke="#21005D" stroke-linecap="round" stroke-linejoin="round"/>
<path d="M128.318 19.5841H119.177C119.06 19.5841 118.947 19.5375 118.864 19.4545C118.781 19.3715 118.734 19.259 118.734 19.1416C118.734 19.0243 118.781 18.9117 118.864 18.8287C118.947 18.7457 119.06 18.6991 119.177 18.6991H128.318C128.436 18.6991 128.548 18.7457 128.631 18.8287C128.714 18.9117 128.761 19.0243 128.761 19.1416C128.761 19.259 128.714 19.3715 128.631 19.4545C128.548 19.5375 128.436 19.5841 128.318 19.5841Z" stroke="#21005D" stroke-linecap="round" stroke-linejoin="round"/>
<path d="M127.761 23.5664H118.672C118.555 23.5664 118.443 23.5198 118.36 23.4368C118.277 23.3538 118.23 23.2413 118.23 23.1239C118.23 23.0066 118.277 22.894 118.36 22.811C118.443 22.728 118.555 22.6814 118.672 22.6814H127.761C127.878 22.6814 127.991 22.728 128.074 22.811C128.157 22.894 128.203 23.0066 128.203 23.1239C128.203 23.2413 128.157 23.3538 128.074 23.4368C127.991 23.5198 127.878 23.5664 127.761 23.5664Z" stroke="#21005D" stroke-linecap="round" stroke-linejoin="round"/>
<path d="M238.611 73.1593H120.805C119.495 73.194 118.193 72.9395 116.993 72.4141C115.792 71.8886 114.722 71.105 113.859 70.119C112.995 69.133 112.359 67.9689 111.997 66.7094C111.634 65.4499 111.554 64.126 111.761 62.8319L113.699 47.6903C114.107 44.8531 115.505 42.2515 117.646 40.3455C119.787 38.4394 122.533 37.3516 125.398 37.2743H243.212C244.523 37.2467 245.823 37.5079 247.021 38.0393C248.219 38.5707 249.286 39.3594 250.145 40.3494C251.004 41.3393 251.634 42.5063 251.992 43.7673C252.349 45.0283 252.424 46.3526 252.212 47.646L250.31 62.8319C249.884 65.6537 248.478 68.2354 246.339 70.124C244.2 72.0126 241.463 73.0872 238.611 73.1593V73.1593Z" fill="white"/>
<path d="M238.61 73.6018H120.805C119.439 73.6292 118.084 73.3611 116.831 72.8158C115.579 72.2705 114.459 71.4609 113.549 70.4425C112.643 69.3942 111.975 68.1628 111.591 66.8324C111.206 65.502 111.113 64.1041 111.318 62.7345L113.274 47.5929C113.708 44.6603 115.161 41.9741 117.378 40.0062C119.595 38.0383 122.435 36.9144 125.398 36.8319H243.212C244.573 36.8094 245.923 37.0799 247.171 37.625C248.418 38.1701 249.534 38.977 250.442 39.9912C251.347 41.0413 252.015 42.2744 252.4 43.6061C252.785 44.9379 252.878 46.337 252.672 47.708L250.752 62.8319C250.318 65.7683 248.863 68.4578 246.642 70.4276C244.422 72.3973 241.578 73.5213 238.61 73.6018ZM125.398 37.7168C122.65 37.7974 120.017 38.8427 117.963 40.6695C115.908 42.4963 114.561 44.988 114.159 47.708L112.195 62.8319C112.009 64.0765 112.093 65.3465 112.441 66.5557C112.789 67.765 113.393 68.8853 114.212 69.8407C115.04 70.7639 116.058 71.4972 117.196 71.9905C118.334 72.4839 119.565 72.7256 120.805 72.6991H238.61C241.361 72.6247 243.997 71.5831 246.056 69.7574C248.115 67.9317 249.464 65.4388 249.867 62.7168L251.814 47.5752C252 46.3292 251.916 45.0578 251.568 43.8471C251.22 42.6364 250.616 41.5146 249.796 40.5575C248.969 39.636 247.952 38.9036 246.816 38.4104C245.68 37.9171 244.451 37.6745 243.212 37.6991L125.398 37.7168Z" fill="#21005D"/>
<path d="M144.093 63.7324C149.444 58.7133 150.203 50.8302 145.789 46.125C141.375 41.4197 133.46 41.6742 128.109 46.6933C122.759 51.7124 122 59.5955 126.413 64.3008C130.827 69.006 138.743 68.7515 144.093 63.7324Z" fill="#6750A4"/>
<path d="M144.619 51.2566C144.523 51.3834 144.42 51.5045 144.309 51.6195L133.734 60.9823C133.371 61.3009 133.124 61.3097 132.849 60.9823L128.318 55.531C128.071 55.236 128.115 54.941 128.451 54.646L129.929 53.4602C130.239 53.2124 130.495 53.2124 130.725 53.4602L133.433 56.6372C133.717 56.9646 133.955 56.9735 134.318 56.6372L142.478 49.4513C142.832 49.1416 143.079 49.1416 143.363 49.4513C143.646 49.7611 144.088 50.2743 144.442 50.6903C144.522 50.7965 144.575 50.9292 144.646 51.0442L144.619 51.2566Z" fill="white"/>
<path d="M236.018 49.7788H160.274C159.922 49.7788 159.585 49.6389 159.336 49.39C159.087 49.141 158.947 48.8034 158.947 48.4513C158.947 48.0993 159.087 47.7616 159.336 47.5127C159.585 47.2638 159.922 47.1239 160.274 47.1239H236.018C236.37 47.1239 236.707 47.2638 236.956 47.5127C237.205 47.7616 237.345 48.0993 237.345 48.4513C237.345 48.8034 237.205 49.141 236.956 49.39C236.707 49.6389 236.37 49.7788 236.018 49.7788Z" fill="#D0BCFF"/>
<path d="M218.938 62.5487H158.637C158.285 62.5487 157.947 62.4088 157.698 62.1599C157.449 61.9109 157.31 61.5733 157.31 61.2212C157.31 60.8692 157.449 60.5315 157.698 60.2826C157.947 60.0337 158.285 59.8938 158.637 59.8938H218.938C219.29 59.8938 219.628 60.0337 219.877 60.2826C220.125 60.5315 220.265 60.8692 220.265 61.2212C220.265 61.5733 220.125 61.9109 219.877 62.1599C219.628 62.4088 219.29 62.5487 218.938 62.5487V62.5487Z" fill="#D0BCFF"/>
<path d="M233.283 114.673H115.478C114.164 114.707 112.858 114.451 111.655 113.922C110.451 113.393 109.379 112.606 108.515 111.615C107.651 110.624 107.017 109.455 106.657 108.191C106.297 106.926 106.221 105.598 106.434 104.301L108.381 89.1593C108.793 86.3253 110.192 83.7279 112.333 81.8254C114.473 79.9229 117.217 78.8376 120.08 78.7611H237.885C239.2 78.73 240.505 78.9897 241.707 79.5216C242.91 80.0534 243.98 80.8442 244.841 81.8376C245.703 82.8309 246.334 84.0023 246.691 85.268C247.047 86.5336 247.119 87.8624 246.903 89.1593L244.965 104.301C244.549 107.128 243.15 109.718 241.013 111.615C238.877 113.512 236.139 114.595 233.283 114.673V114.673Z" fill="white"/>
<path d="M233.292 115.115H115.478C114.114 115.142 112.76 114.875 111.51 114.331C110.259 113.788 109.14 112.98 108.23 111.965C107.325 110.914 106.658 109.681 106.273 108.349C105.888 107.018 105.795 105.619 106 104.248L107.964 89.1062C108.402 86.173 109.859 83.4876 112.079 81.5214C114.299 79.5552 117.141 78.4338 120.106 78.354H237.885C239.25 78.3266 240.604 78.5938 241.857 79.1375C243.109 79.6812 244.229 80.4885 245.141 81.5044C246.044 82.5559 246.71 83.789 247.095 85.1204C247.48 86.4518 247.574 87.8503 247.371 89.2213L245.424 104.363C244.989 107.295 243.534 109.981 241.315 111.947C239.096 113.913 236.255 115.035 233.292 115.115ZM120.079 79.2389C117.334 79.323 114.706 80.3685 112.654 82.193C110.601 84.0175 109.254 86.5051 108.849 89.2213L106.911 104.363C106.725 105.609 106.809 106.88 107.157 108.091C107.506 109.302 108.11 110.424 108.929 111.381C109.757 112.301 110.774 113.032 111.91 113.524C113.046 114.015 114.275 114.256 115.513 114.23H233.292C236.042 114.154 238.677 113.112 240.736 111.286C242.794 109.461 244.144 106.969 244.548 104.248L246.486 89.1062C246.676 87.8602 246.594 86.5878 246.246 85.3764C245.898 84.165 245.291 83.0434 244.469 82.0885C243.641 81.1676 242.624 80.4363 241.488 79.9445C240.352 79.4527 239.123 79.2121 237.885 79.2389H120.079Z" fill="#21005D"/>
<path d="M129.204 109.637C127.577 109.669 125.963 109.349 124.472 108.698C122.981 108.047 121.649 107.082 120.566 105.867C119.491 104.616 118.698 103.148 118.239 101.563C117.781 99.9783 117.67 98.3134 117.912 96.6814C118.427 93.1754 120.164 89.964 122.816 87.6132C125.468 85.2625 128.865 83.9234 132.407 83.8319C134.034 83.7993 135.649 84.1185 137.141 84.7676C138.633 85.4167 139.968 86.3805 141.053 87.5929C142.13 88.8452 142.924 90.3145 143.382 91.9011C143.84 93.4877 143.951 95.1543 143.708 96.7876V96.7876C143.192 100.295 141.454 103.508 138.8 105.859C136.146 108.209 132.748 109.548 129.204 109.637V109.637ZM132.398 84.7168C129.073 84.8095 125.887 86.07 123.398 88.2772C120.909 90.4844 119.277 93.4973 118.788 96.7876C118.558 98.3008 118.658 99.8458 119.081 101.317C119.504 102.788 120.24 104.15 121.239 105.31C122.238 106.428 123.467 107.316 124.842 107.915C126.217 108.514 127.704 108.808 129.204 108.779C132.53 108.688 135.719 107.429 138.209 105.221C140.7 103.014 142.333 99.9997 142.823 96.708V96.708C143.051 95.1982 142.951 93.6569 142.53 92.1893C142.108 90.7216 141.375 89.3621 140.381 88.2035C139.378 87.0793 138.144 86.1855 136.763 85.5836C135.382 84.9817 133.887 84.686 132.381 84.7168H132.398Z" fill="#EADDFF"/>
<path d="M139.301 92.7699C139.204 92.8967 139.101 93.0178 138.991 93.1327L128.416 102.496C128.044 102.814 127.796 102.823 127.531 102.496L122.956 97.0531C122.708 96.7611 122.761 96.4779 123.097 96.1681L124.575 94.9823C124.885 94.7345 125.141 94.7345 125.363 94.9823L128.079 98.1593C128.363 98.4956 128.602 98.4956 128.964 98.1593L137.186 90.9115C137.54 90.6018 137.779 90.6018 138.071 90.9115C138.363 91.2212 138.787 91.7345 139.141 92.1593C139.222 92.2677 139.293 92.3832 139.354 92.5044L139.301 92.7699Z" fill="white"/>
<path d="M230.699 91.292H154.956C154.604 91.292 154.266 91.1522 154.017 90.9032C153.768 90.6543 153.628 90.3167 153.628 89.9646C153.628 89.6126 153.768 89.2749 154.017 89.026C154.266 88.777 154.604 88.6372 154.956 88.6372H230.699C231.051 88.6372 231.389 88.777 231.638 89.026C231.887 89.2749 232.027 89.6126 232.027 89.9646C232.027 90.3167 231.887 90.6543 231.638 90.9032C231.389 91.1522 231.051 91.292 230.699 91.292Z" fill="#D0BCFF"/>
<path d="M213.611 104.062H153.319C152.967 104.062 152.629 103.922 152.38 103.673C152.131 103.424 151.991 103.087 151.991 102.735C151.991 102.382 152.131 102.045 152.38 101.796C152.629 101.547 152.967 101.407 153.319 101.407H213.611C213.963 101.407 214.3 101.547 214.549 101.796C214.798 102.045 214.938 102.382 214.938 102.735C214.938 103.087 214.798 103.424 214.549 103.673C214.3 103.922 213.963 104.062 213.611 104.062Z" fill="#D0BCFF"/>
<path d="M227.964 156.186H110.159C108.845 156.22 107.54 155.964 106.336 155.435C105.132 154.907 104.06 154.119 103.196 153.128C102.332 152.137 101.698 150.968 101.338 149.704C100.978 148.44 100.902 147.111 101.115 145.814L103.053 130.681C103.479 127.858 104.886 125.275 107.027 123.386C109.168 121.498 111.907 120.424 114.761 120.354H232.566C233.874 120.324 235.173 120.581 236.371 121.108C237.569 121.635 238.636 122.419 239.497 123.405C240.358 124.39 240.992 125.552 241.355 126.81C241.717 128.067 241.798 129.389 241.593 130.681L239.646 145.814C239.23 148.641 237.831 151.231 235.695 153.128C233.558 155.025 230.821 156.108 227.964 156.186V156.186Z" fill="white"/>
<path d="M227.965 156.637H110.159C108.796 156.666 107.442 156.399 106.191 155.855C104.94 155.311 103.821 154.503 102.912 153.487C102.006 152.437 101.337 151.204 100.95 149.873C100.564 148.541 100.469 147.142 100.673 145.77L102.655 130.619C103.091 127.686 104.547 124.999 106.768 123.033C108.989 121.066 111.831 119.945 114.797 119.867H232.566C233.931 119.836 235.286 120.101 236.539 120.644C237.791 121.186 238.912 121.993 239.823 123.009C240.727 124.059 241.395 125.292 241.78 126.624C242.164 127.956 242.258 129.355 242.053 130.726L240.115 145.867C239.683 148.806 238.227 151.498 236.004 153.468C233.781 155.438 230.934 156.56 227.965 156.637V156.637ZM114.761 120.752C112.018 120.838 109.392 121.885 107.341 123.709C105.29 125.533 103.945 128.02 103.54 130.735L101.602 145.876C101.412 147.122 101.494 148.395 101.842 149.606C102.191 150.817 102.797 151.939 103.62 152.894C104.447 153.815 105.464 154.546 106.6 155.038C107.737 155.53 108.966 155.77 110.204 155.743H227.965C230.716 155.668 233.353 154.626 235.412 152.8C237.472 150.975 238.824 148.483 239.23 145.761L241.168 130.619C241.358 129.373 241.276 128.101 240.928 126.89C240.58 125.678 239.973 124.557 239.151 123.602C238.323 122.681 237.306 121.95 236.17 121.458C235.033 120.966 233.804 120.725 232.566 120.752H114.761Z" fill="#21005D"/>
<path d="M123.894 151.15C122.267 151.182 120.653 150.862 119.162 150.211C117.671 149.56 116.339 148.595 115.256 147.381C114.181 146.129 113.387 144.661 112.929 143.076C112.471 141.492 112.359 139.827 112.601 138.195C113.117 134.689 114.854 131.477 117.506 129.127C120.158 126.776 123.554 125.437 127.097 125.345C128.725 125.313 130.34 125.633 131.833 126.284C133.325 126.935 134.659 127.901 135.743 129.115C136.818 130.366 137.612 131.834 138.07 133.419C138.528 135.004 138.64 136.669 138.398 138.301C137.882 141.808 136.144 145.021 133.49 147.372C130.836 149.723 127.438 151.061 123.894 151.15V151.15ZM127.088 126.23C123.761 126.321 120.573 127.58 118.082 129.788C115.592 131.995 113.958 135.009 113.469 138.301C113.243 139.81 113.345 141.35 113.768 142.816C114.191 144.282 114.925 145.64 115.92 146.796C116.919 147.914 118.148 148.803 119.523 149.402C120.898 150.001 122.386 150.295 123.885 150.265C127.211 150.175 130.4 148.915 132.89 146.708C135.381 144.501 137.015 141.486 137.504 138.195V138.195C137.731 136.686 137.63 135.147 137.209 133.681C136.787 132.215 136.055 130.857 135.062 129.699C134.058 128.578 132.823 127.687 131.442 127.088C130.061 126.489 128.567 126.196 127.062 126.23H127.088Z" fill="#EADDFF"/>
<path d="M133.974 134.292C133.882 134.42 133.779 134.539 133.664 134.646C130.124 137.767 126.599 140.888 123.089 144.009C122.726 144.336 122.478 144.336 122.204 144.009L117.628 138.566C117.381 138.274 117.434 137.991 117.77 137.726L119.248 136.531C119.558 136.283 119.805 136.283 120.036 136.531C120.938 137.593 121.844 138.652 122.752 139.708C123.027 140.044 123.274 140.044 123.637 139.708L131.85 132.451C132.204 132.142 132.451 132.142 132.735 132.451C133.018 132.761 133.451 133.274 133.805 133.699C133.887 133.806 133.955 133.922 134.009 134.044L133.974 134.292Z" fill="white"/>
<path d="M225.38 132.805H149.628C149.276 132.805 148.939 132.665 148.69 132.417C148.441 132.168 148.301 131.83 148.301 131.478C148.301 131.126 148.441 130.788 148.69 130.539C148.939 130.29 149.276 130.15 149.628 130.15H225.38C225.732 130.15 226.07 130.29 226.319 130.539C226.568 130.788 226.708 131.126 226.708 131.478C226.708 131.83 226.568 132.168 226.319 132.417C226.07 132.665 225.732 132.805 225.38 132.805Z" fill="#D0BCFF"/>
<path d="M208.292 145.575H147.991C147.639 145.575 147.301 145.435 147.052 145.186C146.803 144.937 146.664 144.6 146.664 144.248C146.664 143.896 146.803 143.558 147.052 143.309C147.301 143.06 147.639 142.92 147.991 142.92H208.292C208.644 142.92 208.982 143.06 209.231 143.309C209.479 143.558 209.619 143.896 209.619 144.248C209.619 144.6 209.479 144.937 209.231 145.186C208.982 145.435 208.644 145.575 208.292 145.575V145.575Z" fill="#D0BCFF"/>
<path d="M221 179.504C220.909 179.504 220.819 179.476 220.743 179.425L213.841 174.619C213.78 174.577 213.731 174.52 213.698 174.453C213.666 174.387 213.651 174.313 213.655 174.239C213.659 174.166 213.68 174.095 213.717 174.032C213.754 173.969 213.806 173.915 213.867 173.876L222.009 169.071C222.059 169.034 222.116 169.009 222.177 168.996C222.237 168.983 222.3 168.983 222.36 168.996C222.421 169.008 222.478 169.034 222.528 169.07C222.579 169.106 222.621 169.153 222.652 169.206C222.683 169.26 222.702 169.319 222.709 169.381C222.716 169.442 222.709 169.505 222.691 169.564C222.672 169.623 222.641 169.677 222.599 169.723C222.558 169.769 222.508 169.806 222.451 169.832L214.912 174.257L221.248 178.681C221.325 178.735 221.383 178.812 221.413 178.9C221.444 178.989 221.445 179.085 221.418 179.174C221.39 179.264 221.335 179.342 221.26 179.399C221.185 179.455 221.094 179.486 221 179.487V179.504Z" fill="#EADDFF"/>
<path d="M226.938 179.504C226.841 179.505 226.746 179.474 226.668 179.416C226.59 179.357 226.534 179.275 226.508 179.181C226.481 179.087 226.487 178.988 226.523 178.897C226.559 178.807 226.624 178.731 226.708 178.681L234.248 174.257L227.911 169.832C227.815 169.764 227.75 169.66 227.73 169.544C227.71 169.428 227.737 169.309 227.805 169.212C227.873 169.116 227.977 169.051 228.093 169.031C228.209 169.011 228.329 169.038 228.425 169.106L235.319 173.912C235.379 173.955 235.428 174.012 235.462 174.078C235.496 174.144 235.513 174.218 235.513 174.292C235.509 174.366 235.487 174.438 235.448 174.501C235.409 174.564 235.356 174.617 235.292 174.655L227.159 179.46C227.091 179.495 227.014 179.51 226.938 179.504V179.504Z" fill="#EADDFF"/>
<path d="M54.6899 100.708C54.6899 100.708 62.159 113.858 69.3979 115.044C78.3271 116.513 91.4156 108.637 91.4156 108.637L84.0705 101.425L69.0262 101.372L60.7961 84.5575L54.6899 100.708Z" fill="#6750A4"/>
<path d="M66.9116 186.46L67.4603 192.124L75.363 191.513L74.6196 184.708L66.9116 186.46Z" fill="white"/>
<path d="M67.4601 192.566C67.351 192.567 67.2457 192.526 67.1654 192.452C67.085 192.378 67.0354 192.277 67.0265 192.168L66.469 186.504C66.4597 186.397 66.4894 186.289 66.5527 186.201C66.6161 186.114 66.7088 186.052 66.8141 186.027L74.5221 184.257C74.5828 184.243 74.6455 184.243 74.7064 184.255C74.7673 184.267 74.8251 184.292 74.876 184.327C74.9273 184.365 74.9703 184.412 75.0023 184.467C75.0343 184.522 75.0546 184.583 75.0619 184.646L75.8052 191.442C75.8138 191.502 75.8096 191.563 75.7928 191.621C75.776 191.679 75.7471 191.733 75.7079 191.779C75.6295 191.87 75.5183 191.928 75.3982 191.938L67.4955 192.549L67.4601 192.566ZM67.3893 186.805L67.8583 191.655L74.876 191.106L74.2389 185.248L67.3893 186.805Z" fill="#21005D"/>
<path d="M11.5483 173.912L6.47754 177.947L9.3448 183.381L14.4067 181.142L11.5483 173.912Z" fill="white"/>
<path d="M9.34521 183.823C9.26542 183.824 9.18685 183.803 9.11815 183.763C9.04945 183.722 8.99328 183.663 8.95583 183.593L6.08858 178.15C6.03786 178.061 6.02156 177.955 6.04273 177.854C6.0639 177.753 6.12109 177.664 6.20362 177.602L11.2656 173.566C11.3202 173.524 11.3834 173.495 11.4506 173.48C11.5178 173.464 11.5875 173.464 11.6549 173.478C11.7222 173.496 11.7843 173.529 11.8365 173.575C11.8887 173.621 11.9295 173.679 11.9558 173.743L14.8231 180.982C14.8644 181.089 14.8626 181.208 14.818 181.314C14.7735 181.419 14.6896 181.504 14.5842 181.549L9.53105 183.788C9.47223 183.812 9.40894 183.824 9.34521 183.823V183.823ZM7.07973 178.062L9.593 182.814L13.885 180.912L11.3983 174.628L7.07973 178.062Z" fill="#21005D"/>
<path d="M26.7966 122.354L27.3275 158.558L9.62842 173.885L13.2744 182.903C13.2744 182.903 39.0089 170.513 43.0178 164.938C47.0266 159.363 47.6284 145.858 47.6284 145.858L60.8231 159.133L65.8851 187.876L75.9558 187.327C75.9558 187.327 74.6727 166.239 74.6727 158.407C74.6727 150.575 54.7258 123.637 54.7258 123.637L26.7966 122.354Z" fill="#21005D"/>
<path d="M65.9112 188.292C65.8075 188.293 65.7067 188.258 65.6271 188.191C65.5476 188.124 65.4945 188.032 65.4776 187.929L60.4333 159.292L48.044 146.85C47.8227 150.097 46.8581 160.354 43.4156 165.168C39.3802 170.796 14.5572 182.77 13.5041 183.274C13.4482 183.298 13.388 183.311 13.3271 183.311C13.2663 183.311 13.2061 183.298 13.1502 183.274C13.0936 183.253 13.0422 183.22 12.9995 183.177C12.9568 183.134 12.9237 183.083 12.9024 183.027L9.2652 174C9.23106 173.916 9.22378 173.823 9.24437 173.734C9.26496 173.645 9.31241 173.565 9.38024 173.504L26.8758 158.407L26.3537 122.398C26.3528 122.339 26.3642 122.28 26.387 122.225C26.4098 122.17 26.4437 122.121 26.4864 122.08C26.528 122.035 26.5791 122.001 26.6358 121.98C26.6926 121.958 26.7535 121.95 26.8139 121.956L54.7696 123.212C54.8356 123.214 54.9003 123.23 54.9587 123.261C55.017 123.292 55.0674 123.336 55.1059 123.389C55.9289 124.496 75.1413 150.531 75.1413 158.425C75.1413 166.15 76.4068 187.106 76.4245 187.319C76.4294 187.435 76.3888 187.55 76.3112 187.637C76.2337 187.725 76.1251 187.779 76.0086 187.788L65.9378 188.336L65.9112 188.292ZM47.6546 145.425C47.7697 145.426 47.8802 145.47 47.9643 145.549L61.159 158.823C61.2221 158.886 61.2652 158.966 61.2829 159.053L66.2829 187.416L75.513 186.912C75.3271 183.823 74.2564 165.531 74.2564 158.407C74.2564 151.124 56.2121 126.363 54.5218 124.071L27.2475 122.841L27.7696 158.584C27.7691 158.647 27.7554 158.71 27.7295 158.768C27.7036 158.826 27.6661 158.878 27.6192 158.92L10.1944 174.009L13.5307 182.301C16.8935 180.664 39.0617 169.735 42.6811 164.681C46.5749 159.257 47.2032 145.973 47.2121 145.841C47.2131 145.754 47.2409 145.671 47.2916 145.601C47.3424 145.531 47.4135 145.479 47.4953 145.451C47.5464 145.433 47.6003 145.424 47.6546 145.425V145.425Z" fill="#21005D"/>
<path d="M24.9824 125.938L25.6638 108.177C25.6638 108.177 25.3629 86.2655 33.4072 82.354C41.4514 78.4425 57.5665 80.1239 60.6904 84.5575C63.8143 88.9912 56.4072 125.938 56.4072 125.938H24.9824Z" fill="#6750A4"/>
<path d="M58.8319 65.7876C58.7356 63.918 57.9358 62.154 56.593 60.8496C53.7523 58.2921 47.3983 57.3097 45.0266 61.0885C44.2615 61.1521 43.5378 61.4627 42.9647 61.9735C42.2414 62.6844 41.7166 63.5722 41.4425 64.5487C40.1328 68.3009 41.2125 72.2832 42.6638 75.9115C43.1048 77.1457 43.8049 78.2712 44.7169 79.2124C46.9381 81.3275 50.0266 80.1682 52.5133 79.1062C54.1852 78.4429 55.6726 77.3866 56.8496 76.0266C58.2301 74.3363 58.9293 71.177 58.947 69.0266C58.9727 67.9456 58.9343 66.864 58.8319 65.7876V65.7876Z" fill="white"/>
<path d="M47.7874 80.7876C47.1672 80.8045 46.5499 80.6983 45.9712 80.475C45.3924 80.2517 44.8637 79.9158 44.4157 79.4867C43.4456 78.5082 42.705 77.3263 42.2475 76.0266C40.9378 72.7345 39.5927 68.4248 41.0263 64.354C41.328 63.3098 41.8951 62.3616 42.6723 61.6018C43.2679 61.1049 43.9981 60.7968 44.7696 60.7168C45.2574 60.0277 45.8875 59.4514 46.6173 59.027C47.3471 58.6025 48.1596 58.3398 48.9997 58.2567C50.402 58.0853 51.8245 58.2018 53.1802 58.5989C54.536 58.9961 55.7965 59.6655 56.8847 60.5664C58.3196 61.9335 59.1749 63.7994 59.2741 65.7788V65.7788C59.3735 66.8583 59.4119 67.9427 59.3891 69.0266C59.3891 71.3274 58.6104 74.5664 57.1944 76.3097C55.9746 77.7306 54.4249 78.8305 52.6812 79.5133C51.149 80.2543 49.4863 80.6873 47.7874 80.7876V80.7876ZM50.2121 59.0177C49.848 59.0143 49.4842 59.0379 49.1236 59.0885C48.3753 59.1616 47.6527 59.4004 47.0082 59.7877C46.3638 60.175 45.8137 60.701 45.398 61.3274C45.3605 61.3861 45.3097 61.4352 45.2498 61.4705C45.1898 61.5059 45.1223 61.5266 45.0528 61.531C44.3992 61.5789 43.7784 61.8365 43.2829 62.2655C42.6237 62.9285 42.1428 63.7474 41.8847 64.646C40.5661 68.4336 41.8847 72.5487 43.0971 75.6991C43.5088 76.8806 44.1767 77.9564 45.0528 78.8496C46.9997 80.708 49.7343 79.7345 52.3626 78.6549C53.9731 78.0254 55.4065 77.0141 56.5396 75.708C57.805 74.1416 58.513 71.0708 58.5307 68.9735C58.5539 67.9249 58.5155 66.8759 58.4157 65.8319V65.8319C58.3372 64.0692 57.5867 62.4035 56.3183 61.177C54.5952 59.7705 52.4364 59.0071 50.2121 59.0177V59.0177Z" fill="#21005D"/>
<path d="M52.9203 79.9558L52.3716 85.3186C52.3716 85.3186 51.115 88.177 47.7964 86.7522C46.8459 86.3387 46.0285 85.67 45.4349 84.8202C44.8413 83.9704 44.4947 82.9728 44.4336 81.9381L45.4867 72.3274C45.4867 72.3274 48.2832 71.4425 48.4867 65.708C48.4867 65.708 51.8141 65.708 57.0619 65.9558C57.0619 65.9558 57.7876 74.8053 56.9115 77.4071C56.0354 80.0089 52.9203 79.9558 52.9203 79.9558Z" fill="white"/>
<path d="M49.5575 87.6106C48.8919 87.5972 48.2357 87.4497 47.6283 87.177C46.5971 86.7338 45.7105 86.0106 45.0693 85.0893C44.428 84.1681 44.0576 83.0856 44 81.9646L45.0531 72.3009C45.0634 72.217 45.0971 72.1376 45.1503 72.0719C45.2035 72.0062 45.274 71.9568 45.354 71.9292C45.354 71.9292 47.8673 70.9735 48.0531 65.7345C48.0577 65.6203 48.1063 65.5122 48.1888 65.433C48.2713 65.3538 48.3812 65.3097 48.4956 65.3098V65.3098C48.4956 65.3098 51.8938 65.3098 57.0885 65.5575C57.1961 65.5594 57.2992 65.6012 57.3777 65.6748C57.4562 65.7484 57.5045 65.8485 57.5133 65.9558C57.5133 66.3274 58.2301 74.9292 57.3363 77.5929C57.0228 78.4066 56.4758 79.1094 55.7642 79.6132C55.0525 80.1171 54.2079 80.3994 53.3363 80.4248L52.823 85.4071C52.8321 85.4539 52.8321 85.5019 52.823 85.5487C52.5207 86.1592 52.056 86.6746 51.4799 87.0384C50.9038 87.4021 50.2387 87.6001 49.5575 87.6106V87.6106ZM45.9115 72.646L44.8673 81.9823C44.9352 82.9244 45.2608 83.8298 45.8087 84.5992C46.3565 85.3687 47.1054 85.9727 47.9734 86.3452C50.6283 87.4956 51.7522 85.5752 51.9469 85.2036L52.4867 79.8938C52.4996 79.7851 52.5516 79.6847 52.633 79.6114C52.7144 79.5381 52.8197 79.497 52.9292 79.4956C53.0442 79.4956 55.7345 79.4956 56.469 77.2478C57.2035 75 56.7611 68.0885 56.6372 66.3628C52.7168 66.1947 49.9115 66.1505 48.8938 66.1328C48.6726 70.7965 46.646 72.2301 45.9027 72.6283L45.9115 72.646Z" fill="#21005D"/>
<path d="M47.5398 72.5044C47.5039 72.0103 47.3082 71.5413 46.9823 71.1681C46.6647 70.8334 46.2902 70.5577 45.8761 70.354C45.664 70.2131 45.4213 70.1251 45.1681 70.0974C44.9902 70.0957 44.8135 70.1257 44.646 70.1858C44.2436 70.3099 43.8965 70.5694 43.6637 70.9204C43.5133 71.2254 43.4404 71.5628 43.4513 71.9027C43.4324 72.2707 43.4621 72.6397 43.5398 73C43.6249 73.3559 43.7796 73.6914 43.995 73.9872C44.2105 74.283 44.4824 74.5331 44.7951 74.7232C45.1078 74.9133 45.455 75.0395 45.8167 75.0946C46.1785 75.1497 46.5476 75.1326 46.9027 75.0443" fill="white"/>
<path d="M46.2387 75.5752C45.6486 75.5759 45.0698 75.4136 44.5662 75.1062C43.8325 74.6565 43.3074 73.934 43.106 73.0973C43.0193 72.6994 42.9865 72.2916 43.0086 71.885C42.9997 71.473 43.094 71.0653 43.283 70.6991C43.5733 70.2697 44.0057 69.9563 44.5042 69.8142C44.7236 69.7276 44.9588 69.6884 45.1945 69.6991C45.5098 69.7308 45.8132 69.8369 46.0794 70.0088C46.5386 70.2287 46.9551 70.5283 47.3095 70.8938C47.7038 71.3384 47.9375 71.9024 47.9732 72.4956C47.9806 72.6115 47.942 72.7257 47.8658 72.8135C47.7896 72.9013 47.682 72.9555 47.5662 72.9646C47.4498 72.9698 47.3357 72.9307 47.247 72.8552C47.1583 72.7796 47.1016 72.6733 47.0883 72.5575C47.0599 72.1596 46.9048 71.7812 46.6458 71.4779C46.3557 71.1853 46.0212 70.9404 45.6546 70.7522C45.4996 70.651 45.3245 70.5846 45.1414 70.5575C45.0201 70.5602 44.9003 70.5842 44.7874 70.6283C44.4849 70.7125 44.2217 70.9005 44.044 71.1593C43.9321 71.4002 43.8776 71.6637 43.8847 71.9292C43.863 72.2583 43.8868 72.5889 43.9555 72.9115C44.1067 73.5176 44.4875 74.0412 45.0175 74.3717C45.5498 74.6888 46.1854 74.7842 46.7874 74.6372C46.9047 74.6078 47.0289 74.6263 47.1327 74.6885C47.2364 74.7508 47.3112 74.8517 47.3405 74.969C47.3698 75.0864 47.3513 75.2106 47.2891 75.3143C47.2269 75.418 47.126 75.4928 47.0086 75.5221C46.7549 75.5693 46.4965 75.5871 46.2387 75.5752V75.5752Z" fill="#21005D"/>
<path d="M52.6637 82.531C51.5173 82.2167 50.493 81.5626 49.7256 80.6549C49.4075 80.3165 49.1837 79.9007 49.0765 79.4488C48.9694 78.9969 48.9826 78.5248 49.115 78.0797C49.5737 78.6513 50.1522 79.1155 50.8096 79.4397C51.467 79.7638 52.1875 79.94 52.9203 79.9558L52.6637 82.531Z" fill="#21005D"/>
<path d="M52.6635 82.9734H52.575C51.3374 82.6401 50.2298 81.9397 49.398 80.9646C49.0213 80.567 48.7579 80.0758 48.635 79.5421C48.5121 79.0084 48.5341 78.4515 48.6989 77.9292C48.7249 77.8557 48.7711 77.7911 48.8321 77.7425C48.8931 77.694 48.9665 77.6637 49.044 77.6549C49.1221 77.6413 49.2025 77.6498 49.276 77.6796C49.3495 77.7093 49.4132 77.759 49.4599 77.823C49.882 78.3345 50.408 78.7505 51.003 79.0435C51.598 79.3364 52.2484 79.4995 52.9112 79.5221C53.0371 79.5257 53.157 79.5762 53.2475 79.6637C53.2892 79.7104 53.3208 79.7651 53.3406 79.8244C53.3604 79.8838 53.3679 79.9465 53.3626 80.0089L53.0971 82.5841C53.0923 82.6446 53.0749 82.7034 53.0459 82.7568C53.0169 82.8101 52.9771 82.8568 52.9289 82.8938C52.8496 82.9446 52.7577 82.9722 52.6635 82.9734V82.9734ZM49.4511 79.0619C49.5086 79.5484 49.7194 80.004 50.0528 80.3628C50.6601 81.0541 51.4209 81.5936 52.2741 81.9381L52.4334 80.3805C51.3242 80.2701 50.2793 79.8081 49.4511 79.0619V79.0619Z" fill="#21005D"/>
<path d="M54.0705 75.2655C53.6449 75.2522 53.2252 75.1623 52.8316 75C52.7224 74.9554 52.6355 74.8693 52.5898 74.7606C52.5442 74.6519 52.5436 74.5295 52.5882 74.4203C52.6328 74.3112 52.7189 74.2243 52.8276 74.1786C52.9363 74.133 53.0587 74.1324 53.1678 74.177C53.5305 74.342 53.9326 74.4003 54.3271 74.3451C54.145 73.3379 53.8013 72.3667 53.3094 71.469C53.2578 71.3634 53.2502 71.2416 53.2884 71.1304C53.3266 71.0192 53.4074 70.9277 53.513 70.8761C53.6186 70.8245 53.7404 70.8169 53.8516 70.8551C53.9628 70.8932 54.0543 70.974 54.1059 71.0796C55.7165 74.354 55.1413 74.8318 54.9909 74.9911C54.7291 75.1942 54.4008 75.2921 54.0705 75.2655V75.2655Z" fill="#21005D"/>
<path d="M52.7344 77.0619C52.1838 77.0758 51.6426 76.918 51.1857 76.6106C50.9343 76.4185 50.7257 76.176 50.5733 75.8987C50.4209 75.6213 50.3281 75.3153 50.3007 75C50.292 74.9423 50.2951 74.8835 50.3097 74.827C50.3242 74.7705 50.3501 74.7175 50.3856 74.6713C50.4211 74.625 50.4656 74.5864 50.5164 74.5577C50.5672 74.529 50.6233 74.5109 50.6813 74.5044C50.7961 74.4892 50.9123 74.5196 51.005 74.5891C51.0976 74.6586 51.1593 74.7616 51.1769 74.8761C51.1888 75.0745 51.2432 75.268 51.3363 75.4435C51.4294 75.6191 51.5591 75.7726 51.7167 75.8938C52.1203 76.1366 52.5962 76.2305 53.0618 76.1593C53.1765 76.1409 53.2938 76.1675 53.3894 76.2334C53.485 76.2993 53.5515 76.3996 53.5751 76.5133C53.5958 76.6282 53.5702 76.7467 53.5039 76.8428C53.4375 76.939 53.3359 77.005 53.2211 77.0265C53.0606 77.0558 52.8974 77.0676 52.7344 77.0619Z" fill="#21005D"/>
<path d="M52.1063 70.2566C52.0442 70.2559 51.9829 70.2422 51.9265 70.2163C51.8701 70.1903 51.8198 70.1528 51.7788 70.1062C51.7043 70.0134 51.6118 69.9365 51.5069 69.8802C51.402 69.824 51.2868 69.7895 51.1682 69.7788C50.842 69.8021 50.5319 69.9292 50.2832 70.1416C50.241 70.1847 50.1904 70.2186 50.1346 70.2414C50.0787 70.2642 50.0188 70.2753 49.9585 70.2741C49.8982 70.2729 49.8388 70.2594 49.7839 70.2344C49.729 70.2094 49.6799 70.1734 49.6394 70.1287C49.5989 70.084 49.568 70.0315 49.5485 69.9744C49.5291 69.9173 49.5215 69.8568 49.5263 69.7967C49.5311 69.7366 49.5481 69.6781 49.5763 69.6248C49.6045 69.5715 49.6433 69.5245 49.6903 69.4867C50.1185 69.1036 50.6733 68.8924 51.2479 68.8938C51.4845 68.9107 51.7154 68.9751 51.9267 69.083C52.138 69.191 52.3255 69.3403 52.4779 69.5221C52.5539 69.612 52.5918 69.7279 52.5835 69.8453C52.5753 69.9626 52.5215 70.0721 52.4337 70.1504C52.389 70.1891 52.337 70.2184 52.2807 70.2367C52.2245 70.2549 52.1652 70.2617 52.1063 70.2566V70.2566Z" fill="#21005D"/>
<path d="M54.7697 70.7965C54.7054 70.8087 54.6393 70.8087 54.575 70.7965C54.5227 70.771 54.4758 70.7354 54.4372 70.6918C54.3987 70.6482 54.3691 70.5974 54.3501 70.5423C54.3312 70.4872 54.3234 70.4289 54.327 70.3708C54.3307 70.3127 54.3458 70.2558 54.3715 70.2036C54.4666 70.0095 54.6043 69.8394 54.7745 69.7061C54.9446 69.5728 55.1426 69.4796 55.3538 69.4336C55.6263 69.4182 55.8984 69.4708 56.1456 69.5866C56.3928 69.7025 56.6072 69.878 56.7697 70.0974C56.8112 70.1385 56.8441 70.1874 56.8666 70.2413C56.889 70.2953 56.9006 70.3531 56.9006 70.4115C56.9006 70.4699 56.889 70.5278 56.8666 70.5817C56.8441 70.6356 56.8112 70.6845 56.7697 70.7257C56.687 70.8067 56.5758 70.8522 56.46 70.8522C56.3442 70.8522 56.233 70.8067 56.1502 70.7257C55.8936 70.4513 55.6724 70.3098 55.5131 70.3363C55.3538 70.3628 55.2122 70.5752 55.1945 70.6195C55.1455 70.6837 55.0804 70.7338 55.0058 70.7649C54.9312 70.796 54.8498 70.8068 54.7697 70.7965V70.7965Z" fill="#21005D"/>
<path d="M49.3364 87.3805L46.3807 88.8407L48.1063 91.1947L42.9824 113.071L47.8408 118.602L52.1063 111.097L49.6461 91.2212L51.6019 89.0973L49.3364 87.3805Z" fill="white"/>
<path d="M6.47767 177.947L0.530762 181.982C0.530762 181.982 10.6193 199.115 13.4246 194.69C14.1856 193.469 9.34492 183.372 9.34492 183.372L6.47767 177.947Z" fill="#21005D"/>
<path d="M12.2035 195.876C8.31851 195.823 0.99993 183.602 0.176921 182.212C0.119175 182.115 0.100755 182 0.125436 181.89C0.150117 181.779 0.216028 181.683 0.309663 181.619L6.19462 177.584C6.24558 177.549 6.30332 177.524 6.36423 177.512C6.42514 177.5 6.4879 177.5 6.5486 177.513C6.609 177.53 6.66528 177.56 6.71398 177.599C6.76268 177.639 6.80277 177.688 6.83179 177.743L9.73444 183.186C11.2212 186.301 14.5929 193.646 13.7875 194.938C13.6305 195.221 13.401 195.457 13.1226 195.622C12.8442 195.787 12.527 195.874 12.2035 195.876ZM1.12382 182.115C3.46011 186.009 9.40701 194.956 12.1858 194.991C12.3668 194.988 12.5438 194.937 12.6991 194.844C12.8544 194.751 12.9825 194.618 13.0707 194.46C13.3893 193.699 11.1946 188.212 8.96453 183.575L6.30967 178.593L1.12382 182.115Z" fill="#21005D"/>
<path d="M67.3894 192.124C67.3894 192.124 67.2036 198.735 67.8053 198.841C68.4071 198.947 87.177 196.416 85.7522 194.982C84.3274 193.549 75.3629 191.513 75.3629 191.513L67.3894 192.124Z" fill="#21005D"/>
<path d="M67.7342 199.283C67.3713 199.212 66.7607 199.106 66.9554 192.115C66.9594 192.007 67.0031 191.904 67.0781 191.825C67.1532 191.747 67.2543 191.699 67.3625 191.69L75.3271 191.071H75.4598C76.389 191.283 84.5926 193.177 86.0793 194.655C86.1825 194.755 86.2503 194.886 86.2727 195.028C86.295 195.17 86.2706 195.315 86.2032 195.442C85.1943 197.345 68.1412 199.283 67.7342 199.283ZM67.8226 192.54C67.7249 194.498 67.796 196.461 68.035 198.407C70.1147 198.354 83.5395 196.257 85.274 195.15C83.9465 194.168 78.7253 192.735 75.3359 191.956L67.8226 192.54Z" fill="#21005D"/>
<path d="M56.9468 123.814H56.8848C56.8257 123.808 56.7685 123.789 56.7166 123.76C56.6648 123.731 56.6193 123.692 56.5829 123.645C56.5466 123.598 56.5201 123.544 56.5051 123.486C56.4901 123.429 56.4868 123.369 56.4955 123.31C57.1857 117.912 60.5486 97.1682 60.584 96.9646C60.5865 96.9008 60.6024 96.8383 60.6309 96.7812C60.6593 96.7241 60.6995 96.6736 60.7489 96.6332C60.7982 96.5927 60.8556 96.5632 60.9172 96.5465C60.9788 96.5299 61.0432 96.5265 61.1062 96.5366C61.1693 96.5467 61.2294 96.57 61.2828 96.605C61.3361 96.6401 61.3814 96.686 61.4157 96.7398C61.4499 96.7937 61.4724 96.8542 61.4816 96.9173C61.4908 96.9805 61.4864 97.0448 61.4689 97.1062C61.4689 97.3186 58.0795 118.044 57.3893 123.425C57.3744 123.532 57.3216 123.63 57.2404 123.702C57.1592 123.773 57.055 123.813 56.9468 123.814Z" fill="#21005D"/>
<path d="M93.4244 117.027C107.833 117.027 119.513 105.346 119.513 90.9381C119.513 76.5298 107.833 64.8496 93.4244 64.8496C79.0162 64.8496 67.3359 76.5298 67.3359 90.9381C67.3359 105.346 79.0162 117.027 93.4244 117.027Z" fill="#21005D"/>
<path d="M93.4071 117.478C88.2223 117.478 83.151 115.959 78.8192 113.11C74.4873 110.261 71.0846 106.206 69.0309 101.445C66.9772 96.6844 66.3624 91.4264 67.2625 86.3203C68.1626 81.2142 70.5381 76.4835 74.0959 72.7119C77.6536 68.9403 82.2379 66.293 87.2828 65.0968C92.3278 63.9006 97.6126 64.2078 102.485 65.9804C107.357 67.7531 111.604 70.9137 114.701 75.072C117.798 79.2304 119.609 84.2045 119.912 89.3805V89.3805C120.318 96.4042 117.92 103.302 113.244 108.558C108.568 113.815 101.997 117.001 94.9735 117.416C94.4543 117.457 93.9322 117.478 93.4071 117.478ZM93.4602 65.2655C92.9558 65.2655 92.4425 65.2655 91.9292 65.2655C86.8603 65.558 81.992 67.3475 77.9404 70.4075C73.8888 73.4676 70.8359 77.6607 69.168 82.4563C67.5002 87.2519 67.2923 92.4345 68.5707 97.3483C69.8491 102.262 72.5563 106.686 76.3498 110.061C80.1433 113.436 84.8526 115.609 89.8818 116.307C94.911 117.005 100.034 116.195 104.603 113.98C109.172 111.765 112.981 108.244 115.548 103.864C118.116 99.4837 119.326 94.4402 119.027 89.3717V89.3717C118.641 82.8477 115.781 76.7164 111.031 72.2287C106.28 67.7409 99.9956 65.2347 93.4602 65.2212V65.2655Z" fill="#21005D"/>
<path d="M89.3981 117.265C103.806 117.265 115.487 105.585 115.487 91.177C115.487 76.7687 103.806 65.0885 89.3981 65.0885C74.9898 65.0885 63.3096 76.7687 63.3096 91.177C63.3096 105.585 74.9898 117.265 89.3981 117.265Z" fill="#6750A4"/>
<path d="M89.3804 117.699C82.4227 117.491 75.8261 114.554 71.0157 109.523C66.2052 104.492 63.567 97.7705 63.671 90.8105C63.775 83.8504 66.6129 77.2107 71.5716 72.3256C76.5302 67.4404 83.2117 64.7021 90.1725 64.7021C97.1333 64.7021 103.815 67.4404 108.773 72.3256C113.732 77.2107 116.57 83.8504 116.674 90.8105C116.778 97.7705 114.14 104.492 109.329 109.523C104.519 114.554 97.9222 117.491 90.9645 117.699C90.4158 117.699 89.8849 117.699 89.3804 117.699ZM89.4335 65.4867C88.9291 65.4867 88.4247 65.4867 87.9203 65.4867C81.1823 65.6855 74.793 68.5273 70.1331 73.398C65.4731 78.2688 62.9166 84.7775 63.016 91.5176C63.1154 98.2578 65.8626 104.688 70.6642 109.42C75.4657 114.151 81.936 116.803 88.6769 116.803C95.4178 116.803 101.888 114.151 106.69 109.42C111.491 104.688 114.238 98.2578 114.338 91.5176C114.437 84.7775 111.881 78.2688 107.221 73.398C102.561 68.5273 96.1715 65.6855 89.4335 65.4867V65.4867Z" fill="#21005D"/>
<path d="M105.84 82.3894C105.671 82.6648 105.479 82.9253 105.265 83.1681L85.0175 103.389C84.9156 103.552 84.774 103.686 84.6061 103.779C84.4381 103.872 84.2493 103.921 84.0573 103.921C83.8653 103.921 83.6764 103.872 83.5085 103.779C83.3405 103.686 83.199 103.552 83.0971 103.389C79.2918 99.4661 75.4953 95.5457 71.7077 91.6283C71.5636 91.521 71.4479 91.3803 71.3704 91.2182C71.2929 91.0562 71.2561 90.8777 71.263 90.6982C71.27 90.5187 71.3206 90.3436 71.4104 90.188C71.5002 90.0325 71.6266 89.9011 71.7785 89.8053L74.6369 87.2301C74.7397 87.101 74.8703 86.9968 75.0189 86.9252C75.1675 86.8536 75.3303 86.8163 75.4953 86.8163C75.6603 86.8163 75.8232 86.8536 75.9718 86.9252C76.1204 86.9968 76.251 87.101 76.3537 87.2301C78.5897 89.5251 80.8346 91.8142 83.0883 94.0974C83.7874 94.8053 84.3095 94.8142 85.0086 94.0974L100.752 78.4336C100.854 78.2785 100.994 78.1511 101.157 78.063C101.321 77.9749 101.504 77.9288 101.69 77.9288C101.876 77.9288 102.059 77.9749 102.223 78.063C102.386 78.1511 102.526 78.2785 102.628 78.4336C103.513 79.3186 104.398 80.2036 105.283 81.0885C105.483 81.3265 105.666 81.5778 105.832 81.8407L105.84 82.3894Z" fill="white"/>
<path d="M64.2036 105.938C64.2036 105.938 69.5133 105.265 70.3275 104.717C71.1417 104.168 73.3806 100.575 74.5399 100.292C75.6992 100.009 75.4868 102.673 74.5399 103.761C73.593 104.85 79.0266 100.885 79.9116 101.77C80.5008 102.541 80.82 103.485 80.82 104.456C80.82 105.426 80.5008 106.37 79.9116 107.142C78.416 108.973 69.4425 112.522 64.7523 112.752" fill="white"/>
<path d="M64.7519 113.15C64.6384 113.153 64.5284 113.111 64.4457 113.033C64.363 112.955 64.314 112.848 64.3094 112.735C64.3058 112.676 64.3138 112.618 64.3327 112.563C64.3517 112.508 64.3814 112.457 64.42 112.414C64.4587 112.37 64.5055 112.335 64.5579 112.309C64.6103 112.284 64.6672 112.269 64.7254 112.265C69.1501 112.044 78.1501 108.558 79.5661 106.814C80.0823 106.126 80.3614 105.289 80.3614 104.429C80.3614 103.569 80.0823 102.732 79.5661 102.044C79.0882 101.841 76.6457 103.248 75.8404 103.717C74.6015 104.425 74.3448 104.602 74.0705 104.23C73.7962 103.858 73.9378 103.761 74.1855 103.478C74.4796 103.101 74.6836 102.662 74.7817 102.194C74.8799 101.726 74.8697 101.242 74.7519 100.779C74.7519 100.726 74.6988 100.708 74.6192 100.779C74.0705 100.903 72.8493 102.398 72.1059 103.381C71.6644 104.035 71.141 104.629 70.5484 105.15C69.6634 105.717 65.1501 106.327 64.2475 106.442C64.1313 106.458 64.014 106.426 63.9211 106.355C63.8282 106.283 63.7673 106.178 63.7519 106.062C63.7432 106.004 63.7462 105.945 63.7608 105.889C63.7754 105.832 63.8012 105.779 63.8368 105.733C63.8723 105.687 63.9168 105.648 63.9676 105.62C64.0184 105.591 64.0745 105.573 64.1324 105.566C66.2917 105.292 69.5572 104.743 70.0616 104.416C70.5578 103.934 71.0108 103.41 71.4156 102.85C72.6723 101.257 73.628 100.115 74.4156 99.9292C74.6237 99.8722 74.8448 99.8865 75.0437 99.9699C75.2426 100.053 75.4079 100.201 75.513 100.389C75.8465 101.212 75.8465 102.133 75.513 102.956C77.7431 101.673 79.5041 100.761 80.2209 101.478C80.879 102.331 81.2359 103.378 81.2359 104.456C81.2359 105.533 80.879 106.58 80.2209 107.434C78.6457 109.372 69.6015 112.973 64.7431 113.212L64.7519 113.15Z" fill="#21005D"/>
<path d="M35.2476 82.2213C35.2476 82.2213 37.5043 104.912 44.0972 105.018C52.1238 105.159 65.8406 104.858 65.8406 104.858L68.4954 113.416C68.4954 113.416 47.2565 118.513 38.3184 114.646C29.3804 110.779 28.7344 95.4779 28.7344 95.4779L35.2476 82.2213Z" fill="#6750A4"/>
<path d="M50.6019 105.726C46.9736 105.726 43.9116 105.602 43.0532 105.23C40.7081 104.195 36.3984 89.3009 35.5576 86.354C35.5416 86.2965 35.5371 86.2363 35.5444 86.1771C35.5518 86.1178 35.5708 86.0606 35.6005 86.0087C35.6301 85.9568 35.6697 85.9114 35.7171 85.8749C35.7644 85.8385 35.8185 85.8118 35.8762 85.7965C35.9332 85.779 35.993 85.7732 36.0523 85.7794C36.1115 85.7857 36.1688 85.8038 36.2209 85.8327C36.273 85.8616 36.3186 85.9008 36.3552 85.9478C36.3918 85.9947 36.4185 86.0486 36.4338 86.1062C38.3364 92.823 41.9116 103.726 43.4249 104.389C44.9382 105.053 57.6904 104.779 65.8143 104.389C65.8746 104.385 65.9352 104.392 65.9924 104.412C66.0497 104.431 66.1023 104.462 66.1471 104.503C66.1919 104.543 66.2278 104.593 66.2528 104.648C66.2777 104.703 66.2912 104.763 66.2922 104.823C66.2957 104.883 66.2873 104.943 66.2673 105C66.2474 105.057 66.2163 105.109 66.1759 105.153C66.1355 105.198 66.0866 105.234 66.0321 105.259C65.9776 105.284 65.9186 105.299 65.8585 105.301C64.5399 105.372 56.7612 105.726 50.6019 105.726Z" fill="#21005D"/>
<path d="M47.8405 116.381C44.5449 116.498 41.2534 116.055 38.106 115.071C29.6901 111.876 28.3184 99.9469 28.3184 99.4336C28.306 99.3152 28.3408 99.1967 28.4154 99.1038C28.49 99.011 28.5983 98.9514 28.7166 98.9381C28.836 98.9255 28.9556 98.9601 29.0499 99.0345C29.1441 99.1089 29.2055 99.2172 29.221 99.3363C29.221 99.4602 30.5839 111.221 38.5131 114.212C46.5927 117.257 64.8671 113.726 65.0617 113.69C65.1681 113.69 65.2712 113.727 65.3535 113.795C65.4358 113.862 65.4921 113.956 65.513 114.06C65.5338 114.165 65.5179 114.273 65.4679 114.367C65.4179 114.461 65.3369 114.534 65.2387 114.575C59.5002 115.663 53.6803 116.267 47.8405 116.381V116.381Z" fill="#21005D"/>
</svg>
