<svg width="360" height="185" viewBox="0 0 360 185" fill="none" xmlns="http://www.w3.org/2000/svg">
<path d="M357.851 160.766H0.459733C0.337804 160.766 0.220869 160.707 0.134653 160.603C0.0484363 160.499 0 160.358 0 160.211C0.00255091 160.065 0.0518062 159.926 0.137476 159.823C0.223146 159.72 0.338604 159.66 0.459733 159.657H357.851C357.972 159.66 358.088 159.72 358.173 159.823C358.259 159.926 358.308 160.065 358.311 160.211C358.311 160.358 358.263 160.499 358.176 160.603C358.09 160.707 357.973 160.766 357.851 160.766Z" fill="#EADDFF"/>
<path d="M291.22 10.926H119.91C118.939 10.8956 117.974 11.1246 117.084 11.5966C116.195 12.0686 115.404 12.7719 114.766 13.6561C114.129 14.5403 113.662 15.5834 113.399 16.7108C113.136 17.8381 113.083 19.0216 113.244 20.1765L129.634 170.739C129.945 173.267 130.987 175.582 132.576 177.275C134.165 178.967 136.199 179.929 138.319 179.989H309.629C310.601 180.02 311.566 179.791 312.455 179.319C313.344 178.847 314.136 178.143 314.773 177.259C315.41 176.375 315.877 175.332 316.14 174.205C316.404 173.077 316.456 171.894 316.295 170.739L299.905 20.1765C299.595 17.6481 298.553 15.3332 296.964 13.6406C295.375 11.9479 293.34 10.9865 291.22 10.926Z" fill="#21005D"/>
<path d="M309.629 180.531H138.319C136.094 180.457 133.961 179.443 132.293 177.667C130.626 175.89 129.529 173.463 129.195 170.811L112.804 20.2488C112.646 19.009 112.712 17.7426 112.998 16.5366C113.285 15.3306 113.784 14.2137 114.463 13.2627C115.148 12.3452 115.989 11.6172 116.929 11.1286C117.87 10.64 118.886 10.4024 119.91 10.4321H291.22C293.435 10.5028 295.56 11.5048 297.226 13.2646C298.892 15.0244 299.996 17.4312 300.345 20.0681L316.735 170.63C316.894 171.87 316.827 173.137 316.541 174.343C316.255 175.549 315.755 176.665 315.076 177.616C314.398 178.549 313.559 179.293 312.619 179.796C311.678 180.3 310.658 180.551 309.629 180.531ZM119.91 11.456C119.011 11.433 118.118 11.645 117.294 12.0775C116.469 12.51 115.732 13.1527 115.133 13.9613C114.542 14.7949 114.107 15.7711 113.855 16.8244C113.603 17.8777 113.541 18.9837 113.674 20.0681L130.064 170.63C130.368 173.029 131.36 175.223 132.869 176.83C134.378 178.437 136.307 179.355 138.319 179.423H309.629C310.528 179.446 311.421 179.234 312.246 178.802C313.07 178.369 313.808 177.726 314.407 176.918C315.005 176.08 315.445 175.096 315.697 174.033C315.949 172.971 316.007 171.855 315.866 170.763L299.475 20.2006C299.172 17.8018 298.179 15.6075 296.67 14.0005C295.162 12.3936 293.233 11.476 291.22 11.4078L119.91 11.456Z" fill="#21005D"/>
<path d="M104.849 34.9075H293.739L274.89 170.751C274.486 173.295 273.375 175.598 271.74 177.28C270.105 178.962 268.043 179.921 265.895 180.001H92.416C91.4527 180.041 90.4945 179.815 89.6147 179.34C88.735 178.866 87.9568 178.155 87.3397 177.262C86.7226 176.37 86.2829 175.319 86.0542 174.191C85.8254 173.062 85.8136 171.886 86.0198 170.751L104.849 34.9075Z" fill="white"/>
<path d="M265.925 180.555H92.4161C91.4014 180.585 90.3939 180.343 89.466 179.847C88.5381 179.351 87.7128 178.614 87.0492 177.689C86.3874 176.72 85.9115 175.587 85.6558 174.371C85.4001 173.155 85.3708 171.886 85.5701 170.654L104.399 34.8232C104.418 34.6956 104.473 34.5799 104.555 34.4962C104.637 34.4126 104.741 34.3664 104.849 34.3655H293.739C293.805 34.3668 293.87 34.3846 293.93 34.4178C293.99 34.4509 294.044 34.4988 294.088 34.5582C294.129 34.6206 294.159 34.6922 294.176 34.7688C294.193 34.8454 294.197 34.9253 294.188 35.0039L275.339 170.835C274.907 173.496 273.742 175.903 272.034 177.667C270.325 179.431 268.173 180.449 265.925 180.555ZM105.199 35.4616L86.4695 170.835C86.2942 171.909 86.317 173.015 86.5363 174.077C86.7557 175.139 87.1662 176.129 87.7388 176.978C88.3243 177.768 89.0467 178.394 89.855 178.81C90.6633 179.226 91.5376 179.423 92.4161 179.387H265.925C267.961 179.3 269.911 178.383 271.458 176.785C273.005 175.188 274.056 173.005 274.44 170.594L293.179 35.4014L105.199 35.4616Z" fill="#21005D"/>
<path d="M115.852 10.926H289.361C290.325 10.8863 291.283 11.1124 292.162 11.5871C293.042 12.0618 293.82 12.7725 294.437 13.6649C295.055 14.5574 295.494 15.608 295.723 16.7365C295.952 17.8651 295.964 19.0417 295.757 20.1765L293.759 34.8955H104.869L106.868 20.1765C107.269 17.6329 108.378 15.3303 110.011 13.6485C111.645 11.9668 113.705 11.0064 115.852 10.926Z" fill="#6750A4"/>
<path d="M293.719 35.4495H104.829C104.761 35.451 104.694 35.4332 104.634 35.3976C104.573 35.362 104.52 35.3097 104.479 35.2448C104.434 35.1859 104.401 35.1146 104.383 35.0369C104.366 34.9592 104.364 34.8776 104.379 34.7991L106.378 20.0922C106.811 17.424 107.986 15.0132 109.708 13.2572C111.43 11.5012 113.597 10.5048 115.852 10.4321H289.361C290.377 10.4037 291.386 10.6459 292.315 11.1414C293.245 11.637 294.072 12.3736 294.738 13.2988C295.398 14.2682 295.872 15.4016 296.126 16.6177C296.38 17.8338 296.408 19.1026 296.207 20.3331L294.208 35.04C294.182 35.1686 294.118 35.2812 294.028 35.3566C293.938 35.432 293.828 35.4651 293.719 35.4495ZM105.389 34.3414H293.339L295.338 20.0922C295.515 19.0188 295.493 17.9114 295.274 16.8494C295.055 15.7874 294.643 14.797 294.068 13.9493C293.483 13.1591 292.761 12.5338 291.952 12.1175C291.144 11.7012 290.27 11.5041 289.391 11.5403H115.852C113.818 11.63 111.87 12.5484 110.325 14.1455C108.78 15.7426 107.73 17.924 107.347 20.3331L105.389 34.3414Z" fill="#21005D"/>
<path d="M121.109 159.79H121.029C120.971 159.778 120.915 159.753 120.865 159.715C120.814 159.677 120.771 159.628 120.736 159.569C120.702 159.511 120.678 159.445 120.664 159.376C120.651 159.306 120.65 159.234 120.66 159.164L135.791 49.9999C135.813 49.8558 135.88 49.7276 135.979 49.6423C136.078 49.5569 136.2 49.5211 136.321 49.5422C136.439 49.5686 136.545 49.6504 136.614 49.7699C136.683 49.8894 136.711 50.0369 136.69 50.1806L121.559 159.344C121.538 159.47 121.482 159.583 121.4 159.664C121.318 159.745 121.216 159.79 121.109 159.79Z" fill="#21005D"/>
<path d="M146.415 159.79H146.335C146.275 159.78 146.218 159.755 146.167 159.718C146.115 159.681 146.071 159.632 146.035 159.573C146 159.515 145.975 159.448 145.961 159.378C145.947 159.308 145.945 159.235 145.955 159.164L161.096 49.9999C161.098 49.9212 161.115 49.844 161.144 49.7735C161.173 49.703 161.214 49.6407 161.265 49.5909C161.315 49.5411 161.374 49.5049 161.437 49.4847C161.501 49.4645 161.567 49.4607 161.631 49.4737C161.695 49.4866 161.757 49.516 161.811 49.5598C161.865 49.6036 161.911 49.6609 161.946 49.7278C161.98 49.7947 162.003 49.8696 162.011 49.9477C162.02 50.0258 162.014 50.1052 161.995 50.1806L146.854 159.344C146.836 159.469 146.781 159.581 146.701 159.663C146.621 159.744 146.519 159.789 146.415 159.79Z" fill="#21005D"/>
<path d="M171.71 159.79H171.64C171.581 159.78 171.523 159.755 171.472 159.718C171.421 159.681 171.376 159.631 171.341 159.573C171.305 159.515 171.28 159.448 171.266 159.378C171.252 159.308 171.25 159.235 171.26 159.164L186.391 49.9999C186.413 49.8558 186.481 49.7276 186.58 49.6423C186.678 49.5569 186.801 49.5211 186.921 49.5422C186.98 49.5538 187.037 49.5796 187.088 49.6182C187.139 49.6569 187.184 49.7074 187.218 49.767C187.253 49.8265 187.277 49.8938 187.289 49.9649C187.302 50.0359 187.302 50.1093 187.291 50.1806L172.16 159.344C172.139 159.47 172.083 159.583 172.001 159.664C171.919 159.745 171.816 159.79 171.71 159.79Z" fill="#21005D"/>
<path d="M197.015 159.79H196.935C196.876 159.78 196.819 159.755 196.768 159.718C196.717 159.681 196.673 159.631 196.639 159.572C196.604 159.514 196.58 159.447 196.567 159.377C196.554 159.307 196.554 159.234 196.565 159.164L211.696 49.9999C211.699 49.9212 211.715 49.844 211.744 49.7735C211.773 49.703 211.815 49.6407 211.865 49.5909C211.916 49.5411 211.975 49.5049 212.038 49.4847C212.101 49.4645 212.167 49.4607 212.231 49.4737C212.296 49.4866 212.357 49.516 212.412 49.5598C212.466 49.6036 212.512 49.6609 212.546 49.7278C212.581 49.7947 212.603 49.8696 212.612 49.9477C212.62 50.0258 212.615 50.1052 212.596 50.1806L197.465 159.344C197.444 159.47 197.388 159.583 197.306 159.664C197.224 159.745 197.121 159.79 197.015 159.79Z" fill="#21005D"/>
<path d="M222.31 159.79H222.24C222.181 159.78 222.124 159.755 222.073 159.718C222.021 159.681 221.976 159.632 221.941 159.573C221.906 159.515 221.88 159.448 221.866 159.378C221.853 159.308 221.851 159.235 221.861 159.164L237.002 49.9999C237.004 49.9212 237.02 49.844 237.05 49.7735C237.079 49.703 237.12 49.6407 237.17 49.5909C237.221 49.5411 237.28 49.5049 237.343 49.4847C237.406 49.4645 237.472 49.4607 237.537 49.4737C237.601 49.4866 237.663 49.516 237.717 49.5598C237.771 49.6036 237.817 49.6609 237.852 49.7278C237.886 49.7947 237.908 49.8696 237.917 49.9477C237.926 50.0258 237.92 50.1052 237.901 50.1806L222.76 159.344C222.739 159.47 222.683 159.583 222.601 159.664C222.519 159.745 222.416 159.79 222.31 159.79Z" fill="#21005D"/>
<path d="M247.616 159.79H247.536C247.477 159.778 247.421 159.753 247.371 159.715C247.321 159.677 247.277 159.628 247.243 159.569C247.208 159.511 247.184 159.445 247.171 159.376C247.157 159.306 247.156 159.234 247.166 159.164L262.297 49.9999C262.299 49.9212 262.316 49.844 262.345 49.7735C262.374 49.703 262.415 49.6407 262.466 49.5909C262.516 49.5411 262.575 49.5049 262.638 49.4847C262.701 49.4645 262.767 49.4607 262.832 49.4737C262.896 49.4866 262.958 49.516 263.012 49.5598C263.066 49.6036 263.112 49.6609 263.147 49.7278C263.181 49.7947 263.204 49.8696 263.212 49.9477C263.221 50.0258 263.215 50.1052 263.196 50.1806L248.115 159.344C248.093 159.48 248.03 159.602 247.937 159.684C247.845 159.767 247.73 159.804 247.616 159.79Z" fill="#21005D"/>
<path d="M121.109 159.79H121.029C120.971 159.778 120.915 159.753 120.865 159.715C120.814 159.677 120.771 159.628 120.736 159.569C120.702 159.511 120.678 159.445 120.664 159.376C120.651 159.306 120.65 159.234 120.66 159.164L135.791 49.9999C135.813 49.8558 135.88 49.7276 135.979 49.6423C136.078 49.5569 136.2 49.5211 136.321 49.5422C136.439 49.5686 136.545 49.6504 136.614 49.7699C136.683 49.8894 136.711 50.0369 136.69 50.1806L121.559 159.344C121.538 159.47 121.482 159.583 121.4 159.664C121.318 159.745 121.216 159.79 121.109 159.79Z" stroke="#EADDFF" stroke-width="0.92" stroke-linecap="round" stroke-linejoin="round"/>
<path d="M146.415 159.79H146.335C146.275 159.78 146.218 159.755 146.167 159.718C146.115 159.681 146.071 159.631 146.035 159.573C146 159.515 145.975 159.448 145.961 159.378C145.947 159.308 145.945 159.235 145.955 159.164L161.096 49.9999C161.098 49.9212 161.115 49.844 161.144 49.7735C161.173 49.703 161.214 49.6407 161.265 49.5909C161.315 49.5411 161.374 49.5049 161.437 49.4847C161.501 49.4645 161.567 49.4607 161.631 49.4737C161.695 49.4866 161.757 49.516 161.811 49.5598C161.865 49.6036 161.911 49.6609 161.946 49.7278C161.98 49.7947 162.003 49.8696 162.011 49.9477C162.02 50.0258 162.014 50.1052 161.995 50.1806L146.854 159.344C146.836 159.469 146.781 159.581 146.701 159.663C146.621 159.744 146.519 159.789 146.415 159.79V159.79Z" stroke="#EADDFF" stroke-width="0.92" stroke-linecap="round" stroke-linejoin="round"/>
<path d="M171.71 159.79H171.64C171.581 159.78 171.523 159.755 171.472 159.718C171.421 159.681 171.376 159.631 171.341 159.573C171.305 159.515 171.28 159.448 171.266 159.378C171.252 159.308 171.25 159.235 171.26 159.164L186.391 49.9999C186.413 49.8558 186.481 49.7276 186.58 49.6423C186.678 49.5569 186.801 49.5211 186.921 49.5422C186.98 49.5538 187.037 49.5796 187.088 49.6182C187.139 49.6569 187.184 49.7074 187.218 49.767C187.253 49.8265 187.277 49.8938 187.289 49.9649C187.302 50.0359 187.302 50.1093 187.291 50.1806L172.16 159.344C172.139 159.47 172.083 159.583 172.001 159.664C171.919 159.745 171.816 159.79 171.71 159.79V159.79Z" stroke="#EADDFF" stroke-width="0.92" stroke-linecap="round" stroke-linejoin="round"/>
<path d="M197.015 159.79H196.935C196.876 159.78 196.819 159.755 196.768 159.718C196.717 159.681 196.673 159.631 196.639 159.572C196.604 159.514 196.58 159.447 196.567 159.377C196.554 159.307 196.554 159.234 196.565 159.164L211.696 49.9999C211.699 49.9212 211.715 49.844 211.744 49.7735C211.773 49.703 211.815 49.6407 211.865 49.5909C211.916 49.5411 211.975 49.5049 212.038 49.4847C212.101 49.4645 212.167 49.4607 212.231 49.4737C212.296 49.4866 212.357 49.516 212.412 49.5598C212.466 49.6036 212.512 49.6609 212.546 49.7278C212.581 49.7947 212.603 49.8696 212.612 49.9477C212.62 50.0258 212.615 50.1052 212.596 50.1806L197.465 159.344C197.444 159.47 197.388 159.583 197.306 159.664C197.224 159.745 197.121 159.79 197.015 159.79V159.79Z" stroke="#EADDFF" stroke-width="0.92" stroke-linecap="round" stroke-linejoin="round"/>
<path d="M222.31 159.79H222.24C222.181 159.78 222.124 159.755 222.073 159.718C222.021 159.681 221.976 159.631 221.941 159.573C221.906 159.515 221.88 159.448 221.866 159.378C221.853 159.308 221.851 159.235 221.861 159.164L237.002 49.9999C237.004 49.9212 237.02 49.844 237.05 49.7735C237.079 49.703 237.12 49.6407 237.17 49.5909C237.221 49.5411 237.28 49.5049 237.343 49.4847C237.406 49.4645 237.472 49.4607 237.537 49.4737C237.601 49.4866 237.663 49.516 237.717 49.5598C237.771 49.6036 237.817 49.6609 237.852 49.7278C237.886 49.7947 237.908 49.8696 237.917 49.9477C237.926 50.0258 237.92 50.1052 237.901 50.1806L222.76 159.344C222.739 159.47 222.683 159.583 222.601 159.664C222.519 159.745 222.416 159.79 222.31 159.79Z" stroke="#EADDFF" stroke-width="0.92" stroke-linecap="round" stroke-linejoin="round"/>
<path d="M247.616 159.79H247.536C247.477 159.778 247.421 159.753 247.371 159.715C247.321 159.677 247.277 159.628 247.243 159.569C247.208 159.511 247.184 159.445 247.171 159.376C247.157 159.306 247.156 159.234 247.166 159.164L262.297 49.9999C262.299 49.9212 262.316 49.844 262.345 49.7735C262.374 49.703 262.415 49.6407 262.466 49.5909C262.516 49.5411 262.575 49.5049 262.638 49.4847C262.701 49.4645 262.767 49.4607 262.832 49.4737C262.896 49.4866 262.958 49.516 263.012 49.5598C263.066 49.6036 263.112 49.6609 263.147 49.7278C263.181 49.7947 263.204 49.8696 263.212 49.9477C263.221 50.0258 263.215 50.1052 263.196 50.1806L248.115 159.344C248.093 159.48 248.03 159.602 247.937 159.684C247.845 159.767 247.73 159.804 247.616 159.79V159.79Z" stroke="#EADDFF" stroke-width="0.92" stroke-linecap="round" stroke-linejoin="round"/>
<path d="M278.468 75.9448H113.504C113.438 75.9565 113.372 75.9511 113.308 75.9289C113.245 75.9068 113.186 75.8683 113.136 75.8163C113.086 75.7643 113.046 75.6999 113.018 75.6275C112.991 75.5551 112.976 75.4764 112.976 75.3967C112.976 75.3171 112.991 75.2384 113.018 75.166C113.046 75.0936 113.086 75.0292 113.136 74.9771C113.186 74.9251 113.245 74.8867 113.308 74.8646C113.372 74.8424 113.438 74.837 113.504 74.8487H278.468C278.533 74.837 278.6 74.8424 278.663 74.8646C278.727 74.8867 278.785 74.9251 278.835 74.9771C278.885 75.0292 278.926 75.0936 278.953 75.166C278.981 75.2384 278.995 75.3171 278.995 75.3967C278.995 75.4764 278.981 75.5551 278.953 75.6275C278.926 75.6999 278.885 75.7643 278.835 75.8163C278.785 75.8683 278.727 75.9068 278.663 75.9289C278.6 75.9511 278.533 75.9565 278.468 75.9448Z" fill="#21005D"/>
<path d="M274.41 105.214H109.446C109.381 105.226 109.314 105.22 109.251 105.198C109.187 105.176 109.128 105.138 109.078 105.086C109.028 105.034 108.988 104.969 108.961 104.897C108.933 104.824 108.919 104.746 108.919 104.666C108.919 104.586 108.933 104.508 108.961 104.435C108.988 104.363 109.028 104.298 109.078 104.246C109.128 104.194 109.187 104.156 109.251 104.134C109.314 104.112 109.381 104.106 109.446 104.118H274.41C274.475 104.106 274.542 104.112 274.605 104.134C274.669 104.156 274.728 104.194 274.778 104.246C274.828 104.298 274.868 104.363 274.895 104.435C274.923 104.508 274.937 104.586 274.937 104.666C274.937 104.746 274.923 104.824 274.895 104.897C274.868 104.969 274.828 105.034 274.778 105.086C274.728 105.138 274.669 105.176 274.605 105.198C274.542 105.22 274.475 105.226 274.41 105.214Z" fill="#21005D"/>
<path d="M270.352 134.495H105.389C105.267 134.495 105.15 134.437 105.063 134.333C104.977 134.229 104.929 134.088 104.929 133.941C104.929 133.794 104.977 133.653 105.063 133.55C105.15 133.446 105.267 133.387 105.389 133.387H270.352C270.474 133.387 270.591 133.446 270.677 133.55C270.764 133.653 270.812 133.794 270.812 133.941C270.812 134.088 270.764 134.229 270.677 134.333C270.591 134.437 270.474 134.495 270.352 134.495Z" fill="#21005D"/>
<path d="M113.504 75.3907H278.468" stroke="#EADDFF" stroke-width="0.92" stroke-linecap="round" stroke-linejoin="round"/>
<path d="M278.468 75.9448H113.504C113.438 75.9565 113.372 75.9511 113.308 75.9289C113.245 75.9068 113.186 75.8683 113.136 75.8163C113.086 75.7643 113.046 75.6999 113.018 75.6275C112.991 75.5551 112.976 75.4764 112.976 75.3967C112.976 75.3171 112.991 75.2384 113.018 75.166C113.046 75.0936 113.086 75.0292 113.136 74.9771C113.186 74.9251 113.245 74.8867 113.308 74.8646C113.372 74.8424 113.438 74.837 113.504 74.8487H278.468C278.533 74.837 278.6 74.8424 278.663 74.8646C278.727 74.8867 278.785 74.9251 278.835 74.9771C278.885 75.0292 278.926 75.0936 278.953 75.166C278.981 75.2384 278.995 75.3171 278.995 75.3967C278.995 75.4764 278.981 75.5551 278.953 75.6275C278.926 75.6999 278.885 75.7643 278.835 75.8163C278.785 75.8683 278.727 75.9068 278.663 75.9289C278.6 75.9511 278.533 75.9565 278.468 75.9448V75.9448Z" stroke="#EADDFF" stroke-width="0.92" stroke-linecap="round" stroke-linejoin="round"/>
<path d="M109.446 104.672H274.41" stroke="#EADDFF" stroke-width="0.92" stroke-linecap="round" stroke-linejoin="round"/>
<path d="M274.41 105.214H109.446C109.381 105.226 109.314 105.22 109.251 105.198C109.187 105.176 109.128 105.138 109.078 105.086C109.028 105.034 108.988 104.969 108.961 104.897C108.933 104.824 108.919 104.746 108.919 104.666C108.919 104.586 108.933 104.508 108.961 104.435C108.988 104.363 109.028 104.298 109.078 104.246C109.128 104.194 109.187 104.156 109.251 104.134C109.314 104.112 109.381 104.106 109.446 104.118H274.41C274.475 104.106 274.542 104.112 274.605 104.134C274.669 104.156 274.728 104.194 274.778 104.246C274.828 104.298 274.868 104.363 274.895 104.435C274.923 104.508 274.937 104.586 274.937 104.666C274.937 104.746 274.923 104.824 274.895 104.897C274.868 104.969 274.828 105.034 274.778 105.086C274.728 105.138 274.669 105.176 274.605 105.198C274.542 105.22 274.475 105.226 274.41 105.214V105.214Z" stroke="#EADDFF" stroke-width="0.92" stroke-linecap="round" stroke-linejoin="round"/>
<path d="M105.389 133.941H270.352" stroke="#EADDFF" stroke-width="0.92" stroke-linecap="round" stroke-linejoin="round"/>
<path d="M270.352 134.495H105.389C105.267 134.495 105.15 134.437 105.063 134.333C104.977 134.229 104.929 134.088 104.929 133.941C104.929 133.794 104.977 133.653 105.063 133.55C105.15 133.446 105.267 133.387 105.389 133.387H270.352C270.474 133.387 270.591 133.446 270.677 133.55C270.764 133.653 270.812 133.794 270.812 133.941C270.812 134.088 270.764 134.229 270.677 134.333C270.591 134.437 270.474 134.495 270.352 134.495V134.495Z" stroke="#EADDFF" stroke-width="0.92" stroke-linecap="round" stroke-linejoin="round"/>
<path d="M160.516 99.1073C160.45 99.1092 160.384 99.0928 160.323 99.0594C160.262 99.026 160.209 98.9765 160.167 98.9146C160.091 98.8021 160.055 98.6584 160.066 98.5144C160.077 98.3703 160.135 98.2373 160.226 98.1437L177.866 80.4496C177.96 80.3586 178.079 80.3152 178.198 80.3287C178.318 80.3422 178.428 80.4115 178.506 80.5219C178.582 80.6363 178.618 80.7819 178.607 80.9279C178.596 81.0739 178.538 81.2091 178.446 81.3048L160.816 98.9868C160.731 99.0675 160.625 99.11 160.516 99.1073Z" fill="#6750A4"/>
<path d="M175.697 99.1073C175.633 99.1073 175.57 99.0912 175.512 99.0601C175.453 99.029 175.401 98.9835 175.358 98.9266L162.625 81.2325C162.542 81.1292 162.496 80.9909 162.496 80.8471C162.496 80.7032 162.542 80.565 162.625 80.4616C162.669 80.4128 162.722 80.3754 162.779 80.3519C162.835 80.3284 162.896 80.3191 162.956 80.3248C163.016 80.3304 163.074 80.3508 163.127 80.3847C163.18 80.4186 163.227 80.4653 163.265 80.5219L175.997 98.2039C176.08 98.3072 176.127 98.4455 176.127 98.5893C176.127 98.7332 176.08 98.8714 175.997 98.9748C175.957 99.0199 175.91 99.0549 175.859 99.0777C175.807 99.1004 175.752 99.1105 175.697 99.1073Z" fill="#6750A4"/>
<path d="M232.814 130.015C232.747 130.013 232.681 129.994 232.62 129.959C232.56 129.924 232.507 129.873 232.464 129.81C232.426 129.755 232.397 129.691 232.379 129.622C232.361 129.553 232.354 129.481 232.36 129.409C232.366 129.337 232.383 129.268 232.411 129.204C232.439 129.141 232.478 129.084 232.524 129.039L250.114 111.357C250.159 111.302 250.213 111.258 250.272 111.229C250.332 111.2 250.396 111.187 250.46 111.189C250.524 111.192 250.587 111.211 250.645 111.245C250.703 111.279 250.754 111.327 250.795 111.386C250.837 111.445 250.867 111.514 250.885 111.589C250.903 111.663 250.908 111.741 250.899 111.818C250.891 111.894 250.869 111.968 250.835 112.034C250.801 112.1 250.757 112.156 250.704 112.2L233.124 129.882C233.038 129.971 232.927 130.018 232.814 130.015Z" fill="#6750A4"/>
<path d="M247.995 130.015C247.93 130.015 247.866 129.998 247.807 129.964C247.749 129.931 247.697 129.882 247.656 129.822L234.923 112.14C234.837 112.036 234.789 111.895 234.789 111.748C234.789 111.602 234.837 111.461 234.923 111.357C235.017 111.264 235.137 111.218 235.258 111.229C235.379 111.241 235.492 111.308 235.573 111.417L248.295 129.099C248.381 129.203 248.43 129.344 248.43 129.491C248.43 129.638 248.381 129.778 248.295 129.882C248.211 129.966 248.105 130.013 247.995 130.015Z" fill="#6750A4"/>
<path d="M251.993 179.568L276.509 156.453H262.327C260.337 156.537 258.43 157.434 256.919 158.997C255.408 160.56 254.382 162.696 254.012 165.054L251.993 179.568Z" fill="white"/>
<path d="M251.993 180.122C251.912 180.122 251.833 180.097 251.763 180.05C251.684 179.992 251.622 179.907 251.583 179.806C251.543 179.706 251.53 179.593 251.543 179.483L253.542 164.957C253.937 162.476 255.019 160.23 256.612 158.586C258.204 156.943 260.212 156 262.307 155.911H276.489C276.584 155.909 276.678 155.944 276.756 156.011C276.833 156.079 276.89 156.175 276.918 156.285C276.952 156.391 276.955 156.508 276.928 156.616C276.901 156.725 276.845 156.82 276.769 156.887L252.263 180.001C252.186 180.075 252.091 180.117 251.993 180.122ZM262.327 157.007C260.445 157.088 258.642 157.936 257.213 159.413C255.784 160.89 254.814 162.909 254.462 165.138L252.643 178.267L275.189 157.007H262.327Z" fill="#21005D"/>
<path d="M239.89 28.4032C239.539 28.4025 239.194 28.2903 238.891 28.078C237.205 26.8952 235.772 25.2529 234.707 23.2828C233.643 21.3126 232.976 19.0694 232.76 16.7327C232.544 14.396 232.785 12.0309 233.464 9.82672C234.143 7.62253 235.24 5.64058 236.669 4.03963C238.098 2.43867 239.818 1.26321 241.691 0.607389C243.564 -0.0484332 245.539 -0.166389 247.457 0.262982C249.375 0.692352 251.183 1.65711 252.736 3.07998C254.289 4.50284 255.544 6.34427 256.4 8.45676C256.634 9.03177 256.668 9.69492 256.495 10.3003C256.323 10.9057 255.958 11.4037 255.481 11.6848C255.004 11.9659 254.454 12.0071 253.951 11.7993C253.449 11.5915 253.036 11.1517 252.803 10.5767C251.961 8.49636 250.559 6.82114 248.826 5.82427C247.093 4.82741 245.13 4.5677 243.259 5.08753C241.388 5.60735 239.718 6.87603 238.521 8.68663C237.325 10.4972 236.673 12.7429 236.672 15.0574C236.674 16.851 237.065 18.6128 237.807 20.1679C238.549 21.7229 239.615 23.0173 240.899 23.9225C241.275 24.1908 241.567 24.5996 241.731 25.0866C241.896 25.5736 241.923 26.112 241.81 26.6198C241.697 27.1275 241.449 27.5766 241.104 27.8987C240.759 28.2207 240.336 28.3979 239.9 28.4032H239.89Z" fill="#21005D"/>
<path d="M194.926 28.4032C194.575 28.4025 194.23 28.2903 193.927 28.078C191.551 26.4152 189.695 23.8546 188.649 20.7927C187.602 17.7307 187.422 14.3383 188.137 11.1407C188.852 7.94313 190.421 5.11876 192.603 3.10495C194.784 1.09114 197.455 0.000234946 200.203 0.00117408C202.545 -0.0121519 204.841 0.772303 206.829 2.26408C208.817 3.75586 210.414 5.89423 211.437 8.43266C211.67 9.00767 211.704 9.67081 211.532 10.2762C211.359 10.8816 210.994 11.3796 210.517 11.6607C210.04 11.9418 209.49 11.983 208.988 11.7752C208.485 11.5674 208.072 11.1276 207.839 10.5526C206.997 8.47225 205.595 6.79705 203.862 5.80018C202.129 4.80331 200.167 4.54361 198.295 5.06343C196.424 5.58326 194.754 6.85194 193.558 8.66254C192.361 10.4731 191.709 12.7188 191.708 15.0333C191.71 16.8283 192.103 18.5914 192.846 20.1467C193.59 21.7021 194.658 22.9956 195.946 23.8984C196.321 24.1667 196.613 24.5755 196.777 25.0625C196.942 25.5495 196.969 26.0879 196.856 26.5957C196.743 27.1034 196.495 27.5525 196.15 27.8745C195.805 28.1966 195.382 28.3738 194.946 28.3792L194.926 28.4032Z" fill="#21005D"/>
<path d="M149.962 28.4032C149.611 28.4078 149.265 28.2953 148.963 28.078C147.275 26.8972 145.84 25.256 144.773 23.2861C143.706 21.3162 143.037 19.0725 142.819 16.7347C142.602 14.397 142.842 12.0303 143.52 9.82451C144.198 7.61868 145.296 5.63508 146.725 4.03277C148.154 2.43045 149.875 1.254 151.749 0.597743C153.623 -0.0585107 155.599 -0.176306 157.518 0.253805C159.437 0.683916 161.246 1.64996 162.799 3.07449C164.353 4.49901 165.607 6.34237 166.463 8.45675C166.588 8.74188 166.664 9.05432 166.687 9.37556C166.71 9.69679 166.679 10.0203 166.596 10.3269C166.513 10.6335 166.38 10.9169 166.205 11.1604C166.029 11.4039 165.815 11.6025 165.575 11.7444C165.335 11.8863 165.073 11.9687 164.806 11.9866C164.539 12.0046 164.272 11.9577 164.02 11.8488C163.768 11.7399 163.537 11.5712 163.34 11.3527C163.144 11.1342 162.985 10.8703 162.875 10.5767C162.036 8.48958 160.634 6.80747 158.899 5.8057C157.164 4.80394 155.198 4.54187 153.323 5.0624C151.448 5.58292 149.775 6.85521 148.578 8.67097C147.381 10.4867 146.731 12.7384 146.734 15.0574C146.739 16.8519 147.132 18.614 147.875 20.169C148.618 21.724 149.686 23.0179 150.972 23.9225C151.347 24.1908 151.639 24.5996 151.804 25.0866C151.968 25.5736 151.996 26.112 151.882 26.6197C151.769 27.1275 151.521 27.5766 151.176 27.8986C150.831 28.2207 150.409 28.3979 149.972 28.4032H149.962Z" fill="#21005D"/>
<path d="M146.175 7.3968C146.088 7.39731 146.002 7.37251 145.925 7.32453C145.809 7.24378 145.724 7.11136 145.689 6.95586C145.653 6.80036 145.67 6.63427 145.735 6.49343C146.689 4.73929 148.018 3.32846 149.583 2.41018C149.643 2.36548 149.71 2.33661 149.78 2.32546C149.85 2.3143 149.921 2.32112 149.989 2.34546C150.056 2.3698 150.119 2.4111 150.172 2.46666C150.225 2.52222 150.268 2.59078 150.298 2.66782C150.328 2.74486 150.344 2.82864 150.345 2.91365C150.346 2.99865 150.332 3.08297 150.304 3.16103C150.276 3.23909 150.235 3.30914 150.183 3.36657C150.131 3.424 150.07 3.4675 150.003 3.49423C148.631 4.32586 147.46 5.57058 146.605 7.10772C146.56 7.1965 146.497 7.26979 146.421 7.32045C146.346 7.3711 146.261 7.39741 146.175 7.3968Z" fill="white"/>
<path d="M191.718 7.3968C191.631 7.39617 191.545 7.36787 191.469 7.31476C191.394 7.26164 191.331 7.18555 191.288 7.09411C191.244 7.00266 191.221 6.89905 191.221 6.79364C191.222 6.68823 191.245 6.58471 191.288 6.49343C192.243 4.73525 193.576 3.32361 195.146 2.41017C195.266 2.3442 195.402 2.33755 195.525 2.39165C195.649 2.44575 195.749 2.55626 195.806 2.69926C195.834 2.77025 195.851 2.8474 195.854 2.92615C195.857 3.0049 195.847 3.08366 195.825 3.15776C195.803 3.23187 195.768 3.29982 195.724 3.35761C195.679 3.4154 195.626 3.46185 195.566 3.49422C194.194 4.32586 193.023 5.57057 192.168 7.10772C192.121 7.2001 192.055 7.27569 191.976 7.32656C191.897 7.37742 191.808 7.40169 191.718 7.3968Z" fill="white"/>
<path d="M236.202 7.39681C236.115 7.39596 236.03 7.37124 235.952 7.32453C235.838 7.24179 235.755 7.1085 235.722 6.95317C235.688 6.79784 235.706 6.63282 235.772 6.49343C236.724 4.74094 238.049 3.33025 239.61 2.41018C239.67 2.37564 239.735 2.35573 239.801 2.35158C239.867 2.34744 239.933 2.35915 239.995 2.38604C240.057 2.41294 240.115 2.45447 240.164 2.50824C240.212 2.56201 240.252 2.62694 240.28 2.69926C240.308 2.77026 240.325 2.8474 240.328 2.92615C240.331 3.0049 240.321 3.08366 240.299 3.15777C240.277 3.23187 240.242 3.29982 240.198 3.35761C240.153 3.4154 240.1 3.46185 240.04 3.49423C238.668 4.32586 237.497 5.57058 236.642 7.10772C236.595 7.19665 236.53 7.26979 236.453 7.32033C236.376 7.37087 236.29 7.39717 236.202 7.39681Z" fill="white"/>
<path d="M38.2369 24.6568L15.2205 26.0766L21.0616 163.619L44.0781 162.199L38.2369 24.6568Z" fill="white"/>
<path d="M21.0777 164.174C20.9591 164.174 20.8451 164.119 20.7595 164.021C20.6738 163.922 20.6231 163.787 20.6179 163.644L14.7713 26.0906C14.7663 26.0188 14.7734 25.9466 14.7923 25.8782C14.8112 25.8099 14.8415 25.7469 14.8813 25.6931C14.9626 25.5806 15.0776 25.5113 15.2011 25.5004L38.1877 24.0791C38.31 24.0755 38.4288 24.1284 38.5198 24.2269C38.6109 24.3254 38.6672 24.4621 38.6774 24.6091L44.554 162.199C44.5597 162.272 44.5518 162.345 44.5311 162.414C44.5104 162.483 44.4772 162.545 44.434 162.596C44.3953 162.654 44.3467 162.701 44.2916 162.735C44.2364 162.768 44.1759 162.787 44.1142 162.789L21.1276 164.21L21.0777 164.174ZM15.7108 26.5965L21.5174 163.03L43.6145 161.669L37.8079 25.2354L15.7108 26.5965Z" fill="#EADDFF"/>
<path d="M18.08 163.591L21.1582 163.405L15.4445 25.6829L12.3663 25.8684L18.08 163.591Z" fill="white"/>
<path d="M18.0095 164.355C17.897 164.353 17.788 164.307 17.6997 164.222C17.6125 164.12 17.5592 163.983 17.5498 163.837L11.7032 26.2954C11.6974 26.2217 11.7041 26.1473 11.723 26.0769C11.7419 26.0064 11.7726 25.9414 11.8132 25.8858C11.898 25.7807 12.0117 25.7165 12.133 25.7052L15.2012 25.5124C15.3235 25.5089 15.4423 25.5617 15.5333 25.6603C15.6244 25.7588 15.6807 25.8955 15.6909 26.0424L21.5375 163.584C21.543 163.732 21.5 163.877 21.4177 163.987C21.3355 164.098 21.2206 164.165 21.0977 164.174L18.0295 164.355H18.0095ZM12.6427 26.7892L18.4493 163.223L20.598 163.09L14.7914 26.6567L12.6427 26.7892Z" fill="#EADDFF"/>
<path d="M16.2505 33.9801C16.1286 33.9801 16.0116 33.9217 15.9254 33.8178C15.8392 33.7139 15.7908 33.573 15.7908 33.426C15.7908 33.2791 15.8392 33.1381 15.9254 33.0342C16.0116 32.9303 16.1286 32.8719 16.2505 32.8719L20.588 32.5949C20.6484 32.5917 20.7087 32.6028 20.7655 32.6277C20.8223 32.6526 20.8745 32.6908 20.919 32.74C20.9636 32.7892 20.9997 32.8485 21.0252 32.9146C21.0507 32.9806 21.0651 33.0521 21.0677 33.1249C21.0717 33.1971 21.0638 33.2695 21.0442 33.3379C21.0247 33.4063 20.994 33.4693 20.954 33.5232C20.9139 33.577 20.8653 33.6207 20.811 33.6516C20.7568 33.6825 20.6979 33.7 20.6379 33.703L16.3005 33.9801H16.2505Z" fill="#EADDFF"/>
<path d="M16.6003 43.2186C16.4824 43.2158 16.3698 43.1598 16.2846 43.0616C16.1995 42.9635 16.148 42.8303 16.1405 42.6886C16.1365 42.6154 16.1448 42.542 16.1649 42.4729C16.185 42.4037 16.2166 42.3401 16.2577 42.2861C16.2988 42.232 16.3486 42.1886 16.4041 42.1584C16.4595 42.1282 16.5195 42.1119 16.5803 42.1104L21.0677 41.8213C21.19 41.8178 21.3088 41.8706 21.3998 41.9692C21.4909 42.0677 21.5472 42.2044 21.5574 42.3513C21.5601 42.4241 21.5508 42.4968 21.5301 42.5653C21.5095 42.6337 21.4778 42.6966 21.437 42.7503C21.3961 42.804 21.3469 42.8475 21.2921 42.8782C21.2373 42.909 21.178 42.9264 21.1176 42.9295L16.6203 43.2186H16.6003Z" fill="#EADDFF"/>
<path d="M16.9901 52.4571C16.8786 52.4373 16.7767 52.3698 16.703 52.267C16.6293 52.1642 16.5887 52.0329 16.5887 51.897C16.5887 51.7611 16.6293 51.6298 16.703 51.5269C16.7767 51.4241 16.8786 51.3566 16.9901 51.3369L24.5457 50.8792C24.666 50.8726 24.7837 50.9231 24.8734 51.02C24.9631 51.1168 25.0177 51.2523 25.0254 51.3971C25.031 51.5434 24.9894 51.6866 24.9093 51.7966C24.8291 51.9067 24.7168 51.975 24.5957 51.9873L17.0401 52.445L16.9901 52.4571Z" fill="#EADDFF"/>
<path d="M17.3898 61.6835C17.2722 61.6868 17.1582 61.6344 17.0723 61.5376C16.9864 61.4408 16.9353 61.3072 16.9301 61.1656C16.926 61.0928 16.9339 61.0197 16.9534 60.9506C16.9728 60.8815 17.0033 60.8177 17.0433 60.7629C17.0832 60.708 17.1317 60.6633 17.186 60.6311C17.2404 60.5989 17.2994 60.58 17.3599 60.5754L21.6973 60.3104C21.7577 60.3072 21.818 60.3183 21.8749 60.3432C21.9317 60.3681 21.9838 60.4063 22.0284 60.4555C22.073 60.5047 22.109 60.564 22.1345 60.6301C22.16 60.6961 22.1745 60.7676 22.1771 60.8404C22.1811 60.9125 22.1731 60.985 22.1536 61.0534C22.1341 61.1218 22.1034 61.1848 22.0633 61.2387C22.0233 61.2925 21.9747 61.3362 21.9204 61.3671C21.8661 61.398 21.8073 61.4155 21.7473 61.4185L17.4098 61.6835H17.3898Z" fill="#EADDFF"/>
<path d="M17.7797 70.922C17.6627 70.9223 17.5501 70.8689 17.4647 70.7727C17.3793 70.6765 17.3275 70.5447 17.3199 70.4041C17.3144 70.2559 17.3574 70.111 17.4397 70.0006C17.5219 69.8903 17.6368 69.8232 17.7597 69.8139L22.347 69.5368C22.4689 69.5368 22.5859 69.5952 22.6721 69.6991C22.7583 69.803 22.8067 69.944 22.8067 70.0909C22.8067 70.2379 22.7583 70.3788 22.6721 70.4827C22.5859 70.5866 22.4689 70.645 22.347 70.645L17.7497 70.922H17.7797Z" fill="#EADDFF"/>
<path d="M18.1694 80.1605C18.0532 80.158 17.9419 80.1037 17.857 80.0081C17.772 79.9124 17.7196 79.7822 17.7097 79.6426C17.7042 79.4944 17.7472 79.3495 17.8295 79.2391C17.9117 79.1288 18.0266 79.0617 18.1494 79.0524L25.705 78.5947C25.7649 78.5898 25.825 78.5994 25.8818 78.6229C25.9385 78.6465 25.9908 78.6835 26.0355 78.7317C26.0802 78.78 26.1164 78.8386 26.1421 78.904C26.1677 78.9694 26.1822 79.0403 26.1847 79.1126C26.1902 79.2608 26.1472 79.4057 26.065 79.5161C25.9828 79.6264 25.8679 79.6935 25.745 79.7028L18.1994 80.1605H18.1694Z" fill="#EADDFF"/>
<path d="M68.4747 60.9133L58.9067 59.9065L50.7213 172.892L60.2893 173.899L68.4747 60.9133Z" fill="white"/>
<path d="M60.2749 174.473L50.7104 173.473C50.6508 173.467 50.5926 173.447 50.5394 173.414C50.4862 173.381 50.439 173.336 50.4006 173.28C50.3216 173.166 50.2822 173.019 50.2907 172.871L58.4359 59.8166C58.4509 59.6718 58.5107 59.5392 58.6034 59.4454C58.6961 59.3516 58.8148 59.3035 58.9356 59.3107L68.51 60.3224C68.5701 60.3284 68.6286 60.3489 68.682 60.3827C68.7354 60.4164 68.7826 60.4628 68.8208 60.5189C68.859 60.5751 68.8875 60.64 68.9045 60.7097C68.9215 60.7794 68.9267 60.8525 68.9198 60.9247L60.7346 173.919C60.7346 174.066 60.6861 174.207 60.5999 174.31C60.5137 174.414 60.3968 174.473 60.2749 174.473ZM51.2301 172.401L59.8751 173.316L67.9903 61.4306L59.3354 60.5152L51.2301 172.401Z" fill="#EADDFF"/>
<path d="M68.47 60.9247C67.0309 62.0665 65.3223 62.612 63.6029 62.4785C62.7053 62.5351 61.8095 62.3317 60.9905 61.8853C60.1715 61.4389 59.4532 60.7626 58.8956 59.9129L62.4835 48.8677L65.102 40.8216L66.5212 49.2531L68.47 60.9247Z" fill="white"/>
<path d="M63.6029 63.0446C62.6278 63.1076 61.6547 62.8827 60.7682 62.3894C59.8816 61.8961 59.1085 61.1494 58.5158 60.214C58.4737 60.1411 58.4472 60.0568 58.4385 59.9686C58.4297 59.8804 58.4392 59.7909 58.4659 59.7081L64.6722 40.6168C64.7057 40.5027 64.7705 40.4059 64.856 40.3423C64.9414 40.2788 65.0423 40.2524 65.142 40.2675C65.2406 40.2802 65.3333 40.3301 65.4069 40.4102C65.4805 40.4902 65.5312 40.5963 65.5517 40.7132L68.9198 60.8042C68.9347 60.9036 68.9278 61.0058 68.8997 61.1009C68.8717 61.196 68.8234 61.2806 68.7599 61.3463C68.6999 61.4185 67.0509 63.0446 63.6029 63.0446ZM59.4153 59.8165C59.9433 60.5143 60.592 61.0638 61.3156 61.4259C62.0393 61.7881 62.8201 61.9542 63.6029 61.9124C65.1195 61.9997 66.6269 61.583 67.9603 60.7079L64.9621 42.809L59.4153 59.8165Z" fill="#EADDFF"/>
<path d="M66.5212 49.2892L62.4835 48.8677L65.102 40.8216L66.5212 49.2892Z" fill="#6750A4"/>
<path d="M66.5211 49.8433L62.5235 49.4217C62.454 49.4109 62.3875 49.3815 62.3287 49.3356C62.2699 49.2898 62.2203 49.2286 62.1837 49.1567C62.1521 49.0821 62.1356 48.9996 62.1356 48.9158C62.1356 48.8321 62.1521 48.7495 62.1837 48.6749L64.7922 40.6168C64.8271 40.504 64.8923 40.4084 64.9773 40.3451C65.0624 40.2819 65.1625 40.2546 65.2619 40.2675C65.3592 40.2808 65.4505 40.3312 65.5224 40.4114C65.5943 40.4915 65.6431 40.5973 65.6616 40.7132L67.0908 49.1447C67.1041 49.2249 67.1025 49.3078 67.086 49.3872C67.0696 49.4666 67.0388 49.5406 66.9958 49.604C66.9528 49.6673 66.8987 49.7184 66.8373 49.7535C66.776 49.7886 66.709 49.807 66.6411 49.8072L66.5211 49.8433ZM63.1331 48.3859L65.9515 48.687L64.9521 42.7608L63.1331 48.3859Z" fill="#6750A4"/>
<path d="M55.7992 58.1082L48.2722 57.3161L41.8306 146.231L49.3576 147.023L55.7992 58.1082Z" fill="white"/>
<path d="M49.3612 147.576L41.8256 146.781C41.7655 146.775 41.707 146.755 41.6536 146.721C41.6002 146.687 41.553 146.641 41.5148 146.585C41.4766 146.529 41.4481 146.464 41.4311 146.394C41.4141 146.324 41.4089 146.251 41.4158 146.179L47.852 57.263C47.8647 57.1171 47.9239 56.9828 48.0171 56.8884C48.1103 56.794 48.2303 56.747 48.3518 56.7571L55.8874 57.5521C56.0073 57.566 56.1182 57.635 56.1972 57.7448C56.2377 57.8004 56.2684 57.8654 56.2873 57.9359C56.3062 58.0063 56.313 58.0806 56.3071 58.1543L49.8609 147.07C49.8555 147.143 49.8377 147.214 49.8084 147.279C49.7792 147.343 49.7392 147.399 49.691 147.444C49.6464 147.492 49.5941 147.528 49.5374 147.551C49.4807 147.574 49.4207 147.582 49.3612 147.576ZM42.3652 145.721L48.9814 146.42L55.3077 58.612L48.6916 57.9255L42.3652 145.721Z" fill="#EADDFF"/>
<path d="M55.8074 58.0941C55.3549 58.7233 54.7868 59.2164 54.1483 59.5342C53.5098 59.8521 52.8185 59.9859 52.1295 59.9249C51.3639 59.8388 50.6216 59.5607 49.9504 59.1086C49.2792 58.6564 48.6938 58.04 48.2318 57.2991L51.0602 48.6147L53.059 42.2791L54.2783 48.9761L55.8074 58.0941Z" fill="white"/>
<path d="M52.4194 60.4911H52.1096C51.2824 60.3927 50.4812 60.0881 49.7569 59.5967C49.0325 59.1052 48.4009 58.4377 47.902 57.6364C47.8582 57.5622 47.8299 57.4764 47.8194 57.3863C47.809 57.2961 47.8168 57.2042 47.8421 57.1185L52.7292 42.0863C52.7653 41.9674 52.8356 41.8681 52.9273 41.8062C53.0189 41.7444 53.1259 41.7241 53.2289 41.7491C53.3293 41.7593 53.4243 41.8081 53.4999 41.8884C53.5754 41.9686 53.6276 42.076 53.6487 42.1947L56.2272 57.9857C56.2422 58.0625 56.2428 58.1423 56.229 58.2194C56.2152 58.2965 56.1872 58.3689 56.1472 58.4314C55.6867 59.0797 55.1149 59.5996 54.4712 59.9553C53.8276 60.3109 53.1275 60.4937 52.4194 60.4911ZM48.8015 57.2028C49.6394 58.4315 50.8466 59.2109 52.1595 59.3709C52.7396 59.428 53.323 59.329 53.8675 59.0812C54.4119 58.8333 54.9039 58.4426 55.3077 57.9375L53.009 44.2424L48.8015 57.2028Z" fill="#EADDFF"/>
<path d="M54.2784 48.952L51.1002 48.6147L53.149 42.2791L54.2784 48.952Z" fill="white"/>
<path d="M54.2284 49.506L51.0602 49.1688C50.9879 49.1647 50.9177 49.1382 50.8564 49.0918C50.7951 49.0453 50.7448 48.9806 50.7104 48.9038C50.6787 48.8271 50.6622 48.7426 50.6622 48.6569C50.6622 48.5712 50.6787 48.4867 50.7104 48.41L52.7692 42.0743C52.8057 41.9669 52.8705 41.8769 52.9535 41.8182C53.0366 41.7594 53.1333 41.7351 53.2289 41.7491C53.3293 41.7593 53.4243 41.8081 53.4999 41.8884C53.5755 41.9686 53.6276 42.076 53.6487 42.1947L54.768 48.8677C54.7823 48.9527 54.7798 49.0407 54.7607 49.1243C54.7416 49.208 54.7065 49.2851 54.6581 49.3495C54.602 49.415 54.5338 49.4634 54.459 49.4906C54.3842 49.5178 54.3052 49.5231 54.2284 49.506ZM51.7098 48.1329L53.7087 48.3377L53.0191 44.2424L51.7098 48.1329Z" fill="#EADDFF"/>
<path d="M45.6333 147.287C45.5724 147.283 45.5128 147.263 45.4583 147.23C45.4037 147.197 45.3553 147.151 45.3161 147.095C45.2768 147.038 45.2474 146.973 45.2298 146.903C45.2122 146.832 45.2067 146.758 45.2136 146.685L51.7098 59.8768C51.7289 59.7343 51.7899 59.6048 51.8816 59.5119C51.9734 59.4191 52.0897 59.369 52.2095 59.3709C52.3324 59.3861 52.4455 59.4591 52.524 59.5741C52.6026 59.6891 52.6404 59.8368 52.6292 59.9852L46.133 146.793C46.1281 146.866 46.1111 146.936 46.0831 147.001C46.0551 147.065 46.0166 147.122 45.97 147.168C45.9234 147.214 45.8695 147.248 45.8117 147.269C45.7539 147.289 45.6932 147.295 45.6333 147.287Z" fill="#EADDFF"/>
<path d="M42.5957 81.9443L34.6064 81.5677L33.5053 115.497L41.4945 115.873L42.5957 81.9443Z" fill="white"/>
<path d="M41.4858 116.428L33.4905 116.043C33.4303 116.044 33.3705 116.029 33.3153 116C33.2602 115.971 33.2108 115.928 33.1707 115.874C33.1283 115.821 33.0949 115.759 33.0726 115.691C33.0503 115.623 33.0395 115.55 33.0407 115.476L34.1501 81.4975C34.1577 81.3537 34.2106 81.2188 34.2978 81.1204C34.3851 81.0219 34.5003 80.9672 34.6198 80.9675L42.6152 81.3409C42.7371 81.3501 42.8516 81.4151 42.9352 81.5225C43.0187 81.63 43.0651 81.7718 43.0649 81.9191L41.9555 115.838C41.9597 115.915 41.9506 115.991 41.9287 116.064C41.9069 116.136 41.8728 116.202 41.8286 116.258C41.7844 116.313 41.7311 116.357 41.6721 116.386C41.6131 116.416 41.5496 116.43 41.4858 116.428ZM33.9802 114.958L41.0461 115.296L42.1155 82.4852L35.0496 82.1479L33.9802 114.958Z" fill="#EADDFF"/>
<path d="M45.3031 48.0828L34.1082 47.5551L33.007 81.4839L44.2019 82.0117L45.3031 48.0828Z" fill="white"/>
<path d="M44.2342 82.5695L33.0407 82.0395C32.9189 82.0305 32.8045 81.9659 32.7209 81.8589C32.6798 81.8057 32.648 81.7431 32.6274 81.6748C32.6068 81.6065 32.5978 81.5339 32.601 81.4614L33.7003 47.5427C33.7102 47.3967 33.7648 47.2604 33.8535 47.1602C33.9421 47.0601 34.0585 47.0032 34.18 47.0007L45.3735 47.5307C45.4953 47.5397 45.6097 47.6043 45.6933 47.7113C45.7344 47.7645 45.7662 47.8271 45.7868 47.8954C45.8074 47.9637 45.8164 48.0363 45.8132 48.1088L44.7139 82.0275C44.7126 82.1013 44.6991 82.1741 44.6742 82.2415C44.6492 82.3089 44.6134 82.3697 44.5687 82.4202C44.524 82.4707 44.4714 82.5099 44.4139 82.5355C44.3565 82.5612 44.2954 82.5727 44.2342 82.5695ZM33.5204 80.9555L43.7944 81.4373L44.8538 48.6147L34.5798 48.1329L33.5204 80.9555Z" fill="#EADDFF"/>
<path d="M29.4428 78.1972C29.3226 78.1909 29.2093 78.1281 29.127 78.0223C29.0448 77.9165 29.0003 77.776 29.003 77.6311L29.7626 54.035C29.8016 52.9368 30.1999 51.902 30.8705 51.1571C31.5411 50.4121 32.4292 50.0177 33.3405 50.0601H33.8802C34.0021 50.0601 34.1191 50.1185 34.2053 50.2224C34.2915 50.3263 34.3399 50.4672 34.3399 50.6142C34.3399 50.7611 34.2915 50.9021 34.2053 51.006C34.1191 51.1099 34.0021 51.1683 33.8802 51.1683H33.3405C33.0102 51.1505 32.6802 51.2116 32.3696 51.3481C32.059 51.4845 31.7738 51.6937 31.5304 51.9634C31.2871 52.2332 31.0904 52.5583 30.9517 52.92C30.8129 53.2817 30.7349 53.6729 30.722 54.0711L29.9625 77.6672C29.9603 77.7444 29.9446 77.8202 29.9167 77.8898C29.8887 77.9593 29.8489 78.021 29.8 78.0709C29.7511 78.1208 29.694 78.1578 29.6325 78.1796C29.571 78.2013 29.5064 78.2073 29.4428 78.1972Z" fill="#EADDFF"/>
<path d="M9.18469 84.9062H72.2179L68.57 175.448C68.5674 177.836 67.7786 180.124 66.3769 181.811C64.9753 183.498 63.0753 184.446 61.0944 184.446H20.3382C18.3582 184.446 16.4593 183.498 15.0592 181.811C13.6591 180.123 12.8725 177.835 12.8725 175.448L9.18469 84.9062Z" fill="white"/>
<path d="M61.0944 185H20.3382C18.2371 184.997 16.2227 183.989 14.737 182.199C13.2513 180.408 12.4155 177.981 12.4128 175.448L8.72497 84.9424C8.72224 84.791 8.76887 84.6445 8.85482 84.5341C8.94078 84.4238 9.05922 84.3584 9.1847 84.3522H72.2179C72.2803 84.3531 72.3418 84.3696 72.3986 84.4007C72.4554 84.4318 72.5062 84.4768 72.5477 84.5328C72.5929 84.5855 72.628 84.6495 72.6504 84.7202C72.6729 84.791 72.6822 84.8668 72.6777 84.9424L69.0298 175.448C69.0271 177.983 68.1899 180.412 66.702 182.203C65.2142 183.994 63.1973 185 61.0944 185ZM9.67441 85.4603L13.3323 175.448C13.3323 177.685 14.0693 179.829 15.3813 181.41C16.6933 182.992 18.4728 183.88 20.3282 183.88H61.0944C62.9499 183.88 64.7293 182.992 66.0413 181.41C67.3533 179.829 68.0903 177.685 68.0903 175.448L71.7582 85.4603H9.67441Z" fill="#EADDFF"/>
<path d="M71.0685 101.974H10.5138C10.3919 101.974 10.2749 101.916 10.1887 101.812C10.1025 101.708 10.0541 101.567 10.0541 101.42C10.0566 101.274 10.1059 101.135 10.1916 101.032C10.2772 100.928 10.3927 100.869 10.5138 100.866H71.0685C71.1904 100.866 71.3073 100.924 71.3936 101.028C71.4798 101.132 71.5282 101.273 71.5282 101.42C71.5296 101.493 71.5186 101.566 71.496 101.634C71.4734 101.702 71.4396 101.764 71.3966 101.815C71.3536 101.867 71.3024 101.908 71.246 101.935C71.1896 101.962 71.1292 101.976 71.0685 101.974Z" fill="#EADDFF"/>
<path d="M359.53 41.6166H316.895V92.5427H359.53V41.6166Z" fill="white"/>
<path d="M359.54 93.0968H316.895C316.774 93.0938 316.659 93.0344 316.573 92.9311C316.487 92.8279 316.438 92.6887 316.435 92.5427V41.6166C316.438 41.4706 316.487 41.3315 316.573 41.2282C316.659 41.125 316.774 41.0656 316.895 41.0625H359.54C359.661 41.0656 359.777 41.125 359.863 41.2282C359.948 41.3315 359.997 41.4706 360 41.6166V92.5427C359.997 92.6887 359.948 92.8279 359.863 92.9311C359.777 93.0344 359.661 93.0938 359.54 93.0968ZM317.365 91.9887H359.051V42.1707H317.365V91.9887Z" fill="#EADDFF"/>
<path d="M342.49 33.3055H334.735V47.7354H342.49V33.3055Z" fill="#EADDFF"/>
<path d="M352.644 53.9386H329.828C329.706 53.9386 329.589 53.8802 329.503 53.7763C329.416 53.6724 329.368 53.5315 329.368 53.3845C329.368 53.2376 329.416 53.0966 329.503 52.9927C329.589 52.8888 329.706 52.8304 329.828 52.8304H352.644C352.766 52.8304 352.883 52.8888 352.969 52.9927C353.056 53.0966 353.104 53.2376 353.104 53.3845C353.104 53.5315 353.056 53.6724 352.969 53.7763C352.883 53.8802 352.766 53.9386 352.644 53.9386Z" fill="#EADDFF"/>
<path d="M352.644 63.5866H323.361C323.239 63.5866 323.122 63.5282 323.036 63.4243C322.95 63.3204 322.902 63.1795 322.902 63.0325C322.902 62.8856 322.95 62.7447 323.036 62.6408C323.122 62.5368 323.239 62.4785 323.361 62.4785H352.644C352.766 62.4785 352.883 62.5368 352.969 62.6408C353.056 62.7447 353.104 62.8856 353.104 63.0325C353.104 63.1795 353.056 63.3204 352.969 63.4243C352.883 63.5282 352.766 63.5866 352.644 63.5866Z" fill="#EADDFF"/>
<path d="M352.864 73.2347H323.361C323.239 73.2347 323.122 73.1763 323.036 73.0724C322.95 72.9685 322.902 72.8275 322.902 72.6806C322.902 72.5336 322.95 72.3927 323.036 72.2888C323.122 72.1849 323.239 72.1265 323.361 72.1265H352.864C352.925 72.1265 352.984 72.1409 353.04 72.1687C353.096 72.1966 353.147 72.2374 353.189 72.2888C353.232 72.3403 353.266 72.4013 353.289 72.4686C353.312 72.5358 353.324 72.6078 353.324 72.6806C353.324 72.7533 353.312 72.8254 353.289 72.8926C353.266 72.9598 353.232 73.0209 353.189 73.0724C353.147 73.1238 353.096 73.1646 353.04 73.1925C352.984 73.2203 352.925 73.2347 352.864 73.2347Z" fill="#EADDFF"/>
<path d="M341.431 82.8827H323.361C323.239 82.8827 323.122 82.8243 323.036 82.7204C322.95 82.6165 322.902 82.4756 322.902 82.3286C322.902 82.1817 322.95 82.0407 323.036 81.9368C323.122 81.8329 323.239 81.7745 323.361 81.7745H341.431C341.553 81.7745 341.67 81.8329 341.756 81.9368C341.842 82.0407 341.891 82.1817 341.891 82.3286C341.891 82.4756 341.842 82.6165 341.756 82.7204C341.67 82.8243 341.553 82.8827 341.431 82.8827Z" fill="#EADDFF"/>
</svg>
