<svg width="200" height="200" viewBox="0 0 200 200" fill="none" xmlns="http://www.w3.org/2000/svg">
<path fill-rule="evenodd" clip-rule="evenodd" d="M144.484 98.4233C144.484 111.885 144.015 125.664 135.283 134.574C130.716 139.235 125.271 142.945 119.262 145.49C113.254 148.034 106.8 149.363 100.275 149.4C93.7493 149.436 87.2813 148.179 81.2444 145.702C75.2075 143.224 69.7213 139.575 65.1025 134.966C60.4838 130.356 56.8242 124.877 54.335 118.845C51.8457 112.813 50.5763 106.347 50.5999 99.8219C50.6236 93.2965 51.9398 86.8404 54.4727 80.8266C57.0056 74.8127 60.7048 69.3603 65.3568 64.7842C74.2727 56.0125 86.776 56.7708 100.272 56.7708C127.554 56.7708 144.484 71.1408 144.484 98.4233Z" fill="#21005D"/>
<path fill-rule="evenodd" clip-rule="evenodd" d="M100 50.6C93.5116 50.5915 87.0853 51.8654 81.0907 54.3485C75.0961 56.8316 69.6513 60.475 65.0693 65.0692L134.931 134.931C141.84 128.022 146.544 119.22 148.451 109.637C150.357 100.055 149.378 90.1221 145.639 81.0955C141.9 72.0689 135.569 64.3537 127.445 58.9256C119.321 53.4974 109.77 50.6001 100 50.6Z" fill="#6750A4"/>
<path d="M137.5 66.6667C144.404 66.6667 150 55.4738 150 41.6667C150 27.8595 144.404 16.6667 137.5 16.6667C130.596 16.6667 125 27.8595 125 41.6667C125 55.4738 130.596 66.6667 137.5 66.6667Z" fill="#6750A4"/>
<path d="M158.333 75C172.141 75 183.333 69.4036 183.333 62.5C183.333 55.5964 172.141 50 158.333 50C144.526 50 133.333 55.5964 133.333 62.5C133.333 69.4036 144.526 75 158.333 75Z" fill="#6750A4"/>
<path d="M62.5 183.333C69.4036 183.333 75 172.14 75 158.333C75 144.526 69.4036 133.333 62.5 133.333C55.5964 133.333 50 144.526 50 158.333C50 172.14 55.5964 183.333 62.5 183.333Z" fill="#21005D"/>
<path d="M41.6665 150C55.4736 150 66.6665 144.404 66.6665 137.5C66.6665 130.596 55.4736 125 41.6665 125C27.8594 125 16.6665 130.596 16.6665 137.5C16.6665 144.404 27.8594 150 41.6665 150Z" fill="#21005D"/>
<path d="M83.3332 99.4983C92.5379 99.4983 99.9998 92.0364 99.9998 82.8317C99.9998 73.6269 92.5379 66.165 83.3332 66.165C74.1284 66.165 66.6665 73.6269 66.6665 82.8317C66.6665 92.0364 74.1284 99.4983 83.3332 99.4983Z" fill="white"/>
<line x1="30.005" y1="41.2182" x2="168.591" y2="172.935" stroke="#B3261E" stroke-width="5"/>
<line y1="-2.5" x2="191.195" y2="-2.5" transform="matrix(-0.724841 0.688916 0.688916 0.724841 166.869 43.0303)" stroke="#B3261E" stroke-width="5"/>
</svg>
