<svg width="200" height="200" viewBox="0 0 200 200" fill="none" xmlns="http://www.w3.org/2000/svg">
<path d="M125.195 6.60156C120.352 7.8125 116.562 11.9531 115.82 16.875L115.547 18.6719L111.328 18.8281C106.758 18.9453 105.859 19.2969 104.141 21.6406C103.359 22.6953 103.32 23.1641 103.32 37.5C103.32 51.8359 103.359 52.3047 104.141 53.3594C105.859 55.7031 106.758 56.0547 111.367 56.1719L115.625 56.3281V61.5625C115.625 66.6406 115.586 66.875 114.648 67.7734C114.062 68.3984 113.281 68.75 112.461 68.75C110.039 68.75 108.047 69.6484 106.016 71.6797C103.242 74.4531 103.008 75.4297 103.203 85.5859C103.32 93.2812 103.398 94.1016 104.219 95.7031C105.586 98.4766 107.148 100.156 109.766 101.523C111.797 102.617 112.734 102.852 115.469 103.047L118.75 103.242V107.852V112.461L104.219 112.578L89.6484 112.695L87.0312 113.945C82.3438 116.172 79.0234 120.273 78.125 125.039C77.8906 126.172 77.6953 127.109 77.6172 127.148C77.5781 127.188 75.8984 127.969 73.8672 128.867C68.2812 131.328 65.1953 130.898 63.0859 127.383C61.7188 125.117 59.3359 122.695 57.9688 122.188L56.6797 121.719L58.2422 120C61.9922 115.938 63.3203 110.273 61.7578 105.078C61.2891 103.516 60.9375 102.227 61.0156 102.188C61.0938 102.148 62.5781 101.68 64.3359 101.211L67.5781 100.312L75.5469 104.844C80.1953 107.5 83.9453 109.375 84.5312 109.375C85.9375 109.375 87.5 107.773 87.5 106.367C87.4609 105.781 86.9531 101.406 86.3672 96.6797L85.2734 88.0859L86.7188 86.3281C93.0859 78.5156 96.875 67.9688 96.875 57.8125C96.875 50.8984 95.2734 44.3359 91.9922 37.6172C88.7109 30.9375 86.7188 29.3359 84.2188 31.2891C82.8311 32.3992 82.8299 33.879 84.2971 36.5767C84.482 36.9166 84.6902 37.2759 84.9219 37.6562C88.75 43.7891 90.4297 49.9609 90.4297 57.8125C90.4297 67.7344 87.6172 75.4297 81.0156 83.4375C79.8438 84.8828 78.9062 86.4062 78.9062 86.875C78.9062 87.3047 79.2578 90.4688 79.6875 93.9062C80.1562 97.3047 80.4297 100.156 80.3906 100.234C80.3125 100.273 77.6562 98.8672 74.5312 97.0312C71.3672 95.2344 68.3594 93.75 67.8906 93.75C67.3828 93.75 65.7031 94.1797 64.1406 94.7266C62.5781 95.2344 60.1562 95.8984 58.75 96.1328C56.25 96.5625 56.1328 96.5625 53.3984 95.2734C50.8203 94.0625 50.2734 93.9453 46.875 93.9844C44.4141 93.9844 42.6953 94.1797 41.7969 94.5703C40.5469 95.1562 40.2734 95.1172 38.3984 94.4922C26.2891 90.3516 16.4062 79.2188 13.4375 66.2109C12.3047 61.3672 12.4609 52.9297 13.75 48.0078C15.625 41.0938 18.9453 35.3125 24.0234 30.2734C37.5391 16.7188 58.0469 15 74.1797 26.0156C74.278 26.0839 74.3741 26.15 74.4682 26.2139C77.0638 27.9779 78.0611 28.0799 79.5312 26.8359C80.7812 25.7422 80.9375 23.7891 79.8047 22.5781C78.6719 21.3281 74.1797 18.4766 70.6641 16.8359C48.3594 6.21094 21.5234 15.8594 10.7422 38.3594C2.22656 56.1328 6.13281 76.9531 20.5469 90.625C23.9453 93.8672 28.0859 96.7578 31.9141 98.5156C33.2812 99.1797 34.3359 99.8047 34.2969 99.9609C31.7188 104.727 31.4453 105.625 31.4453 109.375C31.4453 112.578 31.6016 113.398 32.5 115.352C33.0859 116.602 33.9062 118.086 34.3359 118.633L35.1172 119.609L34.1797 120.859C32.7734 122.695 31.7188 125.273 31.4062 127.656C31.2109 129.375 31.0156 129.688 30.5078 129.453C30.1562 129.297 28.7109 129.102 27.2656 128.984C23.2812 128.711 21.4453 129.531 15.6641 134.062C12.9688 136.211 10.4297 138.32 10.0781 138.75C8.71094 140.312 9.14062 141.367 13.8672 147.695C16.3672 151.016 18.6719 153.945 19.0234 154.18C20.0781 155 21.8359 154.766 22.8516 153.711C23.5723 153.008 23.9054 152.376 23.7868 151.537C23.6419 150.513 22.8222 149.18 21.2109 147.031C19.7656 145.117 18.2031 143.008 17.6953 142.344L16.7969 141.133L20.0391 138.594C21.7969 137.188 23.6328 135.859 24.1016 135.586C25.3516 134.922 28.1641 135.078 29.5703 135.859C31.2891 136.797 33.7891 139.922 35.4297 143.164C41.4453 155 53.3594 162.5 66.25 162.5H68.75V164.648C68.75 167.266 69.8828 168.75 71.875 168.75C72.6172 168.75 73.4375 168.398 74.0234 167.773L75 166.836V157.656V148.516L76.4844 148.008C78.3594 147.383 87.5781 143.398 88.0859 142.969C88.5547 142.578 135.664 148.125 138.047 148.828C141.289 149.805 144.297 152.5 145.859 155.82C146.602 157.461 146.68 158.438 146.797 166.289L146.914 175H100.391C49.375 175 50.9766 175.078 45.2344 172.656C40.3906 170.625 36.7188 167.5 31.5234 160.938C30.6957 159.884 30.0583 159.238 29.4191 158.9C28.731 158.535 28.0409 158.527 27.1094 158.75C25.8203 159.102 24.8047 161.172 25.3125 162.5C26.0156 164.336 31.2891 170.742 33.7891 172.773L36.2891 174.805L21.9922 175L7.73438 175.195L6.99219 176.133C6.32812 176.953 6.25 177.734 6.25 184.453C6.25 191.758 6.25 191.836 7.22656 192.773L8.16406 193.75H100H191.836L192.773 192.773C193.385 192.18 193.707 191.463 193.738 190.74C193.741 190.665 193.741 190.59 193.738 190.516C193.709 189.791 193.387 189.072 192.773 188.477L191.836 187.5H102.148H12.5V184.375V181.25H102.148H191.836L192.773 180.273L193.75 179.336V145.312V111.289L192.773 110.352C192.188 109.727 191.367 109.375 190.625 109.375C189.883 109.375 189.062 109.727 188.477 110.352C187.578 111.211 187.5 111.602 187.5 115.039V118.75H182.227C177.109 118.75 176.875 118.789 175.977 119.727L175 120.664V137.5V154.336L175.977 155.273C177.227 156.562 179.023 156.562 180.273 155.273C181.094 154.492 181.25 153.945 181.25 152.148V150H184.375H187.5V162.5V175H184.414H181.328L181.172 170.195C181.016 165.664 180.938 165.312 179.688 162.969C178.281 160.273 176.641 158.711 173.828 157.344C172.188 156.523 171.484 156.445 162.305 156.328L152.5 156.211L151.836 154.297C150.82 151.484 148.203 147.773 145.938 146.094C142.305 143.32 140.117 142.578 133.086 141.758C129.609 141.328 126.367 140.898 125.898 140.781C125.039 140.625 125 140.469 125 135.938V131.25H139.805C148.203 131.25 155.469 131.094 156.68 130.859C162.109 129.805 167.305 125.859 169.727 120.938C171.406 117.5 171.875 115.117 171.875 109.766V105.547L173.047 105.078C175.703 103.984 178.125 100.039 178.125 96.7969C178.125 93.5938 175.859 90 172.891 88.3594C171.211 87.4609 166.25 87.4609 164.57 88.3984C160.508 90.5859 158.516 95.3125 159.844 99.6875C160.391 101.562 162.852 104.414 164.492 105.078L165.703 105.586L165.547 110.703C165.391 115.625 165.352 115.898 164.062 118.281C162.617 121.016 161.406 122.188 158.438 123.75L156.445 124.805L140.742 124.922L125 125.039V121.953V118.828L130.039 118.672C134.883 118.516 135.156 118.477 138.008 117.07C142.188 115 145.43 111.094 146.289 107.109C146.484 106.172 146.914 105.664 147.969 105.117C151.172 103.477 152.891 100.586 152.891 96.875C152.891 91.4844 149.141 87.7344 143.75 87.7344C137.344 87.7344 133.008 93.5547 134.844 99.7656C135.312 101.328 138.047 104.531 139.57 105.352C140.273 105.742 140.273 105.781 139.531 107.266C138.516 109.258 136.953 110.703 134.766 111.68C133.359 112.305 132.188 112.5 129.023 112.5H125V97.8516V83.1641L125.977 82.2266L126.914 81.25H156.25H185.586L186.523 82.2266L187.5 83.1641V92.1875V101.211L188.477 102.148C189.727 103.438 191.523 103.438 192.773 102.148L193.75 101.211V92.1484C193.75 86.1719 193.594 82.5391 193.281 81.4844C192.656 79.3359 189.414 76.0938 187.266 75.4688C186.25 75.1562 182.852 75 177.969 75H170.312V71.875V68.75H173.281C177.5 68.75 179.141 68.1641 181.445 65.8203C183.945 63.3594 184.375 61.9141 184.375 56.2891C184.375 52.1875 184.336 51.875 183.398 50.9766C182.148 49.6875 180.352 49.6875 179.102 50.9766C178.164 51.875 178.125 52.1875 178.125 56.25C178.125 60.3125 178.086 60.625 177.148 61.5234L176.211 62.5H156.25H136.289L135.352 61.5234L134.375 60.5859V46.875V33.1641L135.352 32.2266L136.289 31.25H156.25H176.211L177.148 32.2266C178.086 33.125 178.125 33.4375 178.125 37.5C178.125 41.5625 178.164 41.875 179.102 42.7734C179.688 43.3984 180.508 43.75 181.25 43.75C181.992 43.75 182.812 43.3984 183.398 42.7734C184.336 41.875 184.375 41.5625 184.375 37.4609C184.375 32.1094 183.945 30.5469 181.758 28.125C178.984 25.0391 178.75 25 161.641 25H146.875V18.7109V12.4609L152.695 12.5781C157.891 12.6953 158.672 12.7734 159.609 13.5156C161.367 14.8047 162.109 16.0938 162.461 18.3594C163.008 21.7969 165.664 23.0469 167.852 20.8594C168.789 19.9219 168.828 19.6875 168.594 17.5C168.164 13.125 165.508 9.41406 161.328 7.34375C159.609 6.44531 159.336 6.44531 142.969 6.36719C133.828 6.32812 125.859 6.44531 125.195 6.60156ZM140.625 18.75V25H138.398C137.148 25 135.781 25.1172 135.312 25.2344C134.609 25.4297 134.453 25.2344 134.219 23.9062C133.945 22.0312 132.344 20 130.586 19.2969C129.805 18.9453 127.852 18.75 125.586 18.75C122.617 18.75 121.875 18.6328 121.875 18.2031C121.875 17.2266 122.695 15.4688 123.555 14.4922C125.156 12.7734 126.289 12.5391 133.711 12.5H140.625V18.75ZM128.125 28.125V31.25H118.75H109.375V28.125V25H118.75H128.125V28.125ZM128.125 43.75V50H118.75H109.375V43.75V37.5H118.75H128.125V43.75ZM128.125 58.4375C128.125 61.8359 128.828 63.6328 131.055 65.8203C133.359 68.1641 135 68.75 139.219 68.75H142.188V71.875V75H134.531C125.352 75 124.375 75.2344 121.68 77.9297C119.023 80.5859 118.75 81.6406 118.75 90.0391V96.9531L116.016 96.7969C113.125 96.6406 111.914 96.0547 110.391 93.9844C109.648 93.0078 109.57 92.2656 109.453 84.9219L109.336 76.9531L110.312 75.9766C110.938 75.3516 111.719 75 112.539 75C114.961 75 116.953 74.1016 118.945 72.0703C121.523 69.5312 121.875 68.2031 121.875 61.5625V56.25H125H128.125V58.4375ZM164.062 71.875V75H156.25H148.438V71.875V68.75H156.25H164.062V71.875ZM145.898 94.7266C146.523 95.3125 146.875 96.1328 146.875 96.875C146.875 97.6172 146.523 98.4375 145.898 99.0234C145.312 99.6484 144.492 100 143.75 100C143.008 100 142.188 99.6484 141.602 99.0234C140.977 98.4375 140.625 97.6172 140.625 96.875C140.625 96.1328 140.977 95.3125 141.602 94.7266C142.188 94.1016 143.008 93.75 143.75 93.75C144.492 93.75 145.312 94.1016 145.898 94.7266ZM170.898 94.7266C171.523 95.3125 171.875 96.1328 171.875 96.875C171.875 97.6172 171.523 98.4375 170.898 99.0234C170.312 99.6484 169.492 100 168.75 100C168.008 100 167.188 99.6484 166.602 99.0234C165.977 98.4375 165.625 97.6172 165.625 96.875C165.625 96.1328 165.977 95.3125 166.602 94.7266C167.188 94.1016 168.008 93.75 168.75 93.75C169.492 93.75 170.312 94.1016 170.898 94.7266ZM49.7656 100.469C51.9141 101.094 55.1562 104.336 55.7812 106.484C56.875 110.156 56.0938 113.086 53.3203 115.82C49.375 119.805 44.375 119.805 40.4297 115.82C36.4453 111.875 36.4453 106.875 40.4297 102.93C43.1641 100.156 46.0938 99.4141 49.7656 100.469ZM118.75 121.875V125H101.758C92.4219 125 84.7656 124.883 84.7656 124.688C84.7656 124.023 86.3672 121.875 87.6562 120.859C90.1172 118.867 90.625 118.828 105.195 118.789L118.75 118.75V121.875ZM43.75 124.531C45.1562 124.883 46.3281 125.156 46.3672 125.195C46.4453 125.234 46.1328 125.938 45.7031 126.758C43.5938 130.898 45.4688 136.484 50.7422 141.797C55.1953 146.25 60.0391 148.633 65.8203 149.18L68.5547 149.414L68.6719 152.891L68.7891 156.367L64.9609 156.133C60.2344 155.82 57.7344 155.156 53.7109 153.164C48.6328 150.625 44.6484 146.875 41.8359 141.992C41.2109 140.898 39.9609 137.93 39.0625 135.352C37.1875 129.883 37.1484 128.125 38.8281 125.195C39.6484 123.828 40.0781 123.438 40.5469 123.672C40.9375 123.789 42.3438 124.219 43.75 124.531ZM187.5 134.375V143.75H184.375H181.25V134.375V125H184.375H187.5V134.375ZM57.5391 130.312C59.0625 132.891 60.2344 134.062 62.6172 135.391C64.4531 136.406 65 136.523 68.3594 136.523C72.0703 136.523 72.0703 136.523 77.5781 134.102C82.5781 131.875 83.2031 131.68 84.3359 132.07C85.7422 132.578 86.3281 133.438 86.3281 135.078C86.3281 136.758 85.1562 137.578 78.9062 140.273C73.4766 142.617 73.0859 142.734 69.4531 142.891C66.4062 143.008 65.1562 142.891 63.0078 142.266C58.4375 140.859 54.6484 137.852 52.3047 133.789C50.5859 130.82 50.8203 128.789 52.8906 127.93C54.6875 127.188 56.1719 127.93 57.5391 130.312ZM118.75 135.547C118.75 139.766 118.75 139.844 117.891 139.805C116.25 139.766 93.0078 136.875 92.8516 136.719C92.7734 136.602 92.5781 135.352 92.4609 133.867L92.2656 131.25H105.508H118.75V135.547ZM172.109 163.516C174.453 165.234 174.805 166.133 174.922 170.742L175.078 175H164.102H153.125V168.711V162.461L162.07 162.578C170.43 162.695 171.133 162.734 172.109 163.516Z" fill="black"/>
<path d="M23.7868 151.537C23.6419 150.513 22.8222 149.18 21.2109 147.031C19.7656 145.117 18.2031 143.008 17.6953 142.344L16.7969 141.133L20.0391 138.594C21.7969 137.188 23.6328 135.859 24.1016 135.586C25.3516 134.922 28.1641 135.078 29.5703 135.859C31.2891 136.797 33.7891 139.922 35.4297 143.164C41.4453 155 53.3594 162.5 66.25 162.5H68.75V164.648C68.75 167.266 69.8828 168.75 71.875 168.75C72.6172 168.75 73.4375 168.398 74.0234 167.773L75 166.836V157.656V148.516L76.4844 148.008C78.3594 147.383 87.5781 143.398 88.0859 142.969C88.5547 142.578 135.664 148.125 138.047 148.828C141.289 149.805 144.297 152.5 145.859 155.82C146.602 157.461 146.68 158.438 146.797 166.289L146.914 175H100.391C49.375 175 50.9766 175.078 45.2344 172.656C40.3906 170.625 36.7188 167.5 31.5234 160.938C30.6957 159.884 30.0583 159.238 29.4191 158.9C27.1154 156.533 25.487 154.331 23.7868 151.537Z" fill="#6750A4"/>
<path d="M84.2971 36.5767C84.482 36.9166 84.6902 37.2759 84.9219 37.6562C88.75 43.7891 90.4297 49.9609 90.4297 57.8125C90.4297 67.7344 87.6172 75.4297 81.0156 83.4375C79.8438 84.8828 78.9062 86.4062 78.9062 86.875C78.9062 87.3047 79.2578 90.4688 79.6875 93.9062C80.1562 97.3047 80.4297 100.156 80.3906 100.234C80.3125 100.273 77.6562 98.8672 74.5312 97.0312C71.3672 95.2344 68.3594 93.75 67.8906 93.75C67.3828 93.75 65.7031 94.1797 64.1406 94.7266C62.5781 95.2344 60.1562 95.8984 58.75 96.1328C56.25 96.5625 56.1328 96.5625 53.3984 95.2734C50.8203 94.0625 50.2734 93.9453 46.875 93.9844C44.4141 93.9844 42.6953 94.1797 41.7969 94.5703C40.5469 95.1562 40.2734 95.1172 38.3984 94.4922C26.2891 90.3516 16.4062 79.2188 13.4375 66.2109C12.3047 61.3672 12.4609 52.9297 13.75 48.0078C15.625 41.0938 18.9453 35.3125 24.0234 30.2734C37.5391 16.7188 58.0469 15 74.1797 26.0156C74.278 26.0839 74.3741 26.15 74.4682 26.2139C79.5737 29.7415 81.7511 32.2642 84.2971 36.5767Z" fill="#EADDFF"/>
<path d="M128.125 43.75V50H118.75H109.375V43.75V37.5H118.75H128.125V43.75Z" fill="#6750A4"/>
<path d="M57.5391 130.312C59.0625 132.891 60.2344 134.062 62.6172 135.391C64.4531 136.406 65 136.523 68.3594 136.523C72.0703 136.523 72.0703 136.523 77.5781 134.102C82.5781 131.875 83.2031 131.68 84.3359 132.07C85.7422 132.578 86.3281 133.438 86.3281 135.078C86.3281 136.758 85.1562 137.578 78.9062 140.273C73.4766 142.617 73.0859 142.734 69.4531 142.891C66.4062 143.008 65.1562 142.891 63.0078 142.266C58.4375 140.859 54.6484 137.852 52.3047 133.789C50.5859 130.82 50.8203 128.789 52.8906 127.93C54.6875 127.188 56.1719 127.93 57.5391 130.312Z" fill="#D0BCFF"/>
<path d="M49.7656 100.469C51.9141 101.094 55.1562 104.336 55.7812 106.484C56.875 110.156 56.0938 113.086 53.3203 115.82C49.375 119.805 44.375 119.805 40.4297 115.82C36.4453 111.875 36.4453 106.875 40.4297 102.93C43.1641 100.156 46.0938 99.4141 49.7656 100.469Z" fill="#D0BCFF"/>
<path d="M43.75 124.531C45.1562 124.883 46.3281 125.156 46.3672 125.195C46.4453 125.234 46.1328 125.938 45.7031 126.758C43.5938 130.898 45.4688 136.484 50.7422 141.797C55.1953 146.25 60.0391 148.633 65.8203 149.18L68.5547 149.414L68.6719 152.891L68.7891 156.367L64.9609 156.133C60.2344 155.82 57.7344 155.156 53.7109 153.164C48.6328 150.625 44.6484 146.875 41.8359 141.992C41.2109 140.898 39.9609 137.93 39.0625 135.352C37.1875 129.883 37.1484 128.125 38.8281 125.195C39.6484 123.828 40.0781 123.438 40.5469 123.672C40.9375 123.789 42.3438 124.219 43.75 124.531Z" fill="#21005D"/>
<path d="M187.5 115.039V118.75H182.227C177.109 118.75 176.875 118.789 175.977 119.727L175 120.664V137.5V154.336L175.977 155.273C177.227 156.562 179.023 156.562 180.273 155.273C181.094 154.492 181.25 153.945 181.25 152.148V150H184.375H187.5V162.5V175H184.414H181.328L181.172 170.195C181.016 165.664 180.938 165.312 179.688 162.969C178.281 160.273 176.641 158.711 173.828 157.344C172.188 156.523 171.484 156.445 162.305 156.328L152.5 156.211L151.836 154.297C150.82 151.484 148.203 147.773 145.938 146.094C142.305 143.32 140.117 142.578 133.086 141.758C129.609 141.328 126.367 140.898 125.898 140.781C125.039 140.625 125 140.469 125 135.938V131.25H139.805C148.203 131.25 155.469 131.094 156.68 130.859C162.109 129.805 167.305 125.859 169.727 120.938C171.406 117.5 171.875 115.117 171.875 109.766V105.547L173.047 105.078C175.703 103.984 178.125 100.039 178.125 96.7969C178.125 93.5938 175.859 90 172.891 88.3594C171.211 87.4609 166.25 87.4609 164.57 88.3984C160.508 90.5859 158.516 95.3125 159.844 99.6875C160.391 101.562 162.852 104.414 164.492 105.078L165.703 105.586L165.547 110.703C165.391 115.625 165.352 115.898 164.062 118.281C162.617 121.016 161.406 122.188 158.438 123.75L156.445 124.805L140.742 124.922L125 125.039V121.953V118.828L130.039 118.672C134.883 118.516 135.156 118.477 138.008 117.07C142.188 115 145.43 111.094 146.289 107.109C146.484 106.172 146.914 105.664 147.969 105.117C151.172 103.477 152.891 100.586 152.891 96.875C152.891 91.4844 149.141 87.7344 143.75 87.7344C137.344 87.7344 133.008 93.5547 134.844 99.7656C135.312 101.328 138.047 104.531 139.57 105.352C140.273 105.742 140.273 105.781 139.531 107.266C138.516 109.258 136.953 110.703 134.766 111.68C133.359 112.305 132.188 112.5 129.023 112.5H125V97.8516V83.1641L125.977 82.2266L126.914 81.25H156.25H185.586L186.523 82.2266L187.5 83.1641V92.1875V101.211V115.039Z" fill="#EADDFF"/>
<path d="M178.125 56.25C178.125 60.3125 178.086 60.625 177.148 61.5234L176.211 62.5H156.25H136.289L135.352 61.5234L134.375 60.5859V46.875V33.1641L135.352 32.2266L136.289 31.25H156.25H176.211L177.148 32.2266C178.086 33.125 178.125 33.4375 178.125 37.5V56.25Z" fill="#6750A4"/>
<path d="M192.773 188.477L191.836 187.5H102.148H12.5V184.375V181.25H102.148H191.836L192.773 180.273L193.75 179.336L193.738 190.516C193.709 189.791 193.387 189.072 192.773 188.477Z" fill="#21005D"/>
<path d="M30.0783 38.0859C23.9846 39.8047 20.0002 45.0781 19.0236 52.6953C17.969 61.25 20.5861 68.75 25.8986 72.4219C31.2502 76.0937 38.8283 75.5859 43.0861 71.3281L44.4924 69.9219L45.0783 70.9766C46.1721 73.1641 46.8752 76.3672 46.8752 79.375C46.8752 82.1094 46.9924 82.5781 47.8518 83.3984C48.4377 84.0234 49.258 84.375 50.0002 84.375C50.7424 84.375 51.5627 84.0234 52.1486 83.3984C53.008 82.5781 53.1252 82.1094 53.1252 79.375C53.1252 76.3672 53.8283 73.1641 54.9221 70.9766L55.508 69.9219L56.9143 71.3281C61.1721 75.5859 68.7502 76.0937 74.1018 72.4219C79.4143 68.75 82.0315 61.25 80.9768 52.6953C79.9611 44.8437 75.9377 39.6875 69.5315 38.0469C59.3752 35.4687 50.6252 44.2578 53.8674 53.7891L54.6877 56.25L53.9065 58.5937C53.4768 59.8828 53.1252 61.3672 53.1252 61.9141C53.1252 62.7734 50.5471 66.7578 50.0002 66.7578C49.4533 66.7578 46.8752 62.7734 46.8752 61.9141C46.8752 61.3672 46.5236 59.8828 46.094 58.5937L45.3127 56.25L46.133 53.7891C48.1643 47.8516 45.3518 41.4062 39.4924 38.6328C37.1877 37.5391 32.9299 37.3047 30.0783 38.0859ZM37.7736 44.7656C39.7658 46.25 40.4299 47.5391 40.4299 49.9219C40.4299 51.7187 40.2346 52.4609 39.3752 53.7109C38.7502 54.5703 38.2815 55.7812 38.2815 56.3672C38.2815 57.1094 38.1252 57.4609 37.8127 57.3047C34.6877 56.1719 34.4533 56.1328 33.2815 56.6016C31.6018 57.3047 30.9377 59.0234 31.719 60.6641C32.1877 61.6797 32.8908 62.1484 35.4299 63.1641C37.1096 63.8672 38.8283 64.6875 39.219 64.9609C39.844 65.4297 39.844 65.5078 39.1018 66.4844C36.6408 69.6094 31.4065 69.4922 28.2815 66.2109C25.9768 63.8281 25.1955 61.3281 25.1955 56.25C25.1955 51.3281 25.9377 48.8672 28.0471 46.4844C28.8283 45.5859 30.1955 44.6094 31.0549 44.2969C33.1252 43.5547 36.4455 43.7891 37.7736 44.7656ZM68.5549 44.1797C70.6643 44.7656 73.1643 47.3828 74.0627 50.0391C74.6096 51.5625 74.8049 53.2812 74.8049 56.25C74.8049 61.3281 74.0236 63.8281 71.719 66.2109C68.594 69.4922 63.3596 69.6094 60.8986 66.4844C60.1565 65.5078 60.1565 65.4297 60.7815 64.9609C61.133 64.6875 62.7736 63.9453 64.4143 63.2812C66.0549 62.5781 67.6955 61.6797 68.0861 61.25C69.0627 60.1172 68.9455 58.3594 67.7736 57.2266C66.6799 56.0937 65.508 56.0156 63.5549 56.8359C61.719 57.6172 61.719 57.6172 61.719 56.3281C61.719 55.7422 61.2893 54.6094 60.7424 53.8281C58.9455 51.1719 58.9846 48.2812 60.8205 46.0547C62.6565 43.9062 65.2346 43.2812 68.5549 44.1797Z" fill="black"/>
<path d="M141.602 38.4766C140.977 39.0625 140.625 39.8828 140.625 40.625C140.625 41.3672 140.977 42.1875 141.602 42.7735L142.539 43.75H156.25H169.961L170.898 42.7735C171.523 42.1875 171.875 41.3672 171.875 40.625C171.875 39.8828 171.523 39.0625 170.898 38.4766L169.961 37.5H156.25H142.539L141.602 38.4766Z" fill="black"/>
<path d="M141.602 50.9766C140.977 51.5625 140.625 52.3828 140.625 53.125C140.625 53.8672 140.977 54.6875 141.602 55.2734C142.539 56.25 142.617 56.25 150 56.25C157.383 56.25 157.461 56.25 158.398 55.2734C159.023 54.6875 159.375 53.8672 159.375 53.125C159.375 52.3828 159.023 51.5625 158.398 50.9766C157.461 50 157.383 50 150 50C142.617 50 142.539 50 141.602 50.9766Z" fill="black"/>
<path d="M166.602 50.9766C165.977 51.5625 165.625 52.3828 165.625 53.125C165.625 53.8672 165.977 54.6875 166.602 55.2734C167.188 55.8984 168.008 56.25 168.75 56.25C169.492 56.25 170.312 55.8984 170.898 55.2734C171.523 54.6875 171.875 53.8672 171.875 53.125C171.875 52.3828 171.523 51.5625 170.898 50.9766C170.312 50.3516 169.492 50 168.75 50C168.008 50 167.188 50.3516 166.602 50.9766Z" fill="black"/>
<path d="M150.976 138.477C149.023 140.391 150.39 143.75 153.125 143.75C154.726 143.75 156.25 142.227 156.25 140.625C156.25 139.023 154.726 137.5 153.125 137.5C152.383 137.5 151.562 137.852 150.976 138.477Z" fill="black"/>
<path d="M163.476 138.477C161.523 140.391 162.89 143.75 165.625 143.75C167.226 143.75 168.75 142.227 168.75 140.625C168.75 139.023 167.226 137.5 165.625 137.5C164.883 137.5 164.062 137.852 163.476 138.477Z" fill="black"/>
</svg>
