<svg width="253" height="200" viewBox="0 0 253 200" fill="none" xmlns="http://www.w3.org/2000/svg">
<path d="M16.6121 58.1216C20.067 53.1293 23.6673 48.2488 27.4129 43.4801C28.2955 42.1285 29.523 41.0371 30.9685 40.3187C32.4612 39.7233 34.4905 40.1761 35.0859 41.6604C35.5219 42.7421 35.0859 43.9497 34.6666 45.0147C32.1695 51.0986 28.9154 56.8434 24.9811 62.1132C28.865 55.0244 34.4604 49.0196 41.2578 44.6457C42.7482 51.2404 41.6176 58.1562 38.1048 63.9329C39.2923 61.1227 41.0836 58.6082 43.3516 56.5677C45.6196 54.5273 48.3088 53.0108 51.2284 52.1258C50.441 57.6166 48.2583 62.8137 44.8888 67.2201C47.098 63.7222 49.9321 60.6608 53.2494 58.1887C53.525 57.918 53.8582 57.7133 54.2242 57.5898C54.5902 57.4664 54.9794 57.4274 55.3626 57.4759C56.6708 57.8532 56.5869 59.74 56.1257 61.0147C55.1687 63.6819 53.8054 66.1852 52.0838 68.4361C52.7322 66.549 53.9328 64.9004 55.5298 63.7041C57.1269 62.5079 59.0465 61.8192 61.0398 61.7275C62.6414 61.6771 55.1697 76.0671 54.5995 76.9979C51.3375 82.7841 51.589 86.9015 51.2452 93.2243C50.3479 108.964 48.7295 125.711 50.2054 141.392C50.6247 145.862 57.9454 189.862 61.241 189.602C50.2892 190.44 40.3773 193.836 29.4591 193.09C24.218 192.738 14.4486 193.669 9.79449 191.245C3.66451 188.05 7.02719 171.119 6.99365 165.585C6.89302 152.168 4.54501 138.952 2.88463 125.694C1.40036 113.845 0.444382 101.736 2.10476 89.8532C3.77352 77.5597 9.64354 68.1677 16.6121 58.1216Z" fill="white"/>
<path d="M32.5533 193.593C31.4967 193.593 30.4317 193.593 29.3667 193.484C27.9244 193.384 26.1047 193.384 24.1927 193.392C18.9349 193.392 12.9978 193.392 9.54283 191.589C4.51138 188.99 5.48413 178.415 6.18853 170.692C6.37302 168.595 6.54073 166.792 6.53235 165.56C6.45688 155.312 5.03968 144.981 3.66442 134.994C3.23675 131.899 2.82585 128.813 2.43172 125.719C1.07323 114.893 -0.0840043 102.147 1.65184 89.7694C3.38769 77.392 9.30803 67.9665 16.285 57.9036C19.7063 52.9057 23.3541 47.9748 27.0774 43.2201C28.2095 41.7778 29.2745 40.5283 30.8091 39.9245C32.3437 39.3208 34.7755 39.7652 35.4799 41.5094C35.9747 42.7338 35.4799 44.0252 35.0523 45.1824C34.1298 47.4186 33.104 49.624 31.9747 51.7987C34.6784 48.9272 37.7193 46.3931 41.0313 44.2516C41.0909 44.2207 41.157 44.2046 41.2242 44.2046C41.2913 44.2046 41.3574 44.2207 41.417 44.2516C41.4802 44.2755 41.5364 44.3149 41.5804 44.3661C41.6243 44.4174 41.6547 44.479 41.6686 44.5451C42.6868 49.0526 42.5046 53.7484 41.1403 58.1635C43.7737 55.0898 47.2344 52.837 51.111 51.673C51.1784 51.6527 51.2499 51.6498 51.3188 51.6644C51.3876 51.6791 51.4517 51.7109 51.5051 51.7568C51.5581 51.8031 51.5988 51.8618 51.6237 51.9276C51.6485 51.9935 51.6568 52.0644 51.6476 52.1342C51.193 55.3518 50.2603 58.4835 48.8804 61.4256C50.1415 60.1307 51.5043 58.9389 52.9558 57.8616C53.2827 57.5407 53.6816 57.3025 54.1192 57.1668C54.5568 57.0312 55.0204 57.002 55.4715 57.0818C55.707 57.1471 55.9259 57.2615 56.1138 57.4176C56.3017 57.5738 56.4544 57.768 56.5617 57.9874C56.9521 59.0142 56.9341 60.1517 56.5114 61.1656C56.2934 61.7862 56.0418 62.4067 55.7818 63.0021C57.3379 61.9645 59.1535 61.3835 61.0229 61.3249C61.13 61.318 61.2369 61.341 61.3317 61.3914C61.4265 61.4417 61.5054 61.5174 61.5596 61.6101C62.4736 63.1447 55.0019 77.0482 54.9265 77.1488C52.134 82.0964 51.9663 85.761 51.7231 90.826C51.7231 91.5891 51.656 92.369 51.6057 93.1908C51.4464 96 51.2619 98.8428 51.0774 101.711C50.2388 114.851 49.3416 128.444 50.5575 141.3C51.178 147.807 58.4233 188.595 61.1487 189.099C61.2599 189.09 61.3701 189.125 61.455 189.198C61.5399 189.27 61.5926 189.373 61.6015 189.484C61.6104 189.595 61.5748 189.706 61.5024 189.791C61.4301 189.875 61.327 189.928 61.2158 189.937C57.0229 190.264 52.9223 190.977 48.9558 191.665C43.6393 192.646 38.155 193.593 32.5533 193.593ZM24.5449 192.553C26.3479 192.553 28.0502 192.553 29.4254 192.646C36.134 193.107 42.264 192.034 48.7965 190.901C52.4527 190.264 56.2179 189.61 60.0837 189.224C59.0103 187.614 57.2242 182.625 54.1718 167.304C51.9412 156.084 49.9789 143.824 49.7273 141.384C48.503 128.461 49.3835 114.843 50.2388 101.66C50.4233 98.8008 50.6078 95.9581 50.7671 93.1572C50.8175 92.3187 50.851 91.5556 50.8929 90.8008C51.1194 85.7694 51.3038 81.8616 54.1969 76.7463C55.3961 74.6247 60.7881 63.8994 60.8133 62.0964C58.6145 62.2499 56.5383 63.1664 54.9432 64.6876C54.2136 66.0812 53.3723 67.4133 52.4275 68.6709C52.3696 68.7555 52.2826 68.816 52.183 68.8408C52.0834 68.8657 51.9782 68.8531 51.8873 68.8056C51.7964 68.7581 51.726 68.6788 51.6896 68.5829C51.6531 68.487 51.6531 68.381 51.6896 68.2851C52.2072 66.7304 53.0967 65.3256 54.2808 64.1929C54.8426 63.1092 55.3301 61.9885 55.7399 60.8386C56.078 60.0397 56.1108 59.1444 55.8321 58.3229C55.7755 58.208 55.6955 58.1061 55.5974 58.0238C55.4992 57.9415 55.3849 57.8806 55.2619 57.8449C54.9403 57.8177 54.6167 57.8615 54.3139 57.973C54.011 58.0846 53.7364 58.2613 53.5093 58.4906C51.0666 60.3118 48.8904 62.4654 47.0439 64.8889C46.4904 65.7275 45.9034 66.6164 45.2745 67.4046C45.2082 67.4888 45.1121 67.5445 45.0061 67.5601C44.9 67.5756 44.792 67.55 44.7043 67.4885C44.6152 67.4287 44.5531 67.3364 44.5312 67.2314C44.5093 67.1265 44.5292 67.0171 44.5869 66.9266C45.1319 66.0881 45.7273 65.1908 46.3479 64.4109C48.5807 60.8272 50.0826 56.8373 50.7671 52.6709C46.3878 54.1425 42.6424 57.0655 40.1508 60.956C39.6745 62.0359 39.1283 63.0835 38.5156 64.0922C38.4584 64.1815 38.3702 64.2464 38.2679 64.2743C38.1656 64.3022 38.0567 64.2911 37.9621 64.2432C37.8682 64.1945 37.7962 64.1122 37.7604 64.0127C37.7246 63.9132 37.7278 63.8038 37.7692 63.7065C38.2369 62.612 38.798 61.5599 39.4464 60.5618C41.5366 55.7635 42.1044 50.4394 41.0732 45.3082C36.8824 48.0529 33.1498 51.4403 30.0124 55.3459C28.577 57.7807 27.0093 60.135 25.3164 62.3983C25.2528 62.4829 25.1595 62.5403 25.0553 62.559C24.951 62.5777 24.8436 62.5562 24.7546 62.499C24.6667 62.4405 24.6036 62.3517 24.5773 62.2495C24.551 62.1474 24.5633 62.0391 24.612 61.9455C25.9748 59.4541 27.5516 57.086 29.3248 54.8679C31.2098 51.6625 32.8659 48.3278 34.2808 44.8889C34.6833 43.8994 35.1193 42.7757 34.7001 41.8365C34.1801 40.5535 32.394 40.218 31.1193 40.7212C29.8447 41.2243 28.7965 42.3983 27.7651 43.7484C24.0502 48.4948 20.4191 53.4172 16.9894 58.3732C10.0711 68.3606 4.20111 77.6604 2.49042 89.8952C0.779727 102.13 1.92019 114.86 3.27029 125.635C3.65604 128.721 4.10887 131.807 4.503 134.86C5.87826 144.881 7.30383 155.237 7.37931 165.535C7.37931 166.809 7.21998 168.637 7.03549 170.751C6.40656 177.811 5.45059 188.486 9.96212 190.834C13.2326 192.512 19.3206 192.512 24.2179 192.512L24.5449 192.553Z" fill="#21005D"/>
<path d="M66.3141 199.631C65.9284 197.384 56.4441 159.229 56.4441 159.229L1.71875 149.535L2.6915 197.836L66.3141 199.631Z" fill="#EADDFF"/>
<path d="M120.335 10.4319V84.8721H213.258C213.258 82.9518 213.434 77.9455 213.258 76.0671C209.618 37.6352 169.258 10.4319 120.335 10.4319Z" fill="#21005D"/>
<path d="M213.677 85.2914H119.908V10.0126H120.327C144.285 10.0126 166.901 16.5702 184.017 28.4612C201.384 40.5535 211.916 57.4423 213.669 75.9916C213.803 77.3585 213.744 80.2432 213.669 82.5576C213.669 83.4717 213.669 84.2851 213.669 84.8386L213.677 85.2914ZM120.746 84.4528H212.839C212.839 83.9329 212.839 83.2872 212.839 82.5744C212.88 80.4025 212.939 77.4172 212.839 76.109C211.111 57.8029 200.704 41.1321 183.539 29.1488C166.667 17.4088 144.377 10.8931 120.746 10.8176V84.4528Z" fill="#21005D"/>
<path d="M17.0898 97.761C17.0898 138.851 58.6999 172.201 110.021 172.201C161.341 172.201 202.951 138.876 202.951 97.761V88.1258L110.021 97.761V23.3208C58.6999 23.3208 17.0898 56.6709 17.0898 97.761Z" fill="#21005D"/>
<path d="M17.0898 88.1258C17.0898 129.216 58.6999 162.566 110.021 162.566C161.341 162.566 202.951 129.241 202.951 88.1258H110.021V13.6855C58.6999 13.6855 17.0898 47.0273 17.0898 88.1258Z" fill="#6750A4"/>
<path d="M120.335 1.62683V76.0671H213.258C213.258 34.9769 171.648 1.62683 120.335 1.62683Z" fill="white"/>
<path d="M213.258 76.4864H120.335C120.224 76.4864 120.117 76.4422 120.039 76.3636C119.96 76.2849 119.916 76.1783 119.916 76.0671V1.62684C119.916 1.51564 119.96 1.40899 120.039 1.33036C120.117 1.25172 120.224 1.20755 120.335 1.20755C171.807 1.20755 213.685 34.7924 213.685 76.0671C213.685 76.1229 213.674 76.1781 213.653 76.2295C213.631 76.2809 213.599 76.3275 213.56 76.3666C213.52 76.4056 213.473 76.4363 213.421 76.4569C213.369 76.4775 213.313 76.4875 213.258 76.4864ZM120.746 75.6478H212.83C212.578 35.1363 171.388 2.23061 120.746 2.04612V75.6478Z" fill="#21005D"/>
<path d="M108.444 171.069C108.389 171.068 108.335 171.056 108.284 171.034C108.234 171.012 108.188 170.98 108.15 170.94C108.112 170.901 108.082 170.854 108.062 170.803C108.042 170.751 108.032 170.697 108.033 170.642L109.61 88.1426C109.614 88.0629 109.64 87.9858 109.684 87.9194C109.728 87.853 109.789 87.7997 109.861 87.7652C109.936 87.7334 110.019 87.7237 110.099 87.737C110.179 87.7504 110.254 87.7863 110.314 87.8407L173.593 144.537C173.638 144.572 173.674 144.617 173.701 144.667C173.728 144.718 173.744 144.773 173.748 144.83C173.753 144.887 173.746 144.945 173.727 144.999C173.709 145.053 173.68 145.103 173.641 145.145C173.603 145.187 173.556 145.221 173.504 145.245C173.452 145.269 173.396 145.282 173.339 145.283C173.282 145.284 173.225 145.273 173.172 145.252C173.119 145.23 173.071 145.198 173.031 145.157L110.432 89.0734L108.872 170.658C108.871 170.713 108.859 170.768 108.837 170.818C108.815 170.869 108.783 170.914 108.743 170.952C108.703 170.99 108.657 171.02 108.605 171.04C108.554 171.061 108.499 171.07 108.444 171.069Z" fill="white"/>
<path d="M8.57861 93.3669L23.8742 77.434C26.7002 74.5073 29.9455 71.3795 34.0042 71.2285C35.5556 71.1698 37.3585 71.8239 37.761 73.3166C38.0545 74.4654 37.392 75.6226 36.7547 76.6205C31.9692 84.1342 26.8316 91.4018 21.3417 98.4235C23.2086 100.157 24.6945 102.259 25.7048 104.598C26.7152 106.937 27.2281 109.46 27.2107 112.007C27.1934 114.554 26.6462 117.07 25.6041 119.395C24.5619 121.719 23.0476 123.802 21.1572 125.509" fill="white"/>
<path d="M21.1571 125.987C21.0983 125.987 21.0402 125.974 20.9868 125.949C20.9333 125.925 20.8856 125.889 20.8468 125.845C20.8075 125.806 20.7763 125.76 20.755 125.708C20.7337 125.657 20.7228 125.603 20.7228 125.547C20.7228 125.492 20.7337 125.437 20.755 125.386C20.7763 125.335 20.8075 125.288 20.8468 125.249C22.6948 123.583 24.1755 121.549 25.1947 119.279C26.2139 117.008 26.7492 114.55 26.7665 112.062C26.7839 109.573 26.2829 107.108 25.2955 104.823C24.3081 102.539 22.8559 100.485 21.0313 98.7925C20.9555 98.7195 20.9087 98.6215 20.8995 98.5167C20.8902 98.412 20.9192 98.3074 20.981 98.2222C26.4317 91.2369 31.6057 83.9078 36.3772 76.4193C36.9977 75.4549 37.5764 74.4319 37.3248 73.4507C37.0061 72.2096 35.4045 71.6143 33.9705 71.673C30.155 71.8155 27.0187 74.7505 24.1256 77.7526L8.83003 93.6855C8.75135 93.7563 8.64882 93.7947 8.54302 93.793C8.43721 93.7913 8.33595 93.7497 8.25955 93.6765C8.18315 93.6033 8.13726 93.5039 8.13109 93.3983C8.12491 93.2926 8.15891 93.1885 8.22626 93.1069L23.5219 77.174C26.5323 74.0461 29.8112 70.9853 33.9453 70.8344C35.6225 70.7841 37.6686 71.4969 38.1382 73.2411C38.4736 74.5493 37.7692 75.7568 37.0816 76.8721C32.3688 84.26 27.2535 91.5052 21.8782 98.4235C23.7285 100.212 25.1914 102.362 26.176 104.739C27.1606 107.117 27.646 109.672 27.6019 112.245C27.5579 114.818 26.9854 117.354 25.92 119.697C24.8546 122.039 23.319 124.137 21.4086 125.862C21.3414 125.931 21.2527 125.975 21.1571 125.987Z" fill="#21005D"/>
<path d="M195.631 168.201C196.645 156.05 204.1 110.138 201.014 101.216C199.337 96.4445 195.094 93.4424 191.161 90.6248C187.681 88.109 181.534 84.7547 180.821 80.2348C180.708 79.7511 180.703 79.2481 180.807 78.7623C180.912 78.2764 181.123 77.8199 181.425 77.4256C181.809 77.0923 182.26 76.8451 182.747 76.7004C183.235 76.5558 183.748 76.5171 184.251 76.587C188.57 76.7799 191.522 79.8155 195.488 80.8637C199.455 81.912 202.725 84.6457 206.742 85.7946C209.467 86.5744 212.746 86.239 214.608 84.1174C215.604 82.7945 216.245 81.2384 216.469 79.5975C217.967 71.6062 217.243 63.3572 214.378 55.7485C211.512 48.1398 206.615 41.4628 200.218 36.4444C198.641 35.2453 196.788 33.283 197.886 31.631C198.775 30.2977 200.805 30.6164 202.289 31.2117C213.643 35.7736 221.517 47.1447 223.74 58.8847C222.624 52.9728 221.727 47.195 219.589 41.5514C218.364 38.3145 211.84 31.9749 215.077 28.6709C215.547 28.2621 216.122 27.9922 216.736 27.8915C217.351 27.7908 217.981 27.8632 218.557 28.1006C219.701 28.6046 220.716 29.3616 221.526 30.3145C228.964 38.2055 231.907 50.0377 234.104 60.3858C234.027 53.1123 232.94 45.8847 230.876 38.9099C230.163 36.4948 229.325 34.0461 229.417 31.5304C229.391 30.7776 229.629 30.0394 230.088 29.4424C231.421 27.9832 233.87 29.3501 235.019 30.9686C236.521 33.3526 237.652 35.9511 238.373 38.6751C241.039 47.0608 243.715 55.7317 242.406 64.4025C243.182 58.6212 243.323 52.7722 242.826 46.9602C242.541 43.6059 242.037 40.1174 242.708 36.7799C244.478 27.9832 249.694 41.543 250.18 43.8491C251.463 49.8868 251.379 56.2013 250.951 62.2977C249.618 81.3333 243.589 99.7988 243.53 118.734L243.413 157.375" fill="white"/>
<path d="M195.631 168.621C195.576 168.616 195.522 168.601 195.473 168.576C195.424 168.551 195.38 168.516 195.344 168.474C195.308 168.432 195.281 168.384 195.264 168.331C195.247 168.278 195.241 168.223 195.245 168.168C195.514 164.939 196.251 159.254 197.098 152.671C199.405 134.809 202.893 107.816 200.654 101.35C199.069 96.7715 195.019 93.8784 191.111 91.0859L190.952 90.9685C190.398 90.5744 189.778 90.13 189.124 89.7107C185.534 87.2956 181.073 84.2851 180.444 80.2935C180.317 79.7488 180.315 79.1825 180.437 78.6366C180.559 78.0907 180.802 77.5794 181.149 77.1405C181.572 76.7597 182.074 76.476 182.619 76.3094C183.163 76.1429 183.738 76.0974 184.302 76.1761C186.927 76.2935 189.073 77.4256 191.145 78.5241C192.56 79.3373 194.062 79.9898 195.623 80.4696C197.67 81.0782 199.64 81.9224 201.493 82.9853C203.218 83.9672 205.038 84.7708 206.927 85.3837C209.166 86.021 212.461 85.9958 214.365 83.8239C215.31 82.5549 215.916 81.0655 216.126 79.4969C217.638 71.577 216.935 63.3934 214.094 55.8475C211.253 48.3016 206.385 41.6861 200.025 36.7296C197.509 34.8008 196.612 32.8386 197.602 31.3543C198.44 30.088 200.277 29.8784 202.516 30.7757C210.977 34.13 218.046 41.6771 221.853 50.9015C221.233 47.7634 220.367 44.6791 219.262 41.6771C218.699 40.4774 218.022 39.3345 217.241 38.2641C215.052 34.9937 212.319 30.9266 214.851 28.3522C215.378 27.8853 216.025 27.5757 216.718 27.4586C217.412 27.3414 218.125 27.4215 218.776 27.6897C219.953 28.2381 220.989 29.0501 221.803 30.0629C228.184 36.8302 231.304 46.4906 233.459 55.7149C233.059 50.0733 232.046 44.492 230.44 39.0692L230.205 38.2809C229.424 36.1287 229.004 33.8618 228.964 31.5723C228.939 30.7196 229.215 29.8854 229.744 29.2159C229.984 28.9529 230.281 28.7481 230.613 28.6174C230.944 28.4866 231.301 28.4332 231.656 28.4612C232.393 28.5788 233.098 28.8454 233.728 29.2448C234.358 29.6442 234.9 30.168 235.321 30.7841C236.998 33.1572 237.945 36.0503 238.759 38.608C240.472 43.5247 241.782 48.5729 242.675 53.7023C242.675 51.4801 242.574 49.2495 242.39 46.9937C242.34 46.4822 242.298 45.9706 242.247 45.4591C241.971 42.5744 241.685 39.5891 242.247 36.696C242.692 34.499 243.396 33.434 244.411 33.4256C247.145 33.4256 250.281 42.5157 250.541 43.7568C251.933 50.3061 251.69 57.174 251.321 62.3564C250.725 70.7924 249.199 79.2285 247.715 87.3962C245.853 97.6352 243.933 108.226 243.899 118.759L243.782 157.4C243.782 157.512 243.738 157.618 243.659 157.697C243.58 157.776 243.474 157.82 243.363 157.82C243.253 157.818 243.148 157.772 243.072 157.694C242.995 157.616 242.952 157.51 242.952 157.4L243.069 118.759C243.069 108.151 245.031 97.5262 246.893 87.2453C248.377 79.1027 249.903 70.6834 250.49 62.2977C250.859 57.1321 251.094 50.3815 249.736 43.9329C249.241 41.6352 246.18 34.2641 244.428 34.2641C243.908 34.2641 243.421 35.2117 243.086 36.8637C242.524 39.631 242.801 42.5577 243.086 45.3753C243.136 45.8952 243.186 46.4067 243.228 46.9266C243.683 52.2316 243.612 57.5684 243.019 62.8595C242.968 63.3962 242.901 63.9329 242.826 64.4696C242.807 64.5788 242.747 64.6765 242.658 64.7422C242.569 64.8078 242.458 64.8364 242.348 64.8218C242.239 64.8052 242.142 64.7467 242.076 64.6589C242.01 64.5711 241.981 64.461 241.996 64.3522C242.063 63.8239 242.13 63.304 242.189 62.7757C242.977 54.3899 240.218 45.8113 237.996 38.8092C237.268 36.1376 236.137 33.5926 234.641 31.262C234.293 30.7468 233.845 30.3069 233.324 29.9684C232.802 29.6298 232.218 29.3996 231.606 29.2914C231.376 29.271 231.145 29.3035 230.93 29.3863C230.715 29.4692 230.521 29.6002 230.365 29.7694C229.966 30.2926 229.767 30.9407 229.803 31.5975C229.848 33.8015 230.256 35.9831 231.01 38.0545L231.245 38.8428C233.328 45.8348 234.428 53.0823 234.516 60.3774C234.518 60.4822 234.48 60.584 234.41 60.662C234.34 60.7399 234.243 60.7881 234.138 60.7966C234.035 60.8113 233.93 60.7854 233.846 60.7244C233.761 60.6635 233.704 60.5721 233.685 60.4696C231.488 50.1216 228.511 38.3899 221.216 30.6415C220.466 29.7319 219.52 29.0037 218.449 28.5115C217.949 28.3018 217.4 28.2346 216.864 28.3175C216.329 28.4004 215.826 28.6301 215.413 28.9811C213.367 31.0692 215.883 34.8512 217.929 37.8365C218.747 38.959 219.455 40.1582 220.042 41.4172C221.903 46.3312 222.809 51.2453 223.765 56.4361C223.916 57.2243 224.059 58.021 224.21 58.8092C224.231 58.9204 224.207 59.0355 224.143 59.129C224.079 59.2226 223.981 59.287 223.87 59.3082C223.759 59.3293 223.644 59.3054 223.55 59.2417C223.457 59.178 223.392 59.0798 223.371 58.9685C221.023 46.5576 212.704 35.8071 202.172 31.5807C200.755 31.0105 198.985 30.7421 198.272 31.8407C197.258 33.3669 199.497 35.3208 200.511 36.0839C206.994 41.1385 211.957 47.8841 214.852 55.5778C217.748 63.2715 218.464 71.615 216.922 79.6897C216.691 81.4011 216.018 83.0226 214.968 84.3941C212.813 86.9099 209.149 86.9099 206.667 86.2138C204.723 85.5917 202.851 84.7653 201.082 83.7484C199.293 82.7193 197.394 81.8951 195.421 81.2914C193.799 80.7953 192.237 80.1174 190.767 79.2704C188.679 78.1719 186.709 77.1321 184.277 77.0231C183.832 76.9549 183.378 76.9817 182.944 77.1017C182.511 77.2216 182.107 77.432 181.761 77.7191C181.508 78.0695 181.333 78.4704 181.249 78.8944C181.165 79.3185 181.174 79.7557 181.275 80.1761C181.845 83.8071 186.138 86.7002 189.593 89.0231C190.256 89.4759 190.885 89.8616 191.438 90.2977L191.597 90.4067C195.43 93.1488 199.773 96.2767 201.442 101.09C203.748 107.74 200.386 133.795 197.929 152.788C197.09 159.354 196.352 165.031 196.084 168.252C196.079 168.306 196.063 168.358 196.037 168.406C196.011 168.454 195.976 168.496 195.934 168.531C195.892 168.565 195.844 168.59 195.792 168.606C195.74 168.621 195.685 168.626 195.631 168.621Z" fill="#21005D"/>
<path d="M183.027 198.281C183.48 191.572 192.008 147.128 192.008 147.128L246.767 139.941L248.562 196.964L183.027 198.281Z" fill="#EADDFF"/>
<path d="M197.836 159.203C197.725 159.21 197.616 159.172 197.532 159.098C197.449 159.024 197.399 158.92 197.392 158.809C197.385 158.698 197.423 158.589 197.497 158.505C197.571 158.422 197.675 158.371 197.786 158.365L240.427 152.495C240.538 152.48 240.649 152.51 240.737 152.578C240.825 152.646 240.882 152.745 240.897 152.855C240.905 152.909 240.903 152.965 240.89 153.018C240.876 153.071 240.852 153.12 240.82 153.164C240.787 153.208 240.746 153.245 240.698 153.272C240.651 153.3 240.599 153.318 240.545 153.325L197.895 159.195L197.836 159.203Z" fill="#21005D"/>
<path d="M51.0521 169.971L10.6579 165.929C10.6031 165.925 10.5497 165.909 10.5009 165.884C10.452 165.859 10.4087 165.824 10.3736 165.782C10.3384 165.74 10.312 165.691 10.296 165.638C10.2801 165.586 10.2748 165.531 10.2806 165.476C10.2858 165.421 10.3019 165.367 10.328 165.318C10.3541 165.269 10.3896 165.226 10.4325 165.191C10.4754 165.156 10.5248 165.13 10.5779 165.114C10.631 165.098 10.6867 165.093 10.7418 165.099L51.1359 169.14C51.2471 169.146 51.3516 169.196 51.4263 169.278C51.501 169.361 51.5398 169.47 51.5343 169.581C51.5287 169.692 51.4792 169.796 51.3966 169.871C51.3141 169.946 51.2052 169.985 51.094 169.979L51.0521 169.971Z" fill="#21005D"/>
<path fill-rule="evenodd" clip-rule="evenodd" d="M156.604 25.7233C154.118 25.7233 151.656 26.2129 149.359 27.1643C147.062 28.1157 144.976 29.5101 143.218 31.268C141.46 33.0259 140.065 35.1128 139.114 37.4096C138.163 39.7064 137.673 42.1681 137.673 44.6541C137.673 47.1401 138.163 49.6018 139.114 51.8986C140.065 54.1954 141.46 56.2823 143.218 58.0402C144.976 59.7981 147.062 61.1925 149.359 62.1439C151.656 63.0953 154.118 63.5849 156.604 63.5849C161.625 63.5849 166.44 61.5904 169.99 58.0402C173.54 54.49 175.535 49.6749 175.535 44.6541C175.535 39.6333 173.54 34.8182 169.99 31.268C166.44 27.7178 161.625 25.7233 156.604 25.7233ZM132.264 44.6541C132.264 38.1988 134.829 32.008 139.393 27.4434C143.958 22.8788 150.149 20.3145 156.604 20.3145C163.059 20.3145 169.25 22.8788 173.814 27.4434C178.379 32.008 180.943 38.1988 180.943 44.6541C180.943 51.1094 178.379 57.3003 173.814 61.8648C169.25 66.4294 163.059 68.9937 156.604 68.9937C150.149 68.9937 143.958 66.4294 139.393 61.8648C134.829 57.3003 132.264 51.1094 132.264 44.6541ZM155.043 36.5409C154.381 36.5409 153.746 36.8039 153.278 37.272C152.81 37.7401 152.547 38.375 152.547 39.0371V40.0783C152.547 40.7955 152.262 41.4834 151.755 41.9906C151.248 42.4977 150.56 42.7827 149.843 42.7827C149.126 42.7827 148.438 42.4977 147.93 41.9906C147.423 41.4834 147.138 40.7955 147.138 40.0783V39.0371C147.138 36.9405 147.971 34.9299 149.454 33.4474C150.936 31.9649 152.947 31.1321 155.043 31.1321H156.604C161.853 31.1321 166.069 35.4348 166.069 40.6408C166.069 43.1478 164.771 45.5087 162.618 46.8339L158.021 49.6627C157.718 49.8488 157.382 49.9734 157.031 50.0296C156.68 50.0857 156.322 50.0722 155.977 49.9898C155.631 49.9075 155.305 49.7578 155.017 49.5495C154.73 49.3412 154.486 49.0782 154.3 48.7756C153.924 48.1645 153.806 47.4291 153.972 46.7313C154.139 46.0334 154.576 45.4302 155.187 45.0544L159.784 42.2256C160.053 42.0573 160.274 41.8236 160.427 41.5464C160.58 41.2692 160.661 40.9575 160.66 40.6408C160.66 38.3772 158.821 36.5409 156.604 36.5409H155.043ZM156.631 58.1761C157.348 58.1761 158.036 57.8912 158.543 57.384C159.05 56.8768 159.335 56.189 159.335 55.4717C159.335 54.7545 159.05 54.0666 158.543 53.5594C158.036 53.0522 157.348 52.7673 156.631 52.7673H156.604C155.887 52.7673 155.199 53.0522 154.691 53.5594C154.184 54.0666 153.899 54.7545 153.899 55.4717C153.899 56.189 154.184 56.8768 154.691 57.384C155.199 57.8912 155.887 58.1761 156.604 58.1761H156.631Z" fill="#21005D"/>
</svg>
