<svg width="240" height="200" viewBox="0 0 240 200" fill="none" xmlns="http://www.w3.org/2000/svg">
<g clip-path="url(#clip0_54374_36266)">
<path d="M184 188.9C186.905 188.9 189.282 186.528 189.282 183.597V34.4532C189.282 31.5545 186.905 29.1502 184 29.1502H148.25C152.706 37.3849 155.314 46.871 155.314 56.9501C155.314 60.0133 152.838 62.5165 149.735 62.5165H50.8031C47.7332 62.5165 45.2245 60.0464 45.2245 56.9501C45.2245 46.871 47.7991 37.3849 52.2885 29.1502H16.4392C13.5342 29.1502 11.1577 31.5219 11.1577 34.4532V183.63C11.1577 186.528 13.5347 188.933 16.4392 188.933H94.674V95.784C94.674 92.7209 97.1495 90.2176 100.253 90.2176C103.356 90.2176 105.831 92.6877 105.831 95.784V188.9L184 188.9Z" fill="white"/>
<path d="M100.286 14.6576C97.2158 14.6576 94.707 17.1277 94.707 20.224V39.7893C94.707 42.8525 97.1826 45.3557 100.286 45.3557C103.389 45.3557 105.864 42.8856 105.864 39.7893V20.224C105.864 17.1277 103.322 14.6576 100.286 14.6576Z" fill="#21005D"/>
<path d="M184 18.0173H140.36C130.293 6.94973 116.098 0 100.319 0C84.5401 0 70.2797 6.98285 60.2774 18.0173H16.4398C7.36126 18.0173 0 25.3951 0 34.4205V183.597C0 192.655 7.39445 200 16.4393 200H184C193.078 200 200.44 192.622 200.44 183.597V34.4532C200.44 25.3951 193.078 18.0173 184 18.0173ZM100.286 11.1002C122.7 11.1002 141.219 28.689 143.86 51.3837H56.7122C59.3527 28.689 77.8717 11.1002 100.286 11.1002ZM189.315 183.597C189.315 186.495 186.938 188.9 184.033 188.9H105.865V95.784C105.865 92.7209 103.389 90.2176 100.286 90.2176C97.1828 90.2176 94.7073 92.6877 94.7073 95.784V188.9H16.4393C13.5343 188.9 11.1578 186.528 11.1578 183.597V34.4532C11.1578 31.5545 13.5348 29.1502 16.4393 29.1502H52.3218C47.8655 37.3849 45.2577 46.871 45.2577 56.9501C45.2577 60.0133 47.7333 62.5165 50.8364 62.5165H149.736C152.806 62.5165 155.315 60.0464 155.315 56.9501C155.315 46.871 152.74 37.3849 148.251 29.1502H184.001C186.906 29.1502 189.282 31.5219 189.282 34.4532V183.597H189.315Z" fill="#21005D"/>
<path d="M100.286 11.1002C77.8719 11.1002 59.3202 28.6891 56.7124 51.3837H143.86C141.219 28.6891 122.667 11.1002 100.286 11.1002ZM105.865 39.7235C105.865 42.7867 103.389 45.29 100.286 45.29C97.183 45.29 94.7074 42.8198 94.7074 39.7235V20.1909C94.7074 17.1277 97.183 14.6245 100.286 14.6245C103.356 14.6245 105.865 17.0946 105.865 20.1909V39.7235Z" fill="#EADDFF"/>
<path d="M27.8609 40.2504C24.7909 40.2504 22.2822 42.7205 22.2822 45.8168V99.4072H43.31C46.3799 99.4072 48.8886 101.877 48.8886 104.974C48.8886 108.037 46.4131 110.54 43.31 110.54H22.249V121.64H32.9115C35.9814 121.64 38.4902 124.11 38.4902 127.207C38.4902 130.27 36.0146 132.773 32.9115 132.773H22.249V172.266C22.249 175.329 24.7246 177.832 27.8277 177.832H94.7071V95.784C94.7071 92.7209 97.1826 90.2176 100.286 90.2176C103.389 90.2176 105.864 92.6877 105.864 95.784V177.767H172.612C175.681 177.767 178.19 175.297 178.19 172.201V45.7842C178.19 42.721 175.715 40.2178 172.612 40.2178H152.838C154.423 45.4876 155.281 51.0872 155.281 56.9175C155.281 59.9807 152.806 62.4839 149.703 62.4839H50.803C47.7331 62.4839 45.2244 60.0138 45.2244 56.9175C45.2244 51.0877 46.0827 45.4881 47.6672 40.2178C47.6999 40.2504 27.8609 40.2504 27.8609 40.2504Z" fill="#6750A4"/>
</g>
<ellipse cx="189.011" cy="149.123" rx="41.5757" ry="41.4845" fill="#EADDFF"/>
<path d="M203.602 134.446C199.457 128.934 194.548 124.036 189.023 119.899C189.023 119.899 166.345 136.063 166.345 155.459C166.326 159.884 167.622 164.215 170.071 167.905L203.602 134.446Z" fill="#4F378B"/>
<path d="M209.499 144.726C210.908 148.132 211.656 151.774 211.702 155.459C211.705 159.345 210.705 163.166 208.798 166.554C206.891 169.942 204.141 172.784 200.814 174.804C197.488 176.824 193.695 177.956 189.803 178.089C185.911 178.223 182.05 177.354 178.592 175.566" stroke="#21005D" stroke-width="5" stroke-linecap="round" stroke-linejoin="round"/>
<path d="M203.602 134.446C199.457 128.934 194.548 124.036 189.023 119.899C189.023 119.899 166.345 136.063 166.345 155.459C166.326 159.884 167.622 164.215 170.071 167.905" stroke="#21005D" stroke-width="5" stroke-linecap="round" stroke-linejoin="round"/>
<path d="M214.942 123.132L163.105 174.855" stroke="#21005D" stroke-width="5" stroke-linecap="round" stroke-linejoin="round"/>
<path fill-rule="evenodd" clip-rule="evenodd" d="M189.01 200C217.171 200 240 177.221 240 149.123C240 121.024 217.171 98.2456 189.01 98.2456C160.85 98.2456 138.021 121.024 138.021 149.123C138.021 177.221 160.85 200 189.01 200ZM189.011 190.607C211.972 190.607 230.586 172.034 230.586 149.123C230.586 126.212 211.972 107.638 189.011 107.638C166.049 107.638 147.435 126.212 147.435 149.123C147.435 172.034 166.049 190.607 189.011 190.607Z" fill="#21005D"/>
<defs>
<clipPath id="clip0_54374_36266">
<rect width="200.44" height="200" fill="white"/>
</clipPath>
</defs>
</svg>
