<svg width="122" height="300" viewBox="0 0 122 300" fill="none" xmlns="http://www.w3.org/2000/svg">
<path d="M18.2787 30.065C18.2787 30.065 10.0418 12.9282 8.69015 11.1798C7.33846 9.43139 3.68469 0.466191 3.00885 0.627391C2.33301 0.788591 3.2834 4.99219 5.31093 10.3862C5.31093 10.3862 0.854597 13.5978 0.991877 15.9786C1.12916 18.3594 3.51572 23.7534 7.1695 22.1786L13.0092 37.505" fill="white"/>
<path d="M13.0096 38.1374C12.908 38.137 12.8088 38.1015 12.7243 38.0354C12.6398 37.9692 12.5737 37.8754 12.5344 37.7654L6.87415 22.8854C6.32107 23.0538 5.7437 23.0811 5.18086 22.9656C4.61803 22.8501 4.08277 22.5945 3.6111 22.2158C2.7499 21.4919 2.02439 20.5681 1.47947 19.5017C0.934548 18.4352 0.581803 17.2488 0.443073 16.0158C0.305792 13.7094 3.45269 11.0558 4.6671 10.1506C3.89622 8.03024 1.77364 1.95424 2.4178 0.478637C2.46869 0.361016 2.54174 0.258564 2.6314 0.179065C2.72106 0.0995647 2.82498 0.0451097 2.93525 0.0198382C3.56886 -0.141362 3.99126 0.590239 6.39895 5.56264C7.19499 7.36695 8.09835 9.10311 9.10233 10.7582C10.4751 12.5438 18.4269 29.0482 18.7648 29.755C18.8245 29.8972 18.8356 30.0609 18.7957 30.2124C18.7558 30.3639 18.668 30.4916 18.5504 30.5695C18.4327 30.6473 18.2941 30.6692 18.1631 30.6307C18.0322 30.5923 17.9187 30.4963 17.8461 30.3626C15.5651 25.6134 9.39801 13.0026 8.342 11.589C7.27333 9.8748 6.32342 8.06273 5.50136 6.17024C4.83607 4.76904 3.99127 2.99584 3.38934 1.97904C3.94889 4.79104 4.75946 7.5259 5.80759 10.1382C5.85644 10.2749 5.862 10.4275 5.82326 10.5686C5.78451 10.7096 5.70403 10.8297 5.59639 10.907C3.9807 12.147 1.44628 14.4782 1.52021 15.9414C1.64779 16.9833 1.94951 17.9852 2.40802 18.8896C2.86653 19.794 3.47278 20.5831 4.1919 21.2114C4.59875 21.5378 5.06743 21.7423 5.55705 21.8072C6.04666 21.872 6.54235 21.7952 7.00089 21.5834C7.12738 21.5322 7.26557 21.5381 7.38856 21.6C7.51154 21.6619 7.6105 21.7754 7.66616 21.9182L13.5059 37.2694C13.5602 37.4195 13.5631 37.5884 13.5139 37.7409C13.4647 37.8934 13.3673 38.0177 13.2419 38.0878C13.1684 38.124 13.0892 38.1409 13.0096 38.1374V38.1374Z" fill="#21005D"/>
<path d="M96.624 135.093C96.624 135.093 104.196 139.383 106.276 140.946C108.356 142.508 114.217 141.305 114.777 140.115C115.336 138.925 109.951 138.168 109.951 138.168C109.951 138.168 121.144 132.7 120.268 131.361C119.392 130.021 109.708 132.601 109.708 132.601L100.563 126.773" fill="white"/>
<path d="M109.359 142.297C108.197 142.372 107.039 142.085 106.001 141.467C103.974 139.954 96.4972 135.701 96.4022 135.651C96.2861 135.574 96.1994 135.447 96.1595 135.298C96.1195 135.148 96.1293 134.986 96.1868 134.845C96.2444 134.703 96.3454 134.593 96.4696 134.535C96.5939 134.478 96.732 134.478 96.8563 134.535C97.1731 134.709 104.481 138.863 106.572 140.413C108.367 141.752 113.246 140.723 114.196 139.954C112.823 139.319 111.379 138.927 109.909 138.788C109.792 138.771 109.684 138.709 109.6 138.613C109.516 138.517 109.461 138.391 109.444 138.255C109.428 138.12 109.45 137.982 109.507 137.863C109.565 137.744 109.654 137.651 109.761 137.598C114.048 135.502 118.832 132.749 119.698 131.646C118.642 131.286 113.89 132.129 109.845 133.208C109.72 133.238 109.589 133.216 109.476 133.146L100.341 127.318C100.279 127.28 100.224 127.228 100.179 127.165C100.134 127.102 100.101 127.03 100.08 126.951C100.059 126.873 100.052 126.79 100.059 126.708C100.066 126.627 100.086 126.547 100.119 126.475C100.188 126.332 100.302 126.227 100.436 126.181C100.57 126.134 100.714 126.151 100.837 126.227L109.803 131.943C113.562 130.951 119.772 129.563 120.701 130.989C120.775 131.099 120.826 131.229 120.848 131.367C120.87 131.505 120.863 131.648 120.828 131.782C120.49 133.283 115.347 136.122 111.894 137.883C113.383 138.205 114.914 138.714 115.252 139.495C115.32 139.633 115.355 139.789 115.355 139.948C115.355 140.107 115.32 140.263 115.252 140.4C115.167 140.599 114.882 141.206 113.087 141.752C111.868 142.111 110.616 142.295 109.359 142.297V142.297Z" fill="#21005D"/>
<path d="M34.8899 153.023C34.8899 153.023 29.4831 186.02 29.7577 190.149C30.0322 194.278 58.6711 248.863 58.6711 248.863L67.8584 239.017L48.7975 184.755L58.1326 153.023H34.8899Z" fill="white"/>
<path d="M58.6712 249.545H58.6078C58.5314 249.535 58.458 249.504 58.3937 249.455C58.3295 249.405 58.2762 249.338 58.2382 249.26C55.2919 243.655 29.5148 194.427 29.2402 190.273C28.9657 186.119 34.1612 154.313 34.383 152.974C34.4054 152.833 34.4697 152.705 34.5644 152.615C34.6591 152.524 34.7782 152.475 34.9004 152.478H58.1326C58.2169 152.479 58.2999 152.504 58.375 152.549C58.45 152.594 58.5153 152.659 58.5655 152.738C58.6121 152.819 58.642 152.912 58.653 153.009C58.664 153.105 58.6558 153.204 58.6289 153.296L49.3677 184.817L68.3759 238.856C68.4179 238.973 68.4282 239.103 68.4055 239.227C68.3829 239.351 68.3283 239.464 68.2491 239.551L59.0619 249.396C58.9535 249.505 58.813 249.558 58.6712 249.545V249.545ZM35.3756 153.643C34.6998 157.81 30.0956 186.379 30.3385 190.099C30.518 192.989 47.3613 225.997 58.8507 247.896L67.2987 238.856L48.3751 184.991C48.3332 184.85 48.3332 184.697 48.3751 184.557L57.4673 153.643H35.3756Z" fill="#21005D"/>
<path d="M67.8584 239.017C67.8584 239.017 72.188 243.147 71.6494 246.321C71.1109 249.495 62.4516 276.465 60.8359 272.981C59.2203 269.497 58.6711 248.863 58.6711 248.863L67.8584 239.017Z" fill="#21005D"/>
<path d="M61.2056 273.837C61.0409 273.834 60.8802 273.776 60.742 273.671C60.6038 273.566 60.4936 273.417 60.4242 273.241C58.7662 269.67 58.2277 249.681 58.2065 248.875C58.2064 248.797 58.2194 248.72 58.2447 248.647C58.2701 248.575 58.3074 248.509 58.3544 248.454L67.5522 238.621C67.6362 238.537 67.7429 238.491 67.8532 238.491C67.9634 238.491 68.0701 238.537 68.1541 238.621C68.3442 238.807 72.6844 242.998 72.1036 246.457C71.7234 248.665 64.2258 273.328 61.3323 273.849L61.2056 273.837ZM59.1464 249.037C59.3365 256.204 60.0123 270.017 61.2584 272.659C62.9903 272.311 70.509 250.227 71.1954 246.147C71.565 244.002 69.1573 241.001 67.8796 239.687L59.1464 249.037Z" fill="#21005D"/>
<path d="M51.2158 152.428C51.2158 152.428 48.523 185.908 49.1038 189.963C49.6846 194.018 82.6743 245.155 82.6743 245.155L91.0167 234.33L67.6262 182.449L74.3213 149.812L51.2158 152.428Z" fill="white"/>
<path d="M82.7268 245.825C82.6504 245.819 82.5761 245.793 82.5087 245.751C82.4413 245.708 82.3825 245.649 82.3361 245.577C78.9463 240.332 49.2726 194.229 48.6706 190.124C48.0687 186.02 50.6348 153.792 50.7826 152.416C50.7923 152.272 50.8455 152.136 50.9326 152.034C51.0197 151.932 51.1351 151.869 51.2579 151.858L74.3844 149.254C74.4681 149.243 74.5527 149.257 74.6312 149.292C74.7097 149.328 74.7798 149.385 74.8356 149.459C74.8914 149.533 74.9313 149.622 74.952 149.718C74.9727 149.814 74.9736 149.914 74.9546 150.01L68.3018 182.424L91.5973 234.082C91.6483 234.195 91.6686 234.323 91.6553 234.449C91.6421 234.576 91.5961 234.694 91.5234 234.789L83.1809 245.614C83.1253 245.69 83.0549 245.748 82.9759 245.785C82.8968 245.822 82.8114 245.835 82.7268 245.825ZM51.7225 153.048C51.3951 157.264 49.1247 186.231 49.6739 189.901C50.0963 192.765 69.5479 223.728 82.7585 244.238L90.4251 234.318L67.193 182.833C67.1465 182.694 67.1465 182.539 67.193 182.399L73.7191 150.605L51.7225 153.048Z" fill="#21005D"/>
<path d="M91.0695 234.33C91.0695 234.33 95.7054 237.951 95.4309 241.175C95.1563 244.399 88.7358 272.175 86.8349 268.914C84.9341 265.653 82.7271 245.155 82.7271 245.155L91.0695 234.33Z" fill="#21005D"/>
<path d="M87.1939 269.732C87.0441 269.728 86.8978 269.679 86.7686 269.59C86.6393 269.501 86.5313 269.375 86.4547 269.224C84.5116 265.863 82.3468 246.061 82.2306 245.217C82.2208 245.139 82.2261 245.06 82.2462 244.985C82.2664 244.91 82.3008 244.841 82.3468 244.783L90.6893 233.958C90.7641 233.861 90.8661 233.8 90.9765 233.784C91.087 233.768 91.1987 233.799 91.2912 233.871C91.4919 234.033 96.1594 237.715 95.8637 241.225C95.6631 243.469 90.2141 268.864 87.4156 269.745L87.1939 269.732ZM83.2127 245.329C83.9942 252.447 85.7894 266.124 87.2256 268.616C88.9257 268.083 94.6176 245.242 94.9661 241.113C95.1562 238.931 92.5162 236.215 91.1434 235.049L83.2127 245.329Z" fill="#21005D"/>
<path d="M39.0926 121.54L27.7405 197.936C27.7405 197.936 52.9896 192.976 98.8203 192.976C98.8203 192.976 82.2516 148.547 71.1213 125.384L39.0926 121.54Z" fill="#21005D"/>
<path d="M27.7406 198.482C27.6176 198.481 27.4999 198.423 27.4132 198.321C27.3596 198.259 27.32 198.182 27.2979 198.098C27.2758 198.013 27.2719 197.924 27.2865 197.837L38.6386 121.441C38.6544 121.304 38.7154 121.181 38.8084 121.097C38.9014 121.014 39.0187 120.977 39.1349 120.994L71.1636 124.801C71.2377 124.809 71.309 124.839 71.3714 124.886C71.4339 124.934 71.4858 124.998 71.5226 125.074C82.5474 148.001 99.0844 192.269 99.2428 192.716C99.2745 192.799 99.288 192.89 99.2821 192.98C99.2763 193.071 99.2512 193.158 99.2093 193.235C99.1673 193.311 99.1098 193.374 99.0419 193.418C98.974 193.461 98.8978 193.484 98.8204 193.485C53.5599 193.547 28.068 198.445 27.8145 198.445L27.7406 198.482ZM39.4728 122.135L28.3108 197.279C32.5349 196.535 57.1715 192.505 98.1023 192.393C95.8636 186.429 81.0267 147.133 70.8362 125.855L39.4728 122.135Z" fill="#21005D"/>
<path d="M49.8745 62.9498C48.6499 58.8825 48.7973 54.4191 50.2863 50.4754C51.3876 47.7177 53.3331 45.5484 55.7353 44.3994C58.4387 42.9858 61.0153 44.5854 63.4441 46.1478C65.414 47.2382 67.2022 48.7331 68.7242 50.5622C69.7802 51.9882 70.4877 53.7118 71.4698 55.1998C72.9298 57.2061 74.6863 58.8864 76.6548 60.1598C80.1632 62.6522 83.9098 64.65 87.8168 66.1118C91.1221 67.3518 94.6491 68.2694 97.3208 70.861C101.883 75.263 102.601 83.7198 99.7496 89.7958C96.8984 95.8718 91.2383 99.5918 85.4197 100.72C79.6011 101.849 73.6346 100.72 67.9322 98.8974C63.2435 97.4218 58.4281 95.3882 55.0806 91.2838C52.4766 88.0161 50.9524 83.7637 50.7826 79.293C50.6348 75.573 53.222 69.9682 52.1343 66.4714C51.8386 65.3678 50.413 64.2146 49.8745 62.9498Z" fill="white"/>
<path d="M80.6995 101.799C76.3492 101.69 72.0292 100.919 67.8479 99.505C63.3704 98.1038 58.3438 96.0826 54.7429 91.7178C52.0491 88.3392 50.4723 83.9414 50.2971 79.3178C50.3426 77.4059 50.6163 75.5108 51.1102 73.6882C51.6699 71.1338 52.2507 68.505 51.6804 66.6698C51.409 66.0805 51.0515 65.5517 50.6244 65.1074C50.1304 64.5457 49.7041 63.9074 49.3572 63.2102C49.3618 63.1857 49.3618 63.1603 49.3572 63.1358C48.0828 58.9202 48.234 54.2912 49.7796 50.2026C50.9343 47.3005 52.9779 45.0159 55.5032 43.8042C58.4494 42.2666 61.2268 44.015 63.6661 45.5774C65.7206 46.7048 67.5845 48.2591 69.1679 50.1654C69.753 50.9835 70.2827 51.8542 70.7519 52.7694C71.1321 53.4638 71.5123 54.1706 71.9452 54.8154C73.3603 56.7698 75.0673 58.4044 76.9824 59.639C80.4542 62.1056 84.1618 64.0826 88.0282 65.529L89.6861 66.1366C92.4951 67.1286 95.3991 68.1578 97.7118 70.3898C102.263 74.7794 103.383 83.4346 100.267 90.1058C97.5639 95.8842 92.0727 100.026 85.5571 101.353C83.9509 101.655 82.3263 101.805 80.6995 101.799V101.799ZM50.3604 62.7142C50.6562 63.288 51.0108 63.8169 51.4164 64.289C51.9354 64.8484 52.3553 65.5227 52.652 66.273C53.3384 68.4678 52.7153 71.233 52.1028 74.023C51.6461 75.727 51.3868 77.4954 51.3319 79.2806C51.4971 83.5981 52.9687 87.7048 55.4821 90.8622C58.8824 95.0038 63.7612 96.9506 68.0908 98.3022C72.4204 99.6538 78.9993 101.353 85.3565 100.113C91.5447 98.8726 96.7614 94.9418 99.3063 89.4982C102.189 83.2982 101.175 75.3622 97.0148 71.3446C94.9028 69.2614 92.0621 68.2694 89.3482 67.3022L87.6797 66.707C83.7348 65.2216 79.9501 63.2034 76.4016 60.693C74.3945 59.3711 72.6061 57.6365 71.1215 55.5718C70.6674 54.8774 70.2662 54.1458 69.8754 53.4266C69.4261 52.5624 68.9286 51.734 68.3865 50.9466C66.8935 49.1686 65.1409 47.7196 63.212 46.6686C60.8677 45.1806 58.4495 43.643 55.9784 44.9326C53.6898 46.0192 51.837 48.0841 50.7934 50.711C49.3448 54.4992 49.1899 58.7958 50.3604 62.7142Z" fill="#21005D"/>
<path d="M64.5638 72.5226C64.5638 72.5226 52.6414 67.9842 46.3898 72.2622C40.1383 76.5402 37.266 91.3086 37.4666 96.3059C37.6672 101.303 39.0928 121.54 39.0928 121.54C39.0928 121.54 55.0914 122.953 71.1216 125.347L73.2336 109.227C73.2336 109.227 72.2726 116.394 79.3161 125.756C86.3597 135.118 100.489 140.041 100.489 140.041L106.371 127.504C106.371 127.504 94.7128 120.957 90.7527 113.145C86.7927 105.333 82.896 79.9626 64.5638 72.5226Z" fill="#4F378B"/>
<path d="M56.8443 73.6387L18.4796 24.7703L9.32397 32.2847C9.32397 32.2847 30.4441 84.1663 40.3389 99.1579L56.8443 73.6387Z" fill="#4F378B"/>
<path d="M55.0279 73.5271L53.9719 80.1487C53.9719 80.1487 52.9159 84.2903 56.9815 83.9679C58.1982 83.8566 59.3788 83.4295 60.4379 82.7176C61.4971 82.0057 62.4085 81.0267 63.1064 79.8511L64.9861 66.7319C64.7926 66.4171 64.5846 66.1149 64.3631 65.8267C63.9093 64.8843 63.6455 63.8323 63.5922 62.7515C63.5906 61.0335 63.6965 59.3177 63.909 57.6179C62.5944 57.5212 61.306 57.1429 60.1073 56.5019C58.8929 55.7455 57.2667 52.1743 57.2667 52.1743C56.6859 54.6543 51.4903 57.4567 51.4903 57.4567C51.4903 57.4567 50.3287 66.4219 50.3181 69.1127C50.3604 72.8079 55.0279 73.5271 55.0279 73.5271Z" fill="white"/>
<path d="M56.5801 84.5506C56.0882 84.5998 55.5934 84.5132 55.135 84.298C54.6767 84.0827 54.2675 83.7446 53.9401 83.3106C53.6703 82.8178 53.4955 82.2617 53.428 81.6812C53.3605 81.1007 53.4019 80.5099 53.5494 79.9502L54.4681 73.961C53.1798 73.6386 49.8745 72.4978 49.885 69.0878C49.885 66.3846 51.0044 57.717 51.0467 57.345C51.0608 57.2527 51.0929 57.1655 51.1406 57.0902C51.1882 57.0149 51.25 56.9536 51.3212 56.911C52.7152 56.1546 56.4112 53.7986 56.8441 51.951C56.8687 51.8436 56.92 51.7473 56.9915 51.6744C57.063 51.6015 57.1514 51.5553 57.2454 51.5418C57.3423 51.53 57.4401 51.5519 57.5264 51.6048C57.6128 51.6577 57.6841 51.7393 57.7312 51.8394C58.1642 52.7942 59.4948 55.3858 60.3712 55.9314C61.5125 56.5331 62.735 56.8941 63.9828 56.9978C64.0495 57.0003 64.115 57.0193 64.175 57.0535C64.2351 57.0876 64.2883 57.1363 64.3313 57.1962C64.4117 57.3202 64.4493 57.4751 64.4369 57.6302C64.2244 59.2719 64.115 60.9297 64.1095 62.5902C64.1551 63.5883 64.3973 64.5603 64.817 65.4298L64.986 65.653C65.4401 66.273 65.5457 66.4218 65.5034 66.7194L63.6343 79.8386C63.6208 79.9136 63.5957 79.985 63.5604 80.0494C62.8264 81.3067 61.8603 82.3532 60.734 83.1111C59.6077 83.869 58.3502 84.3187 57.0554 84.4266L56.5801 84.5506ZM51.9654 57.841C51.7647 59.4158 50.846 66.769 50.846 69.1126C50.846 72.2746 55.0701 72.9566 55.0701 72.969C55.1334 72.9773 55.1945 73.0015 55.2492 73.0401C55.3039 73.0786 55.3508 73.1305 55.3869 73.1922C55.4274 73.2529 55.4568 73.3228 55.4731 73.3975C55.4895 73.4722 55.4925 73.5501 55.4819 73.6262L54.4259 80.2478C54.314 80.6414 54.2749 81.0585 54.3113 81.4712C54.3478 81.8839 54.4588 82.2828 54.6371 82.641C54.9381 82.976 55.304 83.2199 55.7033 83.3516C56.1025 83.4834 56.5231 83.4991 56.9286 83.3974C58.0511 83.2956 59.1416 82.9105 60.1257 82.2685C61.1099 81.6265 61.9644 80.7427 62.6311 79.6774C63.9511 70.4766 64.3418 67.7486 64.4685 66.9178L64.194 66.5458C64.1027 66.4285 64.018 66.3042 63.9405 66.1738C63.4362 65.1608 63.1431 64.0221 63.0852 62.8506C63.0721 61.2868 63.1604 59.724 63.3492 58.1758C62.1401 58.0432 60.9604 57.6612 59.8643 57.0474C58.7839 56.0674 57.8975 54.8235 57.2666 53.4018C56.0838 55.3982 52.9369 57.345 51.9654 57.841Z" fill="#21005D"/>
<path d="M62.832 65.5166C63.0244 65.0748 63.3023 64.6921 63.6434 64.3993C63.9845 64.1064 64.3793 63.9115 64.7962 63.8302C65.2808 63.6711 65.7991 63.7377 66.2429 64.0162C66.4722 64.1729 66.6658 64.3922 66.8074 64.6556C66.9489 64.919 67.0342 65.2186 67.056 65.529C67.0623 66.2794 66.8664 67.0128 66.4964 67.6246C66.2985 67.9888 66.0405 68.3028 65.7377 68.5481C65.4349 68.7934 65.0933 68.965 64.7331 69.0528C64.3729 69.1406 64.0013 69.1429 63.6404 69.0595C63.2794 68.976 62.9363 68.8086 62.6313 68.567" fill="white"/>
<path d="M64.1414 69.6086C63.5102 69.6051 62.8937 69.3853 62.3673 68.9762C62.3134 68.9451 62.2658 68.9007 62.2276 68.8462C62.1895 68.7917 62.1617 68.7282 62.1461 68.66C62.1305 68.5919 62.1274 68.5206 62.1372 68.4509C62.1469 68.3813 62.1692 68.3149 62.2025 68.2562C62.2359 68.1974 62.2795 68.1478 62.3305 68.1104C62.3815 68.0731 62.4387 68.0489 62.4983 68.0396C62.5579 68.0303 62.6185 68.0361 62.676 68.0564C62.7335 68.0768 62.7867 68.1114 62.832 68.1578C63.3589 68.5617 63.9991 68.7085 64.6166 68.5671C64.9224 68.4865 65.2115 68.3354 65.4671 68.1225C65.7227 67.9096 65.9397 67.6392 66.1056 67.327C66.4277 66.803 66.6046 66.1752 66.6125 65.529C66.5961 65.304 66.5375 65.0861 66.4407 64.8909C66.3439 64.6958 66.2114 64.5283 66.0528 64.4006C65.7033 64.1921 65.2993 64.1478 64.9229 64.2766C64.5701 64.3429 64.2351 64.5038 63.9439 64.7468C63.6527 64.9898 63.4131 65.3084 63.2438 65.6778C63.2231 65.738 63.1923 65.7926 63.1532 65.8385C63.1141 65.8843 63.0675 65.9205 63.0163 65.9448C62.9651 65.9691 62.9102 65.981 62.8549 65.9799C62.7997 65.9788 62.7452 65.9646 62.6947 65.9382C62.5931 65.8864 62.5129 65.7897 62.4715 65.6691C62.43 65.5485 62.4305 65.4136 62.4729 65.2934C62.6924 64.7817 63.0096 64.3363 63.3998 63.9922C63.7899 63.648 64.2425 63.4144 64.7222 63.3094C65.3183 63.1139 65.956 63.203 66.4963 63.5574C66.7671 63.7652 66.9936 64.0432 67.1583 64.3699C67.3231 64.6967 67.4218 65.0636 67.4467 65.4422C67.4741 65.972 67.4089 66.5027 67.2552 67.0018C67.1016 67.5009 66.8626 67.9578 66.5531 68.3445C66.2435 68.7312 65.8699 69.0395 65.4552 69.2505C65.0405 69.4615 64.5934 69.5707 64.1414 69.5715V69.6086Z" fill="#21005D"/>
<path d="M58.1325 60.569C58.1325 60.569 55.4397 63.6814 55.8093 64.4254C56.1789 65.1694 57.6361 65.095 57.6361 65.095" fill="white"/>
<path d="M57.4779 65.6407C56.9816 65.6407 55.8411 65.5539 55.3659 64.6983C55.2287 64.4255 54.8063 63.5823 57.7631 60.1847C57.8519 60.0824 57.9713 60.0251 58.0957 60.0251C58.2201 60.0251 58.3395 60.0824 58.4283 60.1847C58.4727 60.2355 58.508 60.2962 58.5321 60.3633C58.5562 60.4304 58.5686 60.5025 58.5686 60.5753C58.5686 60.6481 58.5562 60.7201 58.5321 60.7872C58.508 60.8543 58.4727 60.915 58.4283 60.9659C57.5212 61.8893 56.7691 63.0038 56.2108 64.2519C56.6375 64.4926 57.1123 64.5913 57.5835 64.5371C57.7071 64.5367 57.826 64.5917 57.9163 64.6908C58.0065 64.7898 58.0612 64.9255 58.0693 65.0703C58.0721 65.1419 58.0629 65.2135 58.0422 65.281C58.0214 65.3485 57.9895 65.4105 57.9483 65.4635C57.9071 65.5165 57.8574 65.5594 57.8021 65.5898C57.7467 65.6202 57.6868 65.6375 57.6258 65.6407H57.4779Z" fill="#21005D"/>
<path d="M55.5454 71.5678C55.0824 71.5587 54.6401 71.3412 54.3098 70.9602C53.684 70.3432 53.2435 69.5065 53.0534 68.5732C52.8632 67.64 52.9335 66.6598 53.2538 65.777C53.2943 65.673 53.3627 65.5876 53.4486 65.5338C53.5345 65.48 53.633 65.4609 53.729 65.4794L58.8718 66.1862C58.9442 66.1955 59.0137 66.2251 59.0744 66.2726C59.135 66.3201 59.1851 66.384 59.2202 66.459C59.2511 66.5344 59.2672 66.6171 59.2672 66.7008C59.2672 66.7845 59.2511 66.8671 59.2202 66.9426C59.0618 67.3642 57.6785 71.0718 55.915 71.5182C55.7935 71.5492 55.6697 71.5658 55.5454 71.5678V71.5678ZM53.9402 66.6078C53.8011 67.2459 53.8218 67.9176 53.9997 68.5423C54.1777 69.1669 54.5054 69.718 54.9434 70.1294C55.0364 70.2541 55.1553 70.3483 55.2887 70.4026C55.422 70.457 55.565 70.4696 55.7038 70.4394C56.538 70.2286 57.499 68.5298 58.0798 67.1782L53.9402 66.6078Z" fill="#21005D"/>
<path d="M55.8834 60.8915H55.7989C55.7385 60.8795 55.6807 60.8536 55.6288 60.8152C55.577 60.7769 55.5321 60.7269 55.4968 60.6681C55.4614 60.6094 55.4363 60.543 55.423 60.4727C55.4096 60.4025 55.4081 60.3299 55.4187 60.2591C55.4476 60.0377 55.4143 59.8113 55.3237 59.6143C55.2991 59.5758 55.2672 59.5445 55.2305 59.523C55.1939 59.5015 55.1535 59.4903 55.1125 59.4903C54.5422 59.4903 54.0565 60.2963 54.0037 60.3087C53.9704 60.3689 53.9273 60.4209 53.8769 60.4616C53.8265 60.5023 53.7698 60.5309 53.71 60.5459C53.6502 60.5609 53.5884 60.5619 53.5283 60.5488C53.4682 60.5358 53.4108 60.5089 53.3595 60.4699C53.3082 60.4308 53.2639 60.3802 53.2293 60.321C53.1946 60.2619 53.1702 60.1953 53.1574 60.125C53.1447 60.0548 53.1439 59.9823 53.155 59.9117C53.1661 59.8411 53.1889 59.7737 53.2222 59.7135C53.4359 59.3171 53.7302 58.9895 54.0787 58.76C54.4271 58.5306 54.8187 58.4065 55.2181 58.399C55.385 58.4158 55.5472 58.4729 55.6944 58.5668C55.8416 58.6607 55.9706 58.7894 56.0735 58.9447C56.315 59.3853 56.4091 59.9154 56.3375 60.4327C56.32 60.5597 56.2649 60.6755 56.1818 60.7595C56.0987 60.8434 55.993 60.8902 55.8834 60.8915V60.8915Z" fill="#21005D"/>
<path d="M61.9764 61.8835C61.9153 61.8803 61.8554 61.863 61.8001 61.8326C61.7447 61.8022 61.695 61.7593 61.6538 61.7063C61.6126 61.6533 61.5808 61.5913 61.56 61.5239C61.5392 61.4564 61.53 61.3848 61.5328 61.3131C61.5328 61.3131 61.5328 60.2591 60.9415 60.0731C60.8794 60.0349 60.8108 60.0133 60.7408 60.0099C60.6707 60.0065 60.6009 60.0213 60.5363 60.0533C60.4717 60.0853 60.4139 60.1337 60.3671 60.195C60.3203 60.2563 60.2857 60.329 60.2656 60.4079C60.2456 60.4753 60.2143 60.5374 60.1735 60.5903C60.1327 60.6432 60.0832 60.686 60.0281 60.7161C59.9729 60.7461 59.9132 60.7629 59.8524 60.7653C59.7916 60.7678 59.7311 60.7559 59.6743 60.7303C59.5581 60.6825 59.4628 60.5825 59.4094 60.4524C59.3559 60.3222 59.3487 60.1724 59.3891 60.0359C59.4502 59.824 59.5474 59.629 59.6746 59.4626C59.8019 59.2962 59.9567 59.1619 60.1296 59.0679C60.3024 58.974 60.4898 58.9223 60.6802 58.9161C60.8706 58.9098 61.0601 58.9491 61.2371 59.0315C61.6284 59.2198 61.9582 59.5499 62.1785 59.9737C62.3989 60.3975 62.4982 60.8928 62.4621 61.3875C62.4513 61.5278 62.3948 61.6578 62.3042 61.7503C62.2137 61.8427 62.0962 61.8905 61.9764 61.8835Z" fill="#21005D"/>
<path d="M55.0279 73.527C55.7927 73.7148 56.5834 73.701 57.3431 73.4866C58.1028 73.2722 58.8124 72.8625 59.4209 72.287C59.0019 73.5787 58.3261 74.7341 57.45 75.6572C56.5738 76.5803 55.5226 77.2444 54.3838 77.5942L55.0279 73.527Z" fill="#21005D"/>
<path d="M54.3838 78.1646C54.258 78.162 54.1376 78.1045 54.0458 78.0034C53.9886 77.9389 53.9461 77.8585 53.9221 77.7697C53.8982 77.6809 53.8935 77.5865 53.9086 77.495L54.5316 73.4278C54.5432 73.348 54.5694 73.2722 54.6084 73.2055C54.6475 73.1388 54.6984 73.0828 54.7576 73.0415C54.8169 73.0003 54.8831 72.9746 54.9517 72.9664C55.0202 72.9581 55.0895 72.9675 55.1547 72.9938C55.8488 73.1522 56.5641 73.1299 57.2501 72.9285C57.9362 72.7271 58.5762 72.3515 59.1253 71.8282C59.2066 71.7587 59.3045 71.7212 59.4051 71.7212C59.5057 71.7212 59.6037 71.7587 59.6849 71.8282C59.7657 71.8998 59.8254 71.9993 59.8557 72.1126C59.886 72.226 59.8854 72.3477 59.8539 72.4606C59.4142 73.8424 58.6969 75.0792 57.7629 76.0658C56.829 77.0524 55.706 77.7596 54.4894 78.1274L54.3838 78.1646ZM55.4398 74.1966L55.0491 76.7882C56.3838 76.1814 57.5194 75.0913 58.291 73.6758C57.3953 74.1374 56.4126 74.3169 55.4398 74.1966Z" fill="#21005D"/>
<path d="M38.5438 114.583C38.4335 114.58 38.3274 114.533 38.243 114.45C38.1585 114.366 38.1008 114.252 38.0792 114.125C37.9419 113.021 34.7422 86.9562 42.7362 74.2462C42.809 74.1278 42.9189 74.0482 43.0417 74.025C43.1645 74.0017 43.2901 74.0367 43.3909 74.1222C43.4918 74.2077 43.5595 74.3367 43.5793 74.4809C43.5991 74.6251 43.5694 74.7726 43.4965 74.891C35.7243 87.291 38.9768 113.691 39.0085 113.951C39.019 114.023 39.0172 114.096 39.0031 114.167C38.9891 114.238 38.9631 114.305 38.9267 114.364C38.8903 114.423 38.8442 114.473 38.7911 114.51C38.7381 114.548 38.6791 114.573 38.6178 114.583H38.5438Z" fill="#21005D"/>
<path d="M73.5397 142.297H73.3918C63.1908 140.041 62.3354 133.481 61.9236 130.331C61.8898 129.907 61.8081 129.49 61.6807 129.091C61.6094 128.957 61.5849 128.795 61.6123 128.639C61.6397 128.483 61.7169 128.346 61.828 128.255C61.939 128.165 62.0755 128.128 62.2093 128.152C62.343 128.176 62.4638 128.259 62.5466 128.385C62.7957 128.946 62.9397 129.563 62.969 130.195C63.3703 133.283 64.1201 139.036 73.5925 141.132C73.7325 141.147 73.8618 141.226 73.9519 141.353C74.042 141.48 74.0855 141.643 74.0729 141.808C74.0603 141.972 73.9926 142.124 73.8847 142.23C73.7768 142.336 73.6375 142.387 73.4974 142.372L73.5397 142.297Z" fill="white"/>
<path d="M38.8919 142.297C38.7492 142.297 38.6125 142.23 38.5117 142.111C38.4626 142.055 38.4235 141.987 38.3968 141.913C38.3702 141.838 38.3564 141.758 38.3564 141.677C38.3564 141.597 38.3702 141.517 38.3968 141.442C38.4235 141.368 38.4626 141.3 38.5117 141.243C41.6798 137.523 42.5985 126.822 42.6091 126.723C42.6251 126.559 42.6943 126.408 42.8024 126.302C42.9105 126.195 43.0492 126.142 43.1899 126.153C43.3291 126.171 43.4566 126.253 43.5453 126.381C43.634 126.508 43.677 126.671 43.6651 126.835C43.6651 127.293 42.7147 138.143 39.251 142.124C39.1523 142.229 39.0252 142.291 38.8919 142.297Z" fill="white"/>
<path d="M77.5525 123.784C77.475 123.785 77.3986 123.762 77.3303 123.719C77.2621 123.675 77.2041 123.613 77.1618 123.536C70.6674 111.756 70.5618 96.7275 70.5618 96.5787C70.5617 96.4329 70.6103 96.2928 70.6972 96.1885C70.784 96.0842 70.9022 96.024 71.0264 96.0208C71.1506 96.0207 71.2699 96.0778 71.3587 96.1798C71.4476 96.2818 71.4988 96.4205 71.5016 96.5663C71.5016 96.7151 71.5966 111.446 77.9433 122.929C77.9784 122.989 78.0027 123.058 78.0148 123.13C78.0269 123.202 78.0266 123.276 78.0137 123.347C78.0009 123.419 77.9759 123.487 77.9402 123.547C77.9045 123.607 77.8589 123.659 77.806 123.698C77.731 123.756 77.6426 123.786 77.5525 123.784Z" fill="#21005D"/>
<path d="M71.2058 299.264C87.7108 299.264 101.091 296.405 101.091 292.878C101.091 289.351 87.7108 286.492 71.2058 286.492C54.7008 286.492 41.3208 289.351 41.3208 292.878C41.3208 296.405 54.7008 299.264 71.2058 299.264Z" fill="#EADDFF"/>
</svg>
