<svg width="162" height="267" viewBox="0 0 162 267" fill="none" xmlns="http://www.w3.org/2000/svg">
<path d="M18.3468 33.2308C18.3468 33.2308 15.3497 25.6247 15.4593 23.7415C15.569 21.8582 17.299 14.7503 15.6055 13.9363C14.5679 13.4551 13.4132 13.2822 12.2795 13.4381C12.2795 13.4381 7.68641 0.486037 6.46808 0.607539C5.24975 0.729041 7.27218 8.3715 8.52706 12.3325C8.52706 12.3325 -0.171811 15.3457 0.790669 17.7028C1.52167 19.4889 8.79509 34.2271 11.6582 38.917" fill="white"/>
<path d="M11.6339 39.5246C11.529 39.524 11.426 39.497 11.3343 39.446C11.2427 39.395 11.1656 39.3217 11.11 39.233C8.2226 34.4944 0.936988 19.7927 0.145074 17.9337C0.0494111 17.7174 0 17.4836 0 17.2472C0 17.0108 0.0494111 16.777 0.145074 16.5608C1.05882 14.5438 5.89559 12.5998 7.6378 11.9558C6.41947 7.98273 4.68944 1.76184 5.57882 0.425325C5.65571 0.307519 5.75791 0.208248 5.87802 0.134697C5.99813 0.0611458 6.13314 0.0151586 6.27327 7.08173e-05C6.74842 7.08173e-05 8.01548 -0.145732 12.5842 12.7942C13.6774 12.7246 14.7706 12.9292 15.7641 13.3896C17.3235 14.1429 16.9824 17.4356 16.2514 21.676C16.1052 22.5751 15.9834 23.3406 15.959 23.778C15.8859 25.0659 17.6159 30.011 18.7977 33.0121C18.8274 33.0863 18.8421 33.1656 18.841 33.2454C18.8399 33.3253 18.823 33.4042 18.7914 33.4775C18.7597 33.5509 18.7138 33.6173 18.6563 33.6729C18.5989 33.7286 18.531 33.7724 18.4566 33.8018C18.3061 33.8584 18.1395 33.8545 17.9918 33.791C17.8441 33.7276 17.7269 33.6095 17.6647 33.4616C17.3601 32.6719 14.631 25.6734 14.7407 23.7415C14.7407 23.2555 14.899 22.5265 15.0452 21.518C15.3133 19.8899 16.1052 14.9326 15.2402 14.5317C14.3174 14.1002 13.2904 13.9401 12.2796 14.07C12.138 14.0985 11.9908 14.0748 11.8653 14.0033C11.7398 13.9318 11.6446 13.8173 11.5974 13.6812C9.80643 8.57809 7.57688 3.07407 6.51694 1.531C6.51694 2.89181 7.29667 6.84062 8.9536 12.1381C8.98014 12.2122 8.99137 12.2909 8.98662 12.3694C8.98187 12.448 8.96123 12.5247 8.92594 12.5951C8.89066 12.6655 8.84146 12.728 8.7813 12.779C8.72115 12.8299 8.65129 12.8681 8.57592 12.8914C6.13926 13.7541 1.8751 15.6495 1.26593 17.0589C1.23734 17.1219 1.22254 17.1902 1.22254 17.2594C1.22254 17.3285 1.23734 17.3969 1.26593 17.4599C1.99693 19.2459 9.22163 33.8869 12.0969 38.589C12.1779 38.7263 12.2015 38.8898 12.1628 39.0444C12.1241 39.1989 12.026 39.3321 11.8898 39.4152C11.8141 39.4709 11.7265 39.5083 11.6339 39.5246Z" fill="#21005D"/>
<path d="M8.11304 24.5677C7.97595 24.5689 7.84245 24.524 7.73412 24.4402C7.62578 24.3565 7.54896 24.2387 7.51606 24.1059C6.99218 21.9675 8.32016 19.744 9.52631 18.2496C7.89723 18.7223 6.17475 18.7767 4.51897 18.4075C3.73924 18.1767 3.61741 17.7028 3.60522 17.4477C3.60522 16.342 6.44393 14.7989 12.1335 12.867C12.2951 12.8139 12.4712 12.8269 12.6232 12.9032C12.7751 12.9795 12.8904 13.1129 12.9437 13.2741C12.997 13.4352 12.984 13.6108 12.9074 13.7624C12.8309 13.9139 12.6971 14.0289 12.5356 14.0821C9.93288 14.8832 7.43109 15.9798 5.0794 17.3504C7.62571 17.9944 11.3538 16.4756 11.3903 16.4513C11.5242 16.3951 11.6737 16.3884 11.812 16.4324C11.9504 16.4764 12.0684 16.5683 12.1448 16.6914C12.2213 16.8145 12.2511 16.9608 12.2289 17.104C12.2067 17.2471 12.134 17.3776 12.0239 17.472C12.0239 17.472 8.03995 21.0077 8.74658 23.8751C8.76836 23.9517 8.77417 24.032 8.76365 24.111C8.75313 24.1899 8.7265 24.2659 8.68541 24.3342C8.64431 24.4025 8.58963 24.4617 8.52471 24.5081C8.4598 24.5545 8.38604 24.5872 8.30798 24.6041L8.11304 24.5677Z" fill="#21005D"/>
<path d="M108.004 167.514C112.283 168.771 116.679 169.585 121.125 169.945C121.125 169.945 109.551 190.891 107.212 212.567L115.484 218.509C115.484 218.509 144.822 173.735 143.652 167.101C142.483 160.467 119.773 150.358 119.773 150.358L108.004 167.514Z" fill="white"/>
<path d="M115.485 219.104C115.352 219.107 115.223 219.064 115.119 218.983L106.859 213.041C106.77 212.982 106.7 212.9 106.654 212.803C106.609 212.707 106.592 212.6 106.603 212.494C108.674 193.382 117.982 174.634 120.151 170.491C116.437 170.164 112.765 169.477 109.186 168.438C108.638 168.292 108.089 168.134 107.967 168.122C107.861 168.111 107.759 168.073 107.671 168.011C107.584 167.95 107.514 167.866 107.468 167.77C107.414 167.68 107.386 167.577 107.386 167.472C107.386 167.367 107.414 167.264 107.468 167.174L119.237 150.018C119.316 149.902 119.435 149.817 119.571 149.779C119.707 149.741 119.852 149.753 119.98 149.812C120.918 150.225 143.019 160.103 144.237 166.98C145.455 173.857 117.166 216.99 115.96 218.825C115.919 218.895 115.863 218.956 115.795 219.002C115.728 219.049 115.651 219.079 115.57 219.092L115.485 219.104ZM107.858 212.264L115.314 217.634C123.672 204.84 143.969 172.375 143.055 167.186C142.142 161.998 126.523 154.076 119.98 151.124L109.015 167.126L109.515 167.259C113.312 168.38 117.222 169.073 121.174 169.325C121.277 169.331 121.378 169.363 121.465 169.418C121.552 169.474 121.624 169.55 121.674 169.641C121.725 169.729 121.752 169.83 121.752 169.932C121.752 170.035 121.725 170.135 121.674 170.224C121.552 170.431 110.246 191.086 107.858 212.264Z" fill="#21005D"/>
<path d="M65.6303 187.149L64.2658 190.673C64.2658 190.673 43.5542 196.456 25.0478 199.834C25.0478 199.834 21.2831 205.131 24.4508 209.809C24.4508 209.809 63.9246 210.295 71.4174 207.719C78.9101 205.143 84.819 194.913 83.9905 186.785L65.6303 187.149Z" fill="white"/>
<path d="M32.1628 210.49C27.8621 210.49 24.8529 210.49 24.4386 210.49C24.3426 210.484 24.249 210.457 24.1646 210.411C24.0803 210.365 24.0074 210.3 23.9513 210.222C20.5765 205.253 24.3899 199.785 24.5483 199.554C24.6431 199.428 24.7823 199.341 24.9382 199.311C41.9948 196.201 61.2078 190.964 63.8029 190.247L65.0212 186.967C65.0635 186.853 65.14 186.754 65.2402 186.685C65.3404 186.615 65.4596 186.578 65.5816 186.578L83.9418 186.25C84.0908 186.256 84.2335 186.312 84.3464 186.409C84.4592 186.506 84.5357 186.639 84.5632 186.785C85.4891 195.29 79.1782 205.763 71.5758 208.363C66.0933 210.222 44.0781 210.49 32.1628 210.49ZM24.7798 209.275C28.5931 209.275 64.2658 209.603 71.2225 207.221C78.1792 204.84 83.9906 195.351 83.4058 187.465L66.008 187.781L64.7897 190.964C64.7535 191.054 64.6974 191.135 64.6257 191.2C64.554 191.265 64.4685 191.313 64.3755 191.341C64.1805 191.341 43.6639 197.112 25.3889 200.466C24.8163 201.377 22.5015 205.532 24.7432 209.238L24.7798 209.275Z" fill="#21005D"/>
<path d="M107.212 212.543C107.212 212.543 102.485 219.554 102.229 221.765C101.973 223.976 121.722 241.655 122.673 238.848C123.623 236.041 115.484 218.484 115.484 218.484L107.212 212.543Z" fill="#21005D"/>
<path d="M122.21 239.699C122.06 239.714 121.909 239.714 121.759 239.699C117.738 238.812 101.449 224.244 101.729 221.777C101.973 219.505 106.298 213.041 106.785 212.312C106.826 212.254 106.879 212.204 106.939 212.166C107 212.129 107.068 212.104 107.139 212.093C107.208 212.076 107.28 212.074 107.35 212.089C107.42 212.104 107.485 212.134 107.541 212.178L115.813 218.12C115.889 218.174 115.952 218.245 115.996 218.326C116.837 220.149 124.195 236.163 123.209 239.091C123.13 239.287 122.991 239.451 122.811 239.561C122.63 239.671 122.42 239.719 122.21 239.699ZM107.346 213.308C105.896 215.52 102.948 220.246 102.765 221.814C102.887 223.296 112.743 232.749 118.957 236.977C121.613 238.775 122.21 238.605 122.234 238.605C122.807 236.783 118.165 225.568 115.046 218.837L107.346 213.308Z" fill="#21005D"/>
<path d="M25.0474 199.87C25.0474 199.87 13.6439 200.794 12.6449 200.551C11.6458 200.308 12.3768 226.479 14.0947 226.613C15.8125 226.747 24.4505 209.846 24.4505 209.846L25.0474 199.87Z" fill="#21005D"/>
<path d="M14.0828 227.123C13.5711 227.123 13.3396 226.54 13.2665 226.358C11.9629 223.272 11.0735 201.535 12.1944 200.223C12.2734 200.145 12.3698 200.087 12.4756 200.053C12.5815 200.019 12.6938 200.011 12.8035 200.028C13.5224 200.186 20.6861 199.676 24.9868 199.324C25.0651 199.318 25.1437 199.329 25.2172 199.356C25.2908 199.384 25.3577 199.426 25.4133 199.482C25.4683 199.535 25.5111 199.599 25.5384 199.671C25.5658 199.742 25.5771 199.818 25.5716 199.895L24.9747 209.858C24.9909 209.93 24.9909 210.004 24.9747 210.076C21.6608 216.467 15.9103 227.123 14.0828 227.123ZM12.8645 201.097C11.9142 204.366 13.3274 223.952 14.1803 225.981C15.3986 225.13 20.0039 217.184 23.8538 209.676L24.4142 200.429C21.9045 200.66 14.8747 201.207 12.9254 201.122L12.8645 201.097Z" fill="#21005D"/>
<path d="M139.985 121.526C139.985 121.526 152.546 127.042 156.591 132.206C160.636 137.37 162.853 142.679 160.429 142.546C158.004 142.412 151.462 135.669 151.462 135.669C151.462 135.669 155.714 144.295 152.68 142.801C149.646 141.307 148.891 135.754 147.989 134.806C147.088 133.858 137.78 129.071 137.78 129.071" fill="white"/>
<path d="M153.313 143.579C153.011 143.57 152.715 143.491 152.448 143.348C150.195 142.218 149.147 139.253 148.367 137.078C148.18 136.434 147.918 135.815 147.587 135.231C144.342 133.175 140.987 131.297 137.536 129.606C137.464 129.571 137.4 129.522 137.347 129.462C137.294 129.402 137.254 129.332 137.229 129.256C137.204 129.18 137.194 129.099 137.201 129.02C137.208 128.94 137.231 128.863 137.268 128.792C137.304 128.719 137.354 128.655 137.416 128.602C137.477 128.549 137.549 128.509 137.626 128.484C137.703 128.46 137.784 128.45 137.865 128.457C137.946 128.464 138.025 128.487 138.097 128.525C139.656 129.339 147.539 133.385 148.465 134.393C148.95 135.086 149.309 135.86 149.524 136.677C150.219 138.646 151.181 141.355 152.997 142.254C153.056 142.293 153.122 142.322 153.192 142.339C153.289 141.55 152.302 138.694 150.926 135.948C150.861 135.818 150.846 135.67 150.881 135.53C150.917 135.389 151.002 135.266 151.12 135.183C151.237 135.099 151.381 135.061 151.524 135.074C151.667 135.087 151.801 135.152 151.9 135.256C154.337 137.795 158.881 141.865 160.429 141.95C160.672 141.95 160.697 141.89 160.721 141.853C161.147 141.039 159.734 137.273 156.067 132.583C152.18 127.589 139.827 122.134 139.705 122.085C139.631 122.053 139.564 122.007 139.508 121.95C139.452 121.892 139.409 121.824 139.379 121.75C139.35 121.675 139.335 121.596 139.337 121.515C139.338 121.435 139.356 121.356 139.388 121.283C139.455 121.137 139.576 121.022 139.726 120.963C139.876 120.904 140.043 120.905 140.192 120.967C140.716 121.198 152.948 126.605 157.029 131.829C160.002 135.645 162.768 140.577 161.805 142.412C161.672 142.669 161.462 142.878 161.205 143.011C160.947 143.143 160.655 143.193 160.368 143.153C158.686 143.068 155.494 140.407 153.313 138.366C154.191 140.553 154.715 142.582 154.008 143.287C153.824 143.472 153.575 143.577 153.313 143.579Z" fill="#21005D"/>
<path d="M56.7363 138.427L59.307 190.673C59.307 190.673 81.0298 190.211 88.3154 185.813L89.022 158.11C89.022 158.11 109.027 171.864 115.338 173.905C115.338 173.905 129.154 158.718 131.274 151.889L96.4051 126.981L56.7363 138.427Z" fill="#21005D"/>
<path d="M59.3073 191.232C59.1713 191.232 59.0402 191.181 58.9406 191.088C58.8411 190.996 58.7805 190.869 58.7713 190.733L56.2006 138.488C56.196 138.368 56.232 138.25 56.3027 138.153C56.3734 138.056 56.4748 137.986 56.5904 137.953L96.2592 126.471C96.3381 126.452 96.4201 126.449 96.4999 126.464C96.5797 126.479 96.6555 126.51 96.7222 126.556L131.591 151.464C131.682 151.53 131.75 151.623 131.785 151.73C131.82 151.837 131.82 151.952 131.786 152.059C129.654 158.924 116.313 173.65 115.74 174.27C115.671 174.346 115.582 174.401 115.483 174.429C115.384 174.457 115.279 174.457 115.18 174.428C109.515 172.593 93.4084 161.755 89.595 159.119L88.9127 185.849C88.9117 185.939 88.8876 186.028 88.8429 186.107C88.7982 186.185 88.7342 186.251 88.6569 186.299C81.3469 190.733 60.2698 191.244 59.417 191.256L59.3073 191.232ZM57.2971 138.852L59.819 190.15C63.1207 190.041 81.1154 189.288 87.8406 185.497L88.5472 158.098C88.5514 158.001 88.5805 157.906 88.6316 157.823C88.6828 157.74 88.7544 157.672 88.8396 157.624C88.923 157.576 89.0175 157.551 89.1138 157.551C89.21 157.551 89.3045 157.576 89.3879 157.624C89.595 157.77 108.735 170.904 115.241 173.237C117.032 171.245 128.46 158.365 130.701 152.059L96.3689 127.528L57.2971 138.852Z" fill="#21005D"/>
<path d="M78.9589 77.348C78.9589 77.348 65.0455 77.7976 58.0158 73.703C50.986 69.6084 20.0283 28.3586 20.0283 28.3586L6.46826 35.8066L47.9767 104.564C47.9767 104.564 55.7984 126.095 55.2867 141.574C55.2867 141.574 88.3765 140.505 104.215 131.21L97.7577 106.788C97.7577 106.788 109.673 120.08 117.945 123.3C126.218 126.52 144.529 133.02 144.529 133.02L145.821 120.481C145.821 120.481 110.648 101.041 101.961 83.6661C95.8084 71.4188 78.9589 77.348 78.9589 77.348Z" fill="#4F378B"/>
<path d="M83.8809 62.6828C84.3799 61.2895 84.5221 59.794 84.2944 58.3321C84.0667 56.8701 83.4765 55.488 82.5773 54.3113C81.4808 53.0963 79.8116 52.0514 79.6167 50.399C79.5972 49.7109 79.6503 49.0226 79.7751 48.3456C79.7843 47.5013 79.6 46.666 79.236 45.9036C78.8721 45.1412 78.3383 44.4719 77.6753 43.9467C77.0123 43.4215 76.2378 43.0544 75.4108 42.8734C74.5838 42.6924 73.7263 42.7023 72.9037 42.9023C71.917 43.3783 70.8842 43.7529 69.8213 44.0201C67.9573 44.2145 66.2394 42.8051 64.3632 42.8902C63.5708 43.0233 62.8169 43.3271 62.1542 43.7803C61.4914 44.2336 60.9356 44.8254 60.5255 45.5146C59.7249 46.9042 58.755 48.1897 57.638 49.3419C54.7262 51.857 50.8398 53.2543 53.2521 58.0293C54.1292 59.5057 55.2447 60.8276 56.5537 61.9416C56.7411 62.0985 56.8804 62.3048 56.9558 62.537C56.9559 62.7185 56.9192 62.8981 56.848 63.0651C56.7769 63.2321 56.6726 63.3831 56.5415 63.509C56.0584 64.1105 55.7167 64.8125 55.5417 65.5632C55.3667 66.3139 55.3628 67.0942 55.5303 67.8466C56.0664 69.8514 57.4431 69.7177 58.8076 70.6654C60.1722 71.6132 60.7204 73.0955 61.6951 74.3105C63.9003 76.9957 68.0182 77.4209 71.2712 76.2302C74.2201 74.9993 76.8709 73.1536 79.0457 70.817C81.2206 68.4804 82.8692 65.707 83.8809 62.6828Z" fill="white"/>
<path d="M67.7014 77.4331C66.4837 77.4856 65.2698 77.2638 64.1498 76.7842C63.0298 76.3046 62.0325 75.5796 61.2321 74.6629C60.8843 74.2289 60.5629 73.7744 60.2696 73.3021C59.8142 72.4787 59.2017 71.7523 58.4665 71.1636C58.1113 70.9324 57.7362 70.7332 57.3456 70.5683C56.7497 70.3915 56.2109 70.0616 55.7833 69.6116C55.3556 69.1617 55.0541 68.6074 54.909 68.0046C54.7161 67.1635 54.7156 66.2898 54.9075 65.4485C55.0994 64.6071 55.4789 63.8196 56.0176 63.1445C56.1273 62.9987 56.3344 62.7314 56.3222 62.6464C56.31 62.5613 56.1395 62.4398 56.0907 62.3791L55.8471 62.1482C54.5825 61.0549 53.5116 59.7569 52.6794 58.3087C50.4742 53.959 53.0693 52.0393 55.5669 50.1681C56.1151 49.755 56.6755 49.3419 57.2116 48.8802C57.9922 48.1346 58.6647 47.2839 59.2097 46.353C59.4655 45.952 59.7214 45.5511 60.0016 45.138C60.4563 44.3698 61.0773 43.7127 61.8193 43.2145C62.5612 42.7163 63.4054 42.3896 64.2901 42.2584C65.2928 42.2533 66.2853 42.4603 67.2019 42.8659C67.8543 43.2335 68.5929 43.4217 69.3422 43.411C70.0915 43.4003 70.8245 43.1912 71.466 42.8051C71.8624 42.6163 72.2692 42.45 72.6844 42.307C73.6028 42.0747 74.5626 42.0572 75.489 42.2557C76.4154 42.4542 77.2832 42.8634 78.0249 43.4514C78.7667 44.0394 79.3622 44.7903 79.7651 45.6456C80.168 46.5008 80.3673 47.4373 80.3477 48.3821C80.3477 48.6251 80.3477 48.8559 80.2624 49.0989C80.0716 49.8291 80.1411 50.6027 80.4588 51.2875C80.7766 51.9723 81.323 52.5258 82.0046 52.8533C82.3701 53.2057 82.7356 53.5459 83.0524 53.9104C84.0132 55.1696 84.6436 56.6482 84.8861 58.212C85.1287 59.7757 84.9757 61.3752 84.4413 62.8651C83.3921 65.9693 81.6924 68.8153 79.4553 71.214C77.2182 73.6126 74.4947 75.509 71.466 76.777C70.2577 77.2074 68.9846 77.4293 67.7014 77.4331ZM64.5947 43.4855H64.3997C63.6968 43.6292 63.0324 43.9202 62.4507 44.3391C61.8689 44.758 61.3829 45.2954 61.025 45.9156C60.7569 46.2801 60.5133 46.6567 60.2696 47.0455C59.6604 48.076 58.91 49.0165 58.0401 49.8401C57.4918 50.3139 56.907 50.7513 56.3344 51.1766C53.8977 53.0234 52.0581 54.3599 53.8003 57.7984C54.577 59.1232 55.5693 60.3098 56.7365 61.3098L56.9801 61.5528C57.2657 61.7912 57.4665 62.115 57.5527 62.4763C57.5733 62.733 57.5395 62.9912 57.4534 63.234C57.3674 63.4768 57.231 63.6989 57.0532 63.8857C56.6184 64.4171 56.3084 65.0389 56.1461 65.7054C55.9838 66.3719 55.9732 67.0662 56.1151 67.7373C56.4197 68.8551 56.9801 69.1102 57.8451 69.499C58.304 69.6941 58.7444 69.93 59.1609 70.2038C60.0267 70.8642 60.7516 71.6903 61.293 72.6338C61.5641 73.0537 61.8569 73.4592 62.1702 73.8488C64.3266 76.4854 68.2618 76.5947 71.064 75.5863C73.913 74.3846 76.473 72.5919 78.5736 70.3273C80.6742 68.0627 82.2674 65.3781 83.2473 62.452C83.9539 60.1556 84.027 56.8993 82.029 54.6637C81.7366 54.3235 81.3954 54.0076 81.0665 53.6917C79.9792 52.8964 79.2175 51.7353 78.9222 50.4233C78.8827 49.9074 78.9114 49.3886 79.0075 48.8802C79.0075 48.6737 79.0075 48.4671 79.0806 48.2484C79.0923 47.4976 78.9316 46.754 78.6107 46.0747C78.2899 45.3954 77.8173 44.7983 77.2294 44.3292C76.6414 43.8601 75.9536 43.5314 75.2186 43.3683C74.4836 43.2053 73.7209 43.2121 72.989 43.3883C72.6192 43.5173 72.2571 43.6674 71.9046 43.8379C71.1212 44.2857 70.2372 44.5294 69.3343 44.5464C68.4314 44.5634 67.5388 44.3531 66.7389 43.9351C66.0527 43.6726 65.3288 43.5209 64.5947 43.4855Z" fill="#21005D"/>
<path d="M77.8012 71.9776L80.0064 78.806C80.0064 78.806 80.1282 82.2202 75.2062 82.6333C70.2841 83.0464 68.6028 80.1061 68.6028 80.1061L64.9478 67.2148C64.9478 67.2148 67.1652 64.323 63.7295 57.3367C68.648 57.1262 73.485 56.0099 77.9961 54.044C79.3789 57.9659 80.5422 61.9613 81.4805 66.0119C82.0044 69.742 77.8012 71.9776 77.8012 71.9776Z" fill="white"/>
<path d="M74.2561 83.2773C69.7605 83.2773 68.1645 80.5679 68.0304 80.4464C68.0256 80.3979 68.0256 80.349 68.0304 80.3006L64.3754 67.4092C64.3516 67.3184 64.348 67.2235 64.3649 67.1312C64.3817 67.0388 64.4186 66.9513 64.4729 66.8746C64.4729 66.8746 66.3857 64.1165 63.2546 57.6283C63.2095 57.5377 63.186 57.4379 63.186 57.3367C63.186 57.2356 63.2095 57.1357 63.2546 57.0451C63.3073 56.9565 63.3822 56.8831 63.4718 56.832C63.5615 56.7808 63.663 56.7538 63.7663 56.7535C68.5944 56.5319 73.3418 55.4368 77.7771 53.5216C77.8562 53.4885 77.9411 53.4715 78.0268 53.4715C78.1126 53.4715 78.1975 53.4885 78.2766 53.5216C78.4332 53.5946 78.5554 53.7252 78.6177 53.8861C79.9769 57.8358 81.1077 61.8601 82.0047 65.939C82.5773 69.3046 79.6655 71.516 78.5081 72.245L80.5793 78.6238C80.5851 78.6763 80.5851 78.7293 80.5793 78.7818C80.5793 78.7818 80.6645 82.7792 75.2186 83.2287C74.8988 83.261 74.5776 83.2772 74.2561 83.2773ZM69.1148 79.8753C69.3706 80.2641 71.0154 82.3053 75.2064 82.0259C79.3975 81.7464 79.4462 79.365 79.4584 78.9033L77.2776 72.1599C77.2352 72.0252 77.2411 71.8799 77.2945 71.7491C77.3479 71.6182 77.4453 71.51 77.57 71.4431C77.57 71.4431 81.4199 69.3654 80.8838 66.1334C80.0164 62.3321 78.9303 58.5836 77.6309 54.9067C73.5085 56.6246 69.1271 57.643 64.6678 57.9199C67.1776 63.509 66.0811 66.4251 65.606 67.3363L69.1148 79.8753Z" fill="#21005D"/>
<path d="M66.9215 66.1577C66.5508 65.6016 66.0136 65.1764 65.3864 64.9427C64.7802 64.7505 64.1461 64.6601 63.5102 64.6754C63.1665 64.6522 62.8219 64.7018 62.4989 64.8212C62.2825 64.9354 62.0885 65.0877 61.9263 65.2707C61.5133 65.6757 61.2585 66.2141 61.2075 66.7895C61.2237 67.2512 61.3534 67.7018 61.5852 68.1017C61.7983 68.5432 62.0731 68.9523 62.4015 69.3167C63.0886 70.0523 64.0382 70.4887 65.0453 70.5317C66.0603 70.5744 67.0522 70.2214 67.8109 69.5476" fill="white"/>
<path d="M65.2405 71.2243H65.009C63.8304 71.1503 62.728 70.6181 61.9388 69.742C61.5765 69.3189 61.2732 68.8489 61.0372 68.3447C60.7691 67.8509 60.619 67.3021 60.5986 66.7409C60.6495 66.0165 60.961 65.3347 61.4758 64.8212C61.6904 64.583 61.9463 64.3855 62.2312 64.2379C62.6381 64.0643 63.0817 63.9933 63.5226 64.0314C64.2261 64.0166 64.9269 64.1235 65.5938 64.3473C66.3386 64.6367 66.9677 65.1617 67.3847 65.8418C67.4717 65.9772 67.5014 66.1415 67.4671 66.2986C67.4329 66.4558 67.3375 66.593 67.202 66.6801C67.1345 66.7242 67.0588 66.7542 66.9794 66.7683C66.9 66.7824 66.8186 66.7803 66.74 66.7621C66.6614 66.7439 66.5874 66.7101 66.5223 66.6626C66.4572 66.6151 66.4025 66.5549 66.3613 66.4857C66.0737 66.0284 65.6467 65.675 65.143 65.4773C64.6082 65.3056 64.0476 65.2275 63.4861 65.2464C63.2311 65.2205 62.9735 65.2495 62.7307 65.3315C62.5872 65.4139 62.4594 65.5208 62.353 65.6474C62.0449 65.9461 61.8473 66.3401 61.7926 66.7652C61.8129 67.1299 61.9216 67.4843 62.1094 67.798C62.2965 68.2091 62.5383 68.5933 62.8282 68.9401C63.4021 69.5673 64.1961 69.9502 65.0455 70.0093C65.9038 70.0368 66.7404 69.737 67.3847 69.1709C67.4414 69.114 67.5087 69.0688 67.583 69.0379C67.6572 69.0071 67.7368 68.9912 67.8172 68.9912C67.8977 68.9912 67.9773 69.0071 68.0515 69.0379C68.1257 69.0688 68.1931 69.114 68.2497 69.1709C68.3621 69.2865 68.425 69.4412 68.425 69.6023C68.425 69.7633 68.3621 69.918 68.2497 70.0336C67.4297 70.7894 66.357 71.2139 65.2405 71.2243Z" fill="#21005D"/>
<path d="M76.2786 60.6659C76.2786 60.6659 79.9336 63.3025 79.629 64.1287C79.3244 64.9549 77.57 65.125 77.57 65.125" fill="white"/>
<path d="M77.5698 65.6839C77.4082 65.6839 77.2533 65.6199 77.139 65.5059C77.0248 65.392 76.9606 65.2375 76.9606 65.0764C76.9606 64.9152 77.0248 64.7607 77.139 64.6468C77.2533 64.5328 77.4082 64.4688 77.5698 64.4688C78.1154 64.4342 78.6396 64.2444 79.0805 63.9221C78.1798 62.8256 77.1107 61.8783 75.9129 61.1154C75.7843 61.0186 75.6986 60.8758 75.6736 60.7171C75.6485 60.5585 75.6863 60.3963 75.7788 60.2649C75.8248 60.2005 75.8832 60.1459 75.9505 60.1043C76.0179 60.0627 76.0928 60.0348 76.1711 60.0224C76.2493 60.0099 76.3293 60.0132 76.4063 60.0318C76.4832 60.0505 76.5557 60.0843 76.6195 60.1312C80.6887 63.0473 80.2745 63.995 80.177 64.3109C79.7262 65.4044 77.9718 65.6474 77.6185 65.6839H77.5698Z" fill="#21005D"/>
<path d="M70.6619 59.9976C70.7313 59.73 70.8673 59.4843 71.0574 59.2832C71.2475 59.0821 71.4855 58.9322 71.7492 58.8473C72.013 58.7625 72.2939 58.7454 72.566 58.7978C72.8381 58.8502 73.0925 58.9704 73.3056 59.147" fill="white"/>
<path d="M70.6618 60.6658C70.5934 60.6784 70.5232 60.6784 70.4547 60.6658C70.3026 60.6107 70.1781 60.4987 70.1076 60.3535C70.037 60.2083 70.0261 60.0413 70.077 59.8882C70.1915 59.5207 70.3848 59.1826 70.6436 58.8972C70.9024 58.6118 71.2204 58.3861 71.5756 58.2358C71.9297 58.1355 72.3028 58.1217 72.6633 58.1958C73.0239 58.2698 73.3612 58.4294 73.6467 58.661C73.7132 58.705 73.7701 58.7618 73.8142 58.828C73.8583 58.8943 73.8886 58.9687 73.9033 59.0469C73.9181 59.125 73.917 59.2053 73.9001 59.283C73.8833 59.3608 73.851 59.4343 73.8051 59.4994C73.7599 59.566 73.7018 59.6231 73.6343 59.6672C73.5668 59.7113 73.4912 59.7415 73.4118 59.7562C73.3325 59.7709 73.251 59.7698 73.1721 59.7528C73.0932 59.7358 73.0185 59.7034 72.9523 59.6573C72.8171 59.5441 72.6588 59.4616 72.4884 59.4154C72.318 59.3693 72.1395 59.3606 71.9654 59.39C71.793 59.4699 71.639 59.5846 71.5132 59.7268C71.3874 59.869 71.2925 60.0356 71.2345 60.2162C71.197 60.3408 71.1219 60.4509 71.0194 60.5314C70.917 60.6118 70.7921 60.6588 70.6618 60.6658Z" fill="#21005D"/>
<path d="M75.5964 58.4788C75.5964 58.4788 75.8279 57.1422 77.8869 58.0778L75.5964 58.4788Z" fill="white"/>
<path d="M75.5961 59.0742H75.462C75.3094 59.042 75.1756 58.9514 75.089 58.822C75.0025 58.6926 74.9702 58.5345 74.9991 58.3816C75.044 58.1626 75.1374 57.9562 75.2722 57.7776C75.4071 57.599 75.5801 57.4525 75.7788 57.3489C76.1604 57.1965 76.5721 57.1336 76.9819 57.1652C77.3917 57.1968 77.7888 57.322 78.1424 57.5311C78.287 57.5998 78.3995 57.7216 78.4562 57.8711C78.513 58.0205 78.5097 58.186 78.447 58.333C78.4154 58.4066 78.3692 58.4731 78.3112 58.5285C78.2533 58.5839 78.1847 58.627 78.1097 58.6554C78.0346 58.6837 77.9546 58.6967 77.8744 58.6935C77.7942 58.6903 77.7154 58.671 77.6429 58.6368C76.8266 58.2723 76.4245 58.3695 76.4245 58.4181C76.3835 58.436 76.347 58.4627 76.3175 58.4963C76.288 58.5299 76.2663 58.5696 76.254 58.6125C76.2149 58.7535 76.1279 58.8766 76.0079 58.9608C75.8879 59.045 75.7424 59.0851 75.5961 59.0742Z" fill="#21005D"/>
<path d="M77.8015 71.9776C77.8015 71.9776 74.2196 73.0468 72.2581 72.5608C72.2581 72.5608 74.8653 76.2059 79.0563 76.1087L77.8015 71.9776Z" fill="#21005D"/>
<path d="M78.8491 76.7162C77.459 76.6435 76.1023 76.2648 74.8764 75.6073C73.6504 74.9498 72.5856 74.0297 71.7584 72.9132C71.6882 72.8119 71.6505 72.6916 71.6504 72.5684C71.6503 72.4452 71.6877 72.3248 71.7578 72.2233C71.8278 72.1218 71.9272 72.044 72.0426 72.0001C72.158 71.9562 72.2841 71.9484 72.4042 71.9776C74.1707 72.415 77.5821 71.4066 77.6186 71.3944C77.7721 71.3488 77.9374 71.3653 78.0788 71.4404C78.2201 71.5154 78.3262 71.643 78.374 71.7954L79.5923 75.9264C79.6178 76.0164 79.6235 76.1108 79.6087 76.2031C79.594 76.2954 79.5593 76.3835 79.507 76.461C79.4499 76.5341 79.3781 76.5945 79.2963 76.6384C79.2145 76.6824 79.1245 76.7088 79.0319 76.7162H78.8491ZM73.7321 73.2899C74.9523 74.487 76.5306 75.2548 78.2278 75.4769L77.3871 72.7188C76.1901 73.026 74.966 73.2172 73.7321 73.2899Z" fill="#21005D"/>
<path d="M76.4492 68.5513C74.7801 68.5513 72.5384 67.8101 70.2723 64.9062C70.2117 64.8447 70.165 64.7709 70.1352 64.69C70.1054 64.609 70.0932 64.5226 70.0995 64.4366C70.1058 64.3506 70.1304 64.2669 70.1716 64.1911C70.2128 64.1153 70.2698 64.0491 70.3386 63.9969C70.4075 63.9448 70.4867 63.9078 70.571 63.8885C70.6553 63.8693 70.7428 63.8681 70.8275 63.8852C70.9123 63.9023 70.9925 63.9371 71.0627 63.9875C71.1329 64.0378 71.1916 64.1025 71.2348 64.1772C75.036 69.1466 78.5448 66.8988 78.5448 66.8745C78.681 66.786 78.8465 66.7542 79.006 66.786C79.1654 66.8178 79.306 66.9107 79.3976 67.0447C79.4857 67.1786 79.5173 67.3418 79.4853 67.4988C79.4534 67.6559 79.3606 67.7939 79.227 67.883C78.3799 68.3552 77.419 68.5864 76.4492 68.5513Z" fill="#21005D"/>
<path d="M102.875 128.549C102.754 128.547 102.637 128.506 102.542 128.431C102.448 128.356 102.38 128.253 102.351 128.136C101.474 124.491 97.3921 109.157 94.4072 97.9547C92.2508 89.8384 91.4345 86.7644 91.398 86.5821C91.3857 86.5127 91.3874 86.4415 91.4029 86.3727C91.4183 86.3039 91.4472 86.2389 91.488 86.1813C91.5288 86.1237 91.5806 86.0747 91.6404 86.0371C91.7002 85.9996 91.7669 85.9742 91.8366 85.9624C91.9055 85.9484 91.9765 85.9484 92.0454 85.9623C92.1143 85.9763 92.1797 86.0039 92.2377 86.0436C92.2957 86.0833 92.3451 86.1342 92.3829 86.1933C92.4207 86.2524 92.4463 86.3185 92.4579 86.3877C92.4579 86.6793 93.8834 91.7824 95.4428 97.6752C98.4277 108.89 102.521 124.248 103.399 127.893C103.432 128.03 103.409 128.174 103.336 128.295C103.263 128.415 103.146 128.502 103.009 128.537L102.875 128.549Z" fill="#21005D"/>
<path d="M60.3548 151.671C60.2588 151.671 60.1641 151.648 60.0791 151.604C59.9941 151.559 59.9215 151.495 59.8675 151.415C59.7749 151.284 59.7372 151.122 59.7622 150.963C59.7872 150.805 59.873 150.662 60.0015 150.565C60.9004 149.838 61.64 148.934 62.1744 147.91C62.7088 146.886 63.0266 145.763 63.1082 144.611C63.1256 144.319 63.1915 144.032 63.3031 143.761C63.3403 143.689 63.3914 143.626 63.4533 143.575C63.5153 143.523 63.5868 143.484 63.6639 143.461C63.741 143.437 63.822 143.429 63.9023 143.436C63.9826 143.444 64.0605 143.468 64.1316 143.506C64.2647 143.582 64.3644 143.706 64.4117 143.852C64.459 143.997 64.4503 144.156 64.3875 144.295C64.3875 144.405 64.3875 144.575 64.3022 144.794C64.1934 146.112 63.8126 147.394 63.1836 148.558C62.5547 149.723 61.6911 150.745 60.6472 151.561C60.5609 151.622 60.4601 151.66 60.3548 151.671Z" fill="white"/>
<path d="M89.0222 158.718C88.9421 158.712 88.8641 158.69 88.7925 158.653C88.7209 158.617 88.6572 158.567 88.6051 158.506C88.553 158.445 88.5136 158.374 88.489 158.298C88.4644 158.222 88.4551 158.141 88.4618 158.062C88.8151 153.031 85.2454 143.737 85.2088 143.639C85.1729 143.564 85.1529 143.482 85.1502 143.398C85.1475 143.315 85.1621 143.232 85.1931 143.154C85.2241 143.076 85.2709 143.006 85.3304 142.947C85.3899 142.888 85.461 142.842 85.5392 142.812C85.6173 142.782 85.7009 142.768 85.7846 142.772C85.8683 142.775 85.9504 142.796 86.0258 142.832C86.1011 142.869 86.1681 142.921 86.2225 142.984C86.2769 143.048 86.3175 143.122 86.3419 143.202C86.4881 143.591 89.9969 152.849 89.6679 158.147C89.6633 158.226 89.6429 158.305 89.6079 158.377C89.5729 158.448 89.524 158.513 89.464 158.566C89.404 158.619 89.3341 158.66 89.2583 158.686C89.1825 158.712 89.1022 158.723 89.0222 158.718Z" fill="white"/>
<path d="M105.884 139.144C103.84 138.976 101.897 138.187 100.316 136.884C100.245 136.836 100.184 136.775 100.138 136.702C100.092 136.63 100.062 136.549 100.05 136.464C100.038 136.379 100.044 136.293 100.068 136.211C100.091 136.128 100.132 136.052 100.187 135.987C100.243 135.921 100.311 135.868 100.388 135.831C100.466 135.794 100.55 135.773 100.636 135.771C100.722 135.768 100.807 135.784 100.886 135.816C100.965 135.849 101.037 135.898 101.096 135.96C101.096 135.96 104.519 138.779 107.285 137.674C107.435 137.614 107.603 137.616 107.752 137.68C107.9 137.744 108.017 137.864 108.077 138.014C108.137 138.164 108.134 138.331 108.07 138.479C108.006 138.627 107.886 138.744 107.736 138.804C107.147 139.036 106.518 139.151 105.884 139.144Z" fill="white"/>
<path d="M59.4292 267C78.4712 267 93.9079 264.198 93.9079 260.743C93.9079 257.287 78.4712 254.485 59.4292 254.485C40.3871 254.485 24.9504 257.287 24.9504 260.743C24.9504 264.198 40.3871 267 59.4292 267Z" fill="#EADDFF"/>
</svg>
