<svg width="15" height="15" viewBox="0 0 15 15" fill="none" xmlns="http://www.w3.org/2000/svg">
<path d="M11.0303 0.219751C10.9607 0.149969 10.8781 0.094628 10.7871 0.056914C10.6961 0.0192001 10.5985 -0.000142087 10.5 7.85755e-07H4.5C4.40149 -0.000142087 4.30393 0.0192001 4.21293 0.056914C4.12192 0.094628 4.03928 0.149969 3.96975 0.219751L0.219751 3.96975C0.149969 4.03928 0.094628 4.12192 0.056914 4.21293C0.0192001 4.30393 -0.000142087 4.40149 7.85755e-07 4.5V10.5C7.85755e-07 10.6995 0.0787508 10.89 0.219751 11.0303L3.96975 14.7803C4.03928 14.85 4.12192 14.9054 4.21293 14.9431C4.30393 14.9808 4.40149 15.0001 4.5 15H10.5C10.6995 15 10.89 14.9213 11.0303 14.7803L14.7803 11.0303C14.85 10.9607 14.9054 10.8781 14.9431 10.7871C14.9808 10.6961 15.0001 10.5985 15 10.5V4.5C15.0001 4.40149 14.9808 4.30393 14.9431 4.21293C14.9054 4.12192 14.85 4.03928 14.7803 3.96975L11.0303 0.219751ZM8.25 11.25H6.75V9.75H8.25V11.25ZM8.25 8.25H6.75V3.75H8.25V8.25Z" fill="#4E451A"/>
</svg>
