<svg width="520" height="312" viewBox="0 0 520 312" fill="none" xmlns="http://www.w3.org/2000/svg">
<g filter="url(#filter0_dd_54200_34650)">
<g filter="url(#filter1_ddd_54200_34650)">
<ellipse cx="397.8" cy="153.15" rx="78.3" ry="126.45" fill="white"/>
<path d="M398.505 7.06491C427.311 13.3649 452.661 34.2569 467.718 64.2929C492.222 113.229 499.905 168.921 488.457 214.932C481.005 244.968 465.795 270.624 446.976 284.913C440.37 289.905 428.157 295.896 420.474 297.894C406.953 301.275 390.438 300.582 375.459 295.821C356.025 289.677 335.13 275.004 323.685 259.41C318.693 252.573 313.623 242.049 312.087 235.059C310.551 228.147 310.935 216.315 312.855 211.092C313.545 209.247 314.007 207.558 313.854 207.405C313.701 207.252 311.088 208.941 308.016 211.092C295.725 219.696 288.888 229.452 285.126 243.894C283.512 250.116 283.128 253.188 283.05 262.638L282.975 274.008H277.137H271.299L270.84 268.476C270.225 260.949 271.53 248.196 273.759 239.67C279.366 218.469 292.194 204.105 315.165 193.35C333.678 184.671 349.194 181.596 359.796 184.44C367.554 186.513 378.924 193.734 380.844 197.805C383.532 203.412 379.383 213.63 373.086 216.855C370.167 218.391 366.402 218.16 359.949 216.318C346.506 212.325 339.21 218.853 342.897 231.45C344.664 237.519 346.584 241.206 349.809 244.434C355.878 250.503 361.254 246.507 365.097 233.064C366.249 229.146 366.786 228.456 369.093 227.457C371.322 226.536 372.09 226.536 373.854 227.304C376.851 228.762 377.541 231.606 376.389 237.291C374.7 245.97 377.619 253.422 384.915 258.645C394.44 265.557 407.499 264.483 415.95 256.032C421.71 250.347 424.092 241.821 421.02 237.825C418.869 235.059 418.563 233.601 419.406 230.988C421.173 225.996 425.475 225.84 430.851 230.604C433.917 233.37 435.3 234.06 437.529 234.06C445.518 234.06 453.201 222.306 453.354 209.862C453.432 203.718 451.74 199.491 447.747 196.188C445.134 193.959 438.837 191.808 434.919 191.808C430.002 191.808 426.93 186.276 429.312 181.821C430.848 178.98 432.846 178.518 439.374 179.592C447.669 180.897 452.817 179.745 457.425 175.521C461.88 171.378 463.494 167.001 463.494 158.781C463.494 148.026 459.039 139.578 451.281 135.582C447.363 133.509 439.605 133.353 435.15 135.273C430.848 137.04 425.316 136.887 423.549 134.967C420.708 131.895 422.55 124.98 426.162 124.98C432.153 124.98 438.759 119.757 442.602 111.999C444.906 107.235 445.059 106.467 445.059 98.4809C445.059 92.0279 444.753 89.1089 443.598 86.1899C440.064 76.9709 433.689 71.2109 426.852 71.2109C421.704 71.2109 418.479 72.7469 414.102 77.3549C411.105 80.5049 409.8 81.2729 407.802 81.3509C404.961 81.4289 401.658 78.4319 401.658 75.7439C401.658 73.9019 403.425 70.2899 405.039 68.9849C406.806 67.5269 409.956 60.2279 410.571 56.2349C412.8 41.2559 392.211 28.4279 378.384 36.1079C373.467 38.8739 371.472 43.1759 371.01 52.3919C370.548 60.6119 369.858 62.3009 366.477 63.6059C365.172 64.1429 363.864 63.9119 362.022 63.0689C353.955 59.2289 343.815 69.7529 341.664 84.2699C340.896 89.1089 340.971 90.8009 342.048 94.9469C343.506 100.554 346.272 105.009 350.343 108.312L353.184 110.616L356.103 108.387C359.484 105.852 368.163 97.2479 373.233 91.3349C377.304 86.7269 380.223 86.0339 382.989 89.0309C386.829 93.4079 385.677 96.2519 375.537 106.776C363.399 119.451 353.415 126.594 324.069 143.418C298.413 158.091 289.116 164.928 279.36 176.142C261.384 196.959 253.395 221.616 250.707 265.02L250.17 273.24H244.254H238.341L238.572 267.633C240.108 232.221 246.024 206.331 256.932 187.05C267.609 168.075 281.589 154.401 303.33 141.495C308.169 138.654 312.549 135.963 313.008 135.579C313.623 135.117 313.392 132.66 312.318 126.744C310.167 114.99 310.014 86.5679 312.087 75.4289C314.085 64.3679 316.773 55.6859 320.613 47.6219C331.059 25.5749 347.805 11.5949 369.468 7.06189C376.227 5.6069 391.821 5.68491 398.505 7.06491Z" fill="#6750A4"/>
<path d="M394.587 103.701L397.89 107.082L382.374 119.526C367.086 131.97 364.782 134.43 364.782 138.654C364.782 139.806 364.014 140.268 361.863 140.652C356.715 141.573 352.491 146.796 352.491 152.481C352.491 157.935 355.332 161.853 361.17 164.541C363.09 165.462 367.545 169.689 373.692 176.448C378.915 182.286 384.831 188.43 386.829 190.122C390.285 193.041 390.438 193.347 389.286 194.502C388.056 195.732 387.597 195.423 382.143 190.353C368.778 177.987 352.338 174.528 332.826 179.907C303.942 187.818 281.895 204.18 271.449 225.228C265.917 236.367 264.765 241.974 264.306 259.257L263.997 274.005H260.079H256.239L256.701 260.715C257.547 235.749 261.849 216.93 270.528 199.953C275.52 190.122 281.436 182.208 289.962 174.144C298.26 166.155 304.251 162.084 322.149 151.944C348.882 136.734 369.546 121.908 383.448 108.003C387.597 103.779 391.053 100.398 391.206 100.398C391.284 100.398 392.82 101.859 394.587 103.701Z" fill="#6750A4"/>
<path d="M405.726 115.917C407.571 117.375 408.492 120.45 407.646 122.754C407.262 123.831 404.649 126.441 401.886 128.514L396.738 132.279L404.343 133.278C410.181 134.046 412.41 134.661 413.715 135.891C415.866 137.889 416.097 142.035 414.099 144.033C412.869 145.263 411.102 145.416 394.05 145.185C375.921 145.032 375.231 144.954 373.464 143.34C372.312 142.188 371.697 140.73 371.697 139.116C371.697 136.275 373.002 135.123 390.978 121.68C400.119 114.765 402.807 113.766 405.726 115.917Z" fill="#6750A4"/>
<path d="M368.238 147.027C369.084 147.258 375.306 149.715 382.065 152.403C396.198 158.241 402.576 160.314 406.032 160.314C413.484 160.314 417.324 166.23 412.791 170.685C410.487 173.067 407.415 173.142 398.964 171.147L392.82 169.689L395.586 172.071C397.122 173.454 399.81 175.758 401.577 177.294C405.342 180.519 405.726 183.21 402.807 186.051C398.505 190.428 393.282 187.356 378.918 172.224C372.849 165.849 367.242 160.623 364.323 158.781C359.253 155.631 358.101 153.48 359.406 150.024C360.558 146.949 363.63 145.875 368.238 147.027Z" fill="#6750A4"/>
</g>
<g filter="url(#filter2_ddd_54200_34650)">
<ellipse cx="122.2" cy="153.15" rx="78.3" ry="126.45" fill="white"/>
<path d="M121.495 7.06491C92.689 13.3649 67.339 34.2569 52.282 64.2929C27.778 113.229 20.095 168.921 31.543 214.932C38.995 244.968 54.205 270.624 73.024 284.913C79.63 289.905 91.843 295.896 99.526 297.894C113.047 301.275 129.562 300.582 144.541 295.821C163.975 289.677 184.87 275.004 196.315 259.41C201.307 252.573 206.377 242.049 207.913 235.059C209.449 228.147 209.065 216.315 207.145 211.092C206.455 209.247 205.993 207.558 206.146 207.405C206.299 207.252 208.912 208.941 211.984 211.092C224.275 219.696 231.112 229.452 234.874 243.894C236.488 250.116 236.872 253.188 236.95 262.638L237.025 274.008H242.863H248.701L249.16 268.476C249.775 260.949 248.47 248.196 246.241 239.67C240.634 218.469 227.806 204.105 204.835 193.35C186.322 184.671 170.806 181.596 160.204 184.44C152.446 186.513 141.076 193.734 139.156 197.805C136.468 203.412 140.617 213.63 146.914 216.855C149.833 218.391 153.598 218.16 160.051 216.318C173.494 212.325 180.79 218.853 177.103 231.45C175.336 237.519 173.416 241.206 170.191 244.434C164.122 250.503 158.746 246.507 154.903 233.064C153.751 229.146 153.214 228.456 150.907 227.457C148.678 226.536 147.91 226.536 146.146 227.304C143.149 228.762 142.459 231.606 143.611 237.291C145.3 245.97 142.381 253.422 135.085 258.645C125.56 265.557 112.501 264.483 104.05 256.032C98.29 250.347 95.908 241.821 98.98 237.825C101.131 235.059 101.437 233.601 100.594 230.988C98.827 225.996 94.525 225.84 89.149 230.604C86.083 233.37 84.7 234.06 82.471 234.06C74.482 234.06 66.799 222.306 66.646 209.862C66.568 203.718 68.26 199.491 72.253 196.188C74.866 193.959 81.163 191.808 85.081 191.808C89.998 191.808 93.07 186.276 90.688 181.821C89.152 178.98 87.154 178.518 80.626 179.592C72.331 180.897 67.183 179.745 62.575 175.521C58.12 171.378 56.506 167.001 56.506 158.781C56.506 148.026 60.961 139.578 68.719 135.582C72.637 133.509 80.395 133.353 84.85 135.273C89.152 137.04 94.684 136.887 96.451 134.967C99.292 131.895 97.45 124.98 93.838 124.98C87.847 124.98 81.241 119.757 77.398 111.999C75.094 107.235 74.941 106.467 74.941 98.4809C74.941 92.0279 75.247 89.1089 76.402 86.1899C79.936 76.9709 86.311 71.2109 93.148 71.2109C98.296 71.2109 101.521 72.7469 105.898 77.3549C108.895 80.5049 110.2 81.2729 112.198 81.3509C115.039 81.4289 118.342 78.4319 118.342 75.7439C118.342 73.9019 116.575 70.2899 114.961 68.9849C113.194 67.5269 110.044 60.2279 109.429 56.2349C107.2 41.2559 127.789 28.4279 141.616 36.1079C146.533 38.8739 148.528 43.1759 148.99 52.3919C149.452 60.6119 150.142 62.3009 153.523 63.6059C154.828 64.1429 156.136 63.9119 157.978 63.0689C166.045 59.2289 176.185 69.7529 178.336 84.2699C179.104 89.1089 179.029 90.8009 177.952 94.9469C176.494 100.554 173.728 105.009 169.657 108.312L166.816 110.616L163.897 108.387C160.516 105.852 151.837 97.2479 146.767 91.3349C142.696 86.7269 139.777 86.0339 137.011 89.0309C133.171 93.4079 134.323 96.2519 144.463 106.776C156.601 119.451 166.585 126.594 195.931 143.418C221.587 158.091 230.884 164.928 240.64 176.142C258.616 196.959 266.605 221.616 269.293 265.02L269.83 273.24H275.746H281.659L281.428 267.633C279.892 232.221 273.976 206.331 263.068 187.05C252.391 168.075 238.411 154.401 216.67 141.495C211.831 138.654 207.451 135.963 206.992 135.579C206.377 135.117 206.608 132.66 207.682 126.744C209.833 114.99 209.986 86.5679 207.913 75.4289C205.915 64.3679 203.227 55.6859 199.387 47.6219C188.941 25.5749 172.195 11.5949 150.532 7.06189C143.773 5.6069 128.179 5.68491 121.495 7.06491Z" fill="#6750A4"/>
<path d="M125.413 103.701L122.11 107.082L137.626 119.526C152.914 131.97 155.218 134.43 155.218 138.654C155.218 139.806 155.986 140.268 158.137 140.652C163.285 141.573 167.509 146.796 167.509 152.481C167.509 157.935 164.668 161.853 158.83 164.541C156.91 165.462 152.455 169.689 146.308 176.448C141.085 182.286 135.169 188.43 133.171 190.122C129.715 193.041 129.562 193.347 130.714 194.502C131.944 195.732 132.403 195.423 137.857 190.353C151.222 177.987 167.662 174.528 187.174 179.907C216.058 187.818 238.105 204.18 248.551 225.228C254.083 236.367 255.235 241.974 255.694 259.257L256.003 274.005H259.921H263.761L263.299 260.715C262.453 235.749 258.151 216.93 249.472 199.953C244.48 190.122 238.564 182.208 230.038 174.144C221.74 166.155 215.749 162.084 197.851 151.944C171.118 136.734 150.454 121.908 136.552 108.003C132.403 103.779 128.947 100.398 128.794 100.398C128.716 100.398 127.18 101.859 125.413 103.701Z" fill="#6750A4"/>
<path d="M114.274 115.917C112.429 117.375 111.508 120.45 112.354 122.754C112.738 123.831 115.351 126.441 118.114 128.514L123.262 132.279L115.657 133.278C109.819 134.046 107.59 134.661 106.285 135.891C104.134 137.889 103.903 142.035 105.901 144.033C107.131 145.263 108.898 145.416 125.95 145.185C144.079 145.032 144.769 144.954 146.536 143.34C147.688 142.188 148.303 140.73 148.303 139.116C148.303 136.275 146.998 135.123 129.022 121.68C119.881 114.765 117.193 113.766 114.274 115.917Z" fill="#6750A4"/>
<path d="M151.762 147.027C150.916 147.258 144.694 149.715 137.935 152.403C123.802 158.241 117.424 160.314 113.968 160.314C106.516 160.314 102.676 166.23 107.209 170.685C109.513 173.067 112.585 173.142 121.036 171.147L127.18 169.689L124.414 172.071C122.878 173.454 120.19 175.758 118.423 177.294C114.658 180.519 114.274 183.21 117.193 186.051C121.495 190.428 126.718 187.356 141.082 172.224C147.151 165.849 152.758 160.623 155.677 158.781C160.747 155.631 161.899 153.48 160.594 150.024C159.442 146.949 156.37 145.875 151.762 147.027Z" fill="#6750A4"/>
</g>
</g>
<defs>
<filter id="filter0_dd_54200_34650" x="0" y="0" width="520" height="308" filterUnits="userSpaceOnUse" color-interpolation-filters="sRGB">
<feFlood flood-opacity="0" result="BackgroundImageFix"/>
<feColorMatrix in="SourceAlpha" type="matrix" values="0 0 0 0 0 0 0 0 0 0 0 0 0 0 0 0 0 0 127 0" result="hardAlpha"/>
<feMorphology radius="1" operator="dilate" in="SourceAlpha" result="effect1_dropShadow_54200_34650"/>
<feOffset dy="1"/>
<feGaussianBlur stdDeviation="1.5"/>
<feColorMatrix type="matrix" values="0 0 0 0 0 0 0 0 0 0 0 0 0 0 0 0 0 0 0.15 0"/>
<feBlend mode="normal" in2="BackgroundImageFix" result="effect1_dropShadow_54200_34650"/>
<feColorMatrix in="SourceAlpha" type="matrix" values="0 0 0 0 0 0 0 0 0 0 0 0 0 0 0 0 0 0 127 0" result="hardAlpha"/>
<feOffset dy="1"/>
<feGaussianBlur stdDeviation="1"/>
<feColorMatrix type="matrix" values="0 0 0 0 0 0 0 0 0 0 0 0 0 0 0 0 0 0 0.3 0"/>
<feBlend mode="normal" in2="effect1_dropShadow_54200_34650" result="effect2_dropShadow_54200_34650"/>
<feBlend mode="normal" in="SourceGraphic" in2="effect2_dropShadow_54200_34650" result="shape"/>
</filter>
<filter id="filter1_ddd_54200_34650" x="208" y="-1" width="316" height="316" filterUnits="userSpaceOnUse" color-interpolation-filters="sRGB">
<feFlood flood-opacity="0" result="BackgroundImageFix"/>
<feColorMatrix in="SourceAlpha" type="matrix" values="0 0 0 0 0 0 0 0 0 0 0 0 0 0 0 0 0 0 127 0" result="hardAlpha"/>
<feOffset/>
<feGaussianBlur stdDeviation="0.5"/>
<feColorMatrix type="matrix" values="0 0 0 0 0 0 0 0 0 0 0 0 0 0 0 0 0 0 0.5 0"/>
<feBlend mode="normal" in2="BackgroundImageFix" result="effect1_dropShadow_54200_34650"/>
<feColorMatrix in="SourceAlpha" type="matrix" values="0 0 0 0 0 0 0 0 0 0 0 0 0 0 0 0 0 0 127 0" result="hardAlpha"/>
<feOffset/>
<feGaussianBlur stdDeviation="1"/>
<feColorMatrix type="matrix" values="0 0 0 0 0 0 0 0 0 0 0 0 0 0 0 0 0 0 0.5 0"/>
<feBlend mode="normal" in2="effect1_dropShadow_54200_34650" result="effect2_dropShadow_54200_34650"/>
<feColorMatrix in="SourceAlpha" type="matrix" values="0 0 0 0 0 0 0 0 0 0 0 0 0 0 0 0 0 0 127 0" result="hardAlpha"/>
<feOffset dy="4"/>
<feGaussianBlur stdDeviation="4"/>
<feColorMatrix type="matrix" values="0 0 0 0 0 0 0 0 0 0 0 0 0 0 0 0 0 0 0.5 0"/>
<feBlend mode="normal" in2="effect2_dropShadow_54200_34650" result="effect3_dropShadow_54200_34650"/>
<feBlend mode="normal" in="SourceGraphic" in2="effect3_dropShadow_54200_34650" result="shape"/>
</filter>
<filter id="filter2_ddd_54200_34650" x="-4" y="-1" width="316" height="316" filterUnits="userSpaceOnUse" color-interpolation-filters="sRGB">
<feFlood flood-opacity="0" result="BackgroundImageFix"/>
<feColorMatrix in="SourceAlpha" type="matrix" values="0 0 0 0 0 0 0 0 0 0 0 0 0 0 0 0 0 0 127 0" result="hardAlpha"/>
<feOffset/>
<feGaussianBlur stdDeviation="0.5"/>
<feColorMatrix type="matrix" values="0 0 0 0 0 0 0 0 0 0 0 0 0 0 0 0 0 0 0.5 0"/>
<feBlend mode="normal" in2="BackgroundImageFix" result="effect1_dropShadow_54200_34650"/>
<feColorMatrix in="SourceAlpha" type="matrix" values="0 0 0 0 0 0 0 0 0 0 0 0 0 0 0 0 0 0 127 0" result="hardAlpha"/>
<feOffset/>
<feGaussianBlur stdDeviation="1"/>
<feColorMatrix type="matrix" values="0 0 0 0 0 0 0 0 0 0 0 0 0 0 0 0 0 0 0.5 0"/>
<feBlend mode="normal" in2="effect1_dropShadow_54200_34650" result="effect2_dropShadow_54200_34650"/>
<feColorMatrix in="SourceAlpha" type="matrix" values="0 0 0 0 0 0 0 0 0 0 0 0 0 0 0 0 0 0 127 0" result="hardAlpha"/>
<feOffset dy="4"/>
<feGaussianBlur stdDeviation="4"/>
<feColorMatrix type="matrix" values="0 0 0 0 0 0 0 0 0 0 0 0 0 0 0 0 0 0 0.5 0"/>
<feBlend mode="normal" in2="effect2_dropShadow_54200_34650" result="effect3_dropShadow_54200_34650"/>
<feBlend mode="normal" in="SourceGraphic" in2="effect3_dropShadow_54200_34650" result="shape"/>
</filter>
</defs>
</svg>
