<svg width="280" height="240" viewBox="0 0 280 240" fill="none" xmlns="http://www.w3.org/2000/svg">
<path d="M238.706 225.612L232.64 165.625L264.993 146.185C264.993 146.185 264.993 114.067 245.406 107.905C230.915 103.34 201.634 102.71 201.634 102.71C185.338 100.117 124.022 105.15 120.919 114.27C118.025 122.821 131 214.092 132.655 225.591L238.706 225.612Z" fill="#6750A4"/>
<path d="M139.812 222.907C139.682 222.899 139.56 222.839 139.473 222.741C139.386 222.642 139.34 222.512 139.346 222.378C139.346 221.707 142.022 155.417 136.372 143.074C136.344 143.013 136.328 142.947 136.325 142.88C136.322 142.813 136.331 142.746 136.354 142.683C136.376 142.619 136.41 142.561 136.454 142.511C136.498 142.462 136.551 142.421 136.61 142.393C136.669 142.364 136.733 142.347 136.799 142.344C136.864 142.341 136.93 142.351 136.991 142.374C137.053 142.396 137.11 142.431 137.158 142.476C137.207 142.521 137.246 142.576 137.274 142.637C143.063 155.173 140.486 219.643 140.377 222.378C140.379 222.453 140.365 222.527 140.336 222.595C140.308 222.664 140.266 222.725 140.212 222.775C140.158 222.825 140.095 222.863 140.026 222.886C139.957 222.909 139.884 222.916 139.812 222.907Z" fill="#21005D"/>
<path d="M102.641 43.6685C96.3367 37.3953 77.4341 27.5026 70.6344 38.412C70.3908 38.8882 70.0532 39.3072 69.6432 39.6423C68.8751 39.9946 68.0176 40.0872 67.1948 39.9066C56.787 39.1746 49.2736 55.8896 47.3704 64.2267C45.051 74.4753 42.7811 83.7682 37.2798 92.7967C33.979 98.226 29.0725 103.035 26.7729 109.064C24.5812 114.941 23.5697 121.21 23.7992 127.498C23.9066 132.742 24.9864 137.918 26.981 142.748C31.3523 152.743 40.7491 159.829 50.9587 163.083C61.1682 166.337 72.1509 166.052 82.6777 164.425C92.689 162.88 102.75 160.002 110.957 153.922C119.165 147.842 125.3 138.051 125.151 127.681C125.023 117.463 119.393 108.546 116.052 99.2123C112.712 89.8787 112.523 80.535 113.376 70.9269C114.337 60.231 110.144 51.0804 102.641 43.6685Z" fill="white"/>
<path d="M68.533 166.052C62.5324 166.11 56.5575 165.239 50.81 163.469C39.5398 159.911 30.6981 152.397 26.535 142.881C24.507 137.988 23.4134 132.742 23.3136 127.426C23.0911 121.067 24.1262 114.728 26.3566 108.79C27.8236 104.926 30.3215 101.541 32.8194 98.2667C34.2269 96.3858 35.6939 94.4336 36.9032 92.451C42.2062 83.7377 44.486 74.8007 46.9244 64.0335C48.7483 55.9709 56.4401 38.6154 67.2543 39.3169H67.5914C68.1953 39.4456 68.8235 39.3744 69.3855 39.1136C69.6659 38.8697 69.898 38.5728 70.0694 38.2392L70.1983 38.0358C71.0813 36.6203 72.272 35.4338 73.677 34.5694C75.0821 33.705 76.6633 33.1863 78.2965 33.0539C86.6823 32.0372 98.0218 38.3205 102.988 43.2211C111.136 51.2736 114.813 60.5868 113.891 70.9168C112.9 82.3854 113.703 91.0378 116.548 98.9784C117.539 101.652 118.679 104.347 119.809 106.96C122.644 113.477 125.578 120.228 125.677 127.589C125.796 137.34 120.285 147.537 111.284 154.207C104.088 159.535 95.0383 162.9 82.7868 164.791C78.0728 165.575 73.3083 165.997 68.533 166.052V166.052ZM66.5506 40.3438C56.6384 40.3438 49.6106 56.6114 47.8859 64.308C45.4277 75.1667 43.1181 84.1749 37.7358 93.0306C36.5067 95.064 35.0298 97.0263 33.6024 98.9276C31.1938 102.14 28.6959 105.475 27.2784 109.207C25.0962 115.011 24.0846 121.209 24.3048 127.426C24.403 132.612 25.4697 137.731 27.4469 142.504C31.4118 151.655 40.2733 159.118 51.1173 162.544C59.9788 165.35 70.2974 165.787 82.6579 163.876C94.7409 162.005 103.652 158.701 110.719 153.465C119.462 146.988 124.815 137.106 124.696 127.681C124.606 120.564 121.722 113.884 118.917 107.458C117.777 104.825 116.597 102.11 115.626 99.4054C112.732 91.2716 111.889 82.5278 112.92 70.9371C113.802 60.9325 110.244 51.8837 102.314 44.0549C97.4866 39.2864 86.5039 33.1962 78.4254 34.1621C76.9384 34.2791 75.498 34.7475 74.2168 35.5307C72.9357 36.3138 71.8487 37.3905 71.0408 38.6764L70.9219 38.8797C70.6753 39.3367 70.3376 39.7351 69.9306 40.049C69.1874 40.4569 68.3297 40.5898 67.5022 40.4251H67.1751L66.5506 40.3438Z" fill="#21005D"/>
<path d="M99.6772 108.109C99.6772 108.109 145.848 86.5133 185.279 85.3543C200.554 84.9069 233.928 92.3493 239.727 95.8062L240.51 108.312C240.51 108.312 176.715 106.278 149.318 114.585C131.654 119.903 113.336 142.891 113.336 142.891L99.6772 108.109Z" fill="white"/>
<path d="M113.316 143.399H113.257C113.173 143.388 113.094 143.354 113.027 143.3C112.961 143.247 112.91 143.175 112.88 143.094L99.241 108.312C99.1934 108.192 99.1926 108.057 99.2387 107.936C99.2848 107.815 99.3743 107.717 99.4888 107.661C99.9547 107.438 146.205 86.005 185.279 84.8561C200.425 84.4392 233.908 91.7495 239.994 95.3792C240.066 95.4194 240.127 95.4779 240.17 95.5492C240.214 95.6204 240.238 95.702 240.242 95.7859L241.025 108.292C241.027 108.433 240.977 108.571 240.886 108.678C240.841 108.733 240.783 108.776 240.717 108.803C240.651 108.83 240.58 108.839 240.51 108.83C239.875 108.83 176.487 106.939 149.456 115.083C132.14 120.299 113.901 142.992 113.713 143.226C113.664 143.284 113.603 143.33 113.534 143.36C113.466 143.39 113.391 143.404 113.316 143.399V143.399ZM100.312 108.373L113.465 141.925C116.627 138.133 133.23 118.896 149.149 114.097C174.99 106.309 233.69 107.621 239.974 107.793L239.241 96.1112C232.788 92.5832 199.79 85.4255 185.279 85.8626C148.425 86.9404 105.089 106.197 100.312 108.373Z" fill="#21005D"/>
<path d="M47.2911 179.961L58.3432 225.612H137.641L129.899 145.514C129.899 145.514 112.474 117.412 110.283 102.049L38.0133 121.163C38.0133 121.163 52.5248 152.753 47.2911 179.961Z" fill="#6750A4"/>
<path d="M91.1626 100.056L95.1968 117.218C95.1968 117.218 94.8796 125.596 83.0445 125.698C71.2093 125.8 67.6607 118.347 67.6607 118.347L61.2376 86.0558C61.2376 86.0558 76.3934 72.0352 69.4647 54.2425C69.4647 54.2425 79.7635 66.9922 95.8213 60.5665C95.8213 60.5665 100.064 76.946 100.886 86.1575C101.709 95.369 91.1626 100.056 91.1626 100.056Z" fill="white"/>
<path d="M82.7967 126.206C70.9912 126.206 67.3534 118.886 67.2047 118.571C67.1951 118.531 67.1951 118.489 67.2047 118.449L60.7222 86.1982C60.7077 86.1113 60.7146 86.022 60.7423 85.9386C60.77 85.8551 60.8176 85.7801 60.8808 85.7203C61.0295 85.5881 75.6995 71.72 68.9691 54.4661C68.9268 54.3542 68.9245 54.2305 68.9626 54.117C69.0007 54.0035 69.0768 53.9075 69.1773 53.8459C69.2781 53.7819 69.3983 53.758 69.5151 53.7786C69.632 53.7992 69.7375 53.8629 69.8117 53.9578C69.9207 54.0798 80.0906 66.3517 95.5834 60.1293C95.6477 60.1016 95.7168 60.0874 95.7866 60.0874C95.8564 60.0874 95.9255 60.1016 95.9898 60.1293C96.0521 60.1627 96.1071 60.2087 96.1514 60.2647C96.1958 60.3206 96.2284 60.3853 96.2475 60.4547C96.2475 60.6173 100.5 76.9866 101.313 86.127C102.076 94.576 93.601 99.3444 91.6879 100.361L95.6528 117.127C95.6581 117.174 95.6581 117.222 95.6528 117.269C95.6528 117.351 95.177 126.135 83.0147 126.237L82.7967 126.206ZM68.1167 118.174C68.4636 118.825 72.1609 125.19 82.8066 125.19H83.0445C93.8091 125.098 94.6417 118.073 94.7012 117.259L90.6769 100.168C90.6492 100.052 90.6629 99.9298 90.7157 99.8235C90.7685 99.7171 90.8567 99.6337 90.9643 99.5884C91.0634 99.5884 101.154 94.9318 100.381 86.1982C99.6573 78.0644 96.2079 64.1657 95.4744 61.2477C91.2866 62.8696 86.7391 63.253 82.3494 62.3542C77.9597 61.4555 73.9041 59.3107 70.6443 56.1641C75.3625 71.9335 63.5075 84.4799 61.7729 86.2185L68.1167 118.174Z" fill="#21005D"/>
<path d="M66.2829 83.7885C64.469 80.2808 59.3444 78.3287 55.776 79.8843C51.1074 81.9177 52.5248 87.4996 54.9136 90.7429C55.6423 91.7338 56.5564 92.5655 57.6023 93.1896C58.6482 93.8137 59.8049 94.2176 61.0048 94.3776C62.2047 94.5376 63.4237 94.4505 64.5904 94.1215C65.7571 93.7924 66.8481 93.228 67.7995 92.4612" fill="white"/>
<path d="M62.1495 94.942C61.7419 94.9402 61.3347 94.9131 60.9303 94.8607C59.6706 94.6897 58.4563 94.2647 57.3574 93.6104C56.2584 92.956 55.2965 92.0852 54.527 91.0479C53.0799 89.0958 51.6525 85.8118 52.3959 82.9751C52.6156 82.1669 53.0183 81.4233 53.5712 80.8049C54.1241 80.1865 54.8116 79.7108 55.5777 79.4166C59.3642 77.7797 64.7862 79.7928 66.7191 83.5547C66.7502 83.6126 66.7698 83.6763 66.7767 83.7421C66.7836 83.8079 66.7777 83.8745 66.7592 83.9379C66.7408 84.0013 66.7102 84.0604 66.6693 84.1115C66.6283 84.1627 66.5779 84.2049 66.5208 84.2359C66.4636 84.2681 66.4007 84.2884 66.3358 84.2956C66.2709 84.3028 66.2052 84.2968 66.1426 84.2779C66.08 84.259 66.0216 84.2276 65.9708 84.1855C65.9201 84.1434 65.8779 84.0914 65.8468 84.0325C64.8542 82.3486 63.3288 81.0647 61.525 80.3949C59.7212 79.7251 57.748 79.7099 55.9346 80.352C55.3061 80.5835 54.7412 80.9668 54.2875 81.4693C53.8338 81.9719 53.5046 82.579 53.3277 83.2395C52.7131 85.5576 53.8728 88.5265 55.3101 90.4379C55.9995 91.3695 56.8625 92.1512 57.849 92.7376C58.8355 93.324 59.9258 93.7035 61.0566 93.8539C62.1873 94.0043 63.3359 93.9227 64.4356 93.6138C65.5353 93.3049 66.5642 92.7748 67.4625 92.0545C67.5663 91.9709 67.6983 91.933 67.8293 91.9492C67.9604 91.9655 68.0798 92.0344 68.1613 92.1409C68.2428 92.2474 68.2797 92.3828 68.2639 92.5172C68.2481 92.6516 68.1809 92.7741 68.077 92.8577C66.3817 94.2084 64.2962 94.9418 62.1495 94.942V94.942Z" fill="#21005D"/>
<path d="M84.1844 73.7636C84.1844 73.7636 92.4611 80.8807 91.5194 82.8531C90.5778 84.8256 86.4444 84.8866 86.4444 84.8866" fill="white"/>
<path d="M86.4939 85.4356C86.3625 85.4356 86.2364 85.3821 86.1435 85.2867C86.0505 85.1914 85.9983 85.0621 85.9983 84.9273C85.9983 84.7924 86.0505 84.6631 86.1435 84.5678C86.2364 84.4725 86.3625 84.4189 86.4939 84.4189C87.5545 84.4189 90.4588 84.002 91.1427 82.6295C91.5987 81.6839 87.7825 77.4747 83.9267 74.15C83.8255 74.0637 83.7618 73.9397 83.7497 73.8053C83.7376 73.6708 83.7781 73.537 83.8622 73.4332C83.9464 73.3294 84.0672 73.2641 84.1983 73.2517C84.3293 73.2393 84.4598 73.2808 84.561 73.3671C86.5435 75.1057 93.0657 80.9417 92.0249 83.087C90.9841 85.2323 86.9697 85.4153 86.5137 85.4356H86.4939Z" fill="#21005D"/>
<path d="M91.8445 74.0919C92.6158 73.9926 93.0597 72.4306 92.8359 70.6031C92.6121 68.7757 91.8054 67.3748 91.0341 67.4742C90.2628 67.5736 89.8189 69.1356 90.0427 70.963C90.2665 72.7905 91.0732 74.1913 91.8445 74.0919Z" fill="#21005D"/>
<path d="M77.3759 75.9682C78.1472 75.8688 78.591 74.3068 78.3672 72.4794C78.1434 70.652 77.3367 69.2511 76.5654 69.3505C75.7941 69.4499 75.3503 71.0119 75.5741 72.8393C75.7979 74.6667 76.6046 76.0676 77.3759 75.9682Z" fill="#21005D"/>
<path d="M91.1626 100.056C91.1626 100.056 85.0864 102.842 76.2943 99.6698C76.2943 99.6698 81.9938 111.027 93.3334 109.339L91.1626 100.056Z" fill="#21005D"/>
<path d="M91.0932 110.02C81.0621 110.02 75.9176 100.005 75.8681 99.8528C75.8229 99.7624 75.8052 99.6601 75.8172 99.5593C75.8292 99.4584 75.8704 99.3636 75.9355 99.287C76.0006 99.2104 76.0865 99.1556 76.1823 99.1295C76.2781 99.1035 76.3792 99.1076 76.4727 99.1411C84.9576 102.191 90.895 99.5681 90.9544 99.5376C91.021 99.5051 91.0938 99.4882 91.1676 99.4882C91.2413 99.4882 91.3141 99.5051 91.3807 99.5376C91.4456 99.5698 91.5026 99.6168 91.5472 99.6749C91.5919 99.7331 91.623 99.8008 91.6384 99.8731L93.829 109.156C93.8464 109.226 93.8492 109.298 93.8372 109.369C93.8251 109.44 93.7986 109.508 93.7592 109.567C93.7199 109.627 93.6686 109.677 93.6089 109.715C93.5491 109.753 93.4823 109.777 93.4127 109.786C92.6455 109.918 91.8706 109.996 91.0932 110.02V110.02ZM77.4243 100.575C79.1787 103.3 84.3628 109.847 92.7287 108.912L90.8058 100.778C86.4329 102.137 81.756 102.066 77.4243 100.575V100.575Z" fill="#21005D"/>
<path d="M86.5534 97.8397C85.6373 97.8073 84.744 97.538 83.9564 97.0568C79.1391 94.3421 78.8615 86.4117 78.8516 86.0762C78.8488 86.0013 78.8625 85.9268 78.8917 85.8582C78.9209 85.7895 78.9648 85.7285 79.0201 85.6796C79.0756 85.6309 79.1405 85.5949 79.2106 85.5739C79.2806 85.5528 79.3542 85.5473 79.4265 85.5576L91.678 87.6928C91.7996 87.7149 91.9091 87.782 91.9857 87.8812C92.0624 87.9805 92.1011 88.1051 92.0943 88.2316C91.7375 92.9187 90.3597 96.2434 88.3079 97.3822C87.7704 97.6851 87.1666 97.8426 86.5534 97.8397ZM79.8825 86.6557C80.051 88.5265 80.8737 94.1286 84.4421 96.1519C84.9334 96.5025 85.5053 96.7159 86.1014 96.7712C86.6975 96.8264 87.2973 96.7216 87.842 96.4671C89.4973 95.552 90.6868 92.6239 91.0635 88.5976L79.8825 86.6557Z" fill="#21005D"/>
<path d="M219.635 48.4878C219.212 48.3062 218.754 48.2274 218.297 48.2574C217.839 48.2873 217.395 48.4254 216.998 48.6606C217.127 45.3868 214.451 42.5603 211.437 41.4622C208.424 40.3641 205.143 40.5573 201.951 40.6488C198.76 40.7403 195.409 40.6488 192.594 39.0932C188.124 36.5921 185.894 30.7764 181.126 28.926C177.319 27.4517 172.78 29.1598 170.222 32.393C168.999 34.0676 168.115 35.9768 167.623 38.0077C167.131 40.0387 167.041 42.1502 167.358 44.2175C168.18 51.0398 172.135 57.6688 176.655 62.6305C179.096 65.1449 181.749 67.4314 184.585 69.4629L190.532 73.9364C196.559 78.5219 205.093 83.087 212.934 80.7078C218.168 79.1319 221.25 73.5908 222.638 68.5071C223.445 65.7024 223.754 62.7716 223.55 59.8548C223.312 57.1401 223.253 52.9105 222.033 50.5314C221.493 49.5822 220.644 48.8587 219.635 48.4878V48.4878Z" fill="white"/>
<path d="M208.414 81.8669C201.684 81.8669 195.003 78.0033 190.205 74.3533L184.258 69.8797C181.388 67.8345 178.704 65.5273 176.239 62.9863C173.146 59.6006 167.824 52.6869 166.803 44.2887C166.478 42.1544 166.575 39.9751 167.085 37.8796C167.596 35.784 168.511 33.8147 169.776 32.088C172.611 28.5295 177.438 27.0044 181.255 28.4685C183.941 29.4852 185.844 31.7423 187.698 33.9079C189.111 35.7814 190.832 37.3881 192.783 38.656C195.538 40.1913 198.928 40.232 201.882 40.1506H202.635C205.609 40.049 208.702 39.9575 211.556 41.0149C214.411 42.0722 217.147 44.5632 217.424 47.9184C218.196 47.6965 219.018 47.7393 219.764 48.0404C220.879 48.4813 221.806 49.3134 222.38 50.3891C223.431 52.4225 223.659 55.7269 223.837 58.3602C223.837 58.9092 223.917 59.3769 223.956 59.9056C224.165 62.8842 223.849 65.877 223.025 68.741C222.172 71.7912 219.486 79.2844 212.984 81.2365C211.497 81.6655 209.959 81.8777 208.414 81.8669V81.8669ZM178.212 28.9158C176.747 28.9445 175.306 29.3006 173.99 29.9591C172.673 30.6176 171.513 31.5627 170.589 32.7285C169.407 34.3489 168.553 36.1959 168.078 38.1605C167.603 40.1251 167.516 42.1673 167.824 44.1667C168.547 50.0841 171.888 56.6928 177.002 62.2848C179.422 64.7841 182.06 67.0507 184.882 69.0562L190.78 73.5399C196.5 77.8813 204.955 82.5684 212.756 80.23C218.782 78.4202 221.31 71.3743 222.123 68.436C222.915 65.6875 223.217 62.815 223.015 59.9565C223.015 59.4786 222.935 58.9397 222.906 58.4009C222.727 55.8591 222.509 52.697 221.548 50.8364C221.095 49.9766 220.357 49.3125 219.466 48.9657V48.9657C219.113 48.8104 218.729 48.7415 218.346 48.7644C217.962 48.7874 217.589 48.9015 217.256 49.0978C217.178 49.1453 217.089 49.1703 216.998 49.1703C216.907 49.1703 216.818 49.1453 216.74 49.0978C216.664 49.0513 216.601 48.984 216.559 48.9033C216.517 48.8226 216.497 48.7316 216.502 48.6403C216.631 45.5901 213.965 42.9263 211.279 41.9401C208.592 40.9539 205.599 41.0454 202.715 41.1267H201.961C198.869 41.208 195.33 41.1267 192.356 39.5101C190.301 38.1889 188.489 36.5058 187.004 34.5383C185.15 32.3727 183.406 30.3291 180.947 29.3835C180.07 29.0595 179.144 28.9011 178.212 28.9158Z" fill="#21005D"/>
<path d="M177.587 92.0647L175.268 110.783C175.268 110.783 177.032 120.716 188.352 119.831C191.695 119.54 194.934 118.488 197.831 116.752C200.729 115.016 203.213 112.64 205.103 109.796L209.97 78.2779C209.97 78.2779 202.606 72.513 207.829 54.8932C197.079 54.4705 186.415 52.7436 176.061 49.7485C176.061 49.7485 170.867 72.8892 170.807 81.7551C170.748 90.6209 177.587 92.0647 177.587 92.0647Z" fill="white"/>
<path d="M186.964 120.401C184.165 120.539 181.408 119.66 179.179 117.917C176.95 116.174 175.393 113.68 174.782 110.874C174.772 110.824 174.772 110.772 174.782 110.722L177.042 92.4205C175.456 91.902 170.252 89.594 170.312 81.7652C170.371 72.94 175.367 50.5924 175.575 49.6469C175.591 49.579 175.621 49.5152 175.661 49.4593C175.702 49.4033 175.754 49.3565 175.813 49.3215C175.937 49.2711 176.075 49.2711 176.199 49.3215C186.516 52.2774 197.135 53.9835 207.839 54.4051C207.915 54.4086 207.989 54.4296 208.056 54.4666C208.123 54.5036 208.181 54.5555 208.226 54.6186C208.27 54.6828 208.3 54.756 208.314 54.8333C208.327 54.9106 208.324 54.99 208.305 55.066C205.658 63.9624 206.323 69.6967 207.383 72.94C207.893 74.8201 208.894 76.5216 210.278 77.861C210.348 77.9185 210.402 77.9938 210.435 78.0794C210.468 78.1649 210.479 78.2579 210.466 78.349L205.589 109.868C205.579 109.933 205.555 109.995 205.52 110.051C203.579 112.954 201.036 115.381 198.073 117.159C195.11 118.936 191.8 120.019 188.381 120.33C187.896 120.381 187.42 120.401 186.964 120.401ZM175.773 110.772C175.962 111.718 177.984 120.167 188.312 119.323C191.562 119.029 194.709 118.004 197.529 116.32C200.349 114.637 202.773 112.336 204.628 109.583L209.405 78.471C208.146 77.3018 202.665 71.0896 207.125 55.4015C196.733 54.9209 186.426 53.2464 176.398 50.4094C175.624 53.9069 171.323 73.7941 171.273 81.7856C171.214 90.1329 177.587 91.5563 177.656 91.5665C177.778 91.5912 177.887 91.663 177.958 91.767C178.03 91.8711 178.061 91.9994 178.043 92.1257L175.773 110.772Z" fill="#21005D"/>
<path d="M203.676 76.6511C204.293 75.1806 205.357 73.9539 206.709 73.1536C208.003 72.4707 209.401 72.0202 210.843 71.8217C211.619 71.6389 212.425 71.6389 213.202 71.8217C213.735 72.0017 214.229 72.2847 214.659 72.6554C215.74 73.4434 216.513 74.6002 216.839 75.9191C216.97 77.0047 216.845 78.1067 216.473 79.1319C216.151 80.2758 215.688 81.3727 215.095 82.3956C214.475 83.397 213.667 84.2622 212.718 84.9411C211.77 85.6199 210.699 86.099 209.569 86.3506C208.439 86.6021 207.271 86.6211 206.134 86.4065C204.996 86.1918 203.912 85.7478 202.943 85.1001" fill="white"/>
<path d="M207.74 87.0217C205.942 87.0253 204.182 86.4918 202.675 85.4865C202.616 85.4523 202.565 85.4062 202.525 85.3511C202.484 85.296 202.455 85.233 202.439 85.166C202.423 85.0989 202.42 85.0293 202.432 84.9612C202.443 84.8931 202.467 84.828 202.504 84.77C202.54 84.7119 202.587 84.6621 202.643 84.6235C202.699 84.5849 202.762 84.5583 202.828 84.5454C202.894 84.5326 202.962 84.5336 203.028 84.5486C203.093 84.5635 203.156 84.5921 203.21 84.6324C204.121 85.2462 205.141 85.6686 206.212 85.8752C207.283 86.0817 208.383 86.0683 209.448 85.8357C210.514 85.603 211.524 85.1558 212.42 84.52C213.316 83.8841 214.081 83.0722 214.669 82.1313C215.247 81.1539 215.694 80.1004 215.997 78.9997C216.345 78.0536 216.464 77.0347 216.344 76.0309C216.041 74.837 215.34 73.7899 214.361 73.0722C213.987 72.7333 213.548 72.4772 213.073 72.3198C212.371 72.1584 211.643 72.1584 210.942 72.3198C209.56 72.5133 208.22 72.9429 206.977 73.5908C205.716 74.3372 204.725 75.4822 204.152 76.8544C204.099 76.9785 204.001 77.076 203.878 77.1256C203.755 77.1752 203.618 77.1727 203.498 77.1188C203.377 77.0649 203.282 76.9639 203.233 76.838C203.185 76.7122 203.187 76.5718 203.24 76.4478C203.899 74.8774 205.036 73.5682 206.481 72.7164C207.822 72.0008 209.275 71.5295 210.773 71.3235C211.624 71.12 212.509 71.12 213.36 71.3235C213.955 71.5219 214.507 71.836 214.986 72.2487C216.164 73.1093 217.002 74.3759 217.345 75.8174C217.496 76.9839 217.367 78.1707 216.968 79.2743C216.635 80.4592 216.152 81.5941 215.531 82.6498C214.874 83.7074 214.02 84.6218 213.019 85.3406C212.017 86.0594 210.887 86.5685 209.693 86.8387C209.05 86.9717 208.395 87.0331 207.74 87.0217Z" fill="#21005D"/>
<path d="M176.061 102.73C180.235 102.531 184.277 101.164 187.747 98.7751C193.298 94.8302 193.318 92.0138 193.318 92.0138C193.318 92.0138 184.892 95.064 177.984 92.4104L176.061 102.73Z" fill="#21005D"/>
<path d="M176.061 103.238C175.988 103.238 175.917 103.222 175.851 103.19C175.785 103.158 175.727 103.112 175.681 103.055C175.635 102.998 175.601 102.931 175.583 102.859C175.565 102.787 175.562 102.712 175.575 102.639L177.498 92.2985C177.514 92.2266 177.544 92.1588 177.587 92.0993C177.629 92.0398 177.683 91.99 177.746 91.9528C177.811 91.9225 177.882 91.9068 177.954 91.9068C178.026 91.9068 178.097 91.9225 178.162 91.9528C184.803 94.515 193.03 91.5868 193.149 91.5563C193.225 91.5288 193.305 91.52 193.384 91.5306C193.464 91.5412 193.539 91.5709 193.605 91.6173C193.669 91.6645 193.721 91.7273 193.756 91.8C193.79 91.8728 193.807 91.9533 193.803 92.0342C193.803 92.1562 193.714 95.1657 188.025 99.2123C184.482 101.68 180.339 103.089 176.061 103.279V103.238ZM178.36 93.0712L176.665 102.222C180.526 101.903 184.245 100.58 187.47 98.3785C191.008 95.8571 192.208 93.8338 192.614 92.7866C190.334 93.4576 184 95.003 178.36 93.0814V93.0712Z" fill="#21005D"/>
<path d="M187.886 65.3553C187.886 65.3553 180.531 72.8791 181.592 74.6583C182.652 76.4376 186.607 76.2139 186.607 76.2139" fill="white"/>
<path d="M186.102 76.7325C184.892 76.7325 182.137 76.5494 181.146 74.9227C179.976 72.9502 185.725 66.7889 187.519 64.9893C187.565 64.9419 187.62 64.9043 187.681 64.8786C187.741 64.853 187.806 64.8398 187.871 64.8398C187.936 64.8398 188.001 64.853 188.061 64.8786C188.122 64.9043 188.177 64.9419 188.223 64.9893C188.269 65.0367 188.306 65.0929 188.331 65.1549C188.356 65.2168 188.369 65.2832 188.369 65.3502C188.369 65.4172 188.356 65.4836 188.331 65.5455C188.306 65.6075 188.269 65.6637 188.223 65.7111C184.387 69.6357 181.532 73.6111 181.988 74.394C182.732 75.6446 185.547 75.7666 186.558 75.7056C186.623 75.7 186.689 75.7081 186.751 75.7294C186.813 75.7507 186.871 75.7847 186.92 75.8293C186.969 75.874 187.009 75.9284 187.037 75.9892C187.065 76.0501 187.081 76.1162 187.083 76.1834C187.089 76.3176 187.043 76.4488 186.956 76.5493C186.869 76.6499 186.748 76.7119 186.617 76.7223L186.102 76.7325Z" fill="#21005D"/>
<path d="M135.956 151.421L142.101 118.459L120.919 114.29L114.764 147.263C114.279 149.851 114.712 152.531 115.984 154.82C117.256 157.11 119.284 158.857 121.702 159.748L118.035 179.412L107.458 186.193L128.641 190.362L121.256 180.042L124.973 160.419C127.55 160.512 130.074 159.655 132.088 158.005C134.102 156.355 135.474 154.019 135.956 151.421V151.421Z" fill="white"/>
<path d="M128.68 190.921H128.591L107.409 186.752C107.309 186.737 107.216 186.69 107.144 186.618C107.071 186.546 107.022 186.453 107.004 186.351C106.985 186.249 106.998 186.144 107.04 186.05C107.083 185.957 107.153 185.878 107.24 185.827L117.628 179.157L121.187 160.073C118.745 159.099 116.714 157.277 115.446 154.926C114.178 152.574 113.754 149.841 114.248 147.202L120.404 114.229C120.429 114.097 120.504 113.981 120.612 113.904C120.724 113.832 120.857 113.803 120.988 113.823L142.171 117.991C142.299 118.016 142.413 118.092 142.487 118.202C142.562 118.313 142.59 118.449 142.567 118.581L136.412 151.553C135.928 154.194 134.557 156.578 132.538 158.29C130.519 160.003 127.979 160.936 125.36 160.928V160.928L121.811 179.95L129.067 190.118C129.122 190.202 129.152 190.301 129.152 190.402C129.152 190.504 129.122 190.603 129.067 190.687C129.024 190.753 128.967 190.809 128.9 190.849C128.833 190.89 128.758 190.914 128.68 190.921V190.921ZM108.856 185.99L127.56 189.66L120.919 180.388C120.841 180.276 120.809 180.137 120.83 180.001L124.507 160.338C124.522 160.215 124.584 160.104 124.678 160.028C124.773 159.951 124.893 159.917 125.013 159.931C127.467 160.031 129.875 159.222 131.796 157.652C133.718 156.083 135.025 153.857 135.48 151.38V151.38L141.546 118.906L121.335 114.941L115.239 147.354C114.763 149.829 115.173 152.397 116.395 154.586C117.617 156.776 119.568 158.439 121.89 159.27C122.003 159.312 122.097 159.393 122.157 159.499C122.217 159.605 122.239 159.729 122.217 159.85L118.54 179.503C118.531 179.572 118.507 179.639 118.469 179.697C118.431 179.755 118.381 179.804 118.322 179.839L108.856 185.99Z" fill="#21005D"/>
<path d="M118.798 137.675L117.033 147.09C116.778 148.242 116.751 149.435 116.954 150.599C117.157 151.762 117.587 152.871 118.217 153.86C118.847 154.85 119.665 155.699 120.622 156.357C121.579 157.015 122.655 157.469 123.787 157.692C124.918 157.914 126.082 157.901 127.208 157.653C128.334 157.404 129.4 156.926 130.343 156.246C131.285 155.566 132.084 154.698 132.693 153.694C133.301 152.691 133.706 151.572 133.884 150.404L135.391 142.342C135.649 140.949 136.521 138.854 135.391 137.746C134.756 137.136 133.775 137.177 133.111 136.546C132.447 135.916 132.487 135.143 131.753 134.788C131.469 134.681 131.164 134.648 130.864 134.692C130.565 134.737 130.281 134.857 130.038 135.042C129.562 135.424 129.105 135.831 128.67 136.262C127.041 137.438 125.068 138.005 123.08 137.868C122.703 137.868 118.847 137.451 118.798 137.675Z" fill="#EADDFF"/>
<path d="M136.679 130.731C136.204 127.101 132.259 130.924 133.706 132.998C133.887 133.291 134.165 133.508 134.489 133.608C134.683 133.639 134.881 133.628 135.071 133.576C135.26 133.523 135.437 133.43 135.589 133.303C135.976 133.012 136.281 132.62 136.473 132.168C136.664 131.716 136.736 131.22 136.679 130.731V130.731Z" fill="#EADDFF"/>
<path d="M168.488 147.202L162.243 114.25L141.071 118.469L147.315 151.421C147.806 154.013 149.185 156.34 151.203 157.979C153.222 159.619 155.745 160.462 158.318 160.358L162.035 180.001L154.68 190.341L175.852 186.122L165.256 179.361L161.539 159.707C163.963 158.818 165.996 157.068 167.27 154.774C168.545 152.48 168.977 149.794 168.488 147.202V147.202Z" fill="white"/>
<path d="M154.68 190.921C154.596 190.921 154.513 190.898 154.44 190.855C154.367 190.813 154.307 190.751 154.264 190.677C154.208 190.593 154.179 190.494 154.179 190.392C154.179 190.291 154.208 190.192 154.264 190.108L161.5 179.94L157.901 160.928C155.287 160.939 152.75 160.01 150.733 158.303C148.716 156.597 147.346 154.219 146.859 151.584L140.615 118.632C140.591 118.498 140.62 118.361 140.694 118.249C140.768 118.137 140.882 118.059 141.011 118.032L162.184 113.812C162.247 113.8 162.312 113.801 162.375 113.815C162.438 113.829 162.497 113.856 162.55 113.894C162.661 113.969 162.739 114.086 162.768 114.219L169.003 147.171C169.516 149.809 169.109 152.549 167.854 154.91C166.598 157.272 164.574 159.107 162.134 160.094L165.732 179.107L176.14 185.746C176.226 185.799 176.294 185.878 176.336 185.973C176.377 186.067 176.389 186.172 176.371 186.273C176.353 186.375 176.305 186.468 176.233 186.541C176.162 186.614 176.071 186.663 175.971 186.681L154.769 190.921H154.68ZM158.318 159.921C158.433 159.919 158.544 159.959 158.633 160.033C158.722 160.108 158.782 160.212 158.803 160.328L162.521 179.971C162.536 180.039 162.537 180.111 162.521 180.18C162.506 180.249 162.475 180.313 162.431 180.367L155.82 189.66L174.514 185.939L164.999 179.839C164.94 179.802 164.889 179.754 164.849 179.696C164.81 179.638 164.783 179.572 164.771 179.503L161.054 159.86C161.032 159.741 161.052 159.617 161.11 159.511C161.168 159.405 161.26 159.324 161.371 159.28C163.691 158.445 165.639 156.779 166.858 154.588C168.076 152.396 168.482 149.828 168.002 147.354L161.827 114.88L141.626 118.947L147.771 151.391C148.25 153.859 149.568 156.072 151.491 157.635C153.414 159.198 155.816 160.008 158.268 159.921H158.318Z" fill="#21005D"/>
<path d="M164.463 137.655L164.404 137.583C163.997 137.187 162.015 137.584 161.361 137.512C160.064 137.364 158.795 137.022 157.594 136.496C156.602 135.902 155.489 135.554 154.343 135.479C153.352 135.55 152.361 136.14 151.369 135.957C150.69 135.722 150.051 135.379 149.476 134.94C149.184 134.736 148.838 134.627 148.485 134.627C148.131 134.627 147.786 134.736 147.494 134.94C147.298 135.162 147.147 135.421 147.048 135.703C146.453 137.116 147.137 138.661 147.404 140.105L148.227 144.416L149.357 150.394C149.555 151.546 149.974 152.646 150.59 153.629C151.207 154.613 152.008 155.461 152.947 156.123C153.886 156.786 154.945 157.25 156.061 157.488C157.177 157.727 158.328 157.735 159.447 157.512C160.566 157.289 161.631 156.84 162.579 156.19C163.527 155.541 164.339 154.704 164.968 153.73C165.598 152.755 166.031 151.661 166.244 150.512C166.457 149.364 166.445 148.183 166.208 147.039C165.782 144.802 165.355 142.555 164.939 140.318C164.903 139.412 164.743 138.515 164.463 137.655V137.655Z" fill="#EADDFF"/>
<path d="M38.0431 121.163C38.0431 121.163 26.7432 126.501 23.7596 139.058C17.8123 163.947 23.2342 231.031 27.4866 236.582C31.7389 242.133 36.6058 239.002 51.8607 233.41C68.3645 227.31 122.693 191.043 122.693 191.043C122.693 191.043 133.339 183.702 133.726 180.876C134.112 178.049 132.566 177.704 132.566 177.704C132.566 177.704 137.591 173.342 135.272 170.952C135.272 170.952 137.591 166.387 135.074 163.612C133.973 162.392 137.74 156.789 134.082 156.495C133.275 156.505 132.49 156.767 131.832 157.247C128.68 159.087 121.999 159.565 120.493 160.409C120.354 159.636 121.702 154.919 120.493 154.604C116.062 153.465 107.359 174.887 107.359 174.887C107.359 174.887 52.6834 194.205 52.6834 193.402C52.6834 192.599 49.8188 133.984 38.0431 121.163Z" fill="white"/>
<path d="M32.8986 239.998C31.7612 240.024 30.6354 239.758 29.623 239.226C28.6106 238.693 27.7435 237.911 27.1 236.948C22.808 231.346 17.1878 164.659 23.2739 138.997C26.2475 126.339 37.716 120.808 37.8349 120.757C37.9284 120.711 38.0337 120.697 38.1353 120.718C38.2369 120.738 38.3296 120.791 38.3999 120.869C49.8188 133.283 52.8717 186.834 53.1691 192.924C57.2628 191.907 86.9697 181.628 106.992 174.562C107.428 173.545 109.431 168.756 111.83 164.161C115.636 156.911 118.51 153.648 120.622 154.197C121.9 154.522 121.514 156.871 121.177 158.945C121.177 159.199 121.088 159.484 121.048 159.728C121.811 159.494 122.892 159.291 124.16 159.036C126.668 158.548 129.781 157.938 131.594 156.881C132.341 156.354 133.226 156.071 134.132 156.068C134.462 156.073 134.786 156.154 135.082 156.306C135.377 156.457 135.635 156.674 135.837 156.942C136.551 157.959 136.114 159.616 135.738 161.07C135.53 161.883 135.203 163.103 135.44 163.368C137.79 165.97 136.362 169.834 135.857 170.973C136.23 171.461 136.416 172.072 136.382 172.691C136.303 174.643 134.34 176.758 133.408 177.724C133.934 178.181 134.499 179.137 134.231 181.049C133.825 183.967 124.101 190.758 122.991 191.521C122.445 191.887 68.4141 227.94 52.049 233.939C49.7494 234.783 47.6777 235.576 45.8142 236.287C39.9066 238.494 35.9417 239.998 32.8986 239.998ZM37.9241 121.784C36.0804 122.8 26.8522 128.179 24.2453 139.17C18.407 163.764 23.7497 230.868 27.8831 236.257C31.273 240.69 35.1289 239.205 45.4574 235.24C47.3209 234.528 49.4223 233.735 51.6922 232.891C67.9482 226.923 121.88 190.941 122.426 190.585C126.46 187.789 132.972 182.675 133.23 180.815C133.547 178.568 132.477 178.212 132.437 178.202C132.349 178.176 132.269 178.127 132.207 178.059C132.144 177.991 132.1 177.907 132.08 177.815C132.063 177.727 132.068 177.635 132.096 177.55C132.124 177.464 132.173 177.388 132.239 177.327C133.091 176.585 135.321 174.277 135.391 172.559C135.404 172.331 135.37 172.104 135.289 171.891C135.209 171.679 135.085 171.487 134.925 171.329C134.849 171.252 134.8 171.152 134.784 171.044C134.767 170.936 134.786 170.825 134.836 170.729C134.836 170.729 136.957 166.448 134.717 163.968C134.102 163.297 134.419 162.097 134.776 160.714C135.133 159.331 135.47 158.081 135.024 157.43C134.901 157.285 134.749 157.17 134.577 157.092C134.406 157.015 134.22 156.978 134.033 156.983C133.321 157.015 132.634 157.254 132.05 157.674C130.068 158.823 126.896 159.443 124.319 159.951C123.09 160.125 121.881 160.425 120.711 160.846C120.64 160.884 120.562 160.903 120.483 160.903C120.404 160.903 120.325 160.884 120.255 160.846C120.185 160.812 120.123 160.761 120.077 160.697C120.03 160.634 119.999 160.559 119.987 160.48C119.964 159.875 120.024 159.269 120.166 158.681C120.314 157.776 120.711 155.386 120.344 155.071C117.37 154.339 111.096 166.936 107.795 175.06C107.769 175.127 107.728 175.187 107.677 175.236C107.626 175.285 107.565 175.322 107.498 175.345C53.3079 194.48 52.6537 194.012 52.386 193.808C52.3193 193.76 52.2647 193.696 52.2268 193.622C52.1889 193.548 52.1687 193.465 52.168 193.381C52.1977 192.863 49.452 135.103 37.9241 121.784Z" fill="#21005D"/>
<path d="M35.8029 199.055C35.6944 199.054 35.5891 199.017 35.5031 198.949C35.4172 198.881 35.3553 198.786 35.3271 198.679C35.309 198.615 35.3034 198.549 35.3106 198.483C35.3178 198.417 35.3376 198.354 35.369 198.296C35.4004 198.238 35.4426 198.188 35.4933 198.147C35.544 198.106 35.602 198.076 35.6641 198.058C37.0419 197.662 52.3959 192.975 52.5149 192.904C52.5794 192.874 52.6495 192.858 52.7204 192.858C52.7913 192.858 52.8613 192.874 52.9257 192.904C52.9901 192.935 53.0475 192.979 53.0939 193.034C53.1403 193.089 53.1747 193.153 53.1947 193.223C53.2148 193.293 53.22 193.366 53.2101 193.438C53.2001 193.51 53.1752 193.579 53.1371 193.64C53.099 193.701 53.0485 193.754 52.989 193.793C52.9296 193.833 52.8625 193.859 52.7924 193.869C52.158 194.073 37.2798 198.638 35.8921 199.034L35.8029 199.055Z" fill="#21005D"/>
<path d="M264.993 146.185C264.993 146.185 261.91 194.602 245.724 208.887C234.533 218.769 226.107 211.001 214.708 205.257C206.937 201.286 199.546 196.575 192.634 191.185C189.96 189.049 187.145 187.106 184.208 185.37C179.391 182.635 174.187 180.916 168.21 181.669C164.82 182.096 157.852 184.892 155.324 181.272C154.932 180.755 154.741 180.106 154.788 179.452C154.836 178.798 155.119 178.186 155.582 177.734C154.685 177.237 153.929 176.508 153.391 175.619C153.128 175.17 153.043 174.634 153.156 174.122C153.269 173.61 153.57 173.163 153.996 172.874C153.232 172.41 152.67 171.664 152.425 170.789C152.18 169.914 152.271 168.976 152.678 168.167C149.704 167.333 150.695 164.161 153.015 163.429C158.794 161.622 164.704 160.286 170.688 159.433C170.688 159.433 186.27 162.483 193.318 165.533C200.365 168.583 227.545 177.937 227.545 177.937L233.343 142.881" fill="white"/>
<path d="M234.84 214.153C229.805 214.153 224.997 211.479 219.764 208.571C218.069 207.636 216.314 206.66 214.49 205.735C206.692 201.747 199.275 197.019 192.336 191.612C189.679 189.495 186.884 187.566 183.971 185.837C178.449 182.706 173.464 181.547 168.27 182.197C167.536 182.289 166.594 182.502 165.593 182.726C161.995 183.55 157.069 184.678 154.918 181.587C154.533 181.046 154.317 180.398 154.298 179.729C154.278 179.059 154.456 178.4 154.809 177.836C154.037 177.351 153.399 176.672 152.955 175.863C152.72 175.403 152.615 174.885 152.654 174.367C152.693 173.849 152.873 173.353 153.173 172.935C152.58 172.394 152.153 171.687 151.944 170.902C151.717 170.095 151.734 169.237 151.994 168.441C151.52 168.278 151.106 167.971 150.806 167.56C150.507 167.15 150.337 166.656 150.319 166.143C150.369 165.401 150.646 164.694 151.11 164.123C151.575 163.552 152.203 163.145 152.906 162.961C158.714 161.145 164.653 159.805 170.668 158.955H170.748C170.906 158.955 186.459 162.076 193.466 165.055C199.86 167.801 223.203 175.914 227.108 177.256L232.818 142.789C232.829 142.722 232.853 142.659 232.888 142.601C232.923 142.544 232.969 142.494 233.023 142.455C233.076 142.416 233.137 142.388 233.202 142.373C233.266 142.358 233.333 142.356 233.398 142.367C233.463 142.379 233.525 142.403 233.581 142.439C233.637 142.475 233.685 142.522 233.724 142.577C233.762 142.632 233.789 142.695 233.804 142.761C233.818 142.827 233.82 142.895 233.809 142.962L228.001 178.019C227.99 178.09 227.964 178.158 227.924 178.218C227.885 178.278 227.833 178.328 227.773 178.364C227.711 178.402 227.641 178.426 227.57 178.435C227.498 178.444 227.425 178.437 227.356 178.415C227.089 178.324 200.068 168.99 193.09 165.991C186.439 163.144 171.868 160.195 170.649 159.951C164.718 160.798 158.861 162.124 153.134 163.917C152.638 164.045 152.193 164.328 151.861 164.727C151.529 165.126 151.326 165.621 151.28 166.143C151.28 166.865 151.825 167.404 152.777 167.668C152.85 167.689 152.917 167.726 152.974 167.777C153.03 167.828 153.075 167.892 153.104 167.963C153.138 168.033 153.156 168.109 153.156 168.187C153.156 168.265 153.138 168.341 153.104 168.411C152.743 169.107 152.66 169.919 152.87 170.678C153.081 171.436 153.57 172.081 154.234 172.478C154.311 172.522 154.376 172.587 154.421 172.666C154.467 172.744 154.491 172.834 154.492 172.925C154.493 173.018 154.469 173.109 154.421 173.189C154.374 173.268 154.306 173.332 154.224 173.372C153.934 173.609 153.736 173.943 153.665 174.316C153.595 174.689 153.656 175.075 153.837 175.406C154.332 176.209 155.013 176.873 155.82 177.338C155.885 177.383 155.939 177.445 155.976 177.516C156.013 177.588 156.032 177.668 156.032 177.749C156.032 177.83 156.013 177.91 155.976 177.982C155.939 178.054 155.885 178.115 155.82 178.161C155.466 178.536 155.256 179.03 155.229 179.551C155.201 180.072 155.359 180.586 155.671 180.998C157.436 183.54 161.807 182.533 165.326 181.74C166.317 181.506 167.308 181.282 168.091 181.181C173.503 180.5 178.687 181.699 184.387 184.953C187.344 186.698 190.179 188.651 192.872 190.799C199.761 196.166 207.125 200.86 214.867 204.82C216.711 205.755 218.475 206.731 220.18 207.677C229.101 212.659 236.208 216.593 245.347 208.52C261.206 194.53 264.408 146.663 264.438 146.175C264.443 146.108 264.461 146.043 264.49 145.983C264.52 145.923 264.561 145.87 264.611 145.827C264.66 145.783 264.718 145.75 264.78 145.73C264.842 145.709 264.908 145.702 264.973 145.707C265.038 145.711 265.101 145.728 265.159 145.757C265.217 145.787 265.269 145.828 265.312 145.878C265.354 145.928 265.387 145.987 265.407 146.05C265.427 146.113 265.434 146.18 265.429 146.246C264.791 154.998 263.626 163.701 261.94 172.305C258.213 190.85 252.88 203.295 246.08 209.293C242.056 212.821 238.389 214.153 234.84 214.153Z" fill="#21005D"/>
<path d="M235.593 105.577L242.413 121.052C242.69 121.842 243.166 122.543 243.791 123.085C244.115 123.342 244.524 123.461 244.932 123.418C245.34 123.374 245.715 123.171 245.981 122.851C246.113 122.549 246.182 122.222 246.182 121.89C246.182 121.559 246.113 121.232 245.981 120.93C245.474 119.296 244.844 117.705 244.098 116.171L250.551 124.498C251.542 125.749 252.395 127.406 254.129 127.548C254.377 127.586 254.63 127.543 254.853 127.426C255.051 127.266 255.202 127.05 255.286 126.806C255.37 126.561 255.385 126.297 255.329 126.044C255.26 125.459 255.06 124.899 254.744 124.407C255.235 124.824 255.806 125.132 256.419 125.312C257.162 125.474 258.302 125.129 258.015 124.163C257.668 123.187 257.162 122.28 256.518 121.479C256.916 122.086 257.482 122.557 258.144 122.831C258.342 122.862 258.545 122.84 258.733 122.767C258.921 122.694 259.087 122.571 259.215 122.413C259.342 122.254 259.428 122.063 259.463 121.861C259.497 121.658 259.48 121.449 259.412 121.255C259.258 120.795 259.023 120.367 258.719 119.994C259.105 120.401 259.591 120.848 260.136 120.726C260.378 120.647 260.587 120.486 260.729 120.271C260.871 120.055 260.938 119.796 260.919 119.537C260.862 119.018 260.682 118.522 260.394 118.093C259.551 116.588 256.161 111.372 255.438 110.173C254.035 107.864 252.408 105.708 250.581 103.737C247.428 100.489 243.77 97.8019 239.756 95.7859" fill="white"/>
<path d="M254.278 128.087H254.08C252.414 127.955 251.463 126.644 250.63 125.484L250.154 124.844L245.991 119.476C246.15 119.913 246.299 120.36 246.437 120.808C246.606 121.175 246.694 121.576 246.694 121.982C246.694 122.388 246.606 122.789 246.437 123.156C246.31 123.353 246.145 123.521 245.952 123.65C245.76 123.779 245.544 123.867 245.317 123.909C244.704 124.028 244.069 123.892 243.553 123.532C242.847 122.934 242.313 122.15 242.007 121.265L235.177 105.78C235.149 105.72 235.133 105.655 235.129 105.589C235.126 105.522 235.136 105.456 235.158 105.393C235.18 105.331 235.214 105.273 235.258 105.225C235.303 105.176 235.356 105.137 235.415 105.109C235.535 105.054 235.671 105.05 235.793 105.098C235.916 105.145 236.015 105.241 236.069 105.363L242.889 120.838C243.132 121.553 243.552 122.19 244.108 122.688C244.399 122.889 244.753 122.969 245.099 122.912C245.196 122.895 245.29 122.859 245.373 122.805C245.456 122.751 245.528 122.68 245.585 122.597C245.671 122.356 245.709 122.099 245.697 121.843C245.685 121.586 245.623 121.334 245.515 121.102C245.018 119.493 244.398 117.926 243.662 116.415C243.606 116.304 243.594 116.175 243.627 116.054C243.66 115.934 243.736 115.83 243.84 115.765C243.944 115.697 244.068 115.671 244.188 115.692C244.309 115.712 244.418 115.778 244.495 115.876L250.947 124.203C251.116 124.417 251.284 124.641 251.443 124.874C252.226 125.952 252.96 126.969 254.169 127.071C254.32 127.09 254.474 127.069 254.615 127.01C254.833 126.888 254.883 126.481 254.843 126.125C254.785 125.618 254.615 125.132 254.347 124.702C254.284 124.602 254.256 124.483 254.269 124.365C254.283 124.248 254.336 124.138 254.419 124.056C254.503 123.974 254.612 123.924 254.727 123.916C254.842 123.908 254.957 123.941 255.051 124.01C255.48 124.39 255.984 124.671 256.528 124.834C256.697 124.88 256.875 124.885 257.047 124.85C257.218 124.815 257.38 124.74 257.519 124.63C257.519 124.63 257.618 124.529 257.519 124.325C257.195 123.406 256.715 122.553 256.102 121.804V121.804C256.063 121.751 256.035 121.691 256.019 121.628C256.003 121.564 255.999 121.497 256.008 121.432C256.018 121.367 256.039 121.304 256.072 121.247C256.105 121.191 256.149 121.142 256.201 121.102C256.307 121.024 256.438 120.991 256.568 121.01C256.697 121.029 256.814 121.098 256.895 121.204C257.219 121.713 257.681 122.116 258.223 122.363C258.313 122.391 258.409 122.393 258.5 122.367C258.592 122.342 258.674 122.291 258.738 122.221C258.829 122.112 258.892 121.981 258.922 121.841C258.951 121.701 258.946 121.555 258.907 121.418C258.776 121.018 258.57 120.649 258.302 120.33C258.229 120.225 258.197 120.096 258.212 119.968C258.227 119.841 258.287 119.723 258.382 119.638C258.473 119.551 258.594 119.503 258.719 119.503C258.844 119.503 258.964 119.551 259.056 119.638C259.323 119.923 259.72 120.279 260.047 120.228C260.374 120.177 260.443 119.821 260.443 119.537C260.391 119.104 260.234 118.692 259.987 118.337C259.412 117.32 257.658 114.565 256.369 112.552L255.001 110.467C253.616 108.185 252.009 106.053 250.204 104.103C247.095 100.892 243.483 98.2385 239.519 96.2536C239.461 96.2235 239.41 96.1822 239.369 96.132C239.327 96.0818 239.295 96.0236 239.276 95.9608C239.256 95.898 239.248 95.8318 239.253 95.7661C239.258 95.7003 239.276 95.6362 239.305 95.5775C239.335 95.5187 239.375 95.4665 239.424 95.4237C239.473 95.3809 239.53 95.3484 239.591 95.3281C239.652 95.3078 239.717 95.3001 239.781 95.3054C239.845 95.3107 239.907 95.3288 239.965 95.3589C244.011 97.3968 247.697 100.115 250.868 103.401C252.734 105.393 254.395 107.577 255.824 109.918C256.062 110.305 256.568 111.088 257.162 112.033C258.461 114.067 260.225 116.822 260.81 117.859C261.147 118.359 261.348 118.941 261.395 119.547C261.42 119.925 261.317 120.3 261.104 120.609C260.891 120.918 260.581 121.143 260.225 121.245H259.908C259.963 121.533 259.952 121.83 259.874 122.113C259.797 122.395 259.656 122.655 259.462 122.871C259.307 123.044 259.116 123.177 258.902 123.26C258.689 123.342 258.46 123.373 258.233 123.349C258.322 123.563 258.401 123.776 258.471 124C258.549 124.216 258.567 124.45 258.523 124.676C258.479 124.902 258.375 125.112 258.223 125.281C257.967 125.521 257.659 125.693 257.324 125.783C256.989 125.874 256.637 125.879 256.3 125.8C256.112 125.749 255.926 125.688 255.745 125.617C255.774 125.737 255.794 125.859 255.804 125.983C255.88 126.332 255.853 126.696 255.726 127.03C255.599 127.363 255.377 127.65 255.091 127.853C254.846 128.006 254.565 128.087 254.278 128.087Z" fill="#21005D"/>
<path d="M183.921 85.944C182.94 86.0035 181.958 85.8536 181.037 85.5035C180.115 85.1535 179.275 84.611 178.568 83.9105C175.595 80.7485 176.338 75.1768 176.368 74.943C176.377 74.8762 176.399 74.812 176.432 74.7539C176.465 74.6958 176.51 74.645 176.562 74.6044C176.615 74.5638 176.674 74.5342 176.738 74.5173C176.802 74.5003 176.868 74.4965 176.933 74.5058C176.998 74.5151 177.061 74.5376 177.117 74.5717C177.174 74.6059 177.223 74.6512 177.263 74.705C177.303 74.7588 177.331 74.8201 177.348 74.8854C177.364 74.9506 177.368 75.0186 177.359 75.0853C177.359 75.0853 176.645 80.4028 179.342 83.2191C180.68 84.6324 182.682 85.2526 185.289 84.8967C193.427 83.9715 197.114 71.6793 197.183 71.5573C197.222 71.4225 197.31 71.3087 197.43 71.241C197.55 71.1733 197.691 71.1573 197.823 71.1964C197.954 71.2355 198.065 71.3265 198.131 71.4495C198.197 71.5725 198.213 71.7173 198.175 71.8521C198.016 72.391 194.259 84.9069 185.467 85.9135C184.953 85.9528 184.437 85.963 183.921 85.944V85.944Z" fill="#21005D"/>
<path d="M178.896 61.3799C178.896 61.3799 180.194 58.8482 182.087 58.7059C183.98 58.5635 184.684 61.3799 184.684 61.3799" fill="white"/>
<path d="M178.895 61.8882C178.817 61.8751 178.742 61.8438 178.677 61.7967C178.62 61.7658 178.57 61.7235 178.529 61.6724C178.488 61.6212 178.457 61.5622 178.439 61.4988C178.421 61.4354 178.415 61.3688 178.421 61.303C178.428 61.2372 178.448 61.1735 178.479 61.1155C178.529 61.0037 179.936 58.3297 182.067 58.167C184.199 58.0043 185.15 61.085 185.19 61.2172C185.206 61.282 185.21 61.3494 185.201 61.4157C185.192 61.4819 185.17 61.5457 185.137 61.6033C185.104 61.6609 185.06 61.7112 185.008 61.7514C184.955 61.7916 184.896 61.8208 184.833 61.8374C184.707 61.8717 184.572 61.8536 184.459 61.7869C184.346 61.7203 184.263 61.6106 184.228 61.4815C184.228 61.4815 183.584 59.1024 182.147 59.1736C180.551 59.3057 179.361 61.5629 179.351 61.5934C179.31 61.6817 179.246 61.7562 179.165 61.8083C179.084 61.8605 178.991 61.8882 178.895 61.8882V61.8882Z" fill="#21005D"/>
<path d="M190.413 64.064C190.413 64.064 191.722 61.5324 193.605 61.39C195.489 61.2477 196.212 64.064 196.212 64.064" fill="white"/>
<path d="M190.413 64.5724C190.334 64.5729 190.255 64.5519 190.185 64.5114C190.07 64.4487 189.984 64.342 189.945 64.2146C189.906 64.0871 189.918 63.949 189.977 63.8302C190.037 63.7082 191.434 61.0444 193.575 60.8817C195.717 60.719 196.658 63.7997 196.688 63.9319C196.722 64.0667 196.703 64.2099 196.634 64.33C196.565 64.4502 196.453 64.5373 196.321 64.5724C196.19 64.6075 196.05 64.5875 195.933 64.517C195.816 64.4464 195.731 64.331 195.697 64.1962C195.697 64.1962 195.082 61.7764 193.605 61.8882C192.128 62.0001 190.83 64.2775 190.82 64.2979C190.78 64.375 190.722 64.4406 190.651 64.4886C190.58 64.5366 190.498 64.5654 190.413 64.5724V64.5724Z" fill="#21005D"/>
<path d="M8.27674 155.569C8.01851 155.322 7.8331 155.005 7.74148 154.654C7.67679 154.441 7.6271 154.224 7.5928 154.004C7.5928 153.953 7.5928 153.841 7.5928 153.821V153.363C7.61874 152.354 7.5188 151.346 7.29543 150.364C6.7007 148.513 4.60922 146.297 2.62678 147.741C2.51028 147.807 2.40774 147.897 2.32501 148.004C2.24229 148.112 2.181 148.235 2.14464 148.367C2.10828 148.498 2.09757 148.636 2.11312 148.772C2.12867 148.908 2.17017 149.039 2.23525 149.159C2.30034 149.278 2.38773 149.384 2.49244 149.468C2.59716 149.553 2.71714 149.616 2.84554 149.653C2.97394 149.691 3.10824 149.702 3.24078 149.686C3.37332 149.67 3.5015 149.627 3.618 149.561C3.67077 149.521 3.72721 149.487 3.78651 149.459V149.459H3.98476L4.11361 149.51L4.29203 149.622L4.50019 149.835C4.56147 149.895 4.61783 149.959 4.66869 150.028L4.77773 150.181C4.88369 150.349 4.97649 150.526 5.05527 150.709L5.11475 150.882C5.11475 150.984 5.17422 151.075 5.20395 151.177C5.23369 151.279 5.20395 151.35 5.20395 151.37V151.624C5.34273 153.505 5.20396 155.61 6.6214 157.023C6.81462 157.221 7.07669 157.333 7.34995 157.333C7.62321 157.333 7.88527 157.221 8.0785 157.023C8.27172 156.825 8.38027 156.556 8.38027 156.276C8.38027 155.996 8.27172 155.727 8.0785 155.529L8.27674 155.569Z" fill="#EADDFF"/>
<path d="M272.516 83.819C272.486 83.6817 272.428 83.5524 272.346 83.4392C272.264 83.3261 272.16 83.2317 272.041 83.1619C271.922 83.0921 271.79 83.0485 271.653 83.0339C271.516 83.0192 271.378 83.0338 271.248 83.0768C268.898 84.0122 266.351 85.0391 264.705 87.1437C264.009 88.1156 263.43 89.1705 262.981 90.2854C262.574 91.1496 262.108 92.0647 261.306 92.3188C260.057 92.7459 260.592 94.7895 261.851 94.3523C264.269 93.5389 264.676 90.9564 265.885 89.0145C267.094 87.0725 269.662 85.9643 271.832 85.1204C272.087 85.0338 272.299 84.8509 272.426 84.609C272.553 84.3671 272.586 84.0845 272.516 83.819V83.819Z" fill="#EADDFF"/>
<path d="M67.0363 20.5787C64.577 19.3407 61.8365 18.8102 59.1065 19.0434C58.849 19.0602 58.6063 19.1727 58.4238 19.3598C58.2413 19.547 58.1317 19.796 58.1153 20.0601C58.1153 20.3298 58.2197 20.5884 58.4056 20.7791C58.5915 20.9697 58.8436 21.0768 59.1065 21.0768C61.4874 20.8331 63.8878 21.2657 66.0451 22.3274C66.2834 22.4596 66.562 22.4933 66.8237 22.4214C67.0855 22.3496 67.3105 22.1777 67.4526 21.9411C67.5716 21.7034 67.5947 21.4273 67.5168 21.1723C67.4389 20.9173 67.2663 20.7041 67.0363 20.5787Z" fill="#EADDFF"/>
<path d="M245.387 37.9342C243.137 38.5442 242.244 40.9233 242.106 43.0991C241.967 45.4274 243.097 48.1828 241.788 50.2162C241.065 51.3651 242.849 52.4225 243.563 51.2329C244.941 49.0266 244.306 46.5052 244.167 44.1159C244.078 42.6721 244.296 40.3743 245.932 39.9269C246.189 39.8528 246.408 39.6767 246.539 39.4374C246.67 39.1981 246.703 38.9152 246.631 38.651C246.558 38.3867 246.387 38.1627 246.153 38.0283C245.92 37.8939 245.644 37.86 245.387 37.9342V37.9342Z" fill="#EADDFF"/>
<path d="M123.843 26.6892C123.618 26.1439 123.314 25.6366 122.941 25.1844C122.866 25.0822 122.799 24.9733 122.743 24.8591V24.8591C122.964 24.7552 123.143 24.5758 123.25 24.3514C123.357 24.127 123.384 23.8716 123.328 23.6288C123.249 23.3619 123.074 23.1361 122.838 22.998C122.602 22.8599 122.323 22.82 122.059 22.8866C121.719 22.968 121.411 23.1519 121.174 23.4147C120.937 23.6775 120.783 24.0071 120.731 24.3609C120.674 24.7366 120.696 25.1204 120.796 25.4867C120.895 25.8531 121.068 26.1936 121.306 26.4858C121.682 26.9942 122.069 27.3806 121.781 28.0414C121.478 28.6196 121.059 29.1254 120.552 29.5258C119.561 30.4714 118.421 31.6305 118.57 33.1759C118.581 33.529 118.664 33.8758 118.813 34.1941C118.963 34.5123 119.175 34.795 119.438 35.0238C119.7 35.2527 120.006 35.4227 120.336 35.523C120.667 35.6232 121.014 35.6514 121.355 35.6059C121.488 35.5734 121.613 35.513 121.722 35.4286C121.831 35.3442 121.922 35.2375 121.989 35.1153C122.056 34.993 122.098 34.8579 122.112 34.7184C122.125 34.5788 122.111 34.4379 122.069 34.3045C121.992 34.0361 121.817 33.8087 121.581 33.6702C121.344 33.5318 121.064 33.493 120.8 33.5623C120.969 33.5623 120.879 33.5623 120.869 33.5623C120.793 33.4852 120.73 33.3959 120.681 33.2979C120.619 33.1563 120.594 33.0011 120.606 32.8465C120.618 32.692 120.668 32.543 120.75 32.4134C121.246 31.478 122.257 30.9188 122.901 30.1054C123.327 29.6641 123.637 29.1193 123.802 28.5218C123.966 27.9244 123.981 27.2938 123.843 26.6892V26.6892Z" fill="#EADDFF"/>
<path d="M19.6163 42.8755C19.0272 42.0585 18.5191 41.1831 18.0997 40.2625C17.8367 39.4708 17.8114 38.6164 18.027 37.8098C18.2426 37.0032 18.6892 36.2815 19.309 35.7381C19.5221 35.5889 19.6749 35.3651 19.7388 35.1087C19.8026 34.8524 19.7732 34.5809 19.6559 34.3451C19.5914 34.2217 19.5027 34.1132 19.3954 34.0266C19.2881 33.9399 19.1644 33.877 19.0323 33.8417C18.9001 33.8064 18.7623 33.7994 18.6274 33.8213C18.4925 33.8432 18.3635 33.8935 18.2484 33.9689C17.3831 34.6409 16.7064 35.5356 16.2869 36.5622C15.8674 37.5889 15.7199 38.7111 15.8596 39.8151C16.0362 40.9202 16.4678 41.966 17.1184 42.8653C17.614 43.6177 18.4466 44.5531 18.1096 45.5189C18.0693 45.6525 18.0563 45.7931 18.0714 45.932C18.0864 46.0709 18.1293 46.2051 18.1972 46.3263C18.2651 46.4475 18.3566 46.553 18.466 46.6362C18.5755 46.7195 18.7005 46.7787 18.8332 46.8102C19.1011 46.8716 19.3818 46.8229 19.6152 46.6747C19.8487 46.5265 20.0162 46.2905 20.0822 46.0172C20.2361 45.4908 20.2742 44.9359 20.1937 44.3926C20.1131 43.8493 19.9159 43.3311 19.6163 42.8755V42.8755Z" fill="#EADDFF"/>
<path d="M18.4269 76.1529C17.9848 76.1506 17.5438 76.1098 17.1085 76.0309C16.8823 75.9903 16.66 75.929 16.4444 75.8479C16.2887 75.7967 16.1416 75.7212 16.0083 75.6242C15.9488 75.6242 15.9488 75.6242 16.0083 75.6242C15.9674 75.5959 15.9306 75.5616 15.8992 75.5225C15.8992 75.5225 15.6713 75.248 15.7506 75.37C15.6425 75.1855 15.5686 74.9822 15.5325 74.7702C15.4465 74.1946 15.2439 73.6439 14.9378 73.1536C13.5897 71.2828 10.9729 72.0555 9.33736 72.9604C9.22086 73.0272 9.11832 73.1168 9.03559 73.2242C8.95287 73.3316 8.89157 73.4547 8.85521 73.5864C8.81886 73.7181 8.80815 73.8558 8.82369 73.9918C8.83924 74.1277 8.88074 74.2592 8.94583 74.3787C9.01091 74.4982 9.0983 74.6034 9.20302 74.6883C9.30773 74.7731 9.42771 74.836 9.55611 74.8733C9.68451 74.9106 9.81882 74.9215 9.95136 74.9056C10.0839 74.8897 10.2121 74.8471 10.3286 74.7803C10.6747 74.5849 11.0402 74.4281 11.4189 74.3126C11.7623 74.1855 12.1244 74.1202 12.4894 74.1195H12.6976H12.8958H12.995L13.104 74.1805C13.1635 74.2415 13.2428 74.3228 13.1635 74.1805C13.2119 74.2372 13.2551 74.2985 13.2923 74.3635C13.3872 74.6375 13.4569 74.92 13.5005 75.2074C14.0357 77.5458 16.3056 78.0745 18.3476 78.1457C19.7551 78.3185 19.7452 76.2038 18.4269 76.1529Z" fill="#EADDFF"/>
<path d="M153.897 66.2805L148.247 64.9994C147.958 64.2511 147.526 63.5698 146.976 62.9958C146.425 62.4218 145.769 61.9669 145.044 61.6579C144.32 61.3488 143.542 61.192 142.757 61.1966C141.973 61.2013 141.197 61.3673 140.476 61.6849C140.354 61.751 140.247 61.8424 140.162 61.9533C140.076 62.0641 140.014 62.1921 139.98 62.3289C139.945 62.4657 139.939 62.6084 139.961 62.7478C139.983 62.8873 140.034 63.0204 140.109 63.1388C140.253 63.3737 140.478 63.5435 140.74 63.6134C141.002 63.6833 141.279 63.6481 141.517 63.515C142.011 63.3222 142.54 63.2392 143.068 63.2715C143.595 63.3039 144.111 63.4508 144.579 63.7026C145.048 63.9544 145.459 64.3053 145.785 64.7322C146.112 65.1591 146.346 65.6521 146.473 66.1788C146.522 66.3551 146.615 66.5156 146.741 66.6454C146.868 66.7751 147.024 66.87 147.196 66.921L153.401 68.3241C154.64 68.6088 155.195 66.5754 153.897 66.2805Z" fill="#EADDFF"/>
<path d="M259.581 191.694L258.074 192.029C257.261 190.574 256.015 189.425 254.518 188.752C253.02 188.078 251.352 187.915 249.758 188.288C249.628 188.324 249.506 188.387 249.399 188.472C249.293 188.557 249.204 188.663 249.137 188.783C249.07 188.904 249.027 189.036 249.01 189.174C248.994 189.311 249.003 189.45 249.039 189.584C249.075 189.717 249.136 189.842 249.219 189.952C249.302 190.061 249.405 190.153 249.522 190.221C249.64 190.289 249.769 190.334 249.903 190.351C250.037 190.368 250.173 190.358 250.303 190.321C251.539 190.039 252.832 190.201 253.965 190.78C255.099 191.36 256.003 192.321 256.528 193.503C256.608 193.769 256.784 193.993 257.02 194.131C257.255 194.269 257.533 194.31 257.797 194.246L260.126 193.717C261.425 193.432 260.869 191.399 259.581 191.694Z" fill="#EADDFF"/>
<path d="M13.4311 193.188C13.0441 192.801 12.5247 192.584 11.9839 192.584C11.4431 192.584 10.9237 192.801 10.5367 193.188C10.2725 193.452 10.0634 193.769 9.922 194.118C9.78058 194.468 9.70981 194.843 9.71398 195.222C8.44156 195.243 7.17478 195.044 5.96716 194.632C5.70428 194.557 5.42292 194.591 5.18498 194.729C4.94704 194.866 4.77201 195.094 4.6984 195.364C4.6248 195.634 4.65863 195.922 4.79247 196.166C4.92631 196.41 5.14919 196.59 5.41208 196.665C7.14418 197.24 8.97255 197.444 10.7845 197.265C11.29 197.215 11.8748 196.818 11.7757 196.249C11.756 195.937 11.756 195.625 11.7757 195.313C11.7708 195.249 11.7708 195.184 11.7757 195.12C11.7711 195.09 11.7711 195.059 11.7757 195.029C11.791 194.956 11.8108 194.885 11.8352 194.815C11.8352 194.866 11.8352 194.815 11.8352 194.815H11.9046C11.9972 194.915 12.1086 194.995 12.2322 195.049C12.3557 195.103 12.4888 195.131 12.6232 195.131C12.7577 195.131 12.8907 195.103 13.0142 195.049C13.1378 194.995 13.2492 194.915 13.3418 194.815C13.4611 194.721 13.5591 194.601 13.6293 194.464C13.6995 194.327 13.7402 194.177 13.7487 194.023C13.7572 193.868 13.7332 193.714 13.6784 193.57C13.6236 193.426 13.5392 193.296 13.4311 193.188V193.188Z" fill="#EADDFF"/>
<path d="M206.67 14.0106C205.609 14.6715 204.36 14.214 203.299 13.7666C202.264 13.2279 201.178 12.7987 200.058 12.4855C198.026 12.0992 195.469 12.4855 194.844 14.8748C194.808 15.0083 194.799 15.1478 194.815 15.2852C194.832 15.4226 194.875 15.5553 194.942 15.6757C195.009 15.796 195.098 15.9017 195.204 15.9868C195.311 16.0718 195.433 16.1344 195.563 16.1712C195.693 16.2079 195.829 16.2179 195.963 16.2008C196.097 16.1836 196.226 16.1395 196.344 16.0711C196.461 16.0026 196.564 15.9111 196.647 15.8018C196.73 15.6925 196.791 15.5675 196.827 15.434C196.917 15.1544 197.091 14.9112 197.324 14.7395C197.558 14.5678 197.838 14.4763 198.125 14.4783C199.007 14.3837 199.898 14.5238 200.712 14.885C202.923 15.8102 205.371 17.315 207.71 15.8306C208.83 15.0782 207.8 13.2481 206.67 14.0106Z" fill="#EADDFF"/>
<path d="M149.932 25.6521C149.894 25.5227 149.822 25.4066 149.724 25.3166L149.536 25.1946C149.375 25.1016 149.194 25.0526 149.01 25.0522H148.743C148.569 25.0997 148.412 25.1946 148.287 25.3268L147.702 25.9165C147.605 26.0121 147.534 26.1309 147.494 26.2621C147.424 26.3851 147.393 26.5271 147.404 26.6688C147.395 26.8105 147.426 26.9519 147.494 27.0755C147.531 27.2049 147.604 27.3211 147.702 27.4111L147.91 27.5839C148.071 27.6761 148.251 27.725 148.435 27.7262H148.713C148.883 27.6771 149.037 27.5823 149.159 27.4517L149.744 26.862C149.84 26.7664 149.912 26.6476 149.952 26.5163C150.022 26.3934 150.053 26.2514 150.041 26.1096C150.056 25.9489 150.017 25.7878 149.932 25.6521V25.6521Z" fill="#EADDFF"/>
<path d="M104.108 0.650825C104.07 0.521425 103.998 0.405298 103.9 0.315304C103.807 0.213345 103.691 0.136501 103.563 0.0916267C103.44 0.0291612 103.304 -0.00221182 103.166 0.000121224H102.899C102.725 0.0475953 102.568 0.142476 102.443 0.274638L102.284 0.488149C102.188 0.647014 102.137 0.829947 102.135 1.01685V1.61672C102.134 1.75751 102.165 1.89669 102.225 2.0234C102.266 2.15351 102.342 2.26952 102.443 2.35893C102.527 2.46564 102.641 2.54361 102.77 2.5826C102.894 2.64298 103.029 2.67424 103.166 2.67411H103.444C103.617 2.62663 103.775 2.53176 103.9 2.3996L104.058 2.18608C104.151 2.02618 104.199 1.84331 104.197 1.65738V1.05751C104.207 0.915901 104.176 0.774441 104.108 0.650825V0.650825Z" fill="#EADDFF"/>
<path d="M280 118.642C279.954 118.464 279.861 118.302 279.732 118.174L279.524 118.012C279.368 117.917 279.19 117.867 279.009 117.869H278.424C278.287 117.861 278.151 117.889 278.027 117.951C277.902 117.997 277.79 118.074 277.7 118.174C277.601 118.265 277.526 118.381 277.482 118.51C277.423 118.637 277.393 118.776 277.393 118.916V119.201C277.439 119.379 277.532 119.541 277.661 119.669L277.869 119.831C278.025 119.926 278.203 119.976 278.384 119.974H278.969C279.106 119.983 279.243 119.955 279.366 119.892C279.491 119.846 279.603 119.769 279.693 119.669C279.795 119.58 279.871 119.464 279.911 119.333C279.969 119.202 279.999 119.06 280 118.916V118.642Z" fill="#EADDFF"/>
<path d="M132.764 75.0142C132.491 75.0142 132.228 75.1256 132.035 75.3239C131.842 75.5222 131.733 75.7911 131.733 76.0716C131.733 76.352 131.842 76.621 132.035 76.8193C132.228 77.0176 132.491 77.129 132.764 77.129C133.037 77.129 133.3 77.0176 133.493 76.8193C133.686 76.621 133.795 76.352 133.795 76.0716C133.795 75.7911 133.686 75.5222 133.493 75.3239C133.3 75.1256 133.037 75.0142 132.764 75.0142V75.0142Z" fill="#EADDFF"/>
<path d="M31.2135 58.9296C30.9401 58.9296 30.6779 59.041 30.4846 59.2393C30.2913 59.4376 30.1827 59.7065 30.1827 59.987C30.1827 60.2674 30.2913 60.5364 30.4846 60.7347C30.6779 60.933 30.9401 61.0444 31.2135 61.0444C31.487 61.0444 31.7492 60.933 31.9425 60.7347C32.1358 60.5364 32.2444 60.2674 32.2444 59.987C32.2444 59.7065 32.1358 59.4376 31.9425 59.2393C31.7492 59.041 31.487 58.9296 31.2135 58.9296Z" fill="#EADDFF"/>
<path d="M1.97257 98.2769C1.93022 98.1467 1.85892 98.0284 1.7643 97.9313C1.66968 97.8343 1.55433 97.7611 1.42739 97.7177C1.3071 97.6473 1.16901 97.6154 1.0309 97.6262C0.896427 97.624 0.762932 97.6499 0.638534 97.7024C0.514137 97.7548 0.401444 97.8327 0.307316 97.9312C0.116196 98.1334 0.00645938 98.402 3.20795e-05 98.6836V99.8731C-0.00113202 100.014 0.0294006 100.153 0.0892459 100.28C0.129184 100.414 0.204703 100.533 0.307316 100.626C0.395052 100.726 0.508259 100.8 0.634413 100.839C0.754709 100.909 0.892798 100.941 1.0309 100.931C1.30461 100.93 1.56743 100.82 1.7644 100.626C1.94871 100.42 2.05432 100.152 2.06177 99.8731V98.6836C2.07227 98.5419 2.04121 98.4003 1.97257 98.2769V98.2769Z" fill="#EADDFF"/>
</svg>
