<svg width="300" height="200" viewBox="0 0 300 200" fill="none" xmlns="http://www.w3.org/2000/svg">




<path d="M117.277 137.947L107.917 151.28L129.074 164.26L151.184 145.84C151.184 145.84 139.499 118.807 136.184 116.86C132.869 114.913 117.277 137.947 117.277 137.947Z" fill="white"/>
<path d="M129.075 164.62C128.999 164.62 128.926 164.599 128.865 164.56L107.707 151.58C107.627 151.531 107.571 151.457 107.552 151.372C107.532 151.288 107.55 151.2 107.602 151.127L116.955 137.793C117.54 136.94 130.875 117.393 135.39 116.5C135.562 116.458 135.742 116.448 135.919 116.471C136.096 116.494 136.266 116.549 136.417 116.633C139.77 118.633 151.057 144.667 151.537 145.773C151.563 145.835 151.567 145.902 151.55 145.966C151.532 146.031 151.494 146.089 151.44 146.133L129.33 164.533C129.296 164.562 129.256 164.585 129.212 164.599C129.168 164.614 129.121 164.621 129.075 164.62ZM108.427 151.213L129.037 163.88L150.75 145.773C147.442 138.133 138.607 118.7 136.012 117.16C135.944 117.126 135.869 117.104 135.792 117.097C135.714 117.091 135.636 117.098 135.562 117.12C132.067 117.787 121.417 132.513 117.562 138.113L108.427 151.213Z" fill="#2D5385"/>
<path d="M106.095 100.727C106.095 100.727 104.828 109.553 109.05 113.493C113.273 117.433 127.635 118.56 128.483 119.873C129.33 121.187 144.983 156.287 147.27 158.353C149.558 160.42 159.098 157.227 166.275 151.22C166.275 151.22 149.91 118.747 149.333 115.933C148.755 113.12 154.028 101.107 154.028 95.66L106.095 100.727Z" fill="white"/>
<path d="M149.558 159.333C148.632 159.399 147.715 159.135 147.008 158.6C145.448 157.213 138.758 142.847 132.008 128.253C129.99 123.873 128.4 120.42 128.16 120.053C127.92 119.687 125.258 119.127 122.91 118.633C118.088 117.633 111.488 116.253 108.788 113.733C104.49 109.733 105.675 101.067 105.728 100.7C105.737 100.626 105.776 100.557 105.836 100.505C105.896 100.453 105.974 100.42 106.058 100.413L153.983 95.3333C154.037 95.3271 154.092 95.3316 154.144 95.3466C154.195 95.3616 154.243 95.3867 154.283 95.42C154.32 95.4517 154.35 95.4899 154.371 95.5323C154.392 95.5748 154.402 95.6205 154.403 95.6667C154.403 98.5333 152.963 103.2 151.688 107.32C150.533 111.067 149.438 114.6 149.7 115.88C150.27 118.62 166.455 150.767 166.62 151.093C166.651 151.157 166.66 151.227 166.646 151.295C166.631 151.363 166.593 151.425 166.538 151.473C160.995 156.1 153.69 159.333 149.558 159.333ZM106.433 101.04C106.275 102.507 105.683 109.867 109.32 113.273C111.87 115.653 118.32 117 123.075 117.987C126.675 118.74 128.423 119.127 128.805 119.72C129.053 120.107 130.305 122.827 132.698 128C137.333 138.033 145.95 156.72 147.54 158.133C149.625 159.987 158.79 156.933 165.825 151.153C164.28 148.073 149.528 118.74 148.965 116.007C148.665 114.573 149.715 111.133 150.968 107.153C152.22 103.173 153.533 98.8533 153.645 96.0467L106.433 101.04Z" fill="#2D5385"/>
<path d="M160.613 153.807C160.537 153.806 160.463 153.786 160.4 153.748C160.337 153.71 160.288 153.656 160.26 153.593L143.01 114.807C142.992 114.766 142.983 114.722 142.983 114.679C142.984 114.635 142.994 114.592 143.014 114.551C143.034 114.511 143.062 114.475 143.097 114.444C143.132 114.414 143.174 114.389 143.22 114.373C143.266 114.356 143.315 114.347 143.364 114.348C143.414 114.348 143.463 114.357 143.509 114.374C143.554 114.392 143.595 114.417 143.63 114.449C143.664 114.481 143.69 114.519 143.708 114.56L160.958 153.353C160.977 153.393 160.987 153.437 160.986 153.48C160.986 153.524 160.976 153.567 160.956 153.607C160.937 153.647 160.908 153.683 160.872 153.713C160.836 153.742 160.794 153.765 160.748 153.78C160.706 153.798 160.659 153.807 160.613 153.807Z" fill="#D5E6FB"/>
<path d="M148.095 101.333C146.578 103.059 145.674 105.148 145.5 107.333C145.342 110.707 150.037 117.92 150.037 117.92L160.973 111.833L155.647 100.447L148.095 101.333Z" fill="#2D5385"/>
<path d="M150.068 118.22H150C149.903 118.195 149.819 118.138 149.768 118.06C149.573 117.767 145.02 110.727 145.178 107.293C145.35 105.054 146.275 102.913 147.833 101.147C147.893 101.086 147.976 101.046 148.065 101.033L155.648 100.093C155.73 100.083 155.813 100.097 155.885 100.133C155.957 100.17 156.013 100.226 156.045 100.293L161.37 111.68C161.403 111.754 161.407 111.835 161.379 111.911C161.352 111.986 161.296 112.051 161.22 112.093L150.293 118.18C150.224 118.213 150.146 118.227 150.068 118.22ZM148.298 101.667C146.908 103.306 146.078 105.266 145.905 107.313C145.77 110.173 149.325 116.027 150.203 117.42L160.5 111.667L155.415 100.78L148.298 101.667Z" fill="#2D5385"/>
<path d="M161.91 142.493C161.91 142.493 169.447 136.707 165.225 133.7C165.225 133.7 167.94 128.147 161.002 127.32C161.002 127.32 163.252 121.187 157.762 119.687C152.272 118.187 141.57 126.193 140.445 129.073C139.32 131.953 144.097 132.407 147.6 131.073C147.6 131.073 142.455 133.74 143.34 135.647C144.63 138.467 148.965 137.087 152.34 136.213C152.34 136.213 146.175 139.227 150.232 142.033C153.345 144.187 160.612 139.88 160.612 139.88L161.91 142.493Z" fill="white"/>
<path d="M152.512 142.96C151.614 142.994 150.73 142.759 150 142.293C149.527 142.022 149.14 141.647 148.877 141.205C148.615 140.762 148.485 140.267 148.5 139.767C148.723 138.706 149.38 137.756 150.345 137.1C147.345 137.833 144.157 138.293 143.002 135.767C142.41 134.48 143.97 133.02 145.402 132.007C143.437 132.313 141.562 132.073 140.617 131.293C140.263 131.004 140.022 130.621 139.93 130.201C139.838 129.781 139.9 129.346 140.107 128.96C141.285 125.947 152.25 117.827 157.89 119.367C158.58 119.535 159.224 119.827 159.782 120.225C160.341 120.623 160.802 121.118 161.137 121.68C162.292 123.68 161.76 126.12 161.49 127.013C163.462 127.32 164.827 128.053 165.555 129.2C166.612 130.873 165.96 132.887 165.682 133.567C166.058 133.855 166.36 134.211 166.57 134.611C166.779 135.011 166.891 135.446 166.897 135.887C166.965 138.993 162.397 142.553 162.172 142.707C162.128 142.741 162.075 142.766 162.017 142.778C161.96 142.791 161.9 142.792 161.842 142.78C161.786 142.768 161.733 142.745 161.687 142.713C161.642 142.681 161.605 142.64 161.58 142.593L160.462 140.333C159.255 141.027 155.512 142.96 152.512 142.96ZM152.34 135.873C152.414 135.872 152.487 135.891 152.549 135.928C152.611 135.965 152.658 136.018 152.685 136.08C152.72 136.156 152.723 136.241 152.693 136.318C152.662 136.396 152.601 136.46 152.52 136.5C152.52 136.5 149.385 138.053 149.227 139.833C149.228 140.224 149.341 140.608 149.557 140.949C149.772 141.29 150.082 141.576 150.457 141.78C153.33 143.78 160.335 139.66 160.402 139.62C160.447 139.591 160.499 139.572 160.554 139.564C160.608 139.556 160.664 139.559 160.717 139.573C160.77 139.588 160.818 139.612 160.86 139.644C160.901 139.676 160.934 139.716 160.957 139.76L162.045 141.953C163.132 141.04 166.185 138.26 166.132 135.953C166.127 135.569 166.02 135.19 165.821 134.849C165.622 134.508 165.335 134.212 164.985 133.987C164.922 133.94 164.878 133.876 164.859 133.805C164.84 133.735 164.848 133.66 164.88 133.593C164.88 133.593 165.975 131.293 164.88 129.593C164.227 128.567 162.9 127.927 160.95 127.693C160.895 127.686 160.843 127.669 160.796 127.642C160.75 127.616 160.71 127.581 160.68 127.54C160.65 127.499 160.631 127.452 160.624 127.404C160.618 127.355 160.624 127.306 160.642 127.26C160.642 127.227 161.73 124.207 160.455 122.027C160.169 121.538 159.772 121.108 159.289 120.764C158.806 120.42 158.248 120.168 157.65 120.027C152.467 118.613 141.9 126.4 140.797 129.2C140.652 129.466 140.603 129.765 140.658 130.057C140.713 130.349 140.869 130.618 141.105 130.827C142.2 131.72 145.102 131.7 147.45 130.78C147.537 130.748 147.635 130.746 147.724 130.775C147.813 130.804 147.886 130.862 147.929 130.937C147.971 131.012 147.98 131.099 147.954 131.18C147.928 131.261 147.868 131.33 147.787 131.373C146.527 132.04 143.062 134.193 143.685 135.533C144.765 137.88 148.357 136.927 151.53 136.093L152.235 135.907C152.267 135.889 152.303 135.878 152.34 135.873Z" fill="#2D5385"/>
<path d="M155.895 109.513C155.895 109.513 156.082 103.92 150.75 106.007C145.417 108.093 137.317 113.073 141.525 116.353C145.732 119.633 154.627 113.78 155.895 109.513Z" fill="white"/>
<path d="M144.578 117.647C143.37 117.678 142.193 117.307 141.277 116.607C140.809 116.285 140.446 115.857 140.225 115.368C140.005 114.879 139.936 114.347 140.025 113.827C140.61 110.447 147.195 107.033 150.6 105.707C152.227 105.04 153.555 105.04 154.545 105.64C156.345 106.713 156.27 109.413 156.27 109.527C156.274 109.551 156.274 109.576 156.27 109.6C155.385 112.6 151.02 116.2 146.97 117.307C146.196 117.524 145.389 117.638 144.578 117.647ZM152.88 105.88C152.194 105.902 151.52 106.05 150.9 106.313C147.097 107.8 141.262 111.06 140.76 113.927C140.692 114.337 140.75 114.757 140.928 115.141C141.106 115.525 141.398 115.858 141.772 116.107C143.272 117.273 145.297 117.053 146.73 116.667C150.48 115.64 154.672 112.22 155.52 109.467C155.52 109.16 155.482 107 154.125 106.193C153.756 105.977 153.321 105.868 152.88 105.88Z" fill="#2D5385"/>
<path d="M115.688 140.213C115.688 140.213 121.688 125.387 123.015 122.88C125.265 118.64 130.628 112.987 135.225 114.167C139.823 115.347 149.475 119.327 145.568 122.027C142.005 124.5 133.703 120.793 133.703 120.793C133.703 120.793 135.773 128.633 131.588 133.027" fill="white"/>
<path d="M115.688 140.547C115.645 140.554 115.602 140.554 115.56 140.547C115.513 140.533 115.47 140.51 115.433 140.481C115.396 140.451 115.366 140.416 115.345 140.376C115.324 140.336 115.313 140.293 115.311 140.249C115.309 140.205 115.317 140.161 115.335 140.12C115.575 139.513 121.335 125.253 122.678 122.753C125.04 118.32 130.523 112.62 135.33 113.853C138.675 114.713 146.213 117.527 146.813 120.287C146.881 120.671 146.822 121.066 146.642 121.421C146.462 121.776 146.17 122.077 145.8 122.287C142.665 124.453 136.32 122.213 134.213 121.367C134.618 123.367 135.465 129.467 131.873 133.233C131.843 133.272 131.805 133.306 131.76 133.331C131.716 133.356 131.666 133.372 131.613 133.379C131.561 133.385 131.508 133.382 131.457 133.369C131.406 133.356 131.359 133.334 131.319 133.304C131.278 133.274 131.246 133.236 131.223 133.194C131.2 133.151 131.187 133.105 131.185 133.058C131.184 133.011 131.194 132.965 131.214 132.921C131.234 132.878 131.264 132.839 131.303 132.807C135.315 128.587 133.358 120.94 133.335 120.86C133.32 120.798 133.325 120.733 133.349 120.673C133.373 120.613 133.415 120.56 133.47 120.52C133.526 120.481 133.593 120.457 133.663 120.451C133.734 120.445 133.805 120.458 133.868 120.487C133.95 120.52 141.998 124.073 145.335 121.76C145.595 121.629 145.806 121.433 145.939 121.195C146.073 120.958 146.124 120.69 146.085 120.427C145.628 118.307 139.335 115.587 135.135 114.513C130.8 113.393 125.55 118.947 123.368 123.053C122.055 125.52 116.115 140.213 116.055 140.387C116.017 140.442 115.962 140.486 115.897 140.514C115.832 140.542 115.76 140.554 115.688 140.547Z" fill="#2D5385"/>
<path d="M207.877 122C207.877 122 177.262 101.333 159.202 100.947C154.633 100.89 150.065 101.113 145.53 101.613C134.842 102.693 124.102 104.68 116.655 104.947C101.872 105.447 90.8096 101.233 90.7871 87.52C90.7871 75.7866 97.0121 73.6333 110.175 70.4066C116.685 68.8133 129.232 67.1733 141.112 64.24C148.357 62.4466 155.362 60.18 160.575 57.1466C174.375 49.1466 184.672 30.88 184.672 30.88L207.877 122Z" fill="white"/>
<path d="M207.877 122.3C207.796 122.302 207.716 122.278 207.652 122.233C207.345 122.027 176.902 101.62 159.195 101.247C154.643 101.189 150.092 101.412 145.575 101.913C141.18 102.353 136.815 102.947 132.592 103.52C126.667 104.327 121.072 105.087 116.67 105.233C107.055 105.553 99.9749 103.847 95.6699 100.14C92.2124 97.18 90.4199 92.92 90.4199 87.4733C90.4199 75.4267 97.1699 73.2133 110.085 70.04C112.837 69.3733 116.647 68.7066 121.057 67.9C127.2 66.8066 134.16 65.5667 141.022 63.9C149.49 61.8 155.82 59.4933 160.38 56.8466C173.932 48.98 184.245 30.8933 184.342 30.7133C184.377 30.6519 184.433 30.6015 184.502 30.5693C184.57 30.5371 184.648 30.5245 184.725 30.5333C184.802 30.54 184.874 30.5681 184.932 30.6136C184.99 30.6591 185.03 30.7196 185.047 30.7866L208.252 121.9C208.269 121.967 208.262 122.037 208.233 122.1C208.203 122.163 208.152 122.217 208.087 122.253C208.024 122.286 207.951 122.302 207.877 122.3ZM157.582 100.567C158.137 100.567 158.677 100.567 159.21 100.567C166.762 100.727 177.292 104.333 190.5 111.28C198.472 115.48 205.05 119.687 207.285 121.147L184.5 31.8133C182.31 35.4467 172.815 50.3933 160.747 57.4C156.127 60.0666 149.73 62.42 141.18 64.5333C134.295 66.2333 127.327 67.48 121.17 68.5733C116.775 69.36 112.98 70.0333 110.242 70.7C97.3199 73.8733 91.1099 75.9067 91.1324 87.4933C91.1324 92.7533 92.8199 96.8267 96.1274 99.68C100.312 103.253 107.205 104.907 116.61 104.587C120.967 104.44 126.547 103.68 132.45 102.88C136.68 102.307 141.052 101.713 145.455 101.267C149.479 100.827 153.528 100.593 157.582 100.567Z" fill="#2D5385"/>
<path d="M148.095 101.333C137.407 102.413 124.095 104.3 116.655 104.9C99.6898 106.273 91.7849 103.067 90.7874 89.38C89.7674 75.3067 97.0123 73.5867 110.175 70.36C116.685 68.7667 129.232 67.1267 141.112 64.1933C141.112 64.1933 136.612 71.56 138.615 84.5667C139.59 90.937 142.926 96.8367 148.095 101.333Z" fill="#2D5385"/>
<path d="M110.25 105.54C103.59 105.54 99.0746 104.427 95.9996 102.08C92.6396 99.5267 90.8696 95.5067 90.4271 89.4133C89.3921 75.12 96.6896 73.3333 109.927 70.08H110.077C112.83 69.4133 116.64 68.7467 121.05 67.94C127.192 66.8467 134.152 65.6067 141.015 63.94C141.085 63.9223 141.16 63.9236 141.229 63.9438C141.298 63.964 141.36 64.0021 141.405 64.0533C141.453 64.1036 141.482 64.1658 141.489 64.2314C141.495 64.297 141.479 64.3629 141.442 64.42C141.397 64.4933 137.055 71.8533 138.99 84.5867C139.975 90.8723 143.261 96.6945 148.342 101.153C148.397 101.195 148.437 101.25 148.457 101.312C148.477 101.373 148.476 101.439 148.455 101.5C148.432 101.561 148.391 101.616 148.335 101.657C148.279 101.699 148.212 101.725 148.14 101.733C143.212 102.233 137.767 102.893 132.502 103.533C126.435 104.273 120.697 104.973 116.692 105.3C114.337 105.447 112.192 105.54 110.25 105.54ZM140.445 64.7267C133.815 66.3267 127.14 67.52 121.215 68.5733C116.82 69.36 113.025 70.0333 110.287 70.7L110.137 70.74C97.2671 73.8933 90.1796 75.6333 91.1771 89.4067C91.6046 95.3 93.2921 99.1733 96.4796 101.6C100.305 104.507 106.515 105.433 116.632 104.613C120.622 104.293 126.382 103.593 132.382 102.853C137.37 102.247 142.522 101.62 147.24 101.133C142.375 96.6139 139.228 90.8526 138.24 84.66C136.612 73.86 139.41 66.84 140.43 64.7267H140.445Z" fill="#2D5385"/>
<path d="M218.625 124.453C207.278 126.293 194.543 112.653 186.9 92.1733C183.061 81.7649 180.829 70.9419 180.263 60C179.213 38.3 185.723 21.4067 197.13 19.56C211.238 17.2733 227.49 38.8933 233.43 67.86C239.37 96.8267 232.74 122.167 218.625 124.453Z" fill="#1264D1"/>
<path d="M199.2 19.4C212.798 19.4 227.775 40.3133 233.43 67.8667C239.37 96.8333 232.74 122.167 218.625 124.453C217.942 124.565 217.249 124.621 216.555 124.62C205.755 124.62 194.055 111.413 186.9 92.1733C183.061 81.7649 180.829 70.9419 180.263 60C179.213 38.3 185.723 21.4067 197.13 19.56C197.813 19.448 198.506 19.3922 199.2 19.3933V19.4ZM199.2 18.7267C198.461 18.7261 197.722 18.7864 196.995 18.9067C185.438 20.7733 178.41 37.3 179.513 60.0267C180.087 71.0292 182.332 81.9123 186.188 92.38C193.65 112.38 205.568 125.28 216.555 125.28C217.295 125.281 218.033 125.22 218.76 125.1C225.9 123.947 231.413 117.273 234.278 106.307C237.098 95.5333 237.06 81.84 234.165 67.74C231.428 54.4067 226.373 42.02 219.915 32.94C213.458 23.86 206.07 18.7333 199.208 18.7333L199.2 18.7267Z" fill="#2D5385"/>
<path d="M209.91 84.8L186.9 92.1733C183.061 81.7649 180.829 70.9419 180.263 60H206.19L209.91 84.8Z" fill="white"/>
<path d="M209.908 84.8137C213.49 84.3758 215.537 78.4766 214.479 71.6374C213.42 64.7982 209.659 59.6089 206.076 60.0468C202.494 60.4847 200.448 66.384 201.506 73.2231C202.564 80.0623 206.326 85.2516 209.908 84.8137Z" fill="#D5E6FB"/>
<path d="M152.34 136.54C152.255 136.542 152.171 136.518 152.103 136.471C152.035 136.425 151.987 136.359 151.967 136.285C151.946 136.211 151.955 136.133 151.992 136.064C152.029 135.995 152.091 135.94 152.168 135.907C154.499 134.833 156.992 134.063 159.57 133.62C159.668 133.608 159.768 133.631 159.848 133.683C159.927 133.736 159.981 133.813 159.998 133.9C160.005 133.943 160.003 133.988 159.991 134.03C159.979 134.073 159.958 134.113 159.929 134.148C159.9 134.183 159.863 134.213 159.821 134.236C159.778 134.258 159.732 134.273 159.683 134.28C157.188 134.719 154.775 135.466 152.513 136.5C152.46 136.527 152.401 136.54 152.34 136.54Z" fill="#2D5385"/>
<path d="M147.6 131.4C147.505 131.398 147.414 131.365 147.345 131.307C147.31 131.276 147.282 131.24 147.263 131.2C147.244 131.16 147.234 131.117 147.234 131.073C147.234 131.03 147.244 130.987 147.263 130.947C147.282 130.907 147.31 130.87 147.345 130.84C149.631 128.872 152.611 127.666 155.782 127.427C155.881 127.419 155.978 127.447 156.054 127.503C156.13 127.559 156.178 127.639 156.187 127.727C156.192 127.77 156.188 127.814 156.173 127.856C156.159 127.898 156.135 127.937 156.104 127.97C156.073 128.004 156.034 128.031 155.99 128.051C155.946 128.071 155.899 128.083 155.85 128.087C152.869 128.336 150.068 129.465 147.892 131.293C147.855 131.328 147.809 131.356 147.759 131.374C147.708 131.393 147.654 131.401 147.6 131.4Z" fill="#2D5385"/>
<path d="M160.613 140.207C160.563 140.215 160.513 140.215 160.463 140.207C160.414 140.198 160.367 140.181 160.326 140.156C160.284 140.131 160.248 140.1 160.22 140.062C160.192 140.025 160.173 139.984 160.163 139.94C160.153 139.896 160.153 139.851 160.163 139.807C160.172 139.764 160.192 139.722 160.219 139.685C160.247 139.648 160.283 139.616 160.325 139.591C160.367 139.566 160.413 139.549 160.463 139.54L162.96 138.593C163.052 138.558 163.155 138.556 163.248 138.589C163.341 138.621 163.415 138.685 163.455 138.767C163.495 138.848 163.497 138.94 163.46 139.023C163.424 139.105 163.352 139.171 163.26 139.207L160.763 140.153C160.718 140.181 160.667 140.199 160.613 140.207Z" fill="#2D5385"/>
<path d="M130.41 165.58C130.41 165.58 135.322 162.153 135.442 161.793C135.562 161.433 112.192 141.793 112.192 141.793L99 149.173L130.41 165.58Z" fill="#2D5385"/>
<path d="M130.41 165.913C130.344 165.914 130.279 165.898 130.223 165.867L98.7754 149.46C98.7198 149.431 98.6734 149.391 98.6405 149.342C98.6077 149.293 98.5896 149.237 98.5879 149.18C98.5875 149.122 98.6039 149.066 98.6354 149.016C98.667 148.965 98.7126 148.923 98.7679 148.893L112.013 141.48C112.084 141.442 112.167 141.425 112.249 141.432C112.332 141.439 112.409 141.47 112.47 141.52C135.998 161.333 135.893 161.633 135.803 161.893C135.803 162.007 135.645 162.347 130.643 165.847C130.576 165.891 130.494 165.915 130.41 165.913ZM99.6604 149.167L130.358 165.167C132.33 163.787 134.4 162.273 134.955 161.767C133.455 160.233 120.788 149.453 112.148 142.173L99.6604 149.167Z" fill="#2D5385"/>
<path d="M131.82 165.94L102.517 144.093L46.4248 175.66L113.79 183.973L131.82 165.94Z" fill="#1264D1"/>
<path d="M101.452 102.753C101.377 102.752 101.303 102.731 101.24 102.693C101.178 102.655 101.129 102.602 101.1 102.54C96.5472 92.1333 96.0972 82.3067 99.8172 74.8667C99.8922 74.72 99.9372 74.62 99.9597 74.5733C99.9595 74.5316 99.9691 74.4903 99.9879 74.452C100.007 74.4138 100.034 74.3794 100.069 74.3512C100.104 74.323 100.144 74.3014 100.189 74.288C100.233 74.2746 100.28 74.2696 100.327 74.2733C100.43 74.2802 100.526 74.3222 100.594 74.3906C100.663 74.4591 100.699 74.5485 100.695 74.64C100.669 74.8168 100.603 74.9871 100.5 75.14C96.8622 82.4133 97.3197 92.06 101.797 102.293C101.832 102.376 101.83 102.467 101.791 102.548C101.751 102.628 101.678 102.693 101.587 102.727C101.545 102.745 101.499 102.754 101.452 102.753Z" fill="white"/>
<path d="M115.808 72.3467C115.72 72.3451 115.637 72.3172 115.57 72.2675C115.503 72.2178 115.457 72.1493 115.44 72.0733C115.43 72.0308 115.43 71.987 115.44 71.9445C115.449 71.9019 115.468 71.8615 115.495 71.8255C115.522 71.7895 115.557 71.7587 115.598 71.7348C115.639 71.711 115.685 71.6946 115.733 71.6867L132.233 68.8067C132.28 68.797 132.33 68.7961 132.378 68.8041C132.427 68.8121 132.473 68.8288 132.513 68.8532C132.554 68.8775 132.589 68.909 132.615 68.9457C132.642 68.9824 132.66 69.0236 132.668 69.0667C132.677 69.1096 132.678 69.1538 132.668 69.1968C132.659 69.2397 132.64 69.2807 132.613 69.3172C132.586 69.3537 132.551 69.3851 132.51 69.4096C132.469 69.4341 132.423 69.4513 132.375 69.46L115.875 72.34L115.808 72.3467Z" fill="white"/>
<path d="M115.808 75.2266C115.72 75.2251 115.637 75.1972 115.57 75.1475C115.503 75.0978 115.457 75.0293 115.44 74.9533C115.43 74.9108 115.43 74.867 115.44 74.8245C115.449 74.7819 115.468 74.7415 115.495 74.7055C115.522 74.6695 115.557 74.6387 115.598 74.6148C115.639 74.591 115.685 74.5746 115.733 74.5666L132.233 71.6866C132.28 71.677 132.33 71.6761 132.378 71.6841C132.427 71.6921 132.473 71.7088 132.513 71.7331C132.554 71.7575 132.589 71.789 132.615 71.8257C132.642 71.8624 132.66 71.9036 132.668 71.9466C132.677 71.9895 132.678 72.0337 132.668 72.0767C132.659 72.1197 132.64 72.1606 132.613 72.1972C132.586 72.2337 132.551 72.2651 132.51 72.2896C132.469 72.3141 132.423 72.3312 132.375 72.34L115.875 75.22L115.808 75.2266Z" fill="white"/>
<path d="M115.807 78.54C115.721 78.54 115.637 78.5135 115.57 78.4649C115.503 78.4163 115.457 78.3486 115.44 78.2733C115.422 78.1869 115.442 78.0976 115.497 78.0243C115.552 77.9509 115.636 77.8992 115.732 77.88L132.232 75C132.33 74.9844 132.43 75.0037 132.512 75.0537C132.593 75.1036 132.649 75.1802 132.667 75.2667C132.678 75.3092 132.679 75.3533 132.67 75.3962C132.661 75.4391 132.643 75.4799 132.615 75.5161C132.588 75.5524 132.552 75.5832 132.511 75.6068C132.47 75.6304 132.423 75.6462 132.375 75.6533L115.875 78.5333L115.807 78.54Z" fill="white"/>
<path d="M83.6475 138.587C83.5535 138.585 83.4633 138.553 83.3942 138.497C83.325 138.44 83.2817 138.363 83.2725 138.28C82.5225 130.947 75.7725 125.613 69.675 123.033C61.86 119.76 46.83 115.827 37.8675 117.327C37.7841 117.343 37.6968 117.333 37.6213 117.297C37.5457 117.262 37.4868 117.204 37.455 117.133C37.4221 117.064 37.4168 116.986 37.44 116.914C37.4631 116.841 37.5134 116.777 37.5825 116.733C38.3325 116.267 39.0225 115.807 39.765 115.333C48.84 109.547 59.1225 102.98 60.4725 92.4467C62.6175 75.6467 47.0775 60.3867 46.92 60.2333C46.8671 60.1734 46.8383 60.0995 46.8383 60.0233C46.8383 59.9472 46.8671 59.8732 46.92 59.8133C46.9695 59.7519 47.0409 59.7073 47.1227 59.6867C47.2044 59.6661 47.2916 59.6708 47.37 59.7C47.565 59.7733 67.275 67.0867 86.925 57.4133C106.282 47.8867 105.615 29.04 105.607 28.8533C105.604 28.7877 105.622 28.7225 105.659 28.6657C105.696 28.6089 105.751 28.5629 105.817 28.5333C105.885 28.5074 105.959 28.4987 106.032 28.5081C106.105 28.5175 106.174 28.5447 106.23 28.5867C106.425 28.74 126.053 43.92 140.348 42.9333C145.605 42.6089 150.691 41.1373 155.156 38.6488C159.621 36.1604 163.326 32.7318 165.945 28.6667C165.987 28.5875 166.063 28.5264 166.156 28.4964C166.248 28.4665 166.35 28.4702 166.44 28.5067C166.484 28.5259 166.524 28.5527 166.557 28.5855C166.589 28.6184 166.615 28.6567 166.631 28.6982C166.647 28.7397 166.653 28.7836 166.65 28.8274C166.647 28.8711 166.634 28.914 166.613 28.9533C163.934 33.1264 160.135 36.6453 155.555 39.1962C150.975 41.7472 145.755 43.2509 140.362 43.5733C127.027 44.5133 109.837 32.18 106.312 29.5333C106.222 33.1733 104.812 49.3267 87.24 57.9667C70.2825 66.3533 53.25 62.2333 48.42 60.76C51.81 64.4333 63.09 77.88 61.215 92.52C59.8275 103.353 49.4025 110.007 40.215 115.853L39.2775 116.453C48.5025 115.553 62.5275 119.273 70.0275 122.407C76.2975 125.033 83.2725 130.567 84.0525 138.2C84.0608 138.287 84.0301 138.374 83.9669 138.442C83.9037 138.509 83.8132 138.552 83.715 138.56L83.6475 138.587Z" fill="#D5E6FB"/>
<path d="M196.755 179.233C196.653 179.233 196.556 179.197 196.485 179.133C196.342 179 182.025 165.967 161.047 168.467C160.998 168.473 160.948 168.471 160.901 168.46C160.853 168.449 160.808 168.429 160.769 168.403C160.729 168.376 160.697 168.342 160.672 168.304C160.648 168.266 160.633 168.224 160.627 168.18C160.614 168.092 160.641 168.004 160.702 167.934C160.762 167.864 160.851 167.818 160.95 167.807C179.377 165.593 192.765 175.18 196.2 177.94C195.45 173.653 194.422 156.907 217.95 142.34C231.337 134.06 252.93 136.913 262.65 140.473C253.65 131.04 245.4 120.02 249.645 108.887C253.5 98.76 270.855 87.5533 274.477 85.28C249.052 78.1266 238.38 65.7 240.9 46.22C240.911 46.1316 240.961 46.0506 241.039 45.995C241.117 45.9394 241.216 45.9136 241.316 45.9233C241.415 45.933 241.506 45.9775 241.569 46.0469C241.632 46.1163 241.661 46.2049 241.65 46.2933C239.16 65.6266 249.9 77.84 275.437 84.8466C275.506 84.8646 275.568 84.8999 275.615 84.9481C275.662 84.9964 275.692 85.0556 275.703 85.1188C275.713 85.182 275.703 85.2465 275.673 85.3046C275.643 85.3628 275.595 85.412 275.535 85.4466C275.325 85.5733 254.497 98.2333 250.365 109.1C246.075 120.367 255.015 131.633 264.322 141.167C264.381 141.225 264.415 141.299 264.419 141.377C264.423 141.455 264.395 141.532 264.342 141.594C264.288 141.656 264.212 141.699 264.126 141.716C264.04 141.733 263.95 141.723 263.872 141.687C255.232 137.933 232.282 134.293 218.385 142.887C191.73 159.387 197.077 178.613 197.137 178.807C197.158 178.878 197.151 178.953 197.118 179.02C197.086 179.088 197.029 179.144 196.957 179.18C196.896 179.213 196.826 179.232 196.755 179.233Z" fill="#D5E6FB"/>
</svg>
