<svg width="252" height="252" viewBox="0 0 252 252" fill="none" xmlns="http://www.w3.org/2000/svg">
<g clip-path="url(#clip0_1831_5790)">
<path d="M42 63H21V210C21 221.55 30.45 231 42 231H189V210H42V63ZM210 21H84C72.45 21 63 30.45 63 42V168C63 179.55 72.45 189 84 189H210C221.55 189 231 179.55 231 168V42C231 30.45 221.55 21 210 21ZM210 168H84V42H210V168ZM141.855 106.68C146.16 99.015 154.245 94.5 158.97 87.78C164.01 80.64 161.175 67.41 147 67.41C137.76 67.41 133.14 74.445 131.25 80.325L116.865 74.34C120.855 62.58 131.46 52.5 146.895 52.5C159.81 52.5 168.735 58.38 173.25 65.73C177.135 72.03 179.34 83.895 173.355 92.715C166.74 102.48 160.44 105.42 156.975 111.72C155.61 114.24 155.085 115.92 155.085 124.11H139.125C139.23 119.805 138.495 112.77 141.855 106.68ZM135.975 146.475C135.975 140.28 140.91 135.555 147 135.555C153.195 135.555 157.92 140.28 157.92 146.475C157.92 152.565 153.3 157.5 147 157.5C140.91 157.5 135.975 152.565 135.975 146.475Z" fill="#1264D1"/>
</g>
<defs>
<clipPath id="clip0_1831_5790">
<rect width="252" height="252" fill="white"/>
</clipPath>
</defs>
</svg>
