<svg width="225" height="225" viewBox="0 0 225 225" fill="none" xmlns="http://www.w3.org/2000/svg">
<g clip-path="url(#clip0_1831_5857)">
<path d="M28.125 18.75L46.9688 189.656C48.0938 199.031 55.9688 206.25 65.625 206.25H159.375C169.031 206.25 176.906 199.031 178.031 189.656L196.875 18.75H28.125ZM159.375 187.5L65.625 187.594L55.2187 93.75H169.688L159.375 187.5ZM171.844 75H53.1562L49.0312 37.5H175.875L171.844 75ZM112.5 178.125C128.062 178.125 140.625 165.563 140.625 150C140.625 131.25 112.5 99.375 112.5 99.375C112.5 99.375 84.375 131.25 84.375 150C84.375 165.563 96.9375 178.125 112.5 178.125ZM112.5 130.406C118.031 138.938 121.875 146.625 121.875 150C121.875 155.156 117.656 159.375 112.5 159.375C107.344 159.375 103.125 155.156 103.125 150C103.125 146.531 106.969 138.844 112.5 130.406Z" fill="#1264D1"/>
</g>
<defs>
<clipPath id="clip0_1831_5857">
<rect width="225" height="225" fill="white"/>
</clipPath>
</defs>
</svg>
