<svg width="200" height="150" viewBox="0 0 200 150" fill="none" xmlns="http://www.w3.org/2000/svg">
<path d="M67.0231 108.22L59.1668 120.323L76.9252 132.106L95.4832 115.385C95.4832 115.385 85.6754 90.846 82.893 89.079C80.1106 87.3119 67.0231 108.22 67.0231 108.22Z" fill="white"/>
<path d="M76.9253 132.432C76.862 132.433 76.8003 132.414 76.7491 132.378L58.9906 120.595C58.9234 120.551 58.8766 120.484 58.8602 120.407C58.8437 120.33 58.8589 120.25 58.9025 120.184L66.7525 108.081C67.2435 107.306 78.4362 89.5631 82.2258 88.7522C82.3704 88.7138 82.5218 88.7048 82.6702 88.7256C82.8187 88.7464 82.961 88.7967 83.0882 88.8732C85.9021 90.6887 95.3762 114.32 95.7791 115.325C95.8006 115.381 95.8043 115.442 95.7897 115.5C95.7752 115.558 95.743 115.611 95.6973 115.651L77.1394 132.354C77.1109 132.38 77.0773 132.4 77.0406 132.414C77.0038 132.427 76.9647 132.434 76.9253 132.432V132.432ZM59.595 120.263L76.8939 131.761L95.1181 115.325C92.342 108.389 84.9264 90.7492 82.7483 89.3513C82.6915 89.3201 82.6285 89.3007 82.5635 89.2945C82.4984 89.2882 82.4327 89.2952 82.3706 89.315C79.4371 89.9201 70.4981 103.288 67.2624 108.371L59.595 120.263Z" fill="#21005D"/>
<path d="M57.6371 74.4342C57.6371 74.4342 56.5732 82.4465 60.1174 86.0229C63.6615 89.5994 75.7166 90.6221 76.428 91.8143C77.1393 93.0064 90.2772 124.868 92.1972 126.744C94.1172 128.62 102.125 125.721 108.149 120.269C108.149 120.269 94.413 90.7915 93.9283 88.2378C93.4436 85.684 97.869 74.7791 97.869 69.835L57.6371 74.4342Z" fill="white"/>
<path d="M94.1172 127.633C93.3402 127.693 92.5703 127.454 91.9769 126.968C90.6675 125.709 85.0523 112.668 79.3867 99.4211C77.6934 95.4452 76.3588 92.3105 76.1574 91.9777C75.9559 91.6448 73.7212 91.1365 71.7508 90.6887C67.7031 89.7809 62.1634 88.5283 59.8971 86.2408C56.2901 82.6098 57.2847 74.7428 57.3288 74.41C57.3371 74.3427 57.3691 74.2802 57.4195 74.2329C57.4699 74.1855 57.5356 74.1562 57.6057 74.1498L97.8313 69.5385C97.8768 69.5328 97.9229 69.5369 97.9665 69.5505C98.01 69.5641 98.0499 69.5869 98.0831 69.6171C98.1149 69.6459 98.1402 69.6806 98.1575 69.7191C98.1748 69.7576 98.1838 69.7991 98.1839 69.8411C98.1839 72.4432 96.9752 76.6793 95.905 80.4192C94.9356 83.8202 94.0165 87.0275 94.2368 88.1894C94.7153 90.6766 108.3 119.857 108.439 120.154C108.465 120.211 108.472 120.275 108.46 120.337C108.448 120.398 108.416 120.455 108.369 120.499C103.717 124.698 97.5858 127.633 94.1172 127.633ZM57.9205 74.7186C57.7883 76.05 57.291 82.7309 60.3441 85.8232C62.4844 87.9836 67.8982 89.206 71.8893 90.1017C74.9109 90.7855 76.3777 91.1365 76.6987 91.6751C76.9065 92.0261 77.9577 94.4951 79.9659 99.1911C83.8562 108.299 91.0893 125.261 92.4239 126.544C94.1739 128.227 101.866 125.455 107.771 120.208C106.474 117.412 94.0921 90.7855 93.6199 88.3044C93.3681 87.0033 94.2494 83.8807 95.3007 80.2679C96.352 76.6551 97.4536 72.7337 97.5481 70.186L57.9205 74.7186Z" fill="#21005D"/>
<path d="M103.396 122.617C103.332 122.616 103.27 122.598 103.218 122.563C103.165 122.529 103.124 122.48 103.1 122.423L88.6216 87.2151C88.6063 87.1781 88.5987 87.1386 88.5992 87.0989C88.5998 87.0591 88.6085 87.0198 88.6249 86.9833C88.6413 86.9467 88.665 86.9137 88.6946 86.8859C88.7243 86.8582 88.7594 86.8364 88.7979 86.8217C88.8362 86.8061 88.8774 86.7982 88.9191 86.7983C88.9607 86.7984 89.0019 86.8067 89.0401 86.8225C89.0783 86.8383 89.1128 86.8614 89.1415 86.8904C89.1702 86.9194 89.1925 86.9537 89.2071 86.9912L103.686 122.205C103.702 122.242 103.71 122.281 103.71 122.32C103.71 122.36 103.701 122.399 103.685 122.435C103.668 122.472 103.644 122.504 103.614 122.531C103.584 122.558 103.548 122.579 103.509 122.592C103.474 122.609 103.435 122.617 103.396 122.617V122.617Z" fill="#D0BCFF"/>
<path d="M92.8896 74.9849C91.616 76.5516 90.8576 78.4479 90.7115 80.4313C90.5793 83.4934 94.5201 90.0412 94.5201 90.0412L103.698 84.5161L99.2288 74.18L92.8896 74.9849Z" fill="#21005D"/>
<path d="M94.5452 90.3135H94.4885C94.4066 90.2908 94.3367 90.2389 94.2934 90.1683C94.1297 89.902 90.3086 83.5115 90.4408 80.395C90.5857 78.3626 91.362 76.4188 92.6692 74.8154C92.7201 74.7607 92.789 74.7244 92.8644 74.7126L99.2287 73.8593C99.2974 73.85 99.3673 73.8628 99.4276 73.8956C99.488 73.9284 99.5353 73.9795 99.5624 74.0408L104.032 84.3769C104.06 84.4437 104.062 84.5178 104.039 84.5863C104.016 84.6549 103.969 84.7135 103.906 84.7521L94.734 90.2772C94.6763 90.3072 94.6105 90.3199 94.5452 90.3135V90.3135ZM93.0595 75.2875C91.8931 76.7758 91.1961 78.5549 91.0514 80.4131C90.9381 83.0093 93.922 88.3225 94.6585 89.5873L103.302 84.3648L99.0336 74.4826L93.0595 75.2875Z" fill="#21005D"/>
<path d="M104.485 112.347C104.485 112.347 110.812 107.094 107.268 104.365C107.268 104.365 109.546 99.3243 103.723 98.5739C103.723 98.5739 105.612 93.0064 101.004 91.6448C96.3959 90.2832 87.4129 97.5512 86.4686 100.165C85.5243 102.78 89.5343 103.191 92.4741 101.981C92.4741 101.981 88.1557 104.402 88.8985 106.132C89.9813 108.692 93.6198 107.439 96.4526 106.647C96.4526 106.647 91.278 109.382 94.6837 111.93C97.2961 113.884 103.396 109.975 103.396 109.975L104.485 112.347Z" fill="white"/>
<path d="M96.5975 112.771C95.8439 112.802 95.1013 112.589 94.4887 112.166C94.0916 111.919 93.7671 111.579 93.5466 111.177C93.3261 110.776 93.2169 110.326 93.2296 109.872C93.4169 108.909 93.9686 108.047 94.7782 107.451C92.2602 108.117 89.5848 108.535 88.6153 106.241C88.118 105.073 89.4274 103.748 90.6298 102.828C88.9804 103.106 87.4067 102.889 86.6135 102.181C86.3159 101.918 86.1137 101.571 86.0366 101.189C85.9596 100.808 86.0117 100.413 86.1854 100.063C87.1738 97.3272 96.3772 89.9564 101.111 91.3543C101.69 91.5073 102.231 91.7725 102.7 92.1336C103.168 92.4947 103.555 92.9441 103.837 93.4542C104.806 95.2697 104.359 97.4846 104.133 98.2955C105.788 98.5739 106.934 99.2395 107.545 100.28C108.432 101.799 107.885 103.627 107.652 104.244C107.967 104.506 108.221 104.829 108.397 105.192C108.572 105.555 108.666 105.95 108.671 106.35C108.728 109.17 104.894 112.402 104.706 112.541C104.668 112.572 104.624 112.594 104.575 112.606C104.527 112.618 104.477 112.618 104.429 112.607C104.381 112.597 104.337 112.576 104.298 112.547C104.26 112.517 104.23 112.48 104.208 112.438L103.27 110.386C102.257 111.016 99.1156 112.771 96.5975 112.771ZM96.4527 106.338C96.5152 106.337 96.5767 106.354 96.6285 106.388C96.6804 106.421 96.7202 106.469 96.7423 106.526C96.7721 106.594 96.7744 106.671 96.7489 106.742C96.7233 106.812 96.6717 106.871 96.6038 106.907C96.6038 106.907 93.9725 108.317 93.8403 109.933C93.8409 110.287 93.9361 110.636 94.1169 110.946C94.2976 111.255 94.5578 111.515 94.8727 111.7C97.2837 113.515 103.163 109.775 103.22 109.739C103.258 109.713 103.301 109.695 103.347 109.688C103.393 109.681 103.44 109.684 103.484 109.697C103.528 109.71 103.569 109.731 103.604 109.761C103.639 109.79 103.667 109.826 103.686 109.866L104.599 111.857C105.511 111.028 108.073 108.504 108.029 106.411C108.025 106.061 107.935 105.718 107.768 105.408C107.601 105.098 107.36 104.83 107.066 104.625C107.014 104.583 106.977 104.525 106.961 104.461C106.945 104.397 106.951 104.329 106.978 104.268C106.978 104.268 107.897 102.181 106.978 100.637C106.43 99.7055 105.316 99.1245 103.679 98.9127C103.634 98.9063 103.59 98.8905 103.551 98.8666C103.512 98.8426 103.478 98.8109 103.453 98.7736C103.428 98.7363 103.412 98.694 103.406 98.65C103.401 98.6059 103.406 98.5613 103.421 98.5194C103.421 98.4891 104.334 95.7478 103.264 93.7689C103.024 93.3256 102.691 92.9353 102.286 92.6227C101.88 92.3101 101.412 92.0822 100.91 91.9534C96.5597 90.6705 87.69 97.7387 86.7646 100.28C86.6423 100.522 86.6015 100.794 86.6477 101.058C86.694 101.323 86.8251 101.567 87.0227 101.757C87.9418 102.568 90.378 102.55 92.3483 101.715C92.4217 101.685 92.5039 101.684 92.5784 101.71C92.653 101.737 92.7144 101.789 92.7502 101.857C92.7861 101.926 92.7938 102.004 92.7718 102.078C92.7498 102.151 92.6997 102.214 92.6316 102.253C91.574 102.858 88.6657 104.813 89.1882 106.029C90.0947 108.16 93.11 107.294 95.7728 106.538L96.3646 106.368C96.3915 106.352 96.4215 106.342 96.4527 106.338V106.338Z" fill="#21005D"/>
<path d="M99.4365 82.4101C99.4365 82.4101 99.5939 77.3329 95.1181 79.227C90.6422 81.1212 83.8435 85.6417 87.3751 88.619C90.9066 91.5964 98.3726 86.2831 99.4365 82.4101Z" fill="white"/>
<path d="M89.9372 89.793C88.9237 89.8219 87.9356 89.4851 87.1674 88.849C86.774 88.5567 86.4692 88.1685 86.2843 87.7248C86.0995 87.2812 86.0414 86.798 86.1161 86.3255C86.6071 83.2574 92.1342 80.159 94.9921 78.9547C96.3582 78.3496 97.4724 78.3496 98.3034 78.8942C99.8142 79.8685 99.7512 82.3194 99.7512 82.4222C99.7542 82.4443 99.7542 82.4667 99.7512 82.4888C99.0084 85.212 95.3447 88.4799 91.9453 89.4844C91.2953 89.6813 90.6187 89.7853 89.9372 89.793V89.793ZM96.9058 79.1121C96.3297 79.1321 95.7639 79.266 95.2439 79.5054C92.0523 80.8549 87.1548 83.8141 86.733 86.4163C86.6756 86.7891 86.7244 87.17 86.874 87.5184C87.0236 87.8668 87.2685 88.1698 87.5828 88.3951C88.8418 89.4542 90.5415 89.2545 91.7439 88.9035C94.8914 87.9715 98.4104 84.8671 99.1217 82.3678C99.1217 82.0894 99.0902 80.1287 97.9508 79.3965C97.6413 79.2005 97.2763 79.1012 96.9058 79.1121Z" fill="#21005D"/>
<path d="M65.6886 110.278C65.6886 110.278 70.7247 96.8189 71.8389 94.5435C73.7275 90.6947 78.2284 85.563 82.0873 86.6341C85.9462 87.7053 94.048 91.318 90.7683 93.7689C87.7781 96.0141 80.8094 92.6494 80.8094 92.6494C80.8094 92.6494 82.5469 99.766 79.0342 103.754" fill="white"/>
<path d="M65.6885 110.58C65.6531 110.586 65.6169 110.586 65.5815 110.58C65.5421 110.567 65.5059 110.547 65.4749 110.52C65.4439 110.494 65.4189 110.461 65.4012 110.425C65.3836 110.389 65.3737 110.35 65.3723 110.31C65.3708 110.27 65.3777 110.23 65.3926 110.193C65.5941 109.642 70.4287 96.6979 71.5555 94.4285C73.5385 90.4043 78.1402 85.2302 82.1753 86.3497C84.983 87.1304 91.3095 89.6841 91.8131 92.1895C91.8708 92.5388 91.8211 92.8966 91.6701 93.2192C91.5192 93.5417 91.2735 93.8148 90.9633 94.0049C88.3319 95.9717 83.0063 93.9384 81.2374 93.1698C81.5773 94.9853 82.2887 100.522 79.2733 103.942C79.2488 103.977 79.2167 104.007 79.1792 104.03C79.1417 104.053 79.0997 104.068 79.0558 104.074C79.0119 104.08 78.9671 104.077 78.9245 104.065C78.8819 104.053 78.8423 104.033 78.8084 104.006C78.7745 103.978 78.747 103.944 78.7277 103.906C78.7084 103.867 78.6978 103.825 78.6965 103.783C78.6953 103.74 78.7034 103.698 78.7203 103.658C78.7373 103.619 78.7627 103.584 78.7949 103.554C82.1628 99.7237 80.5197 92.7825 80.5008 92.7099C80.4885 92.6534 80.4925 92.5947 80.5125 92.5403C80.5325 92.4859 80.5676 92.4378 80.6142 92.4013C80.6608 92.3659 80.7171 92.3442 80.7763 92.3388C80.8355 92.3334 80.8951 92.3446 80.9478 92.371C81.017 92.4013 87.7717 95.6268 90.573 93.5269C90.7914 93.4083 90.968 93.2298 91.0801 93.0142C91.1923 92.7985 91.2349 92.5556 91.2025 92.3165C90.8185 90.3922 85.5369 87.9231 82.0117 86.9488C78.3731 85.9322 73.9666 90.9731 72.1347 94.7009C71.033 96.9399 66.0473 110.278 65.997 110.435C65.9651 110.485 65.9193 110.525 65.8646 110.551C65.81 110.576 65.749 110.587 65.6885 110.58V110.58Z" fill="#21005D"/>
<path d="M143.068 93.7447C143.068 93.7447 117.371 74.9849 102.213 74.6339C98.3774 74.5827 94.543 74.7849 90.7366 75.2391C81.7661 76.2194 72.7516 78.0228 66.5006 78.2648C54.0929 78.7187 44.8077 74.8941 44.7888 62.4461C44.7888 51.7953 50.0137 49.8407 61.0616 46.9117C66.5257 45.4654 77.0574 43.9767 87.0288 41.314C93.1099 39.6861 98.9895 37.6286 103.365 34.8751C114.948 27.6133 123.591 11.032 123.591 11.032L143.068 93.7447Z" fill="white"/>
<path d="M143.068 94.017C142.999 94.0184 142.933 93.9971 142.879 93.9565C142.621 93.7689 117.069 75.2451 102.206 74.9062C98.3857 74.8541 94.566 75.0563 90.7745 75.5114C87.0855 75.9108 83.4218 76.4494 79.8777 76.9698C74.9045 77.702 70.2084 78.3919 66.5132 78.525C58.4429 78.8155 52.5003 77.2663 48.8869 73.9017C45.9849 71.2148 44.4804 67.3478 44.4804 62.4037C44.4804 51.4685 50.146 49.4594 60.9861 46.5789C63.2964 45.9737 66.4943 45.3685 70.1958 44.6363C75.3515 43.6439 81.1933 42.5183 86.9533 41.0054C94.0605 39.0991 99.3735 37.0053 103.201 34.6028C114.576 27.462 123.232 11.0441 123.314 10.8807C123.343 10.8249 123.39 10.7793 123.447 10.75C123.505 10.7207 123.57 10.7093 123.635 10.7173C123.699 10.7234 123.76 10.7489 123.809 10.7902C123.857 10.8315 123.891 10.8865 123.905 10.9473L143.383 93.6539C143.396 93.7146 143.391 93.7779 143.366 93.8353C143.341 93.8927 143.299 93.9414 143.244 93.9747C143.19 94.0042 143.129 94.0189 143.068 94.017V94.017ZM100.853 74.289C101.319 74.289 101.772 74.289 102.219 74.289C108.558 74.4342 117.396 77.7081 128.482 84.0138C135.174 87.8263 140.695 91.6448 142.57 92.9701L123.446 11.8792C121.608 15.1773 113.638 28.7449 103.509 35.1051C99.6316 37.5257 94.2619 39.6619 87.0855 41.5803C81.3066 43.1234 75.4585 44.2551 70.2902 45.2475C66.6013 45.9616 63.416 46.5728 61.1183 47.178C50.2719 50.0585 45.0595 51.9042 45.0784 62.4218C45.0784 67.1965 46.4948 70.894 49.2709 73.4841C52.7836 76.7277 58.5688 78.2285 66.4628 77.938C70.1203 77.8049 74.8038 77.115 79.7581 76.3888C83.3085 75.8684 86.9785 75.3298 90.6737 74.9244C94.0513 74.5249 97.45 74.3127 100.853 74.289V74.289Z" fill="#21005D"/>
<path d="M92.8896 74.9849C83.9191 75.9652 72.7453 77.6778 66.5006 78.2225C52.2611 79.4691 45.6261 76.5583 44.7889 64.1344C43.9327 51.3596 50.0138 49.7983 61.0617 46.8693C66.5258 45.423 77.0575 43.9343 87.0289 41.2716C87.0289 41.2716 83.2518 47.9586 84.9326 59.7652C85.751 65.5478 88.5509 70.9032 92.8896 74.9849V74.9849Z" fill="#21005D"/>
<path d="M61.1246 78.8034C55.5345 78.8034 51.7449 77.7928 49.1639 75.6627C46.3437 73.3449 44.8581 69.6958 44.4866 64.1647C43.6179 51.1901 49.7431 49.5683 60.8539 46.6152H60.9798C63.2901 46.01 66.488 45.4049 70.1895 44.6726C75.3452 43.6802 81.187 42.5546 86.947 41.0417C87.006 41.0256 87.0687 41.0268 87.127 41.0451C87.1853 41.0634 87.2366 41.0981 87.2743 41.1446C87.3146 41.1902 87.3392 41.2466 87.3449 41.3062C87.3505 41.3658 87.3369 41.4256 87.3058 41.4774C87.2681 41.544 83.6232 48.2249 85.2473 59.7834C86.0741 65.4891 88.8329 70.7741 93.0973 74.8215C93.1434 74.8592 93.177 74.9092 93.1938 74.9652C93.2106 75.0211 93.2099 75.0806 93.1917 75.1362C93.1731 75.192 93.1384 75.2415 93.0916 75.279C93.0447 75.3165 92.9878 75.3404 92.9273 75.348C88.7915 75.8018 84.2212 76.4009 79.8021 76.9819C74.7094 77.6536 69.8936 78.289 66.532 78.5856C64.5554 78.7187 62.755 78.8034 61.1246 78.8034ZM86.4686 41.7558C80.9037 43.2081 75.3011 44.2914 70.328 45.2475C66.6391 45.9616 63.4537 46.5728 61.156 47.178L61.0301 47.2143C50.2278 50.0767 44.2789 51.6561 45.1162 64.1586C45.475 69.5082 46.8914 73.0242 49.5668 75.2269C52.7773 77.8654 57.9896 78.7066 66.4817 77.9622C69.8307 77.6718 74.6653 77.0364 79.7014 76.3646C83.8876 75.8139 88.2123 75.2451 92.1719 74.8033C88.0893 70.7009 85.4473 65.4711 84.6178 59.8499C83.2518 50.0464 85.5999 43.6741 86.456 41.7558H86.4686Z" fill="#21005D"/>
<path d="M152.089 95.9717C142.564 97.6419 131.875 85.2604 125.46 66.67C122.238 57.222 120.364 47.3975 119.889 37.4652C119.008 17.7674 124.472 2.43272 134.047 0.756441C145.888 -1.31924 159.529 18.306 164.515 44.6C169.501 70.894 163.936 93.896 152.089 95.9717Z" fill="#9A82DB"/>
<path d="M135.784 0.611211C147.197 0.611211 159.769 19.595 164.515 44.6061C169.501 70.9001 163.936 93.896 152.089 95.9717C151.516 96.0733 150.934 96.124 150.351 96.123C141.286 96.123 131.466 84.1348 125.46 66.67C122.238 57.222 120.364 47.3975 119.889 37.4652C119.008 17.7674 124.472 2.43273 134.047 0.756448C134.62 0.654826 135.202 0.604182 135.784 0.605159V0.611211ZM135.784 3.20124e-06C135.164 -0.000482115 134.544 0.054215 133.934 0.163396C124.233 1.85783 118.334 16.8596 119.26 37.4894C119.742 47.4768 121.626 57.3557 124.862 66.8576C131.126 85.0123 141.129 96.7221 150.351 96.7221C150.972 96.7226 151.592 96.6679 152.202 96.5587C158.195 95.5118 162.822 89.4542 165.227 79.4994C167.593 69.72 167.562 57.2901 165.132 44.4911C162.834 32.388 158.591 21.1442 153.171 12.9019C147.751 4.6597 141.551 0.0060549 135.791 0.0060549L135.784 3.20124e-06Z" fill="#21005D"/>
<path d="M144.774 59.977L125.46 66.67C122.238 57.222 120.364 47.3975 119.889 37.4652H141.651L144.774 59.977Z" fill="white"/>
<path d="M144.772 59.9895C147.778 59.592 149.496 54.237 148.608 48.0289C147.72 41.8207 144.562 37.1102 141.556 37.5077C138.549 37.9052 136.831 43.2602 137.719 49.4683C138.607 55.6765 141.765 60.387 144.772 59.9895Z" fill="#D0BCFF"/>
<path d="M96.4526 106.943C96.3807 106.945 96.3103 106.923 96.2533 106.881C96.1962 106.839 96.1558 106.779 96.1389 106.712C96.122 106.645 96.1295 106.574 96.1602 106.511C96.191 106.449 96.243 106.398 96.3078 106.368C98.2648 105.394 100.357 104.695 102.521 104.293C102.603 104.282 102.687 104.303 102.754 104.35C102.821 104.397 102.866 104.468 102.88 104.547C102.886 104.586 102.884 104.626 102.874 104.665C102.864 104.704 102.847 104.74 102.822 104.772C102.798 104.804 102.767 104.831 102.731 104.852C102.696 104.872 102.656 104.886 102.615 104.892C100.521 105.29 98.4957 105.968 96.5974 106.907C96.5533 106.931 96.5033 106.943 96.4526 106.943Z" fill="#21005D"/>
<path d="M92.4741 102.277C92.3943 102.276 92.318 102.246 92.2601 102.193C92.2308 102.165 92.2075 102.132 92.1916 102.096C92.1757 102.059 92.1675 102.02 92.1675 101.981C92.1675 101.941 92.1757 101.902 92.1916 101.866C92.2075 101.83 92.2308 101.797 92.2601 101.769C94.1788 99.9826 96.6805 98.888 99.3421 98.6707C99.4246 98.6639 99.5066 98.6887 99.5702 98.7397C99.6338 98.7907 99.674 98.8637 99.682 98.943C99.6863 98.9824 99.6824 99.0223 99.6704 99.0603C99.6584 99.0982 99.6386 99.1335 99.6122 99.1639C99.5858 99.1944 99.5533 99.2195 99.5166 99.2377C99.4799 99.2558 99.4399 99.2668 99.3987 99.2698C96.8969 99.4965 94.5458 100.521 92.7196 102.181C92.688 102.212 92.6498 102.237 92.6075 102.254C92.5653 102.271 92.5198 102.279 92.4741 102.277V102.277Z" fill="#21005D"/>
<path d="M103.396 110.272C103.355 110.279 103.312 110.28 103.271 110.272C103.23 110.264 103.19 110.248 103.155 110.226C103.12 110.203 103.09 110.174 103.067 110.141C103.043 110.107 103.027 110.069 103.019 110.029C103.01 109.99 103.01 109.949 103.018 109.909C103.027 109.869 103.043 109.832 103.066 109.798C103.09 109.764 103.12 109.735 103.155 109.713C103.19 109.69 103.229 109.674 103.27 109.666L105.367 108.807C105.443 108.775 105.53 108.773 105.608 108.803C105.686 108.833 105.749 108.891 105.782 108.964C105.815 109.038 105.817 109.122 105.786 109.197C105.756 109.272 105.695 109.332 105.618 109.364L103.522 110.223C103.485 110.248 103.441 110.265 103.396 110.272V110.272Z" fill="#21005D"/>
<path d="M78.0459 133.304C78.0459 133.304 82.1692 130.193 82.2699 129.866C82.3706 129.54 62.7551 111.712 62.7551 111.712L51.6821 118.411L78.0459 133.304Z" fill="#21005D"/>
<path d="M78.0458 133.606C77.9903 133.607 77.9357 133.592 77.8885 133.564L51.4932 118.671C51.4465 118.645 51.4075 118.608 51.38 118.564C51.3524 118.519 51.3372 118.469 51.3358 118.417C51.3355 118.365 51.3492 118.313 51.3757 118.268C51.4022 118.222 51.4405 118.184 51.4869 118.157L62.604 111.427C62.6634 111.393 62.733 111.377 62.8023 111.384C62.8716 111.39 62.9367 111.418 62.988 111.464C82.7357 129.449 82.6475 129.721 82.572 129.957C82.572 130.06 82.4398 130.369 78.241 133.546C78.1848 133.586 78.1161 133.608 78.0458 133.606V133.606ZM52.236 118.405L78.0018 132.929C79.6574 131.676 81.3948 130.302 81.8607 129.842C80.6016 128.45 69.9692 118.665 62.7173 112.057L52.236 118.405Z" fill="#21005D"/>
<path d="M79.2293 133.631L54.6344 113.8L7.55342 142.454L64.0959 150L79.2293 133.631Z" fill="#9A82DB"/>
<path d="M53.7405 76.2739C53.677 76.2727 53.6151 76.2537 53.5626 76.2194C53.5101 76.185 53.4691 76.1366 53.4446 76.0802C49.6235 66.6337 49.2458 57.7137 52.3682 50.9602C52.4311 50.8271 52.4689 50.7363 52.4878 50.6939C52.4876 50.656 52.4957 50.6185 52.5115 50.5838C52.5273 50.5491 52.5504 50.5179 52.5795 50.4923C52.6085 50.4666 52.6428 50.4471 52.6801 50.4349C52.7174 50.4228 52.757 50.4182 52.7962 50.4216C52.8825 50.4278 52.9629 50.466 53.0205 50.5281C53.078 50.5902 53.1082 50.6713 53.1047 50.7544C53.0833 50.915 53.0275 51.0695 52.941 51.2083C49.8879 57.8106 50.2719 66.5672 54.0301 75.8563C54.0594 75.9311 54.0574 76.0138 54.0245 76.0872C53.9916 76.1605 53.9304 76.2188 53.8538 76.2497C53.8186 76.2663 53.7798 76.2746 53.7405 76.2739V76.2739Z" fill="white"/>
<path d="M65.7893 48.6727C65.7162 48.6713 65.6458 48.6459 65.5897 48.6008C65.5336 48.5557 65.4952 48.4935 65.4809 48.4246C65.4727 48.386 65.4725 48.3462 65.4804 48.3076C65.4884 48.269 65.5042 48.2323 65.5271 48.1996C65.5499 48.1669 65.5793 48.139 65.6135 48.1173C65.6478 48.0957 65.6861 48.0808 65.7264 48.0736L79.5756 45.4593C79.6158 45.4505 79.6574 45.4498 79.6979 45.457C79.7384 45.4643 79.777 45.4794 79.8112 45.5015C79.8454 45.5236 79.8745 45.5522 79.8968 45.5856C79.919 45.6189 79.934 45.6562 79.9407 45.6953C79.949 45.7343 79.9492 45.7744 79.9413 45.8134C79.9334 45.8524 79.9177 45.8896 79.8949 45.9227C79.8721 45.9559 79.8427 45.9844 79.8084 46.0067C79.7742 46.0289 79.7357 46.0444 79.6952 46.0524L65.846 48.6666L65.7893 48.6727Z" fill="white"/>
<path d="M65.7893 51.287C65.7162 51.2856 65.6458 51.2602 65.5897 51.2151C65.5336 51.17 65.4952 51.1078 65.4809 51.0389C65.4727 51.0003 65.4725 50.9605 65.4804 50.9219C65.4884 50.8833 65.5042 50.8466 65.5271 50.8139C65.5499 50.7812 65.5793 50.7532 65.6135 50.7316C65.6478 50.71 65.6861 50.6951 65.7264 50.6879L79.5756 48.0736C79.6158 48.0648 79.6574 48.064 79.6979 48.0713C79.7384 48.0785 79.777 48.0937 79.8112 48.1158C79.8454 48.1379 79.8745 48.1665 79.8968 48.1998C79.919 48.2331 79.934 48.2705 79.9407 48.3096C79.949 48.3485 79.9492 48.3887 79.9413 48.4277C79.9334 48.4667 79.9177 48.5039 79.8949 48.537C79.8721 48.5702 79.8427 48.5987 79.8084 48.6209C79.7742 48.6432 79.7357 48.6587 79.6952 48.6666L65.846 51.2809L65.7893 51.287Z" fill="white"/>
<path d="M65.7893 54.2946C65.7167 54.2946 65.6464 54.2705 65.5901 54.2264C65.5339 54.1823 65.4953 54.1209 65.4808 54.0525C65.4658 53.9741 65.4829 53.893 65.5287 53.8265C65.5745 53.7599 65.6453 53.713 65.7263 53.6955L79.5755 51.0812C79.6573 51.0671 79.7415 51.0846 79.8099 51.1299C79.8783 51.1753 79.9253 51.2448 79.9406 51.3233C79.9497 51.3619 79.9506 51.4019 79.943 51.4409C79.9355 51.4798 79.9197 51.5169 79.8967 51.5498C79.8737 51.5826 79.844 51.6106 79.8093 51.632C79.7746 51.6535 79.7358 51.6678 79.6951 51.6743L65.8459 54.2885L65.7893 54.2946Z" fill="white"/>
<path d="M38.796 108.801C38.7171 108.8 38.6414 108.771 38.5834 108.72C38.5253 108.668 38.4889 108.598 38.4812 108.523C37.8517 101.866 32.1861 97.0247 27.0682 94.6827C20.5087 91.7114 7.89337 88.141 0.370744 89.5026C0.300756 89.5176 0.227501 89.5081 0.164073 89.476C0.100645 89.4438 0.0511774 89.3911 0.0245118 89.3271C-0.00308301 89.2638 -0.00752153 89.1935 0.0119213 89.1275C0.0313641 89.0616 0.0735367 89.0039 0.13153 88.964C0.761038 88.5404 1.34019 88.1228 1.9634 87.6932C9.58046 82.4404 18.211 76.4796 19.3441 66.9181C21.1445 51.6682 8.10111 37.8162 7.96892 37.677C7.9245 37.6226 7.90036 37.5555 7.90036 37.4864C7.90036 37.4173 7.9245 37.3501 7.96892 37.2958C8.01043 37.24 8.07042 37.1995 8.13904 37.1808C8.20766 37.1621 8.28085 37.1664 8.34662 37.1929C8.51029 37.2595 25.0538 43.898 41.5469 35.1172C57.7945 26.4695 57.2343 9.36176 57.228 9.19232C57.225 9.1327 57.2401 9.07353 57.2714 9.02198C57.3026 8.97042 57.3488 8.92869 57.4042 8.90184C57.461 8.87831 57.5234 8.87037 57.5845 8.87892C57.6456 8.88747 57.7031 8.91217 57.7505 8.95026C57.9142 9.08944 74.3884 22.8688 86.3868 21.9732C90.7995 21.6787 95.0686 20.3429 98.8161 18.084C102.564 15.8252 105.674 12.7129 107.872 9.02287C107.907 8.95103 107.971 8.89551 108.049 8.86833C108.126 8.84115 108.212 8.84449 108.287 8.87764C108.325 8.89506 108.358 8.91939 108.385 8.94922C108.413 8.97905 108.434 9.0138 108.447 9.05146C108.461 9.08913 108.466 9.12899 108.464 9.16873C108.461 9.20848 108.451 9.24734 108.432 9.28309C106.184 13.0711 102.995 16.2653 99.1511 18.5809C95.3067 20.8965 90.9259 22.2615 86.3994 22.5542C75.2068 23.4074 60.7784 12.212 57.8197 9.80958C57.7442 13.1137 56.5607 27.7767 41.8113 35.6195C27.5781 43.2323 13.282 39.4925 9.22793 38.1551C12.0733 41.4895 21.5411 53.6955 19.9674 66.9847C18.8028 76.8185 10.0526 82.858 2.3411 88.1652L1.55422 88.7098C9.29718 87.8928 21.069 91.2696 27.3641 94.1139C32.6268 96.4982 38.4812 101.521 39.1359 108.45C39.1429 108.529 39.1171 108.608 39.0641 108.669C39.011 108.73 38.9351 108.769 38.8526 108.777L38.796 108.801Z" fill="#D0BCFF"/>
<path d="M133.732 145.697C133.647 145.697 133.566 145.664 133.506 145.607C133.386 145.486 121.369 133.655 103.761 135.924C103.72 135.93 103.678 135.928 103.638 135.918C103.598 135.908 103.56 135.89 103.527 135.866C103.495 135.842 103.467 135.811 103.447 135.777C103.426 135.742 103.413 135.704 103.409 135.664C103.398 135.584 103.421 135.504 103.471 135.441C103.522 135.377 103.597 135.336 103.679 135.325C119.146 133.316 130.383 142.018 133.266 144.523C132.637 140.632 131.774 125.431 151.522 112.208C162.759 104.692 180.882 107.282 189.041 110.514C181.487 101.951 174.562 91.9474 178.125 81.8413C181.361 72.649 195.928 62.4763 198.968 60.4127C177.628 53.9194 168.67 42.6393 170.785 24.9566C170.794 24.8764 170.836 24.8029 170.902 24.7524C170.967 24.7019 171.051 24.6785 171.134 24.6873C171.218 24.6962 171.294 24.7365 171.347 24.7995C171.399 24.8625 171.424 24.9429 171.415 25.0232C169.325 42.5727 178.339 53.6592 199.774 60.0194C199.832 60.0357 199.884 60.0677 199.923 60.1115C199.963 60.1553 199.988 60.2091 199.997 60.2664C200.005 60.3238 199.997 60.3823 199.972 60.4351C199.947 60.4879 199.906 60.5326 199.856 60.564C199.68 60.679 182.198 72.1709 178.729 82.0349C175.129 92.2621 182.632 102.489 190.445 111.143C190.494 111.195 190.523 111.263 190.526 111.334C190.529 111.405 190.506 111.474 190.461 111.531C190.416 111.587 190.352 111.626 190.28 111.641C190.208 111.657 190.132 111.648 190.067 111.615C182.815 108.208 163.552 104.904 151.887 112.704C129.514 127.682 134.003 145.135 134.053 145.31C134.07 145.375 134.065 145.443 134.038 145.504C134.01 145.565 133.963 145.616 133.902 145.649C133.851 145.679 133.792 145.696 133.732 145.697Z" fill="#D0BCFF"/>
</svg>
