<svg width="160" height="220" viewBox="0 0 160 220" fill="none" xmlns="http://www.w3.org/2000/svg">
<g clip-path="url(#clip0_54476_36600)">
<path d="M36.7608 13.5309V7.86813C36.7606 6.90804 36.9496 5.95731 37.3169 5.07025C37.6842 4.18318 38.2227 3.37715 38.9016 2.69818C39.5805 2.01922 40.3865 1.48061 41.2735 1.11313C42.1606 0.74564 43.1114 0.556473 44.0716 0.556427H116.166C117.126 0.556473 118.077 0.745643 118.964 1.11313C119.851 1.48062 120.657 2.01923 121.336 2.69821C122.014 3.37718 122.553 4.18321 122.92 5.07028C123.287 5.95734 123.476 6.90806 123.476 7.86813V13.5309H149.45C152.202 13.5308 154.842 14.6239 156.789 16.5697C158.735 18.5155 159.829 21.1548 159.83 23.9069V209.622C159.83 210.985 159.562 212.334 159.04 213.594C158.519 214.853 157.754 215.997 156.79 216.961C155.826 217.925 154.682 218.689 153.423 219.211C152.163 219.732 150.813 220 149.45 220H10.7873C8.03449 220 5.39439 218.907 3.44783 216.96C1.50128 215.014 0.407715 212.374 0.407715 209.622V23.9069C0.408461 21.1548 1.50234 18.5157 3.44881 16.5699C5.39527 14.6242 8.03495 13.531 10.7873 13.5309H36.7608Z" fill="#21005D"/>
<path d="M10.0073 26.853L10.0073 206.676C10.0073 209.256 12.099 211.347 14.6791 211.347H145.557C148.137 211.347 150.229 209.256 150.229 206.676V26.853C150.229 24.2731 148.137 22.1817 145.557 22.1817H14.6791C12.099 22.1817 10.0073 24.2731 10.0073 26.853Z" fill="#FAFAFA"/>
<path d="M46.061 13.8447V30.5194C46.061 32.2735 47.4832 33.6954 49.2375 33.6954L111 33.6954C112.755 33.6954 114.177 32.2735 114.177 30.5194V13.8447C114.177 12.0906 112.755 10.6686 111 10.6686L49.2375 10.6686C47.4832 10.6686 46.061 12.0906 46.061 13.8447Z" fill="#6750A4"/>
<path d="M43.6036 115.358H25.5154C23.6748 115.356 21.9103 114.624 20.6088 113.322C19.3074 112.021 18.5753 110.257 18.5732 108.416V90.3313C18.5753 88.4909 19.3074 86.7266 20.6088 85.4253C21.9103 84.1239 23.6748 83.392 25.5154 83.3899H43.6026C45.4431 83.392 47.2077 84.1239 48.5091 85.4253C49.8106 86.7266 50.5427 88.4909 50.5447 90.3313V108.416C50.5427 110.256 49.8108 112.021 48.5095 113.322C47.2083 114.623 45.444 115.355 43.6036 115.358ZM25.5154 86.9072C24.6075 86.9082 23.737 87.2693 23.095 87.9112C22.4531 88.5531 22.0919 89.4234 22.0909 90.3313V108.416C22.0919 109.324 22.4531 110.194 23.095 110.836C23.737 111.478 24.6075 111.839 25.5154 111.84H43.6026C44.5105 111.839 45.3809 111.478 46.0229 110.836C46.6649 110.194 47.026 109.324 47.027 108.416V90.3313C47.026 89.4234 46.6649 88.5531 46.0229 87.9112C45.3809 87.2693 44.5105 86.9082 43.6026 86.9072H25.5154Z" fill="#6750A4"/>
<path d="M43.6036 155.98H25.5154C23.6748 155.978 21.9103 155.246 20.6088 153.945C19.3074 152.644 18.5753 150.879 18.5732 149.039V130.955C18.5753 129.115 19.3074 127.351 20.6088 126.049C21.9103 124.748 23.6748 124.016 25.5154 124.014H43.6026C45.4431 124.016 47.2077 124.748 48.5091 126.049C49.8106 127.351 50.5427 129.115 50.5447 130.955V149.04C50.5423 150.88 49.8102 152.644 48.509 153.945C47.2078 155.246 45.4438 155.978 43.6036 155.98ZM25.5154 127.531C24.6075 127.532 23.737 127.893 23.095 128.535C22.4531 129.177 22.0919 130.048 22.0909 130.955V149.04C22.0923 149.948 22.4536 150.818 23.0955 151.46C23.7375 152.101 24.6077 152.462 25.5154 152.463H43.6026C44.5105 152.462 45.3809 152.101 46.0229 151.459C46.6649 150.817 47.026 149.947 47.027 149.039V130.955C47.026 130.048 46.6649 129.177 46.0229 128.535C45.3809 127.893 44.5105 127.532 43.6026 127.531H25.5154Z" fill="#6750A4"/>
<path d="M43.6036 196.605H25.5154C23.6748 196.603 21.9102 195.871 20.6088 194.569C19.3073 193.268 18.5753 191.504 18.5732 189.663V171.579C18.5753 169.739 19.3074 167.975 20.6088 166.673C21.9103 165.372 23.6748 164.64 25.5154 164.638H43.6026C45.4431 164.64 47.2077 165.372 48.5091 166.673C49.8106 167.975 50.5427 169.739 50.5447 171.579V189.665C50.5423 191.505 49.8102 193.268 48.509 194.569C47.2079 195.87 45.4438 196.602 43.6036 196.605ZM25.5154 168.155C24.6075 168.156 23.737 168.518 23.095 169.159C22.4531 169.801 22.0919 170.672 22.0909 171.579V189.665C22.0923 190.572 22.4536 191.442 23.0955 192.084C23.7375 192.726 24.6077 193.086 25.5154 193.088H43.6026C44.5105 193.086 45.3809 192.725 46.0229 192.083C46.6649 191.441 47.026 190.571 47.027 189.663V171.579C47.026 170.672 46.6649 169.801 46.0229 169.159C45.3809 168.518 44.5105 168.156 43.6026 168.155H25.5154Z" fill="#6750A4"/>
<path d="M30.788 106.352C30.5622 106.352 30.339 106.304 30.1333 106.211C29.9276 106.118 29.7442 105.982 29.5955 105.813L24.2275 99.6759C23.9639 99.3583 23.8349 98.9502 23.8679 98.5388C23.9009 98.1273 24.0933 97.745 24.4042 97.4734C24.715 97.2018 25.1197 97.0624 25.5319 97.0849C25.9441 97.1073 26.3312 97.2899 26.6107 97.5937L30.9596 102.565L42.6848 92.7648C42.8431 92.624 43.0281 92.5165 43.2288 92.4485C43.4295 92.3805 43.6418 92.3535 43.8532 92.3691C44.0645 92.3847 44.2706 92.4426 44.4591 92.5393C44.6476 92.636 44.8149 92.7695 44.9508 92.9321C45.0868 93.0946 45.1887 93.2827 45.2506 93.4854C45.3125 93.688 45.3331 93.901 45.3111 94.1118C45.2891 94.3225 45.225 94.5267 45.1227 94.7122C45.0203 94.8977 44.8817 95.0608 44.7152 95.1918L31.8028 105.985C31.5181 106.223 31.1589 106.352 30.788 106.352Z" fill="#6750A4"/>
<path d="M30.7884 146.976C30.5626 146.977 30.3394 146.929 30.1336 146.836C29.9279 146.743 29.7446 146.607 29.5959 146.437L24.2279 140.3C24.0911 140.144 23.9863 139.962 23.9198 139.765C23.8532 139.568 23.8261 139.36 23.84 139.153C23.868 138.734 24.0612 138.343 24.3773 138.067C24.5337 137.93 24.7157 137.825 24.9126 137.759C25.1096 137.692 25.3177 137.665 25.5251 137.679C25.9441 137.707 26.3347 137.9 26.6112 138.216L30.9601 143.188L42.6852 133.387C42.8444 133.252 43.0289 133.15 43.2279 133.086C43.4269 133.022 43.6365 132.999 43.8447 133.017C44.0528 133.034 44.2554 133.093 44.4407 133.19C44.6261 133.286 44.7905 133.418 44.9245 133.578C45.0584 133.739 45.1594 133.924 45.2214 134.123C45.2835 134.323 45.3055 134.533 45.286 134.741C45.2666 134.949 45.2062 135.151 45.1083 135.335C45.0104 135.52 44.8769 135.683 44.7156 135.816L31.8033 146.609C31.5187 146.847 31.1594 146.977 30.7884 146.976Z" fill="#6750A4"/>
<path d="M30.7884 187.601C30.5626 187.601 30.3393 187.553 30.1336 187.46C29.9279 187.367 29.7445 187.231 29.5959 187.061L24.2279 180.925C24.0911 180.768 23.9863 180.586 23.9198 180.389C23.8532 180.192 23.8261 179.984 23.84 179.777C23.8538 179.569 23.9084 179.367 24.0006 179.18C24.0928 178.994 24.2208 178.828 24.3773 178.691C24.5337 178.554 24.7157 178.449 24.9126 178.383C25.1096 178.316 25.3177 178.289 25.5251 178.303C25.7326 178.317 25.9353 178.371 26.1216 178.464C26.3079 178.556 26.4743 178.684 26.6112 178.84L30.9601 183.812L42.6852 174.011C42.8435 173.871 43.0286 173.763 43.2293 173.695C43.43 173.627 43.6423 173.6 43.8536 173.616C44.0649 173.631 44.271 173.689 44.4595 173.786C44.6481 173.882 44.8153 174.016 44.9513 174.179C45.0872 174.341 45.1892 174.529 45.251 174.732C45.3129 174.935 45.3335 175.148 45.3115 175.358C45.2895 175.569 45.2255 175.773 45.1231 175.959C45.0208 176.144 44.8822 176.307 44.7156 176.438L31.8033 187.231C31.519 187.47 31.1596 187.601 30.7884 187.601Z" fill="#6750A4"/>
<g opacity="0.62">
<path d="M60.3307 97.2659C59.1662 97.2659 58.2222 98.2097 58.2222 99.374C58.2222 100.538 59.1662 101.482 60.3307 101.482H139.502C140.666 101.482 141.61 100.538 141.61 99.374C141.61 98.2097 140.666 97.2659 139.502 97.2659H60.3307Z" fill="#6750A4"/>
<path d="M60.3302 84.3427C59.1657 84.3427 58.2217 85.2866 58.2217 86.4508C58.2217 87.6151 59.1657 88.5589 60.3302 88.5589H139.502C140.666 88.5589 141.61 87.6151 141.61 86.4508C141.61 85.2866 140.666 84.3427 139.502 84.3427H60.3302Z" fill="#6750A4"/>
<path d="M60.3302 110.189C59.1657 110.189 58.2217 111.133 58.2217 112.297C58.2217 113.461 59.1657 114.405 60.3302 114.405H121.913C123.078 114.405 124.022 113.461 124.022 112.297C124.022 111.133 123.078 110.189 121.913 110.189H60.3302Z" fill="#6750A4"/>
</g>
<g opacity="0.62">
<path d="M60.3307 137.89C59.1662 137.89 58.2222 138.834 58.2222 139.998C58.2222 141.162 59.1662 142.106 60.3307 142.106H139.502C140.666 142.106 141.611 141.162 141.611 139.998C141.611 138.834 140.666 137.89 139.502 137.89H60.3307Z" fill="#6750A4"/>
<path d="M60.3302 124.967C59.1657 124.967 58.2217 125.911 58.2217 127.075C58.2217 128.239 59.1657 129.183 60.3302 129.183H139.502C140.666 129.183 141.61 128.239 141.61 127.075C141.61 125.911 140.666 124.967 139.502 124.967H60.3302Z" fill="#6750A4"/>
<path d="M60.3302 150.813C59.1657 150.813 58.2217 151.757 58.2217 152.921C58.2217 154.086 59.1657 155.029 60.3302 155.029H121.913C123.078 155.029 124.022 154.086 124.022 152.921C124.022 151.757 123.078 150.813 121.913 150.813H60.3302Z" fill="#6750A4"/>
</g>
<g opacity="0.62">
<path d="M60.3307 178.514C59.1662 178.514 58.2222 179.458 58.2222 180.622C58.2222 181.786 59.1662 182.73 60.3307 182.73H139.502C140.666 182.73 141.61 181.786 141.61 180.622C141.61 179.458 140.666 178.514 139.502 178.514H60.3307Z" fill="#6750A4"/>
<path d="M60.3302 165.591C59.1657 165.591 58.2217 166.535 58.2217 167.699C58.2217 168.863 59.1657 169.807 60.3302 169.807H139.502C140.666 169.807 141.61 168.863 141.61 167.699C141.61 166.535 140.666 165.591 139.502 165.591H60.3302Z" fill="#6750A4"/>
<path d="M60.3302 191.437C59.1657 191.437 58.2217 192.381 58.2217 193.545C58.2217 194.71 59.1657 195.653 60.3302 195.653H121.913C123.078 195.653 124.022 194.71 124.022 193.545C124.022 192.381 123.078 191.437 121.913 191.437H60.3302Z" fill="#6750A4"/>
</g>
<path d="M60.3302 47.5788C59.1657 47.5788 58.2217 48.5226 58.2217 49.6869C58.2217 50.8512 59.1657 51.795 60.3302 51.795L132.466 51.795C133.631 51.795 134.575 50.8512 134.575 49.6869C134.575 48.5226 133.631 47.5788 132.466 47.5788L60.3302 47.5788Z" fill="#6750A4"/>
<path d="M69.1246 59.8316C67.9601 59.8316 67.0161 60.7754 67.0161 61.9397C67.0161 63.1039 67.9601 64.0477 69.1246 64.0477H123.672C124.837 64.0477 125.781 63.1039 125.781 61.9397C125.781 60.7754 124.837 59.8316 123.672 59.8316H69.1246Z" fill="#6750A4"/>
<g filter="url(#filter0_d_54476_36600)">
<g clip-path="url(#clip1_54476_36600)">
<ellipse cx="42.2181" cy="55.291" rx="5.49298" ry="8.75258" fill="white"/>
<path d="M42.2676 45.1793C44.2884 45.6154 46.0668 47.0615 47.1231 49.1405C48.8421 52.5278 49.3811 56.3826 48.578 59.5674C48.0552 61.6464 46.9882 63.4223 45.668 64.4113C45.2045 64.7569 44.3477 65.1715 43.8088 65.3098C42.8602 65.5439 41.7016 65.4959 40.6508 65.1664C39.2875 64.7411 37.8216 63.7255 37.0187 62.6461C36.6685 62.1728 36.3128 61.4444 36.2051 60.9606C36.0973 60.4821 36.1243 59.6631 36.259 59.3016C36.3074 59.1739 36.3398 59.057 36.329 59.0464C36.3183 59.0358 36.135 59.1527 35.9195 59.3016C35.0572 59.8972 34.5776 60.5724 34.3137 61.5721C34.2005 62.0028 34.1735 62.2154 34.168 62.8695L34.1628 63.6565H33.7532H33.3437L33.3115 63.2736C33.2683 62.7526 33.3599 61.8699 33.5162 61.2797C33.9096 59.8122 34.8095 58.818 36.421 58.0736C37.7198 57.4728 38.8082 57.26 39.552 57.4568C40.0963 57.6003 40.8939 58.1001 41.0286 58.3819C41.2172 58.77 40.9261 59.4773 40.4843 59.7005C40.2796 59.8068 40.0154 59.7908 39.5627 59.6633C38.6197 59.387 38.1078 59.8388 38.3665 60.7107C38.4905 61.1308 38.6251 61.386 38.8514 61.6095C39.2771 62.0295 39.6543 61.753 39.9239 60.8225C40.0047 60.5513 40.0424 60.5035 40.2042 60.4344C40.3606 60.3706 40.4145 60.3706 40.5382 60.4238C40.7485 60.5247 40.7969 60.7215 40.7161 61.115C40.5976 61.7158 40.8023 62.2316 41.3142 62.5931C41.9824 63.0716 42.8985 62.9972 43.4914 62.4123C43.8955 62.0188 44.0626 61.4286 43.8471 61.152C43.6962 60.9606 43.6747 60.8596 43.7338 60.6788C43.8578 60.3332 44.1596 60.3224 44.5367 60.6522C44.7518 60.8436 44.8488 60.8914 45.0052 60.8914C45.5657 60.8914 46.1047 60.0778 46.1154 59.2165C46.1209 58.7912 46.0022 58.4986 45.722 58.27C45.5387 58.1157 45.097 57.9668 44.8221 57.9668C44.4772 57.9668 44.2617 57.5839 44.4288 57.2755C44.5365 57.0789 44.6767 57.0469 45.1346 57.1213C45.7166 57.2116 46.0777 57.1318 46.401 56.8395C46.7135 56.5527 46.8267 56.2497 46.8267 55.6808C46.8267 54.9363 46.5142 54.3516 45.97 54.075C45.6951 53.9315 45.1509 53.9207 44.8383 54.0536C44.5365 54.1759 44.1484 54.1653 44.0245 54.0324C43.8252 53.8198 43.9544 53.3411 44.2078 53.3411C44.6281 53.3411 45.0915 52.9796 45.3611 52.4426C45.5227 52.1129 45.5335 52.0597 45.5335 51.5069C45.5335 51.0603 45.512 50.8582 45.431 50.6562C45.1831 50.0181 44.7358 49.6194 44.2562 49.6194C43.895 49.6194 43.6688 49.7257 43.3617 50.0446C43.1515 50.2627 43.0599 50.3158 42.9198 50.3212C42.7205 50.3266 42.4888 50.1192 42.4888 49.9331C42.4888 49.8056 42.6127 49.5556 42.7259 49.4653C42.8499 49.3644 43.0709 48.8592 43.114 48.5828C43.2704 47.546 41.826 46.658 40.856 47.1896C40.5111 47.3811 40.3711 47.6789 40.3387 48.3168C40.3063 48.8857 40.2579 49.0026 40.0207 49.093C39.9292 49.1301 39.8374 49.1142 39.7082 49.0558C39.1422 48.79 38.4309 49.5185 38.28 50.5233C38.2261 50.8582 38.2314 50.9753 38.3069 51.2623C38.4092 51.6504 38.6033 51.9588 38.8889 52.1874L39.0882 52.3469L39.2929 52.1926C39.5301 52.0171 40.139 51.4216 40.4947 51.0123C40.7802 50.6934 40.985 50.6454 41.1791 50.8528C41.4485 51.1558 41.3676 51.3527 40.6563 52.0811C39.8048 52.9584 39.1044 53.4529 37.0456 54.6174C35.2458 55.633 34.5936 56.1062 33.9092 56.8825C32.6481 58.3234 32.0877 60.0301 31.8991 63.0344L31.8614 63.6034H31.4464H31.0316L31.0478 63.2152C31.1555 60.7641 31.5706 58.9721 32.3358 57.6375C33.0848 56.3241 34.0655 55.3776 35.5907 54.4843C35.9302 54.2876 36.2375 54.1014 36.2697 54.0748C36.3128 54.0428 36.2966 53.8727 36.2213 53.4632C36.0704 52.6497 36.0596 50.6823 36.2051 49.9113C36.3452 49.1457 36.5338 48.5448 36.8032 47.9866C37.536 46.4606 38.7108 45.4929 40.2305 45.1791C40.7047 45.0784 41.7987 45.0838 42.2676 45.1793Z" fill="#6750A4"/>
<path d="M41.9929 51.8682L42.2246 52.1023L41.1361 52.9636C40.0636 53.825 39.902 53.9952 39.902 54.2876C39.902 54.3674 39.8481 54.3993 39.6972 54.4259C39.3361 54.4897 39.0397 54.8512 39.0397 55.2447C39.0397 55.6222 39.239 55.8934 39.6486 56.0795C39.7833 56.1432 40.0958 56.4358 40.527 56.9036C40.8935 57.3077 41.3085 57.733 41.4486 57.8501C41.6911 58.0522 41.7018 58.0733 41.621 58.1533C41.5347 58.2384 41.5025 58.217 41.1199 57.8661C40.1823 57.0102 39.029 56.7707 37.6602 57.143C35.6339 57.6906 34.0872 58.8232 33.3544 60.2801C32.9663 61.0511 32.8855 61.4392 32.8533 62.6355L32.8316 63.6563H32.5567H32.2874L32.3198 62.7364C32.3791 61.0083 32.6809 59.7057 33.2898 58.5306C33.64 57.8501 34.055 57.3023 34.6531 56.7441C35.2353 56.1912 35.6555 55.9094 36.9111 55.2075C38.7865 54.1547 40.2362 53.1285 41.2115 52.166C41.5025 51.8736 41.745 51.6396 41.7557 51.6396C41.7612 51.6396 41.8689 51.7407 41.9929 51.8682Z" fill="#6750A4"/>
<path d="M42.7743 52.7138C42.9038 52.8147 42.9684 53.0276 42.909 53.187C42.8821 53.2616 42.6988 53.4423 42.5049 53.5857L42.1438 53.8463L42.6773 53.9155C43.0869 53.9687 43.2432 54.0112 43.3348 54.0964C43.4857 54.2347 43.5019 54.5216 43.3617 54.6599C43.2754 54.7451 43.1515 54.7557 41.9552 54.7397C40.6834 54.7291 40.635 54.7237 40.5111 54.612C40.4302 54.5322 40.3871 54.4313 40.3871 54.3196C40.3871 54.1229 40.4786 54.0432 41.7397 53.1127C42.381 52.6341 42.5696 52.5649 42.7743 52.7138Z" fill="#6750A4"/>
<path d="M40.1441 54.8672C40.2034 54.8832 40.6399 55.0532 41.1141 55.2393C42.1055 55.6434 42.553 55.7869 42.7954 55.7869C43.3182 55.7869 43.5876 56.1964 43.2696 56.5047C43.108 56.6696 42.8925 56.6748 42.2996 56.5367L41.8686 56.4358L42.0626 56.6007C42.1704 56.6964 42.3589 56.8559 42.4829 56.9622C42.747 57.1854 42.774 57.3717 42.5692 57.5683C42.2674 57.8713 41.901 57.6587 40.8933 56.6113C40.4675 56.17 40.0742 55.8083 39.8694 55.6808C39.5137 55.4627 39.4329 55.3139 39.5245 55.0746C39.6053 54.8618 39.8208 54.7875 40.1441 54.8672Z" fill="#6750A4"/>
</g>
</g>
<g filter="url(#filter1_d_54476_36600)">
<g clip-path="url(#clip2_54476_36600)">
<ellipse cx="22.8841" cy="55.291" rx="5.49298" ry="8.75258" fill="white"/>
<path d="M22.8345 45.1793C20.8137 45.6154 19.0353 47.0615 17.979 49.1405C16.26 52.5278 15.721 56.3826 16.5241 59.5674C17.0469 61.6464 18.1139 63.4223 19.4341 64.4113C19.8975 64.7569 20.7543 65.1715 21.2933 65.3098C22.2418 65.5439 23.4004 65.4959 24.4512 65.1664C25.8146 64.7411 27.2804 63.7255 28.0833 62.6461C28.4335 62.1728 28.7892 61.4444 28.897 60.9606C29.0047 60.4821 28.9778 59.6631 28.8431 59.3016C28.7947 59.1739 28.7623 59.057 28.773 59.0464C28.7837 59.0358 28.9671 59.1527 29.1826 59.3016C30.0448 59.8972 30.5245 60.5724 30.7884 61.5721C30.9016 62.0028 30.9285 62.2154 30.934 62.8695L30.9393 63.6565H31.3488H31.7584L31.7906 63.2736C31.8337 62.7526 31.7422 61.8699 31.5858 61.2797C31.1925 59.8122 30.2925 58.818 28.681 58.0736C27.3823 57.4728 26.2938 57.26 25.55 57.4568C25.0058 57.6003 24.2082 58.1001 24.0735 58.3819C23.8849 58.77 24.176 59.4773 24.6177 59.7005C24.8225 59.8068 25.0866 59.7908 25.5393 59.6633C26.4824 59.387 26.9942 59.8388 26.7356 60.7107C26.6116 61.1308 26.4769 61.386 26.2507 61.6095C25.8249 62.0295 25.4478 61.753 25.1782 60.8225C25.0973 60.5513 25.0597 60.5035 24.8978 60.4344C24.7415 60.3706 24.6876 60.3706 24.5638 60.4238C24.3536 60.5247 24.3052 60.7215 24.386 61.115C24.5045 61.7158 24.2997 62.2316 23.7879 62.5931C23.1197 63.0716 22.2035 62.9972 21.6107 62.4123C21.2066 62.0188 21.0395 61.4286 21.255 61.152C21.4059 60.9606 21.4274 60.8596 21.3682 60.6788C21.2443 60.3332 20.9425 60.3224 20.5653 60.6522C20.3502 60.8436 20.2532 60.8914 20.0968 60.8914C19.5364 60.8914 18.9974 60.0778 18.9867 59.2165C18.9812 58.7912 19.0999 58.4986 19.38 58.27C19.5633 58.1157 20.0051 57.9668 20.2799 57.9668C20.6249 57.9668 20.8404 57.5839 20.6733 57.2755C20.5655 57.0789 20.4254 57.0469 19.9674 57.1213C19.3855 57.2116 19.0243 57.1318 18.7011 56.8395C18.3885 56.5527 18.2753 56.2497 18.2753 55.6808C18.2753 54.9363 18.5878 54.3516 19.1321 54.075C19.4069 53.9315 19.9512 53.9207 20.2637 54.0536C20.5655 54.1759 20.9536 54.1653 21.0776 54.0324C21.2769 53.8198 21.1477 53.3411 20.8943 53.3411C20.474 53.3411 20.0105 52.9796 19.7409 52.4426C19.5793 52.1129 19.5686 52.0597 19.5686 51.5069C19.5686 51.0603 19.59 50.8582 19.6711 50.6562C19.919 50.0181 20.3662 49.6194 20.8459 49.6194C21.207 49.6194 21.4333 49.7257 21.7403 50.0446C21.9506 50.2627 22.0421 50.3158 22.1823 50.3212C22.3816 50.3266 22.6133 50.1192 22.6133 49.9331C22.6133 49.8056 22.4893 49.5556 22.3761 49.4653C22.2521 49.3644 22.0312 48.8592 21.988 48.5828C21.8316 47.546 23.276 46.658 24.246 47.1896C24.591 47.3811 24.7309 47.6789 24.7633 48.3168C24.7958 48.8857 24.8442 49.0026 25.0814 49.093C25.1729 49.1301 25.2647 49.1142 25.3939 49.0558C25.9598 48.79 26.6712 49.5185 26.8221 50.5233C26.8759 50.8582 26.8707 50.9753 26.7951 51.2623C26.6928 51.6504 26.4988 51.9588 26.2132 52.1874L26.0139 52.3469L25.8091 52.1926C25.5719 52.0171 24.9631 51.4216 24.6074 51.0123C24.3218 50.6934 24.117 50.6454 23.923 50.8528C23.6536 51.1558 23.7344 51.3527 24.4458 52.0811C25.2973 52.9584 25.9977 53.4529 28.0564 54.6174C29.8562 55.633 30.5085 56.1062 31.1929 56.8825C32.4539 58.3234 33.0144 60.0301 33.203 63.0344L33.2406 63.6034H33.6557H34.0705L34.0543 63.2152C33.9465 60.7641 33.5315 58.9721 32.7663 57.6375C32.0172 56.3241 31.0365 55.3776 29.5113 54.4843C29.1718 54.2876 28.8646 54.1014 28.8324 54.0748C28.7892 54.0428 28.8054 53.8727 28.8808 53.4632C29.0317 52.6497 29.0424 50.6823 28.897 49.9113C28.7568 49.1457 28.5682 48.5448 28.2988 47.9866C27.566 46.4606 26.3912 45.4929 24.8715 45.1791C24.3974 45.0784 23.3034 45.0838 22.8345 45.1793Z" fill="#6750A4"/>
<path d="M23.1092 51.8682L22.8774 52.1023L23.9659 52.9636C25.0384 53.825 25.2001 53.9952 25.2001 54.2876C25.2001 54.3674 25.2539 54.3993 25.4048 54.4259C25.766 54.4897 26.0623 54.8512 26.0623 55.2447C26.0623 55.6222 25.863 55.8934 25.4535 56.0795C25.3188 56.1432 25.0062 56.4358 24.575 56.9036C24.2086 57.3077 23.7936 57.733 23.6534 57.8501C23.411 58.0522 23.4002 58.0733 23.481 58.1533C23.5673 58.2384 23.5995 58.217 23.9821 57.8661C24.9197 57.0102 26.0731 56.7707 27.4419 57.143C29.4682 57.6906 31.0148 58.8232 31.7477 60.2801C32.1358 61.0511 32.2166 61.4392 32.2488 62.6355L32.2704 63.6563H32.5453H32.8147L32.7823 62.7364C32.7229 61.0083 32.4211 59.7057 31.8123 58.5306C31.4621 57.8501 31.047 57.3023 30.4489 56.7441C29.8668 56.1912 29.4465 55.9094 28.1909 55.2075C26.3155 54.1547 24.8659 53.1285 23.8906 52.166C23.5995 51.8736 23.3571 51.6396 23.3463 51.6396C23.3409 51.6396 23.2331 51.7407 23.1092 51.8682Z" fill="#6750A4"/>
<path d="M22.3277 52.7138C22.1983 52.8147 22.1337 53.0276 22.193 53.187C22.22 53.2616 22.4033 53.4423 22.5971 53.5857L22.9582 53.8463L22.4247 53.9155C22.0152 53.9687 21.8588 54.0112 21.7673 54.0964C21.6164 54.2347 21.6002 54.5216 21.7403 54.6599C21.8266 54.7451 21.9506 54.7557 23.1468 54.7397C24.4186 54.7291 24.467 54.7237 24.591 54.612C24.6718 54.5322 24.715 54.4313 24.715 54.3196C24.715 54.1229 24.6234 54.0432 23.3623 53.1127C22.7211 52.6341 22.5325 52.5649 22.3277 52.7138Z" fill="#6750A4"/>
<path d="M24.958 54.8672C24.8986 54.8832 24.4621 55.0532 23.988 55.2393C22.9965 55.6434 22.5491 55.7869 22.3066 55.7869C21.7838 55.7869 21.5145 56.1964 21.8325 56.5047C21.9941 56.6696 22.2096 56.6748 22.8025 56.5367L23.2335 56.4358L23.0394 56.6007C22.9317 56.6964 22.7431 56.8559 22.6192 56.9622C22.355 57.1854 22.3281 57.3717 22.5329 57.5683C22.8347 57.8713 23.2011 57.6587 24.2088 56.6113C24.6345 56.17 25.0279 55.8083 25.2326 55.6808C25.5883 55.4627 25.6691 55.3139 25.5776 55.0746C25.4968 54.8618 25.2813 54.7875 24.958 54.8672Z" fill="#6750A4"/>
</g>
</g>
</g>
<defs>
<filter id="filter0_d_54476_36600" x="21.4644" y="40.898" width="37.0459" height="36.7653" filterUnits="userSpaceOnUse" color-interpolation-filters="sRGB">
<feFlood flood-opacity="0" result="BackgroundImageFix"/>
<feColorMatrix in="SourceAlpha" type="matrix" values="0 0 0 0 0 0 0 0 0 0 0 0 0 0 0 0 0 0 127 0" result="hardAlpha"/>
<feOffset dy="4"/>
<feGaussianBlur stdDeviation="4"/>
<feColorMatrix type="matrix" values="0 0 0 0 0 0 0 0 0 0 0 0 0 0 0 0 0 0 0.5 0"/>
<feBlend mode="normal" in2="BackgroundImageFix" result="effect1_dropShadow_54476_36600"/>
<feBlend mode="normal" in="SourceGraphic" in2="effect1_dropShadow_54476_36600" result="shape"/>
</filter>
<filter id="filter1_d_54476_36600" x="6.5918" y="40.898" width="37.0459" height="36.7653" filterUnits="userSpaceOnUse" color-interpolation-filters="sRGB">
<feFlood flood-opacity="0" result="BackgroundImageFix"/>
<feColorMatrix in="SourceAlpha" type="matrix" values="0 0 0 0 0 0 0 0 0 0 0 0 0 0 0 0 0 0 127 0" result="hardAlpha"/>
<feOffset dy="4"/>
<feGaussianBlur stdDeviation="4"/>
<feColorMatrix type="matrix" values="0 0 0 0 0 0 0 0 0 0 0 0 0 0 0 0 0 0 0.5 0"/>
<feBlend mode="normal" in2="BackgroundImageFix" result="effect1_dropShadow_54476_36600"/>
<feBlend mode="normal" in="SourceGraphic" in2="effect1_dropShadow_54476_36600" result="shape"/>
</filter>
<clipPath id="clip0_54476_36600">
<rect width="159.949" height="220" fill="white"/>
</clipPath>
<clipPath id="clip1_54476_36600">
<rect width="21.0459" height="20.7653" rx="10.3827" transform="matrix(-1 0 0 1 50.5103 44.898)" fill="white"/>
</clipPath>
<clipPath id="clip2_54476_36600">
<rect x="14.5918" y="44.898" width="21.0459" height="20.7653" rx="10.3827" fill="white"/>
</clipPath>
</defs>
</svg>
