<svg width="110" height="110" viewBox="0 0 110 110" fill="none" xmlns="http://www.w3.org/2000/svg">
<g clip-path="url(#clip0_54348_36424)">
<path d="M79.6732 30.1295C72.6632 20.7879 64.3634 12.488 55.0218 5.47809C55.0218 5.47809 16.6752 32.8685 16.6752 65.7371C16.6429 73.2356 18.8353 80.5753 22.975 86.8277L79.6732 30.1295Z" fill="#6750A4"/>
<path d="M89.6433 47.5498C92.0255 53.3216 93.2896 59.4934 93.3684 65.7371C93.3727 72.3222 91.6811 78.7975 88.4565 84.5392C85.232 90.2808 80.5832 95.0954 74.9579 98.5189C69.3327 101.943 62.9206 103.86 56.3393 104.086C49.7581 104.312 43.2294 102.84 37.3823 99.8108" stroke="#21005D" stroke-width="11" stroke-linecap="round" stroke-linejoin="round"/>
<path d="M79.6732 30.1295C72.6632 20.7879 64.3634 12.488 55.0218 5.47809C55.0218 5.47809 16.6752 32.8685 16.6752 65.7371C16.6429 73.2356 18.8353 80.5753 22.975 86.8277" stroke="#21005D" stroke-width="11" stroke-linecap="round" stroke-linejoin="round"/>
<path d="M98.8467 10.9562L11.1973 98.6056" stroke="#21005D" stroke-width="11" stroke-linecap="round" stroke-linejoin="round"/>
</g>
<defs>
<clipPath id="clip0_54348_36424">
<rect width="110" height="110" fill="white"/>
</clipPath>
</defs>
</svg>
