<svg width="100" height="120" viewBox="0 0 100 120" fill="none" xmlns="http://www.w3.org/2000/svg">
<g clip-path="url(#clip0_54305_36148)">
<path d="M87.6814 37.0258H12.3154V94.244H87.6814V37.0258Z" fill="#6750A4"/>
<path d="M87.6836 94.244V110.592C87.6836 114.188 84.7346 117.131 81.1297 117.131H18.8698C15.2654 117.131 12.3159 114.189 12.3159 110.592V94.244H87.6836Z" fill="#EADDFF"/>
<path d="M13.2338 19.0435H2.48584V2.69565H40.1694H59.8305H97.514V19.0435H86.7658C87.3227 20.0245 87.6832 21.1032 87.6832 22.3132V37.0264H12.3164V22.3132C12.3164 21.1032 12.6768 20.0245 13.2338 19.0435Z" fill="#EADDFF"/>
<path d="M97.5125 2.69479H2.48438V19.0427H97.5125V2.69479Z" fill="#21005D"/>
<path d="M49.9984 37.0258H12.3154V94.244H49.9984V37.0258Z" fill="#6750A4"/>
<path d="M68.0227 55.0101H54.9155V77.8973H68.0227V55.0101Z" fill="#EADDFF"/>
<path d="M54.9156 55.0101H31.9775V77.8973H54.9156V55.0101Z" fill="#EADDFF"/>
<path d="M29.5156 52.5526V80.3528H70.485V52.5526H29.5156ZM34.4392 75.4398V57.4653H52.4536V75.4398H34.4392ZM65.5614 75.4398H57.3775V57.4653H65.5614V75.4398Z" fill="black"/>
<path d="M25.4245 44.3788H18.8706V49.2915H25.4245V44.3788Z" fill="white"/>
<path d="M81.1286 44.3788H74.5747V49.2915H81.1286V44.3788Z" fill="white"/>
<path d="M81.1286 81.9783H74.5747V86.891H81.1286V81.9783Z" fill="white"/>
<path d="M25.4245 81.9783H18.8706V86.891H25.4245V81.9783Z" fill="white"/>
<path fill-rule="evenodd" clip-rule="evenodd" d="M83.0002 0.238994H62.2927V0H61.6157C62.0512 0.156136 62.2927 0.238994 62.2927 0.238994H0.0239258V21.4999H9.89381C9.86767 21.7701 9.85446 110.592 9.85446 110.592C9.85446 115.552 13.8989 119.588 18.8701 119.588H81.13C86.1013 119.588 90.1457 115.552 90.1457 110.592C90.1457 110.592 90.1325 21.7704 90.1064 21.4999H99.9762V0.238994H85.0002V0.32H83.0002V0.238994ZM14.7783 39.483H85.2218V91.788H14.7783V39.483ZM81.13 114.675H18.8701C16.6137 114.675 14.7781 112.843 14.7781 110.592V96.7007H85.2215V110.592C85.2221 112.843 83.3865 114.675 81.13 114.675ZM95.0524 16.5872H82.5429L84.6244 20.2541C85.032 20.9723 85.2221 21.6263 85.2221 22.3129V34.5697H14.7783C14.7783 34.5697 14.8102 21.7698 14.8726 21.4999H64.7462V16.5872H4.94781V5.15198H95.0524V16.5872Z" fill="black"/>
</g>
<defs>
<clipPath id="clip0_54305_36148">
<rect width="100" height="119.588" fill="white"/>
</clipPath>
</defs>
</svg>
