<svg width="200" height="200" viewBox="0 0 200 200" fill="none" xmlns="http://www.w3.org/2000/svg">
<path d="M165.625 3.125C159.05 3.125 152.781 5.91563 147.484 11.1938C142.319 16.3438 139.919 23.7531 140.587 31.4031C117.769 42.2844 103.125 65.2531 103.125 90.625V109.375H96.875V90.625C96.875 65.2531 82.2312 42.2844 59.4094 31.4031C60.0781 23.7531 57.6781 16.3438 52.5125 11.1938C47.2188 5.91563 40.95 3.125 34.375 3.125C17.1437 3.125 3.125 22.75 3.125 46.875C3.125 71 17.1437 90.625 34.375 90.625C40.95 90.625 47.2188 87.8344 52.5156 82.5562C59.5219 75.5719 61.4875 64.425 57.5219 54.1656C57.1844 53.2906 56.9562 52.3219 56.7531 51.3438C69.8844 59.9281 78.125 74.7812 78.125 90.625V110.5C72.3187 112.322 67.4125 116.287 64.7937 121.656C61.225 128.963 61.8781 137.6 66.5 144.2L79.3406 162.544C84.6781 170.069 87.4969 178.237 87.4969 186.172V196.875H112.497V186.172C112.497 178.237 115.316 170.069 120.734 162.434L133.141 144.712C135.519 141.316 136.981 137.584 137.369 133.931C138.041 127.653 136.019 121.378 131.831 116.719C129.128 113.712 125.669 111.547 121.875 110.375V90.625C121.875 74.7812 130.116 59.9281 143.25 51.3406C143.044 52.3188 142.819 53.2875 142.481 54.1625C138.513 64.425 140.478 75.5687 147.488 82.5531C152.781 87.8344 159.05 90.625 165.625 90.625C182.856 90.625 196.875 71 196.875 46.875C196.875 22.75 182.856 3.125 165.625 3.125ZM48.1031 78.1313C44.0031 82.2156 39.2562 84.375 34.375 84.375C20.5906 84.375 9.375 67.5531 9.375 46.875C9.375 26.1969 20.5906 9.375 34.375 9.375C39.2562 9.375 44.0031 11.5344 48.1031 15.6188C53.3562 20.8563 54.7656 29.3812 51.6906 37.3344C50.5844 40.1969 50 43.4969 50 46.875C50 50.2531 50.5844 53.5531 51.6906 56.4156C54.7625 64.3687 53.3531 72.8938 48.1031 78.1313ZM56.5 43.9312C56.7031 42.3937 57.0094 40.9094 57.5187 39.5844C57.7594 38.9625 57.9094 38.3281 58.1063 37.7C77.9688 47.8031 90.625 68.1812 90.625 90.625V109.375H85.2312C84.9406 109.375 84.6625 109.422 84.375 109.434V90.625C84.375 71.2406 73.4938 53.1687 56.5 43.9312ZM127.181 120.894C130.234 124.288 131.644 128.681 131.153 133.269C130.875 135.875 129.791 138.594 128.019 141.128L115.559 158.928C109.469 167.516 106.25 176.938 106.25 186.172V190.625H93.75V186.172C93.75 176.938 90.5313 167.516 84.3844 158.85L71.6219 140.619C68.3031 135.878 67.8406 129.662 70.4094 124.4C73.0094 119.069 78.8281 115.625 85.2312 115.625H115.366C119.862 115.625 124.172 117.547 127.181 120.894ZM115.625 90.625V109.388C115.537 109.388 115.453 109.375 115.366 109.375H109.375V90.625C109.375 68.1812 122.031 47.8031 141.894 37.7031C142.091 38.3313 142.241 38.9625 142.481 39.5875C142.991 40.9094 143.297 42.3938 143.5 43.9344C126.506 53.1688 115.625 71.2406 115.625 90.625ZM165.625 84.375C160.744 84.375 155.997 82.2156 151.897 78.1313C146.644 72.8938 145.234 64.3687 148.309 56.4156C149.416 53.5531 150 50.2531 150 46.875C150 43.4969 149.416 40.1969 148.309 37.3344C145.237 29.3812 146.647 20.8594 151.897 15.6188C155.997 11.5344 160.744 9.375 165.625 9.375C179.409 9.375 190.625 26.1969 190.625 46.875C190.625 67.5531 179.409 84.375 165.625 84.375Z" fill="#6750A4"/>
<path d="M153.125 25V31.25C158.206 31.25 162.5 38.4062 162.5 46.875C162.5 55.3438 158.206 62.5 153.125 62.5V68.75C161.887 68.75 168.75 59.1406 168.75 46.875C168.75 34.6094 161.887 25 153.125 25Z" fill="#21005D"/>
<path d="M31.25 46.875C31.25 59.1406 38.1125 68.75 46.875 68.75V62.5C41.7937 62.5 37.5 55.3438 37.5 46.875C37.5 38.4062 41.7937 31.25 46.875 31.25V25C38.1125 25 31.25 34.6094 31.25 46.875Z" fill="#21005D"/>
<path d="M100 146.269C96.122 136.55 88.8095 128.409 79.0376 123.522L76.397 122.203L73.6001 127.794L76.2407 129.113C88.9688 135.478 96.8751 148.272 96.8751 162.5H103.125C103.125 148.272 111.031 135.478 123.759 129.116L126.4 127.797L123.603 122.206L120.963 123.525C111.191 128.409 103.878 136.55 100 146.269Z" fill="#B3261E"/>
</svg>
