<svg width="120" height="250" viewBox="0 0 120 250" fill="none" xmlns="http://www.w3.org/2000/svg">
<path d="M58.6171 250C90.1668 250 115.743 246.677 115.743 242.577C115.743 238.477 90.1668 235.154 58.6171 235.154C27.0675 235.154 1.49146 238.477 1.49146 242.577C1.49146 246.677 27.0675 250 58.6171 250Z" fill="#EADDFF"/>
<path d="M16.4182 147.63L17.5771 154.568C17.5771 154.568 22.2127 156.427 22.4599 157.593C22.7071 158.758 24.0051 161.977 23.696 162.893C23.0316 164.433 20.8065 163.878 20.8065 163.878C21.0622 164.784 21.1303 165.725 21.0074 166.653C20.6829 167.277 10.1911 168.04 8.64589 166.098C7.1007 164.155 3.62402 144.051 3.62402 144.051" fill="white"/>
<path d="M14.842 167.971C12.2306 167.971 9.00119 167.707 8.01227 166.486C6.38982 164.502 3.22218 146.229 2.86678 144.162C2.85142 144.08 2.85451 143.995 2.87586 143.914C2.89721 143.833 2.9364 143.757 2.99111 143.69C3.04582 143.623 3.11496 143.566 3.19444 143.523C3.27393 143.48 3.36217 143.452 3.45396 143.44C3.54541 143.426 3.63901 143.429 3.72925 143.448C3.81948 143.467 3.90454 143.503 3.9794 143.552C4.05427 143.601 4.11743 143.663 4.16519 143.734C4.21294 143.806 4.24431 143.885 4.25746 143.967C5.58632 151.696 8.08953 164.433 9.15571 165.737C10.2219 167.042 18.8286 166.736 20.3892 166.264C20.4001 165.531 20.3119 164.8 20.1266 164.086C20.1004 163.98 20.1052 163.869 20.1404 163.764C20.1755 163.66 20.2399 163.565 20.3274 163.489C20.4172 163.415 20.5266 163.361 20.6455 163.335C20.7644 163.308 20.8889 163.309 21.0073 163.337C21.0073 163.337 22.5525 163.711 23.0315 162.726C22.9442 161.465 22.6527 160.222 22.1662 159.036C21.9962 158.55 21.8572 158.12 21.7799 157.815C20.5139 156.661 18.978 155.775 17.2834 155.22C17.1749 155.176 17.08 155.109 17.0073 155.024C16.9345 154.939 16.8861 154.84 16.8662 154.734L15.7228 147.797C15.6961 147.631 15.7438 147.463 15.8554 147.329C15.967 147.195 16.1333 147.106 16.3177 147.082C16.5021 147.058 16.6895 147.101 16.8388 147.201C16.988 147.302 17.0868 147.451 17.1134 147.617L18.2105 154.277C19.7557 154.956 22.8461 156.358 23.1551 157.593C23.1551 157.87 23.3715 158.273 23.5105 158.744C24.2213 160.867 24.7003 162.435 24.3449 163.254C24.1364 163.724 23.7665 164.123 23.2887 164.393C22.8109 164.662 22.25 164.788 21.6872 164.752C21.8841 165.491 21.8841 166.261 21.6872 167C21.5636 167.263 21.3627 167.624 18.5041 167.888C18.3032 167.832 16.7426 167.971 14.842 167.971Z" fill="#21005D"/>
<path d="M20.8064 163.947C20.0414 162.735 19.4692 161.432 19.1067 160.076L20.8064 163.947Z" fill="white"/>
<path d="M20.8064 164.558C20.6891 164.558 20.5738 164.531 20.4711 164.48C20.3685 164.429 20.2818 164.356 20.2193 164.266C19.4088 162.994 18.8003 161.625 18.4114 160.201C18.3685 160.038 18.3976 159.865 18.4926 159.721C18.5876 159.576 18.7412 159.47 18.9213 159.424C19.1037 159.382 19.2972 159.406 19.4594 159.492C19.6217 159.578 19.7393 159.718 19.7866 159.882C20.118 161.173 20.6375 162.418 21.3318 163.587C21.403 163.682 21.4435 163.794 21.4487 163.908C21.4539 164.023 21.4237 164.137 21.3614 164.238C21.299 164.338 21.207 164.421 21.0955 164.478C20.9839 164.534 20.8572 164.562 20.7292 164.558H20.8064Z" fill="#21005D"/>
<path d="M103.582 147.63L102.439 154.568C102.439 154.568 97.8031 156.427 97.5405 157.593C97.2778 158.758 95.9953 161.977 96.3043 162.893C96.9688 164.433 99.1938 163.878 99.1938 163.878C98.9382 164.784 98.8701 165.725 98.9929 166.653C99.3174 167.277 109.809 168.04 111.354 166.098C112.9 164.155 116.376 144.051 116.376 144.051" fill="white"/>
<path d="M105.158 167.971C103.258 167.971 101.697 167.832 101.543 167.819C98.6839 167.555 98.4521 167.194 98.3594 166.931C98.1625 166.192 98.1625 165.422 98.3594 164.683C97.7966 164.719 97.2358 164.593 96.7579 164.323C96.2801 164.054 95.9102 163.655 95.7017 163.184C95.3463 162.366 95.8253 160.798 96.5361 158.675C96.6906 158.203 96.8142 157.801 96.8915 157.523C97.216 156.288 100.229 154.887 101.836 154.207L102.933 147.547C102.96 147.382 103.059 147.232 103.208 147.132C103.357 147.032 103.545 146.989 103.729 147.013C103.913 147.037 104.08 147.126 104.191 147.26C104.303 147.394 104.35 147.562 104.324 147.728L103.18 154.665C103.163 154.771 103.116 154.872 103.043 154.957C102.97 155.042 102.873 155.109 102.763 155.151C101.069 155.705 99.5327 156.592 98.2667 157.745C98.1894 158.051 98.0504 158.481 97.8804 158.966C97.3939 160.152 97.1024 161.396 97.0151 162.657C97.4323 163.642 98.9775 163.281 99.0548 163.268C99.1718 163.238 99.2955 163.236 99.4136 163.262C99.5316 163.289 99.6398 163.343 99.7274 163.419C99.815 163.495 99.8789 163.59 99.9127 163.695C99.9465 163.8 99.949 163.911 99.9201 164.017C99.7347 164.731 99.6465 165.462 99.6574 166.195C101.203 166.667 109.763 167.069 110.891 165.668C112.019 164.267 114.46 151.626 115.789 143.898C115.802 143.816 115.834 143.736 115.881 143.665C115.929 143.594 115.992 143.532 116.067 143.482C116.142 143.433 116.227 143.398 116.317 143.379C116.408 143.36 116.501 143.357 116.593 143.371C116.684 143.383 116.773 143.411 116.852 143.454C116.932 143.497 117.001 143.553 117.056 143.62C117.11 143.688 117.149 143.764 117.171 143.845C117.192 143.926 117.195 144.01 117.18 144.092C116.824 146.16 113.657 164.433 112.034 166.417C110.999 167.707 107.77 167.971 105.158 167.971Z" fill="#21005D"/>
<path d="M100.832 163.947C101.598 162.733 102.175 161.431 102.547 160.076L100.832 163.947Z" fill="white"/>
<path d="M100.832 164.558C100.7 164.558 100.572 164.525 100.461 164.461C100.302 164.372 100.188 164.23 100.145 164.067C100.101 163.903 100.132 163.73 100.229 163.587C100.968 162.427 101.519 161.18 101.867 159.882C101.915 159.721 102.03 159.584 102.189 159.498C102.347 159.413 102.537 159.386 102.717 159.424C102.808 159.443 102.894 159.479 102.97 159.529C103.046 159.579 103.109 159.642 103.157 159.715C103.204 159.787 103.235 159.868 103.247 159.952C103.259 160.035 103.252 160.12 103.227 160.201C102.845 161.621 102.241 162.985 101.435 164.253C101.37 164.344 101.282 164.421 101.176 164.474C101.071 164.527 100.953 164.556 100.832 164.558Z" fill="#21005D"/>
<path d="M113.193 86.3585C113.193 86.3585 107.476 67.8631 100.755 61.1893C94.033 54.5154 75.6761 47.4391 45.2513 50.9773C45.2513 50.9773 29.4595 54.7374 19.9411 62.8681C10.4228 70.9989 7.00789 85.4705 7.00789 85.4705C7.00789 85.4705 -4.47287 122.933 1.95512 150.197L20.7755 151.224C20.7755 151.224 17.9015 119.214 27.5589 93.7955C29.3204 125.708 32.0709 176.768 33.9869 226.732L56.2222 226.315L62.5575 162.144L64.8907 225.608H87.6514C87.6514 225.608 94.033 145.716 90.9271 90.2435C102.408 116.065 99.2248 151.293 99.2248 151.293L118.045 150.267C123.917 125.389 114.847 91.9362 113.193 86.3585Z" fill="#21005D"/>
<path d="M50.2888 28.916C49.3926 23.9072 40.106 22.6723 40.5695 28.5831C40.6364 30.6374 41.5124 32.604 43.0418 34.133C43.8155 34.8715 44.8143 35.389 45.9135 35.621C47.0127 35.8529 48.1636 35.789 49.2226 35.4373" fill="white"/>
<path d="M47.3373 36.5195C46.4277 36.5076 45.5296 36.3348 44.6945 36.011C43.8593 35.6872 43.1034 35.2188 42.4699 34.6325C40.8037 32.9647 39.8462 30.8225 39.7659 28.583C39.6537 28.0366 39.6701 27.475 39.8141 26.9346C39.9581 26.3941 40.2265 25.8867 40.602 25.445C40.9775 25.0033 41.4518 24.637 41.9943 24.3698C42.5369 24.1026 43.1358 23.9402 43.7524 23.8933C45.4254 23.7402 47.1017 24.1532 48.4534 25.0513C49.8052 25.9495 50.7351 27.2683 51.0612 28.7495C51.0911 28.8451 51.0982 28.9451 51.0822 29.0433C51.0662 29.1414 51.0274 29.2355 50.9683 29.3193C50.9092 29.4031 50.8312 29.4749 50.7392 29.5298C50.6473 29.5848 50.5435 29.6218 50.4346 29.6384C50.3256 29.6551 50.2141 29.6509 50.107 29.6263C50 29.6017 49.8999 29.5572 49.8133 29.4956C49.7267 29.434 49.6555 29.3568 49.6043 29.2689C49.553 29.181 49.523 29.0844 49.516 28.9854C49.2463 27.8695 48.5324 26.8803 47.5082 26.2033C46.4841 25.5264 45.2201 25.2082 43.9533 25.3085C42.9026 25.4195 41.1874 25.9745 41.3728 28.472C41.4314 30.3812 42.2417 32.21 43.6597 33.6335C44.3226 34.2764 45.1825 34.7287 46.1311 34.9336C47.0797 35.1385 48.0747 35.0869 48.9906 34.7852C49.1835 34.7098 49.4016 34.7054 49.598 34.7729C49.7945 34.8403 49.9536 34.9743 50.0414 35.1459C50.1259 35.3211 50.1313 35.5189 50.0563 35.6976C49.9813 35.8763 49.8319 36.0218 49.6396 36.1033C48.9129 36.3848 48.1287 36.5266 47.3373 36.5195Z" fill="#21005D"/>
<path d="M73.4048 28.916C74.2855 23.9072 83.5721 22.6723 83.1086 28.5831C83.0417 30.6374 82.1657 32.604 80.6363 34.133C79.8626 34.8715 78.8638 35.389 77.7646 35.621C76.6654 35.8529 75.5145 35.789 74.4555 35.4373" fill="white"/>
<path d="M76.3405 36.5195C75.5647 36.5208 74.7969 36.3791 74.0845 36.1033C73.8796 36.0242 73.7181 35.8752 73.6355 35.6892C73.5529 35.5031 73.556 35.2952 73.6441 35.1112C73.7322 34.9272 73.8981 34.7822 74.1053 34.708C74.3125 34.6339 74.544 34.6367 74.7489 34.7158C75.6626 35.0164 76.6549 35.0674 77.6008 34.8625C78.5467 34.6575 79.4039 34.2058 80.0644 33.5642C81.4168 32.1801 82.2019 30.4227 82.2895 28.583C82.4749 26.0856 80.7443 25.5306 79.709 25.4196C78.4422 25.3192 77.1782 25.6374 76.1541 26.3143C75.1299 26.9913 74.4161 27.9805 74.1463 29.0964C74.1394 29.1954 74.1093 29.292 74.0581 29.3799C74.0068 29.4678 73.9356 29.5451 73.849 29.6066C73.7624 29.6682 73.6623 29.7127 73.5553 29.7373C73.4483 29.7619 73.3367 29.7661 73.2277 29.7494C73.1188 29.7328 73.015 29.6958 72.9231 29.6408C72.8311 29.5859 72.7531 29.5141 72.694 29.4303C72.6349 29.3465 72.5961 29.2525 72.5801 29.1543C72.5641 29.0561 72.5713 28.9561 72.6011 28.8605C72.924 27.3777 73.8531 26.0571 75.2056 25.1584C76.5582 24.2597 78.2363 23.848 79.9099 24.0043C80.5155 24.0511 81.104 24.2092 81.6387 24.4687C82.1734 24.7283 82.643 25.0838 83.0183 25.5132C83.3936 25.9426 83.6666 26.4367 83.8203 26.9648C83.974 27.4929 84.0052 28.0437 83.9119 28.583C83.8238 30.8045 82.8663 32.9268 81.2078 34.577C80.5796 35.1734 79.826 35.6521 78.9905 35.9855C78.1551 36.3189 77.2544 36.5004 76.3405 36.5195Z" fill="#21005D"/>
<path d="M72.5857 54.002L66.0804 88.967L63.7008 101.704L60.6723 88.8282L52.4673 54.002H72.5857Z" fill="#6750A4"/>
<path d="M64.1026 66.0455L66.0804 88.9531L63.7472 101.704L60.6568 88.8282L61.8002 66.4063L59.3743 62.66L62.202 58.7334L66.1268 62.3686L64.1026 66.0455Z" fill="white"/>
<path d="M72.5857 54.002C71.6229 55.564 70.1917 56.8522 68.4546 57.7204C66.7174 58.5887 64.7439 59.0021 62.7583 58.9138C60.716 58.9659 58.6937 58.5406 56.8896 57.6795C55.0856 56.8185 53.5616 55.5512 52.4673 54.002L52.7763 50.4916L53.4871 42.3332L54.167 34.7158H70.886L71.4422 40.9457L71.6122 42.9714L72.5857 54.002Z" fill="white"/>
<path d="M62.7583 59.6214C60.5703 59.6785 58.4037 59.2207 56.4737 58.2933C54.5437 57.366 52.9175 56.0013 51.7565 54.335C51.6794 54.218 51.6468 54.0816 51.6638 53.9465L53.379 34.6603C53.3908 34.4799 53.4791 34.3105 53.6256 34.1866C53.7721 34.0628 53.9658 33.994 54.167 33.9943H70.886C71.0861 33.9972 71.2779 34.0671 71.4236 34.1903C71.5694 34.3135 71.6587 34.4811 71.674 34.6603L73.3892 53.9465C73.4183 54.0607 73.4183 54.1792 73.3892 54.2934C72.3646 55.9971 70.8203 57.4032 68.9374 58.3468C67.0545 59.2905 64.9111 59.7326 62.7583 59.6214ZM53.2708 53.8216C54.312 55.2107 55.7284 56.3402 57.3875 57.1045C59.0466 57.8688 60.8944 58.2431 62.7583 58.1923C64.5603 58.2751 66.3533 57.9144 67.9436 57.149C69.534 56.3836 70.8613 55.2427 71.7822 53.8494L70.1443 35.4234H54.9087L53.2708 53.8216Z" fill="#21005D"/>
<path d="M72.7402 40.3629C72.5578 41.2903 72.1746 42.1765 71.6122 42.9714C70.2044 44.7963 68.3143 46.279 66.1114 47.2865C62.5111 49.0764 57.1338 51.0883 52.7764 50.4917L53.4872 42.3332C56.6899 42.6739 59.9263 42.6739 63.1291 42.3332C65.9625 42.2521 68.7657 41.7842 71.4423 40.9457C71.8749 40.7653 72.323 40.5849 72.7402 40.3629Z" fill="#21005D"/>
<path d="M54.4762 51.2825C53.8816 51.2875 53.2874 51.2504 52.6993 51.1715C52.5066 51.1473 52.3317 51.0574 52.2109 50.9205C52.09 50.7836 52.0325 50.6101 52.0503 50.4362L52.7611 42.2777C52.7894 42.089 52.8938 41.9161 53.0547 41.792C53.2226 41.6786 53.4334 41.6288 53.6418 41.6533C56.7832 41.9848 59.957 41.9848 63.0984 41.6533C65.8551 41.5623 68.5802 41.0945 71.1797 40.2658C71.5969 40.0993 72.0141 39.9189 72.4004 39.7247C72.5262 39.6561 72.6705 39.6198 72.8176 39.6198C72.9648 39.6198 73.1091 39.6561 73.2348 39.7247C73.3507 39.8018 73.4408 39.9059 73.4953 40.0258C73.5497 40.1457 73.5666 40.2767 73.5439 40.4045C73.3334 41.3921 72.9138 42.3341 72.3077 43.1795C70.8453 45.1127 68.8628 46.6829 66.5442 47.7444C63.7474 49.229 58.9264 51.2825 54.4762 51.2825ZM53.6418 49.895C58.1538 50.2142 63.5929 47.786 65.787 46.7038C67.8939 45.7377 69.6915 44.3051 71.0098 42.5413C71.2144 42.2433 71.3951 41.9327 71.5506 41.6117C68.8695 42.4348 66.0689 42.9022 63.2375 42.9992C60.2482 43.2839 57.2337 43.2839 54.2444 42.9992L53.6418 49.895Z" fill="#21005D"/>
<path d="M63.0057 44.2479H61.4605C58.0739 44.2332 54.8316 43.0149 52.4426 40.8594C50.0537 38.7039 48.7126 35.7866 48.7126 32.7455V14.5416L63.4538 17.8299L75.8153 14.5416V32.7455C75.8153 34.2561 75.484 35.7518 74.8402 37.1473C74.1965 38.5428 73.2529 39.8108 72.0634 40.8789C70.8739 41.947 69.4618 42.7943 67.9077 43.3723C66.3535 43.9504 64.6878 44.2479 63.0057 44.2479Z" fill="white"/>
<path d="M63.0057 44.9694H61.4605C57.862 44.9511 54.4177 43.6556 51.879 41.3655C49.3403 39.0755 47.9132 35.9768 47.9092 32.7455V14.5416C47.9113 14.4322 47.9401 14.3247 47.9935 14.2264C48.0469 14.1281 48.1236 14.0415 48.2182 13.9727C48.3149 13.9093 48.4257 13.8653 48.543 13.8438C48.6603 13.8222 48.7814 13.8236 48.8981 13.8478L63.4383 17.0807L75.599 13.8617C75.7162 13.8281 75.8408 13.8206 75.962 13.8399C76.0831 13.8593 76.1972 13.9048 76.2943 13.9727C76.3943 14.038 76.4758 14.1235 76.5322 14.2224C76.5885 14.3212 76.6182 14.4305 76.6188 14.5416V32.7455C76.6147 35.9864 75.1792 39.0934 72.6271 41.3851C70.075 43.6767 66.6149 44.9657 63.0057 44.9694ZM49.5007 15.4573V32.7455C49.5089 35.605 50.7786 38.345 53.0317 40.3656C55.2849 42.3862 58.3379 43.5227 61.5223 43.5264H63.0675C66.2412 43.5081 69.2784 42.3651 71.5182 40.3461C73.758 38.327 75.0192 35.5954 75.0273 32.7455V15.4989L63.7474 18.5098C63.6109 18.5442 63.4666 18.5442 63.3302 18.5098L49.5007 15.4573Z" fill="#21005D"/>
<path d="M48.6816 24.4206V23.3799H48.9134L51.0921 22.9776C52.2604 22.7191 53.4583 22.5841 54.6615 22.5752C56.3965 22.6289 58.1208 22.8428 59.807 23.2134C61.5717 23.6079 63.409 23.6647 65.1997 23.3799C66.5286 23.1579 67.842 22.9221 69.1709 22.7278C70.1553 22.5752 71.1571 22.5333 72.1531 22.6029C73.6676 22.7949 75.1688 23.0636 76.6496 23.4077C76.7536 23.4215 76.8475 23.4713 76.911 23.5465C76.9746 23.6218 77.0028 23.7164 76.9895 23.8101V24.7119C76.9931 24.7929 76.972 24.8732 76.9284 24.9441C76.8848 25.015 76.8205 25.0739 76.7423 25.1143C76.4788 25.2684 76.274 25.4911 76.1551 25.7526C76.072 25.9325 76.0049 26.1181 75.9542 26.3076C75.7379 26.9874 75.5525 27.695 75.3207 28.3749C75.1259 29.0082 74.7561 29.587 74.2455 30.0576C73.7349 30.5282 73.1002 30.8753 72.4003 31.0667C71.3436 31.3985 70.2072 31.4704 69.1091 31.2748C68.2858 31.177 67.5009 30.9028 66.8205 30.4754C66.1401 30.048 65.5842 29.4798 65.1997 28.8189C64.826 28.1707 64.5208 27.4925 64.2881 26.7932C64.1453 26.4493 63.9641 26.1192 63.7472 25.8081C63.706 25.7486 63.6519 25.6971 63.5883 25.6566C63.5246 25.6161 63.4526 25.5874 63.3764 25.5722C63.1039 25.5511 62.8299 25.5511 62.5575 25.5722C62.4315 25.5676 62.307 25.5986 62.2017 25.6608C62.0964 25.723 62.0154 25.8133 61.9703 25.9191C61.817 26.2187 61.693 26.5298 61.5994 26.8487C61.357 27.7243 60.9266 28.5491 60.3324 29.2768C59.7189 30.1704 58.7626 30.8317 57.6437 31.136C57.2221 31.2288 56.7935 31.2938 56.3612 31.3303C55.1323 31.45 53.8896 31.2927 52.7455 30.8724C52.0014 30.6232 51.3928 30.1263 51.0458 29.4849C50.5295 28.478 50.1258 27.4276 49.8405 26.3492C49.7439 25.9652 49.536 25.611 49.2379 25.3224C48.9526 25.0811 48.7581 24.7658 48.6816 24.4206Z" fill="#21005D"/>
<path d="M78.4111 24.4206H78.1175C77.9244 24.3467 77.7702 24.2091 77.6868 24.0361C77.6034 23.8631 77.5972 23.6679 77.6694 23.4909C78.732 21.2538 79.2798 18.8468 79.2798 16.4147C79.2798 13.9826 78.732 11.5756 77.6694 9.33845C76.5763 7.15842 74.8536 5.28064 72.68 3.89978C70.5065 2.51893 67.9611 1.68526 65.3079 1.48521C63.1649 1.47542 61.0314 1.74176 58.9726 2.27609C56.5487 2.70111 54.2398 3.54459 52.1738 4.75971C49.4173 6.75706 47.5794 9.5982 47.0129 12.7378C46.4527 15.95 46.3282 19.2113 46.642 22.4503C46.6505 22.6394 46.5758 22.8239 46.4342 22.9641C46.2926 23.1042 46.0953 23.1888 45.8849 23.1996C45.7801 23.2052 45.6751 23.1919 45.5762 23.1606C45.4772 23.1293 45.3861 23.0806 45.3084 23.0172C45.2307 22.9539 45.1678 22.8773 45.1235 22.7918C45.0792 22.7064 45.0544 22.6139 45.0505 22.5197C44.7217 19.1507 44.8566 15.7581 45.4522 12.4187C46.0854 8.95337 48.1145 5.81779 51.154 3.60808C53.3805 2.26086 55.8792 1.31813 58.5091 0.833087C60.7142 0.265698 62.9986 -0.0146563 65.2925 0.000589912C68.2462 0.205461 71.0842 1.11986 73.5091 2.648C75.934 4.17613 77.8567 6.26174 79.0756 8.68633C80.2188 11.0995 80.8081 13.6951 80.8081 16.3176C80.8081 18.9401 80.2188 21.5356 79.0756 23.9488C79.0263 24.0761 78.9376 24.1881 78.8199 24.2717C78.7022 24.3552 78.5604 24.4069 78.4111 24.4206Z" fill="#21005D"/>
<path d="M64.2109 36.1449C63.5397 36.1513 62.8687 36.1188 62.2022 36.0478C62.0976 36.0393 61.996 36.0118 61.9036 35.9669C61.8112 35.9221 61.73 35.8607 61.665 35.7867C61.5999 35.7127 61.5523 35.6275 61.5251 35.5364C61.4979 35.4454 61.4917 35.3502 61.5068 35.2569C61.5183 35.1637 61.5503 35.0735 61.6009 34.9915C61.6516 34.9096 61.7198 34.8374 61.8018 34.7793C61.8837 34.7212 61.9777 34.6783 62.0783 34.6531C62.1789 34.6279 62.284 34.6209 62.3876 34.6325C63.4973 34.7331 64.6155 34.7331 65.7252 34.6325C65.957 33.7862 64.999 30.4007 63.531 26.9874C63.4935 26.8963 63.4763 26.7995 63.4804 26.7024C63.4846 26.6053 63.51 26.5099 63.5552 26.4217C63.6004 26.3334 63.6645 26.254 63.7439 26.188C63.8232 26.122 63.9163 26.0707 64.0178 26.037C64.1192 26.0033 64.2271 25.9878 64.3352 25.9916C64.4433 25.9953 64.5495 26.0181 64.6478 26.0587C64.7461 26.0993 64.8345 26.1568 64.908 26.2281C64.9815 26.2994 65.0387 26.383 65.0762 26.4741C66.0188 28.6802 68.1666 33.9804 67.1004 35.4789C67.0035 35.6319 66.8676 35.762 66.7037 35.8585C66.5398 35.955 66.3527 36.0151 66.1578 36.0339C65.5126 36.1124 64.862 36.1495 64.2109 36.1449Z" fill="#21005D"/>
<path d="M58.8028 39.3917C58.6186 39.3772 58.4459 39.305 58.315 39.1877C58.1841 39.0704 58.1032 38.9155 58.0867 38.7502C58.0701 38.5848 58.1188 38.4194 58.2243 38.2831C58.3298 38.1467 58.4853 38.048 58.6637 38.0042C58.9109 38.0042 64.9217 36.9358 68.7538 37.796C68.8563 37.8188 68.9528 37.8594 69.0378 37.9157C69.1228 37.9719 69.1946 38.0427 69.2491 38.1238C69.3037 38.205 69.3398 38.295 69.3556 38.3888C69.3714 38.4825 69.3664 38.5781 69.341 38.6702C69.2863 38.8541 69.1543 39.0118 68.9727 39.1102C68.7912 39.2085 68.5742 39.2398 68.3675 39.1974C64.8599 38.4065 59.0964 39.3917 58.9573 39.4055L58.8028 39.3917Z" fill="#21005D"/>
<path d="M65.5241 225.608L65.3696 238.803L75.6606 240.454L76.1241 237.679C77.6978 239.45 79.6528 240.917 81.8723 241.994C85.1017 243.382 103.984 249.265 102.377 243.576C100.77 237.887 92.9358 235.515 89.4746 232.185C88.4728 231.283 87.7053 230.193 87.2272 228.994C86.749 227.794 86.572 226.515 86.7087 225.247" fill="white"/>
<path d="M98.9158 246.587C92.9977 246.587 82.8149 243.063 81.5788 242.535C79.6984 241.667 78.0078 240.501 76.5878 239.094L76.3561 240.482C76.3403 240.565 76.3062 240.645 76.2558 240.716C76.2054 240.788 76.1397 240.85 76.0625 240.898C75.9889 240.949 75.9039 240.986 75.8132 241.005C75.7226 241.024 75.6284 241.025 75.5371 241.009L65.2925 239.358C65.1287 239.332 64.9803 239.255 64.873 239.141C64.7657 239.027 64.7064 238.883 64.7053 238.734L64.8598 225.538C64.8639 225.372 64.9405 225.213 65.0734 225.096C65.2063 224.979 65.3848 224.914 65.5706 224.914C65.6633 224.914 65.7549 224.931 65.8403 224.963C65.9257 224.995 66.0031 225.042 66.0678 225.102C66.1326 225.161 66.1835 225.232 66.2175 225.309C66.2515 225.386 66.268 225.469 66.266 225.552L66.1269 238.206L75.1199 239.594L75.4598 237.485C75.4809 237.361 75.5421 237.246 75.6356 237.153C75.7292 237.06 75.8511 236.994 75.9861 236.963C76.1211 236.932 76.2634 236.937 76.3951 236.978C76.5268 237.019 76.6422 237.094 76.7269 237.193C78.2297 238.899 80.1007 240.315 82.2278 241.356C85.4727 242.743 98.8849 246.726 101.481 244.811C101.713 244.644 101.944 244.367 101.744 243.659C100.739 240.121 97.108 237.957 93.7394 235.861C92.034 234.913 90.4485 233.802 89.0112 232.545C87.9378 231.584 87.1161 230.421 86.6056 229.139C86.0951 227.858 85.9087 226.49 86.0598 225.136C86.1098 224.988 86.2183 224.861 86.3651 224.779C86.5118 224.697 86.6867 224.666 86.8571 224.691C87.0274 224.717 87.1817 224.797 87.2909 224.917C87.4001 225.037 87.4568 225.189 87.4505 225.344C87.3306 226.51 87.4983 227.685 87.9416 228.786C88.3849 229.886 89.0931 230.886 90.0155 231.713C91.3848 232.89 92.8866 233.936 94.4966 234.835C97.9887 236.958 101.944 239.372 103.072 243.368C103.246 243.795 103.269 244.259 103.139 244.698C103.009 245.137 102.733 245.53 102.346 245.824C101.328 246.412 100.122 246.68 98.9158 246.587Z" fill="#21005D"/>
<path d="M55.3877 225.608L55.5422 238.803L45.2049 240.385L44.7413 237.61C43.1797 239.387 41.2353 240.864 39.0241 241.953C35.7947 243.34 16.897 249.223 18.5195 243.534C20.1419 237.846 27.9606 235.473 31.4218 232.143C32.4236 231.241 33.1911 230.151 33.6692 228.952C34.1474 227.753 34.3244 226.473 34.1877 225.205" fill="white"/>
<path d="M22.0271 246.587C20.8261 246.679 19.6249 246.411 18.6122 245.824C18.2258 245.53 17.949 245.137 17.8191 244.698C17.6893 244.259 17.7126 243.795 17.886 243.368C19.014 239.372 22.9697 236.958 26.4618 234.835C28.0718 233.936 29.5735 232.89 30.9429 231.713C31.8665 230.892 32.5768 229.898 33.0229 228.801C33.469 227.705 33.6399 226.534 33.5233 225.372C33.4966 225.207 33.543 225.038 33.6528 224.903C33.7626 224.769 33.9269 224.678 34.1105 224.65C34.202 224.634 34.296 224.635 34.3872 224.653C34.4783 224.67 34.5646 224.703 34.641 224.751C34.7174 224.799 34.7823 224.86 34.8319 224.931C34.8814 225.002 34.9146 225.081 34.9294 225.164C35.0633 226.515 34.8656 227.876 34.3504 229.152C33.8351 230.427 33.0148 231.585 31.9472 232.545C30.5099 233.801 28.9244 234.913 27.219 235.861C23.7732 237.957 20.2192 240.121 19.2149 243.659C19.014 244.367 19.2149 244.644 19.4775 244.811C22.0735 246.726 35.4857 242.743 38.7306 241.356C40.8577 240.315 42.7287 238.899 44.2315 237.193C44.3174 237.095 44.4335 237.022 44.5653 236.983C44.6971 236.943 44.8389 236.939 44.9732 236.971C45.1048 237.003 45.2233 237.068 45.314 237.159C45.4046 237.251 45.4634 237.364 45.4831 237.485L45.8385 239.594L54.8315 238.206L54.677 225.552C54.677 225.383 54.7519 225.221 54.8852 225.101C55.0185 224.981 55.1992 224.914 55.3878 224.914C55.5736 224.914 55.7521 224.979 55.885 225.096C56.0178 225.213 56.0945 225.372 56.0986 225.538L56.2531 238.734C56.252 238.883 56.1926 239.027 56.0854 239.141C55.9781 239.255 55.8296 239.332 55.6659 239.358L45.3749 241.009C45.2812 241.026 45.1845 241.024 45.0913 241.005C44.9982 240.986 44.9105 240.95 44.8341 240.898C44.7592 240.849 44.6959 240.787 44.6482 240.715C44.6004 240.644 44.569 240.564 44.556 240.482L44.3242 239.094C42.9043 240.501 41.2136 241.667 39.3332 242.535C38.0971 243.063 27.8988 246.587 22.0271 246.587Z" fill="#21005D"/>
<path d="M87.3425 135.684H69.4492C69.2814 135.686 69.1175 135.639 68.9832 135.548C68.849 135.458 68.752 135.33 68.7075 135.185L63.9638 119.686L59.7918 134.199C59.7476 134.35 59.6495 134.483 59.5127 134.578C59.3758 134.673 59.2078 134.726 59.0346 134.727L34.5433 134.172C34.4426 134.17 34.3432 134.15 34.2511 134.113C34.1589 134.077 34.0759 134.024 34.0068 133.958C33.9377 133.892 33.884 133.814 33.8488 133.73C33.8135 133.645 33.7975 133.554 33.8017 133.464C33.8057 133.282 33.8889 133.11 34.0333 132.982C34.1778 132.855 34.372 132.784 34.5743 132.784L58.4474 133.325L63.1912 116.814C63.2328 116.666 63.3285 116.535 63.463 116.442C63.5975 116.349 63.763 116.299 63.9329 116.301C64.1027 116.299 64.2682 116.349 64.4027 116.442C64.5372 116.535 64.633 116.666 64.6745 116.814L70.0364 134.297H87.3425C87.5474 134.297 87.7439 134.37 87.8888 134.5C88.0337 134.63 88.1151 134.806 88.1151 134.99C88.1151 135.081 88.0951 135.172 88.0563 135.256C88.0174 135.34 87.9605 135.416 87.8888 135.481C87.817 135.545 87.7319 135.596 87.6381 135.631C87.5444 135.666 87.4439 135.684 87.3425 135.684Z" fill="white"/>
</svg>
