<svg width="240" height="250" viewBox="0 0 240 250" fill="none" xmlns="http://www.w3.org/2000/svg">
<path d="M40.4976 220.663L26.5527 237.442C26.5527 237.442 -0.433923 221.885 0.55742 218.819C1.54876 215.753 19.0845 220.381 19.0845 220.381L27.7863 208.795" fill="white"/>
<path d="M26.5527 238.007C26.4553 238.009 26.3595 237.982 26.2773 237.928C18.0492 233.188 -0.984621 221.806 0.0397669 218.638C1.06416 215.47 14.2821 218.548 18.8753 219.77L27.3568 208.456C27.4477 208.34 27.5787 208.265 27.7224 208.246C27.8661 208.227 28.0113 208.266 28.1278 208.354C28.243 208.446 28.3181 208.581 28.3367 208.729C28.3552 208.878 28.3158 209.027 28.227 209.146L19.5252 220.731C19.4596 220.819 19.3703 220.885 19.2685 220.921C19.1667 220.958 19.0568 220.962 18.9524 220.935C10.7243 218.763 1.58186 217.473 1.07517 219.012C0.832844 220.765 13.9626 229.533 26.4095 236.74L40.079 220.29C40.1773 220.195 40.3064 220.14 40.4416 220.136C40.5768 220.132 40.7087 220.179 40.8122 220.268C40.9157 220.358 40.9835 220.483 41.0026 220.621C41.0218 220.758 40.991 220.898 40.9162 221.014L26.9602 237.792C26.9135 237.859 26.8523 237.913 26.7815 237.95C26.7107 237.987 26.6323 238.007 26.5527 238.007Z" fill="#21005D"/>
<path d="M85.3724 61.3998C83.9102 59.9307 82.067 58.9253 80.0632 58.5034C78.3449 58.2432 77.3976 58.9899 75.9657 59.6348C75.3929 59.895 75.3268 60.7662 74.721 61.0264C74.1152 61.2866 72.8705 60.6417 72.1765 60.6191C70.3242 60.5126 68.473 60.8484 66.7683 61.6002C65.0636 62.352 63.5517 63.4994 62.3512 64.9523C60.865 67.0891 59.706 69.447 58.9146 71.9442C54.795 82.6244 48.4834 93.3498 38.2285 97.9658C47.4921 104.754 58.8154 109.065 70.1718 108.386C75.7203 108.047 81.1299 106.468 86.0223 103.758C89.8665 101.62 96.85 97.1965 97.5439 92.2863C98.1938 87.6816 96.0679 80.6218 94.658 76.2773C92.9038 70.5593 89.6988 65.4241 85.3724 61.3998Z" fill="white"/>
<path d="M67.8367 108.997C57.7801 108.997 47.2498 105.286 37.9091 98.407C37.8319 98.3471 37.771 98.2678 37.7324 98.1766C37.6938 98.0854 37.6788 97.9855 37.6888 97.8866C37.6983 97.7889 37.7328 97.6955 37.7889 97.616C37.8451 97.5364 37.9208 97.4737 38.0083 97.4341C46.5338 93.61 53.2089 85.1926 58.4079 71.7292L58.6392 71.1183C59.4145 68.7803 60.5285 66.5758 61.9437 64.5789C63.196 63.0586 64.7755 61.8583 66.5572 61.0729C68.3389 60.2875 70.274 59.9385 72.2096 60.0534C72.5841 60.0845 72.9538 60.1605 73.3111 60.2797C73.6962 60.4209 74.1029 60.4898 74.5118 60.4833C74.6329 60.4833 74.7431 60.2344 74.8642 60.0308C75.034 59.6367 75.3292 59.3135 75.7014 59.1144C75.9767 58.9899 76.2301 58.8542 76.4724 58.7297C77.5607 58.0464 78.84 57.7557 80.1073 57.9038C82.2171 58.3622 84.1572 59.4253 85.7029 60.9698C90.0956 65.0667 93.3527 70.286 95.1427 76.0963C96.7068 80.8934 98.7005 87.7834 98.0507 92.3768C97.3677 97.1512 91.2655 101.428 86.2537 104.256C81.2891 106.99 75.8059 108.584 70.1829 108.929C69.4118 108.974 68.6298 108.997 67.8367 108.997ZM39.3301 98.1016C49.0122 104.992 59.917 108.454 70.1719 107.843C75.634 107.523 80.9616 105.979 85.78 103.317C92.5542 99.5497 96.5416 95.6352 97.0153 92.2637C97.6321 87.9192 95.6825 81.1875 94.1624 76.5149C92.4323 70.8915 89.2814 65.8399 85.031 61.8749C83.6468 60.4756 81.9055 59.5068 80.0082 59.0804C78.9582 58.9607 77.9 59.2164 77.0121 59.8045C76.7588 59.929 76.4944 60.0647 76.208 60.1892C76.0568 60.3106 75.9391 60.4705 75.8666 60.653C75.6758 61.079 75.3384 61.4175 74.9193 61.6034C74.3016 61.7191 73.6649 61.6564 73.0798 61.4224C72.7882 61.3326 72.4897 61.2683 72.1876 61.2301C70.4187 61.1108 68.6471 61.4157 67.0126 62.1206C65.3781 62.8255 63.9256 63.9111 62.7698 65.2917C61.4331 67.1961 60.3857 69.298 59.6636 71.5256L59.4213 72.1365C54.2883 85.4415 47.7124 93.9268 39.3301 98.1016Z" fill="#21005D"/>
<path d="M66.2395 97.4567C68.0679 95.4767 61.448 97.0154 60.8311 110.004C60.3575 119.914 63.4747 136.104 63.4747 136.104L42.7446 153.912L55.555 157.668C55.555 157.668 78.9176 140.223 78.9066 138.944C78.8956 137.666 66.2395 97.4567 66.2395 97.4567Z" fill="white"/>
<path d="M55.5549 158.189C55.5078 158.2 55.4589 158.2 55.4117 158.189L42.6014 154.433C42.5137 154.405 42.4349 154.353 42.373 154.284C42.311 154.214 42.2682 154.129 42.2489 154.037C42.2334 153.945 42.2415 153.851 42.2724 153.764C42.3033 153.676 42.356 153.599 42.4251 153.539L62.9239 135.935C62.5054 133.672 59.8838 119.123 60.3244 110.004C60.776 100.602 64.3999 96.6986 66.0852 96.2913C66.2445 96.2309 66.419 96.2271 66.5807 96.2804C66.7424 96.3337 66.8821 96.4411 66.9774 96.5855C67.0503 96.752 67.0726 96.9373 67.0411 97.117C67.0096 97.2967 66.926 97.4624 66.8012 97.5924C69.1033 104.89 79.3582 137.7 79.4133 138.944C79.4684 140.189 66.6029 150.054 55.8523 158.087C55.7662 158.152 55.6621 158.188 55.5549 158.189ZM43.791 153.663L55.4558 157.058C63.9703 150.699 77.4086 140.358 78.3889 138.831C78.0474 136.919 70.6784 113.262 65.7548 97.5698C64.466 98.5541 61.7233 101.926 61.3488 110.015C60.8862 119.756 63.9593 135.833 63.9924 136.037C64.0079 136.128 63.9998 136.222 63.9689 136.31C63.938 136.397 63.8853 136.474 63.8161 136.534L43.791 153.663Z" fill="#21005D"/>
<path d="M120.279 250C186.399 250 240 246.5 240 242.182C240 237.865 186.399 234.364 120.279 234.364C54.1584 234.364 0.557373 237.865 0.557373 242.182C0.557373 246.5 54.1584 250 120.279 250Z" fill="#EADDFF"/>
<path d="M102.732 86.6973C101.972 86.0863 68.2773 88.236 62.4614 99.7873C56.6455 111.339 77.5739 146.174 77.5739 146.174L120.191 133.061C120.191 133.061 123.231 103.17 102.732 86.6973Z" fill="#6750A4"/>
<path d="M237.323 188.532C242.831 214.554 224.546 233.482 224.546 233.482H95.7926C95.7926 233.482 77.5299 214.633 83.0043 188.532C88.4787 162.432 127.284 148.21 139.081 137.507C150.878 126.805 146.671 108.612 128.121 94.6961C109.572 80.7802 84.4583 71.9555 85.1632 41.8949C85.5818 22.6615 100.342 10.1371 100.342 10.1371H220.041C220.041 10.1371 234.801 22.5823 235.22 41.8949C235.881 71.9555 210.766 80.7802 192.206 94.6961C173.646 108.612 169.438 126.805 181.246 137.507C193.054 148.21 231.849 162.488 237.323 188.532Z" fill="white"/>
<path d="M224.546 234.002H95.7927C95.6559 234.001 95.5252 233.944 95.4292 233.844C95.2529 233.652 77.0452 214.441 82.5197 188.419C86.485 169.57 107.92 156.673 123.572 147.26C129.939 143.436 135.424 140.132 138.751 137.077C140.89 135.23 142.583 132.899 143.697 130.266C144.811 127.634 145.316 124.772 145.173 121.906C144.765 112.855 138.442 103.023 127.824 95.0694C124.178 92.3315 120.191 89.7407 116.336 87.229C100.474 76.9222 84.0838 66.2533 84.6125 41.8382C85.0311 22.6048 99.8241 9.82031 99.9783 9.69586C100.067 9.61593 100.18 9.5717 100.298 9.57141H220.041C220.158 9.57366 220.271 9.61765 220.361 9.69586C220.504 9.82031 235.297 22.5596 235.726 41.8382C236.255 66.2533 219.854 76.9109 203.992 87.229C200.148 89.7407 196.161 92.3315 192.504 95.0694C181.896 102.989 175.574 112.809 175.166 121.906C175.021 124.771 175.524 127.633 176.636 130.265C177.748 132.898 179.44 135.229 181.577 137.077C184.881 140.087 190.389 143.39 196.755 147.26C212.408 156.673 233.854 169.57 237.819 188.419C243.327 214.441 225.086 233.674 224.899 233.844C224.854 233.894 224.799 233.934 224.739 233.962C224.678 233.989 224.612 234.003 224.546 234.002ZM96.0019 232.961H224.326C226.011 231.117 241.95 212.88 236.839 188.634C232.962 170.227 211.736 157.476 196.249 148.154C189.849 144.307 184.309 140.981 180.916 137.892C178.655 135.942 176.868 133.478 175.694 130.695C174.52 127.913 173.992 124.888 174.153 121.86C174.582 112.447 181.048 102.378 191.909 94.2322C195.599 91.4717 199.619 88.8695 203.464 86.3126C219.083 76.1302 235.231 65.6424 234.713 41.8156C234.327 23.9964 221.33 11.8794 219.854 10.567H100.485C99.009 11.8794 86.0114 23.9964 85.6149 41.8156C85.0971 65.6424 101.256 76.1528 116.875 86.3126C120.741 88.8242 124.74 91.4264 128.419 94.2322C139.28 102.378 145.756 112.447 146.175 121.86C146.331 124.88 145.802 127.896 144.63 130.67C143.458 133.444 141.676 135.9 139.423 137.847C136.019 140.935 130.49 144.262 124.09 148.108C108.592 157.431 87.3772 170.181 83.5 188.589C78.4001 212.88 94.3167 231.117 96.0019 232.961Z" fill="#21005D"/>
<path d="M122.085 80.8142C126.062 83.405 130.181 86.0751 134.081 89.0053C143.295 95.6025 150.236 105.029 153.907 115.932C157.454 126.386 156.463 137.519 158.666 148.323C158.694 148.738 158.815 149.141 159.02 149.5C159.224 149.859 159.506 150.165 159.845 150.394C160.351 150.607 160.909 150.656 161.443 150.532C161.977 150.409 162.461 150.12 162.83 149.704C163.421 148.912 163.773 147.96 163.843 146.966C165.231 138.299 165.165 130.12 165.693 121.34C166.376 110.117 173.811 98.3279 186.203 89.0506C190.114 86.1203 194.222 83.4503 198.21 80.8594C207.176 75.0215 242.269 49.2488 218.94 41.5328C213.95 39.8923 208.387 40.3336 203.067 40.8087L119.662 48.1853C114.826 48.6152 109.892 49.0678 105.475 50.7875C101.058 52.5072 97.1806 55.7429 96.3985 59.8385C94.9666 67.5545 115.564 76.6055 122.085 80.8142Z" fill="#6750A4"/>
<path d="M224.645 186.349C219.765 182.494 213.711 180.541 207.561 180.839C199.035 181.156 190.741 184.018 182.227 183.6C172.082 183.102 162.499 177.943 152.409 179.006C140.568 180.205 131.977 189.426 120.466 192.164C114.353 193.612 107.7 193.148 101.741 195.038C94.7131 197.301 91.6399 203.376 92.455 209.372C92.7083 211.239 97.6761 225.902 100.463 225.902H219.832C225.967 225.902 230.593 198.975 229.976 195.241C229.311 191.71 227.416 188.548 224.645 186.349Z" fill="#6750A4"/>
<path d="M222.222 0.509094H98.1057C95.5142 0.509094 93.4133 2.66439 93.4133 5.32309C93.4133 7.98179 95.5142 10.1371 98.1057 10.1371H222.222C224.813 10.1371 226.914 7.98179 226.914 5.32309C226.914 2.66439 224.813 0.509094 222.222 0.509094Z" fill="#21005D"/>
<path d="M222.233 10.6349H98.0838C96.7107 10.6349 95.3939 10.0747 94.4231 9.07747C93.4522 8.08026 92.9067 6.72774 92.9067 5.31746C92.9067 3.90718 93.4522 2.55467 94.4231 1.55745C95.3939 0.560231 96.7107 5.94388e-08 98.0838 0H222.233C223.606 5.94388e-08 224.923 0.560231 225.894 1.55745C226.865 2.55467 227.41 3.90718 227.41 5.31746C227.41 6.72774 226.865 8.08026 225.894 9.07747C224.923 10.0747 223.606 10.6349 222.233 10.6349ZM98.0838 1.00692C97.5138 0.976942 96.9439 1.06635 96.4087 1.26973C95.8734 1.4731 95.384 1.78618 94.9703 2.18993C94.5566 2.59367 94.2272 3.07964 94.002 3.61827C93.7769 4.15691 93.6608 4.73695 93.6608 5.32312C93.6608 5.90928 93.7769 6.48933 94.002 7.02796C94.2272 7.5666 94.5566 8.05257 94.9703 8.45631C95.384 8.86005 95.8734 9.17313 96.4087 9.37651C96.9439 9.57988 97.5138 9.6693 98.0838 9.63932H222.233C223.31 9.58265 224.325 9.10318 225.068 8.29995C225.811 7.49672 226.226 6.43108 226.226 5.32312C226.226 4.21516 225.811 3.14952 225.068 2.34629C224.325 1.54306 223.31 1.06359 222.233 1.00692H98.0838Z" fill="#21005D"/>
<path d="M224.623 233.482H95.7156C93.124 233.482 91.0232 235.637 91.0232 238.296C91.0232 240.955 93.124 243.11 95.7156 243.11H224.623C227.215 243.11 229.316 240.955 229.316 238.296C229.316 235.637 227.215 233.482 224.623 233.482Z" fill="#21005D"/>
<path d="M224.623 243.619H95.7486C94.3755 243.619 93.0587 243.059 92.0879 242.062C91.117 241.064 90.5715 239.712 90.5715 238.302C90.5715 236.891 91.117 235.539 92.0879 234.542C93.0587 233.544 94.3755 232.984 95.7486 232.984H224.623C225.996 232.984 227.313 233.544 228.284 234.542C229.255 235.539 229.8 236.891 229.8 238.302C229.8 239.712 229.255 241.064 228.284 242.062C227.313 243.059 225.996 243.619 224.623 243.619ZM95.7486 233.98C94.6326 233.98 93.5624 234.435 92.7733 235.246C91.9842 236.056 91.5409 237.155 91.5409 238.302C91.5409 239.448 91.9842 240.547 92.7733 241.358C93.5624 242.168 94.6326 242.623 95.7486 242.623H224.623C225.739 242.623 226.809 242.168 227.599 241.358C228.388 240.547 228.831 239.448 228.831 238.302C228.831 237.155 228.388 236.056 227.599 235.246C226.809 234.435 225.739 233.98 224.623 233.98H95.7486Z" fill="#21005D"/>
<path d="M158.269 154.67C154.7 154.67 154.689 166.799 158.269 166.799C161.849 166.799 161.849 154.67 158.269 154.67Z" fill="#6750A4"/>
<path d="M164.515 166.776C163.072 166.776 163.072 171.064 164.515 171.064C165.958 171.064 165.969 166.776 164.515 166.776Z" fill="#6750A4"/>
<path d="M155.692 69.523C139.297 69.3787 123.005 66.8456 107.303 61.9994C107.24 61.9802 107.181 61.948 107.13 61.9047C107.08 61.8614 107.038 61.808 107.008 61.7476C106.978 61.6872 106.961 61.6212 106.957 61.5536C106.952 61.486 106.962 61.4183 106.984 61.3545C107.027 61.2242 107.118 61.1166 107.237 61.0552C107.357 60.9937 107.496 60.9834 107.623 61.0264C108.306 61.264 176.708 84.0612 213.366 48.8302C213.465 48.7399 213.594 48.6928 213.725 48.6987C213.857 48.7047 213.982 48.7634 214.072 48.8622C214.163 48.961 214.212 49.0921 214.21 49.2278C214.207 49.3634 214.154 49.4927 214.06 49.5882C197.89 65.122 175.673 69.523 155.692 69.523Z" fill="#21005D"/>
<path d="M140.26 206.306C127.39 206.307 114.588 204.402 102.247 200.649C102.179 200.632 102.116 200.601 102.06 200.557C102.005 200.513 101.958 200.458 101.925 200.395C101.891 200.332 101.87 200.263 101.864 200.191C101.858 200.12 101.866 200.048 101.888 199.98C101.91 199.911 101.946 199.849 101.992 199.795C102.039 199.742 102.096 199.699 102.16 199.67C102.224 199.64 102.293 199.625 102.363 199.624C102.433 199.623 102.502 199.637 102.567 199.665C102.93 199.801 140.105 212.303 173.701 199.665L213.542 184.674C213.606 184.642 213.676 184.624 213.747 184.621C213.819 184.618 213.89 184.631 213.956 184.658C214.022 184.686 214.082 184.727 214.131 184.78C214.181 184.833 214.219 184.896 214.243 184.965C214.267 185.033 214.277 185.107 214.272 185.18C214.266 185.253 214.246 185.324 214.212 185.389C214.178 185.453 214.131 185.509 214.075 185.554C214.018 185.599 213.953 185.63 213.884 185.647L174.087 200.615C163.22 204.522 151.772 206.448 140.26 206.306Z" fill="#21005D"/>
<path d="M189.992 187.265H189.871C178.394 184.358 158.357 179.413 158.148 179.346C158.028 179.304 157.927 179.217 157.866 179.103C157.805 178.988 157.788 178.854 157.819 178.728C157.849 178.601 157.925 178.491 158.031 178.419C158.137 178.347 158.265 178.318 158.39 178.339C158.589 178.395 178.625 183.328 190.113 186.258C190.178 186.273 190.24 186.301 190.294 186.34C190.348 186.38 190.394 186.43 190.429 186.488C190.464 186.546 190.487 186.611 190.497 186.678C190.507 186.746 190.504 186.814 190.488 186.881C190.459 186.992 190.394 187.09 190.304 187.16C190.215 187.23 190.105 187.267 189.992 187.265Z" fill="#21005D"/>
<path d="M86.0444 88.6545L88.4236 96.3026C88.4236 96.3026 88.5447 100.115 83.1915 100.557C77.8382 100.998 75.9877 97.7395 75.9877 97.7395L72.0664 83.3144C72.0664 83.3144 78.4771 76.4583 74.7761 68.6066C76.3526 70.1755 78.361 71.2081 80.5286 71.5644C82.6962 71.9206 84.918 71.5831 86.8925 70.5978C88.1532 74.3383 89.1906 78.1544 89.9987 82.0247C90.6706 86.1768 86.0444 88.6545 86.0444 88.6545Z" fill="white"/>
<path d="M82.2 101.156C77.3535 101.156 75.5911 98.1581 75.514 98.0223C75.5096 97.9772 75.5096 97.9317 75.514 97.8866L71.5816 83.4728C71.558 83.3782 71.5577 83.2789 71.5808 83.1841C71.6039 83.0893 71.6496 83.0019 71.7138 82.9298C71.7799 82.8619 77.8161 76.2434 74.3354 68.8668C74.2814 68.7459 74.2706 68.6094 74.3049 68.4812C74.3392 68.353 74.4163 68.2413 74.5228 68.1657C74.6293 68.0901 74.7583 68.0554 74.8871 68.0678C75.016 68.0801 75.1366 68.1387 75.2276 68.2332C76.7217 69.7265 78.6296 70.7078 80.6888 71.0421C82.748 71.3763 84.8575 71.0472 86.7272 70.1C86.7961 70.0667 86.8713 70.0494 86.9475 70.0494C87.0236 70.0494 87.0988 70.0667 87.1678 70.1C87.2421 70.1266 87.3091 70.1714 87.3629 70.2305C87.4166 70.2896 87.4555 70.3613 87.4762 70.4394C88.7575 74.2059 89.8024 78.053 90.6044 81.9568C91.2102 85.7356 87.9388 88.1794 86.7602 88.9261L88.9632 96.1443C88.9685 96.1931 88.9685 96.2425 88.9632 96.2913C88.9632 96.2913 89.0293 100.647 83.2244 101.122C82.8719 101.145 82.5305 101.156 82.2 101.156ZM76.4943 97.5019C76.7587 97.9092 78.5541 100.364 83.1032 99.9909C87.6524 99.6176 87.8176 96.8797 87.8287 96.3932L85.4825 88.8356C85.4412 88.7086 85.4451 88.5707 85.4936 88.4464C85.542 88.3221 85.6317 88.2195 85.7468 88.1567C85.7468 88.1567 90.0096 85.8148 89.4148 82.1265C88.6712 78.4857 87.7074 74.896 86.5289 71.3784C84.8253 72.1326 82.9638 72.4327 81.1172 72.2507C79.2705 72.0688 77.4985 71.4107 75.9656 70.3376C77.783 76.7638 73.6414 82.251 72.6611 83.4615L76.4943 97.5019Z" fill="#21005D"/>
<path d="M74.2805 82.1152C73.8797 81.4786 73.2939 80.9877 72.6062 80.7123C71.9529 80.4909 71.2672 80.3875 70.5795 80.4068C70.2053 80.3677 69.8274 80.4221 69.478 80.5652C69.2407 80.6849 69.0305 80.8545 68.8612 81.063C68.4064 81.5062 68.1278 82.1068 68.0791 82.7488C68.0895 83.269 68.2257 83.7783 68.4756 84.2309C68.705 84.7415 69.0015 85.2173 69.3568 85.6451C69.7178 86.0674 70.1569 86.4118 70.6486 86.6584C71.1403 86.9049 71.6747 87.0487 72.2209 87.0813C72.7671 87.114 73.3142 87.0348 73.8304 86.8485C74.3466 86.6621 74.8216 86.3723 75.2278 85.9958" fill="white"/>
<path d="M72.4519 87.6589H72.1875C71.5585 87.629 70.9417 87.4694 70.374 87.1895C69.8063 86.9096 69.2992 86.5152 68.8831 86.0297C68.4976 85.5635 68.1752 85.046 67.9247 84.4911C67.6404 83.9559 67.4855 83.3583 67.4731 82.7488C67.5276 81.9697 67.8566 81.2377 68.3984 80.6897C68.6209 80.4283 68.8901 80.2133 69.1915 80.0561C69.6222 79.8837 70.0855 79.814 70.5463 79.8524C71.2943 79.832 72.04 79.9468 72.7493 80.1918C73.5503 80.5106 74.2301 81.0858 74.6879 81.8323C74.7279 81.895 74.7551 81.9653 74.7678 82.039C74.7806 82.1128 74.7787 82.1884 74.7622 82.2614C74.7458 82.3343 74.7151 82.4031 74.672 82.4635C74.6289 82.524 74.5744 82.5748 74.5117 82.613C74.3869 82.6898 74.2378 82.7139 74.0961 82.6801C73.9543 82.6463 73.8308 82.5574 73.7517 82.432C73.4182 81.9126 72.932 81.5162 72.3638 81.3006C71.7657 81.1062 71.1404 81.0145 70.5133 81.0291C70.2231 80.9957 69.9293 81.0305 69.6541 81.1309C69.4833 81.227 69.3304 81.3534 69.2025 81.5042C68.851 81.8581 68.6293 82.3256 68.5746 82.828C68.5902 83.2541 68.7074 83.6698 68.9161 84.0385C69.1225 84.5033 69.3893 84.9371 69.7092 85.3283C70.3488 86.0612 71.2423 86.5079 72.1985 86.5728C72.6708 86.6004 73.1436 86.5317 73.5898 86.3705C74.036 86.2093 74.4467 85.9589 74.7981 85.6338C74.8493 85.5807 74.9102 85.5387 74.9773 85.5099C75.0444 85.4812 75.1164 85.4664 75.1891 85.4664C75.2618 85.4664 75.3338 85.4812 75.4009 85.5099C75.468 85.5387 75.5289 85.5807 75.5801 85.6338C75.6314 85.6854 75.6722 85.747 75.7 85.815C75.7278 85.883 75.7421 85.956 75.7421 86.0297C75.7421 86.1035 75.7278 86.1765 75.7 86.2445C75.6722 86.3125 75.6314 86.3741 75.5801 86.4257C74.7207 87.2182 73.6069 87.6573 72.4519 87.6589Z" fill="#21005D"/>
<path d="M81.8257 76.4357C81.8257 76.4357 85.8021 79.3999 85.4386 80.3163C85.0751 81.2328 83.2356 81.4477 83.2356 81.4477" fill="white"/>
<path d="M83.2025 81.9908C83.0564 81.9983 82.9134 81.9459 82.805 81.8451C82.6965 81.7443 82.6315 81.6034 82.6242 81.4534C82.6169 81.3033 82.6679 81.1565 82.766 81.0451C82.8642 80.9337 83.0013 80.8669 83.1474 80.8594C83.7973 80.7915 84.7776 80.486 84.9318 80.1014C83.9622 78.8513 82.806 77.7668 81.5062 76.8883C81.3907 76.8001 81.3134 76.6692 81.2908 76.5233C81.2682 76.3774 81.302 76.2282 81.385 76.1076C81.4266 76.0461 81.4799 75.9938 81.5417 75.954C81.6035 75.9142 81.6726 75.8877 81.7446 75.876C81.8167 75.8644 81.8903 75.8679 81.961 75.8863C82.0317 75.9047 82.0981 75.9377 82.1561 75.9832C85.0199 78.1215 86.2977 79.6488 85.9562 80.5087C85.4826 81.64 83.6321 81.9229 83.2686 81.9568L83.2025 81.9908Z" fill="#21005D"/>
<path d="M79.4121 76.4882C79.7252 76.2836 79.7513 75.7502 79.4704 75.2968C79.1896 74.8435 78.7081 74.6418 78.395 74.8465C78.0819 75.0511 78.0558 75.5845 78.3367 76.0379C78.6176 76.4912 79.099 76.6928 79.4121 76.4882Z" fill="#21005D"/>
<path d="M83.6492 74.8952C83.9622 74.6906 83.9884 74.1572 83.7075 73.7038C83.4266 73.2505 82.9451 73.0488 82.6321 73.2535C82.319 73.4581 82.2929 73.9915 82.5737 74.4448C82.8546 74.8982 83.3361 75.0998 83.6492 74.8952Z" fill="#21005D"/>
<path d="M86.6392 82.2623C86.6392 82.2623 81.308 88.0663 78.5212 82.2623H86.6392Z" fill="white"/>
<path d="M81.8587 85.4302C81.6718 85.447 81.4839 85.447 81.297 85.4302C80.5543 85.2859 79.8603 84.9479 79.2816 84.4486C78.7029 83.9493 78.259 83.3055 77.9925 82.5791C77.9309 82.4436 77.9229 82.2889 77.9701 82.1475C78.0174 82.0061 78.1162 81.8891 78.2458 81.8211C78.3109 81.7882 78.3816 81.7689 78.454 81.7642C78.5263 81.7596 78.5989 81.7696 78.6674 81.7938C78.736 81.8179 78.7993 81.8558 78.8536 81.9051C78.9078 81.9545 78.9521 82.0143 78.9838 82.0813C79.1746 82.6384 79.4984 83.1376 79.9256 83.5329C80.3528 83.9282 80.8698 84.2071 81.4292 84.344C83.6321 84.6947 86.1876 82.0021 86.2096 81.9794C86.2608 81.9264 86.3217 81.8843 86.3889 81.8556C86.456 81.8269 86.528 81.8121 86.6007 81.8121C86.6734 81.8121 86.7454 81.8269 86.8125 81.8556C86.8796 81.8843 86.9405 81.9264 86.9917 81.9794C87.0933 82.0871 87.1501 82.2312 87.1501 82.3811C87.1501 82.531 87.0933 82.6751 86.9917 82.7827C86.9366 82.794 84.4803 85.4302 81.8587 85.4302Z" fill="#21005D"/>
<path d="M86.0444 88.6545C86.0444 88.6545 82.1561 89.7859 80.0413 89.2994C80.0413 89.2994 82.8501 93.4063 87.3992 93.2819L86.0444 88.6545Z" fill="#21005D"/>
<path d="M87.2009 93.8476C82.5306 93.8476 79.7108 89.7972 79.5896 89.6162C79.5261 89.5218 79.4921 89.4099 79.4919 89.2951C79.4918 89.1804 79.5257 89.0683 79.589 88.9738C79.6524 88.8793 79.7422 88.8068 79.8465 88.766C79.9509 88.7251 80.0649 88.7178 80.1734 88.7451C82.1231 89.2429 85.8571 88.1341 85.8902 88.1228C86.0289 88.0803 86.1784 88.0957 86.3062 88.1656C86.434 88.2354 86.5299 88.3542 86.5731 88.4962L87.9279 93.1122C87.9543 93.1955 87.9611 93.2841 87.9476 93.3706C87.9342 93.4571 87.9011 93.5392 87.8508 93.61C87.8012 93.6802 87.7368 93.738 87.6625 93.7792C87.5881 93.8203 87.5056 93.8437 87.4213 93.8476H87.2009ZM81.363 90.0009C82.7746 91.4982 84.646 92.4494 86.6612 92.6936L85.6809 89.2994C84.2752 89.6902 82.8297 89.9105 81.3741 89.9556L81.363 90.0009Z" fill="#21005D"/>
<path d="M120.191 133.106C120.191 133.106 120.191 155.191 117.69 164.513C110.575 190.942 58.6172 233.165 58.6172 233.165L47.1066 221.422L78.7524 174.605L40.4976 220.618L27.7864 208.75L77.5739 146.174L120.191 133.106Z" fill="#21005D"/>
<path d="M58.6171 233.731C58.4739 233.729 58.3363 233.673 58.2316 233.572L46.721 221.874C46.6289 221.781 46.5718 221.657 46.5597 221.524C46.5476 221.392 46.5813 221.259 46.6549 221.15L72.0443 183.577L40.9161 221.025C40.8695 221.085 40.8111 221.135 40.7446 221.17C40.6782 221.205 40.6053 221.225 40.5306 221.229C40.4582 221.235 40.3854 221.224 40.3171 221.199C40.2488 221.174 40.1864 221.134 40.1341 221.082L27.4229 209.214C27.3252 209.109 27.2708 208.969 27.2708 208.824C27.2708 208.678 27.3252 208.538 27.4229 208.433L77.1553 145.857C77.2237 145.771 77.3158 145.708 77.4196 145.676L120.036 132.563C120.119 132.541 120.205 132.538 120.288 132.553C120.372 132.569 120.452 132.603 120.521 132.654C120.588 132.708 120.643 132.776 120.681 132.854C120.719 132.933 120.74 133.019 120.741 133.106C120.741 134.011 120.741 155.372 118.219 164.672C115.245 175.725 104.362 190.693 85.8681 209.157C72.1325 222.881 59.0908 233.505 58.9586 233.606C58.8613 233.685 58.7412 233.729 58.6171 233.731ZM47.8225 221.421L58.6502 232.43C63.3866 228.515 110.497 189.143 117.162 164.378C119.364 156.198 119.607 137.835 119.64 133.83L77.8933 146.751L28.5464 208.784L40.4535 219.905L78.3339 174.334C78.4241 174.223 78.5528 174.153 78.6927 174.138C78.8326 174.123 78.9726 174.165 79.0829 174.254C79.1951 174.34 79.2697 174.468 79.2904 174.61C79.311 174.752 79.276 174.897 79.193 175.012L47.8225 221.421Z" fill="#21005D"/>
<path d="M47.1066 221.422L38.8454 230.846C38.8454 230.846 25.308 226.173 25.9028 228.809C26.4976 231.445 44.1215 246.153 45.0137 246.459C45.9059 246.764 58.6172 233.12 58.6172 233.12" fill="white"/>
<path d="M45.0027 247.07H44.8485C43.747 246.696 26.024 231.875 25.3741 228.968C25.3227 228.78 25.3232 228.58 25.3758 228.393C25.4283 228.205 25.5307 228.036 25.6715 227.904C27.1806 226.501 35.585 229.183 38.6802 230.167L46.6991 221.025C46.7993 220.924 46.9333 220.867 47.0737 220.864C47.2141 220.861 47.3503 220.913 47.4544 221.01C47.5585 221.107 47.6226 221.241 47.6338 221.385C47.6449 221.528 47.6021 221.671 47.5141 221.783L39.2529 231.197C39.1812 231.278 39.0878 231.337 38.9841 231.365C38.8804 231.393 38.7709 231.39 38.6692 231.355C32.677 229.284 27.0594 228.074 26.4095 228.685C26.9603 230.948 43.0861 244.524 45.0798 245.836C46.3686 245.09 52.7022 238.63 58.2207 232.713C58.2709 232.66 58.3309 232.618 58.3971 232.589C58.4633 232.561 58.5344 232.546 58.6062 232.546C58.678 232.546 58.7491 232.561 58.8153 232.589C58.8815 232.618 58.9415 232.66 58.9917 232.713C59.0433 232.765 59.0843 232.828 59.1123 232.897C59.1402 232.966 59.1546 233.04 59.1546 233.114C59.1546 233.189 59.1402 233.263 59.1123 233.332C59.0843 233.401 59.0433 233.463 58.9917 233.516C47.4701 245.961 45.5645 247.07 45.0027 247.07Z" fill="#21005D"/>
<path d="M59.9499 225.845C59.8782 225.846 59.8073 225.83 59.7424 225.799C59.6775 225.768 59.6204 225.721 59.5754 225.664C59.5328 225.615 59.5003 225.558 59.4799 225.495C59.4596 225.433 59.4517 225.367 59.4569 225.301C59.462 225.236 59.48 225.172 59.5099 225.114C59.5397 225.056 59.5808 225.004 59.6305 224.963C60.0601 224.589 102.435 187.435 110.861 166.471C119.21 145.71 114.815 137.428 114.771 137.349C114.707 137.233 114.69 137.096 114.724 136.968C114.758 136.84 114.84 136.731 114.953 136.664C115.065 136.598 115.199 136.581 115.324 136.616C115.449 136.651 115.555 136.736 115.619 136.851C115.807 137.191 120.334 145.551 111.764 166.855C103.195 188.159 60.6879 225.347 60.2583 225.687C60.1786 225.778 60.0684 225.834 59.9499 225.845Z" fill="white"/>
<path d="M81.8257 156.809C81.7032 156.806 81.5858 156.758 81.4953 156.673C81.4493 156.627 81.4127 156.573 81.3877 156.513C81.3627 156.452 81.3499 156.388 81.3499 156.322C81.3499 156.257 81.3627 156.192 81.3877 156.132C81.4127 156.071 81.4493 156.017 81.4953 155.971L92.1577 144.024C92.2254 143.951 92.3129 143.9 92.4091 143.877C92.5052 143.855 92.6056 143.863 92.6974 143.9C92.7883 143.936 92.8664 144 92.9214 144.083C92.9764 144.165 93.0059 144.263 93.0058 144.364V153.256C93.0058 153.388 92.9548 153.515 92.8639 153.608C92.773 153.701 92.6497 153.754 92.5212 153.754C92.3926 153.754 92.2694 153.701 92.1785 153.608C92.0876 153.515 92.0365 153.388 92.0365 153.256V145.619L82.2112 156.616C82.1641 156.675 82.1053 156.722 82.0388 156.755C81.9723 156.789 81.8996 156.807 81.8257 156.809Z" fill="white"/>
<path d="M71.2844 162.703L85.4606 146.219H50.3009L31.4324 165.43L71.2844 162.703Z" fill="white"/>
<path d="M31.4324 165.984C31.3348 165.984 31.2393 165.956 31.1572 165.901C31.0751 165.847 31.01 165.77 30.9698 165.679C30.928 165.583 30.9151 165.477 30.9328 165.374C30.9504 165.272 30.9979 165.176 31.0689 165.102L49.9485 145.868C50.0441 145.776 50.1698 145.724 50.3009 145.721H85.4606C85.5585 145.719 85.6546 145.748 85.7369 145.802C85.8193 145.856 85.8841 145.934 85.9232 146.027C85.9594 146.118 85.9714 146.217 85.9578 146.315C85.9443 146.412 85.9057 146.504 85.8461 146.581L71.6479 163.054C71.5597 163.154 71.4373 163.215 71.3064 163.224L31.4654 165.984H31.4324ZM50.5102 146.751L32.7432 164.853L71.0421 162.239L84.3481 146.751H50.5102Z" fill="#21005D"/>
<path d="M97.5439 92.2863C97.5439 92.2863 106.202 127.981 103.8 129.113C101.399 130.244 71.3944 140.087 69.7312 140.834C68.0679 141.58 64.0254 144.59 63.2874 146.219C62.5494 147.848 61.8775 154.308 63.2874 153.89C65.3492 153.395 67.3797 152.771 69.3677 152.023C70.4692 151.435 72.0663 148.029 72.0663 148.029C72.0663 148.029 71.8681 151.321 73.3771 150.62C74.8862 149.919 77.5738 146.219 77.5738 146.219C77.5738 146.219 115.41 144.895 119.089 137.1C122.768 129.305 120.752 112.47 114.683 99.6063C108.614 86.7425 98.0836 84.4119 97.5439 92.2863Z" fill="white"/>
<path d="M63.1662 154.433C63.0325 154.431 62.9009 154.398 62.7809 154.338C62.6609 154.277 62.5555 154.19 62.4723 154.082C61.4479 152.849 62.2079 147.373 62.8358 145.993C63.6399 144.216 67.7595 141.173 69.5329 140.336C70.2819 139.996 76.3291 137.96 83.3456 135.595C92.1575 132.62 102.269 129.237 103.591 128.603C104.693 127.257 101.113 109.121 97.0482 92.3995C97.0427 92.343 97.0427 92.2862 97.0482 92.2297C97.2354 89.5258 98.5792 87.7042 100.738 87.3083C104.704 86.5276 110.905 90.4082 115.135 99.3574C121.292 112.391 123.275 129.418 119.541 137.304C115.807 145.189 81.3739 146.558 77.8381 146.694C77.2103 147.543 75.0183 150.405 73.5864 151.073C73.3963 151.177 73.1826 151.226 72.9675 151.216C72.7524 151.206 72.5438 151.137 72.3637 151.016C72.0074 150.712 71.769 150.286 71.6918 149.817C71.2006 150.852 70.4847 151.758 69.599 152.464C68.0711 153.086 66.4986 153.585 64.8956 153.958C64.3118 154.116 63.7941 154.252 63.4306 154.365C63.3455 154.399 63.2568 154.421 63.1662 154.433ZM98.0505 92.2071C98.2708 93.1235 100.309 101.609 102.06 110.128C105.871 128.649 104.67 129.226 104.021 129.531C102.644 130.187 92.5541 133.582 83.654 136.568C76.9569 138.831 70.6344 140.947 69.9404 141.264C68.2331 142.044 64.433 144.986 63.739 146.389C63.0451 147.792 62.6375 152.849 63.2433 153.381C63.6962 153.192 64.1643 153.044 64.6422 152.939C66.1704 152.575 67.672 152.103 69.1363 151.525C69.8303 151.152 71.0199 149.013 71.6037 147.758C71.6557 147.652 71.7411 147.568 71.8458 147.519C71.9504 147.471 72.0682 147.46 72.1797 147.489C72.2911 147.518 72.3897 147.585 72.4592 147.679C72.5287 147.773 72.5649 147.888 72.562 148.007C72.4648 148.742 72.5959 149.49 72.9365 150.145C72.9916 150.145 73.0907 150.145 73.1788 150.145C74.2803 149.613 76.4833 146.898 77.1772 145.891C77.2217 145.829 77.2797 145.778 77.3466 145.742C77.4135 145.707 77.4875 145.688 77.5627 145.687C77.6509 145.687 87.1127 145.348 96.894 144.058C113.064 141.931 117.646 138.967 118.637 136.862C122.239 129.226 120.257 112.606 114.231 99.81C110.266 91.4378 104.417 87.6477 100.936 88.3378C99.2401 88.6772 98.2268 90.0575 98.0836 92.2524L98.0505 92.2071Z" fill="#21005D"/>
<path d="M71.2843 162.703C69.9405 160.723 52.4267 131.025 52.4267 131.025L11.1648 135.188L31.4323 165.452L71.2843 162.703Z" fill="white"/>
<path d="M31.4324 165.984C31.3501 165.983 31.2693 165.962 31.1965 165.923C31.1237 165.884 31.0611 165.827 31.0138 165.758L10.7574 135.437C10.7149 135.359 10.6926 135.271 10.6926 135.182C10.6926 135.093 10.7149 135.006 10.7574 134.928C10.7943 134.845 10.8511 134.774 10.9225 134.721C10.9938 134.667 11.0773 134.633 11.1649 134.622L52.4158 130.47C52.5103 130.458 52.6063 130.474 52.6922 130.516C52.7782 130.558 52.8505 130.625 52.9005 130.708C53.0767 131.013 70.4252 160.44 71.736 162.386C71.7816 162.465 71.8057 162.555 71.8057 162.646C71.8057 162.738 71.7816 162.828 71.736 162.907C71.6976 162.989 71.6386 163.06 71.5651 163.111C71.4917 163.163 71.4062 163.194 71.3175 163.201L31.4654 165.984H31.4324ZM12.0682 135.595L31.6747 164.898L70.3922 162.25C67.4622 157.499 53.8698 134.532 52.1515 131.545L12.0682 135.595Z" fill="#21005D"/>
<path d="M45.7737 149.885C45.149 148.511 44.1983 147.32 43.009 146.423C42.2739 145.805 41.3844 145.413 40.4425 145.291C39.9727 145.245 39.4992 145.325 39.0685 145.523C38.6379 145.721 38.2649 146.031 37.9861 146.423C37.613 147.086 37.4694 147.86 37.5786 148.617C37.652 149.513 37.9135 150.381 38.3452 151.162C38.7768 151.943 39.3684 152.619 40.079 153.143C42.6014 154.885 47.6242 153.924 45.7737 149.885Z" fill="white"/>
<path d="M42.9209 154.478C41.8155 154.491 40.7309 154.168 39.8036 153.55C39.0309 152.993 38.3867 152.269 37.9166 151.429C37.4465 150.588 37.1619 149.651 37.0829 148.685C36.9533 147.812 37.1247 146.92 37.5676 146.162C37.8974 145.696 38.3404 145.326 38.8525 145.09C39.3646 144.854 39.9279 144.759 40.4866 144.816C41.5204 144.93 42.5019 145.341 43.3174 146.004C44.5662 146.956 45.5654 148.212 46.2253 149.658C47.2167 151.831 46.3575 153.052 45.7517 153.562C44.9397 154.194 43.9393 154.518 42.9209 154.478ZM40.2222 145.834C39.8719 145.824 39.5242 145.9 39.2081 146.055C38.892 146.211 38.6166 146.441 38.4047 146.728C38.0953 147.291 37.9789 147.944 38.0743 148.583C38.1432 149.399 38.3837 150.19 38.7793 150.901C39.1749 151.612 39.716 152.227 40.3654 152.702C41.0656 153.177 41.8833 153.437 42.7224 153.451C43.5614 153.465 44.3869 153.232 45.1018 152.781C45.7847 152.181 45.8508 151.276 45.3221 150.1C44.7285 148.808 43.8314 147.688 42.7116 146.841C42.0538 146.288 41.2543 145.942 40.4094 145.846L40.2222 145.834Z" fill="#21005D"/>
<path d="M40.5417 148.221C41.0172 148.903 41.4583 149.609 41.8635 150.337L42.7447 148.221" fill="white"/>
<path d="M41.9076 150.858C41.82 150.857 41.7341 150.833 41.6586 150.787C41.5832 150.741 41.5209 150.676 41.478 150.597C41.0044 149.783 40.3765 148.821 40.2664 148.617C40.2101 148.567 40.1651 148.504 40.1347 148.434C40.1043 148.363 40.0891 148.287 40.0901 148.21C40.0901 148.075 40.1424 147.946 40.2353 147.85C40.3283 147.755 40.4544 147.701 40.5858 147.701C40.8722 147.701 40.9493 147.701 41.8305 149.206L42.3262 148.074C42.3774 147.947 42.4757 147.846 42.5996 147.793C42.7236 147.74 42.8629 147.739 42.9871 147.792C43.1092 147.846 43.2054 147.948 43.2548 148.075C43.3043 148.202 43.3031 148.344 43.2514 148.47L42.3702 150.597C42.332 150.684 42.2722 150.759 42.1968 150.815C42.1214 150.871 42.033 150.905 41.9406 150.914L41.9076 150.858Z" fill="#21005D"/>
</svg>
