<svg width="239" height="166" viewBox="0 0 239 166" fill="none" xmlns="http://www.w3.org/2000/svg">
<path d="M80.278 119.947L70.918 133.28L92.0755 146.26L114.185 127.84C114.185 127.84 102.5 100.807 99.1855 98.86C95.8705 96.9133 80.278 119.947 80.278 119.947Z" fill="white"/>
<path d="M92.0756 146.62C92.0002 146.62 91.9265 146.599 91.8656 146.56L70.7081 133.58C70.6279 133.531 70.5722 133.457 70.5526 133.372C70.533 133.288 70.5511 133.2 70.6031 133.127L79.9556 119.793C80.5406 118.94 93.8756 99.3933 98.3906 98.5C98.5629 98.4577 98.7432 98.4478 98.9201 98.4707C99.097 98.4937 99.2665 98.549 99.4181 98.6333C102.771 100.633 114.058 126.667 114.538 127.773C114.564 127.835 114.568 127.902 114.551 127.966C114.533 128.031 114.495 128.089 114.441 128.133L92.3306 146.533C92.2967 146.562 92.2567 146.585 92.2129 146.599C92.1691 146.614 92.1224 146.621 92.0756 146.62ZM71.4281 133.213L92.0381 145.88L113.751 127.773C110.443 120.133 101.608 100.7 99.0131 99.16C98.9454 99.1256 98.8704 99.1043 98.7929 99.0974C98.7153 99.0905 98.637 99.0982 98.5631 99.12C95.0681 99.7867 84.4181 114.513 80.5631 120.113L71.4281 133.213Z" fill="#2D5385"/>
<path d="M69.0944 82.7267C69.0944 82.7267 67.8269 91.5533 72.0494 95.4933C76.2719 99.4333 90.6344 100.56 91.4819 101.873C92.3294 103.187 107.982 138.287 110.269 140.353C112.557 142.42 122.097 139.227 129.274 133.22C129.274 133.22 112.909 100.747 112.332 97.9333C111.754 95.12 117.027 83.1067 117.027 77.66L69.0944 82.7267Z" fill="white"/>
<path d="M112.558 141.333C111.632 141.399 110.715 141.135 110.008 140.6C108.448 139.213 101.758 124.847 95.0075 110.253C92.99 105.873 91.4 102.42 91.16 102.053C90.92 101.687 88.2575 101.127 85.91 100.633C81.0875 99.6333 74.4875 98.2533 71.7875 95.7333C67.49 91.7333 68.675 83.0667 68.7275 82.7C68.7374 82.6259 68.7756 82.557 68.8356 82.5049C68.8956 82.4527 68.974 82.4204 69.0575 82.4133L116.983 77.3333C117.037 77.3271 117.092 77.3316 117.144 77.3466C117.195 77.3616 117.243 77.3867 117.283 77.42C117.32 77.4517 117.35 77.4899 117.371 77.5323C117.392 77.5748 117.402 77.6205 117.403 77.6667C117.403 80.5333 115.963 85.2 114.688 89.32C113.533 93.0667 112.438 96.6 112.7 97.88C113.27 100.62 129.455 132.767 129.62 133.093C129.651 133.157 129.66 133.227 129.646 133.295C129.631 133.363 129.593 133.425 129.538 133.473C123.995 138.1 116.69 141.333 112.558 141.333ZM69.4325 83.04C69.275 84.5067 68.6825 91.8667 72.32 95.2733C74.87 97.6533 81.32 99 86.075 99.9867C89.675 100.74 91.4225 101.127 91.805 101.72C92.0525 102.107 93.305 104.827 95.6975 110C100.333 120.033 108.95 138.72 110.54 140.133C112.625 141.987 121.79 138.933 128.825 133.153C127.28 130.073 112.528 100.74 111.965 98.0067C111.665 96.5733 112.715 93.1333 113.968 89.1533C115.22 85.1733 116.533 80.8533 116.645 78.0467L69.4325 83.04Z" fill="#2D5385"/>
<path d="M123.612 135.807C123.536 135.806 123.462 135.786 123.399 135.748C123.336 135.71 123.287 135.656 123.259 135.593L106.009 96.8067C105.991 96.766 105.982 96.7224 105.982 96.6786C105.983 96.6348 105.994 96.5915 106.013 96.5513C106.033 96.511 106.061 96.4746 106.096 96.4441C106.131 96.4135 106.173 96.3895 106.219 96.3733C106.265 96.3562 106.314 96.3474 106.363 96.3475C106.413 96.3477 106.462 96.3567 106.508 96.3742C106.553 96.3916 106.594 96.4171 106.629 96.449C106.663 96.4809 106.689 96.5187 106.707 96.56L123.957 135.353C123.976 135.393 123.986 135.437 123.985 135.48C123.985 135.524 123.975 135.567 123.955 135.607C123.936 135.647 123.907 135.683 123.871 135.713C123.835 135.742 123.793 135.765 123.747 135.78C123.705 135.798 123.658 135.807 123.612 135.807Z" fill="#D5E6FB"/>
<path d="M111.095 83.3333C109.578 85.0593 108.674 87.1484 108.5 89.3333C108.342 92.7067 113.037 99.92 113.037 99.92L123.973 93.8333L118.647 82.4467L111.095 83.3333Z" fill="#2D5385"/>
<path d="M113.068 100.22H113C112.903 100.195 112.819 100.138 112.768 100.06C112.573 99.7667 108.02 92.7267 108.178 89.2933C108.35 87.0544 109.275 84.913 110.833 83.1467C110.893 83.0864 110.976 83.0464 111.065 83.0333L118.648 82.0933C118.73 82.0831 118.813 82.0972 118.885 82.1333C118.957 82.1695 119.013 82.2257 119.045 82.2933L124.37 93.68C124.403 93.7536 124.407 93.8353 124.379 93.9107C124.352 93.9862 124.296 94.0508 124.22 94.0933L113.293 100.18C113.224 100.213 113.146 100.227 113.068 100.22ZM111.298 83.6667C109.908 85.3063 109.078 87.2662 108.905 89.3133C108.77 92.1733 112.325 98.0267 113.203 99.42L123.5 93.6667L118.415 82.78L111.298 83.6667Z" fill="#2D5385"/>
<path d="M124.91 124.493C124.91 124.493 132.447 118.707 128.225 115.7C128.225 115.7 130.94 110.147 124.002 109.32C124.002 109.32 126.252 103.187 120.762 101.687C115.272 100.187 104.57 108.193 103.445 111.073C102.32 113.953 107.097 114.407 110.6 113.073C110.6 113.073 105.455 115.74 106.34 117.647C107.63 120.467 111.965 119.087 115.34 118.213C115.34 118.213 109.175 121.227 113.232 124.033C116.345 126.187 123.612 121.88 123.612 121.88L124.91 124.493Z" fill="white"/>
<path d="M115.512 124.96C114.614 124.994 113.73 124.759 113 124.293C112.527 124.022 112.14 123.647 111.877 123.205C111.615 122.762 111.485 122.267 111.5 121.767C111.723 120.706 112.38 119.756 113.345 119.1C110.345 119.833 107.157 120.293 106.002 117.767C105.41 116.48 106.97 115.02 108.402 114.007C106.437 114.313 104.562 114.073 103.617 113.293C103.263 113.004 103.022 112.621 102.93 112.201C102.838 111.781 102.9 111.346 103.107 110.96C104.285 107.947 115.25 99.8267 120.89 101.367C121.58 101.535 122.224 101.827 122.782 102.225C123.341 102.623 123.802 103.118 124.137 103.68C125.292 105.68 124.76 108.12 124.49 109.013C126.462 109.32 127.827 110.053 128.555 111.2C129.612 112.873 128.96 114.887 128.682 115.567C129.058 115.855 129.36 116.211 129.57 116.611C129.779 117.011 129.891 117.446 129.897 117.887C129.965 120.993 125.397 124.553 125.172 124.707C125.128 124.741 125.075 124.766 125.017 124.779C124.96 124.791 124.9 124.792 124.842 124.78C124.786 124.768 124.733 124.745 124.687 124.713C124.642 124.681 124.605 124.64 124.58 124.593L123.462 122.333C122.255 123.027 118.512 124.96 115.512 124.96ZM115.34 117.873C115.414 117.872 115.487 117.891 115.549 117.928C115.611 117.965 115.658 118.018 115.685 118.08C115.72 118.156 115.723 118.241 115.693 118.318C115.662 118.396 115.601 118.46 115.52 118.5C115.52 118.5 112.385 120.053 112.227 121.833C112.228 122.224 112.341 122.608 112.557 122.949C112.772 123.29 113.082 123.576 113.457 123.78C116.33 125.78 123.335 121.66 123.402 121.62C123.447 121.591 123.499 121.572 123.554 121.564C123.608 121.556 123.664 121.559 123.717 121.573C123.77 121.588 123.818 121.612 123.86 121.644C123.901 121.676 123.934 121.716 123.957 121.76L125.045 123.953C126.132 123.04 129.185 120.26 129.132 117.953C129.127 117.569 129.02 117.191 128.821 116.849C128.622 116.508 128.335 116.212 127.985 115.987C127.922 115.94 127.878 115.876 127.859 115.805C127.84 115.735 127.848 115.66 127.88 115.593C127.88 115.593 128.975 113.293 127.88 111.593C127.227 110.567 125.9 109.927 123.95 109.693C123.895 109.686 123.843 109.669 123.796 109.642C123.75 109.616 123.71 109.581 123.68 109.54C123.65 109.499 123.631 109.452 123.624 109.404C123.618 109.355 123.624 109.306 123.642 109.26C123.642 109.227 124.73 106.207 123.455 104.027C123.169 103.538 122.772 103.108 122.289 102.764C121.806 102.42 121.248 102.168 120.65 102.027C115.467 100.613 104.9 108.4 103.797 111.2C103.652 111.466 103.603 111.765 103.658 112.057C103.713 112.349 103.869 112.618 104.105 112.827C105.2 113.72 108.102 113.7 110.45 112.78C110.537 112.748 110.635 112.746 110.724 112.775C110.813 112.804 110.886 112.862 110.929 112.937C110.971 113.012 110.98 113.099 110.954 113.18C110.928 113.261 110.868 113.33 110.787 113.373C109.527 114.04 106.062 116.193 106.685 117.533C107.765 119.88 111.357 118.927 114.53 118.093L115.235 117.907C115.267 117.889 115.303 117.878 115.34 117.873Z" fill="#2D5385"/>
<path d="M118.895 91.5133C118.895 91.5133 119.082 85.92 113.75 88.0066C108.417 90.0933 100.317 95.0733 104.525 98.3533C108.732 101.633 117.627 95.78 118.895 91.5133Z" fill="white"/>
<path d="M107.577 99.6467C106.369 99.6784 105.192 99.3074 104.277 98.6067C103.808 98.2846 103.445 97.857 103.224 97.3682C103.004 96.8795 102.935 96.3472 103.024 95.8267C103.609 92.4467 110.194 89.0333 113.599 87.7067C115.227 87.04 116.554 87.04 117.544 87.64C119.344 88.7133 119.269 91.4133 119.269 91.5267C119.273 91.551 119.273 91.5757 119.269 91.6C118.384 94.6 114.019 98.2 109.969 99.3067C109.195 99.5236 108.388 99.6381 107.577 99.6467ZM115.879 87.88C115.193 87.9021 114.519 88.0496 113.899 88.3133C110.097 89.8 104.262 93.06 103.759 95.9267C103.691 96.3374 103.749 96.757 103.927 97.1408C104.105 97.5246 104.397 97.8584 104.772 98.1067C106.272 99.2733 108.297 99.0533 109.729 98.6667C113.479 97.64 117.672 94.22 118.519 91.4667C118.519 91.16 118.482 89 117.124 88.1933C116.755 87.9775 116.32 87.8681 115.879 87.88Z" fill="#2D5385"/>
<path d="M78.6875 122.213C78.6875 122.213 84.6875 107.387 86.015 104.88C88.265 100.64 93.6275 94.9867 98.225 96.1667C102.823 97.3467 112.475 101.327 108.568 104.027C105.005 106.5 96.7025 102.793 96.7025 102.793C96.7025 102.793 98.7725 110.633 94.5875 115.027" fill="white"/>
<path d="M78.6876 122.547C78.6454 122.554 78.6022 122.554 78.5601 122.547C78.5132 122.533 78.47 122.51 78.4331 122.481C78.3962 122.451 78.3663 122.416 78.3453 122.376C78.3243 122.336 78.3125 122.293 78.3108 122.249C78.309 122.205 78.3173 122.161 78.3351 122.12C78.5751 121.513 84.3351 107.253 85.6776 104.753C88.0401 100.32 93.5226 94.62 98.3301 95.8533C101.675 96.7133 109.213 99.5267 109.813 102.287C109.881 102.671 109.822 103.066 109.642 103.421C109.462 103.776 109.17 104.077 108.8 104.287C105.665 106.453 99.32 104.213 97.2126 103.367C97.6175 105.367 98.4651 111.467 94.8726 115.233C94.8433 115.272 94.8051 115.306 94.7604 115.331C94.7158 115.356 94.6657 115.372 94.6134 115.379C94.5611 115.385 94.5078 115.382 94.457 115.369C94.4062 115.356 94.3591 115.334 94.3187 115.304C94.2783 115.274 94.2455 115.236 94.2225 115.194C94.1996 115.152 94.1869 115.105 94.1854 115.058C94.1839 115.012 94.1935 114.965 94.2137 114.921C94.2339 114.878 94.2642 114.839 94.3026 114.807C98.3151 110.587 96.3576 102.94 96.3351 102.86C96.3203 102.798 96.3251 102.733 96.3489 102.673C96.3727 102.613 96.4146 102.56 96.4701 102.52C96.5257 102.481 96.5927 102.457 96.6633 102.451C96.7338 102.445 96.8047 102.458 96.8676 102.487C96.9501 102.52 104.998 106.073 108.335 103.76C108.595 103.629 108.806 103.433 108.939 103.195C109.073 102.958 109.124 102.69 109.085 102.427C108.628 100.307 102.335 97.5867 98.135 96.5133C93.8 95.3933 88.5501 100.947 86.3676 105.053C85.0551 107.52 79.1151 122.213 79.0551 122.387C79.0171 122.442 78.9625 122.486 78.8974 122.514C78.8323 122.542 78.7596 122.554 78.6876 122.547Z" fill="#2D5385"/>
<path d="M170.877 104C170.877 104 140.262 83.3333 122.202 82.9467C117.633 82.8902 113.065 83.113 108.53 83.6133C97.8421 84.6933 87.1021 86.68 79.6546 86.9467C64.8721 87.4467 53.8096 83.2333 53.7871 69.52C53.7871 57.7867 60.0121 55.6333 73.1746 52.4067C79.6846 50.8133 92.2321 49.1733 104.112 46.24C111.357 44.4467 118.362 42.18 123.575 39.1467C137.375 31.1467 147.672 12.88 147.672 12.88L170.877 104Z" fill="white"/>
<path d="M170.877 104.3C170.796 104.302 170.716 104.278 170.652 104.233C170.345 104.027 139.902 83.62 122.195 83.2467C117.643 83.1893 113.092 83.412 108.575 83.9133C104.18 84.3533 99.8149 84.9467 95.5924 85.52C89.6674 86.3267 84.0724 87.0867 79.6699 87.2333C70.0549 87.5533 62.9749 85.8467 58.6699 82.14C55.2124 79.18 53.4199 74.92 53.4199 69.4733C53.4199 57.4267 60.1699 55.2133 73.0849 52.04C75.8374 51.3733 79.6474 50.7067 84.0574 49.9C90.1999 48.8067 97.1599 47.5667 104.022 45.9C112.49 43.8 118.82 41.4933 123.38 38.8467C136.932 30.98 147.245 12.8933 147.342 12.7133C147.377 12.6519 147.433 12.6016 147.502 12.5693C147.57 12.5371 147.648 12.5245 147.725 12.5333C147.802 12.5401 147.874 12.5682 147.932 12.6136C147.99 12.6591 148.03 12.7197 148.047 12.7867L171.252 103.9C171.269 103.967 171.262 104.037 171.233 104.1C171.203 104.163 171.152 104.217 171.087 104.253C171.024 104.286 170.951 104.302 170.877 104.3ZM120.582 82.5667C121.137 82.5667 121.677 82.5667 122.21 82.5667C129.762 82.7267 140.292 86.3333 153.5 93.28C161.472 97.48 168.05 101.687 170.285 103.147L147.5 13.8133C145.31 17.4467 135.815 32.3933 123.747 39.4C119.127 42.0667 112.73 44.42 104.18 46.5333C97.2949 48.2333 90.3274 49.48 84.1699 50.5733C79.7749 51.36 75.9799 52.0333 73.2424 52.7C60.3199 55.8733 54.1099 57.9067 54.1324 69.4933C54.1324 74.7533 55.8199 78.8267 59.1274 81.68C63.3124 85.2533 70.2049 86.9067 79.6099 86.5867C83.9674 86.44 89.5474 85.68 95.4499 84.88C99.6799 84.3067 104.052 83.7133 108.455 83.2667C112.479 82.8266 116.528 82.5929 120.582 82.5667Z" fill="#2D5385"/>
<path d="M111.096 83.3333C100.408 84.4133 87.0958 86.3 79.6558 86.9C62.6908 88.2733 54.7858 85.0667 53.7883 71.38C52.7683 57.3067 60.0133 55.5867 73.1758 52.36C79.6858 50.7667 92.2333 49.1267 104.113 46.1933C104.113 46.1933 99.6133 53.56 101.616 66.5667C102.591 72.937 105.927 78.8367 111.096 83.3333Z" fill="#2D5385"/>
<path d="M73.2496 87.54C66.5896 87.54 62.0746 86.4267 58.9996 84.08C55.6396 81.5267 53.8696 77.5067 53.4271 71.4133C52.3921 57.12 59.6896 55.3333 72.9271 52.08H73.0771C75.8296 51.4133 79.6396 50.7467 84.0496 49.94C90.1921 48.8467 97.1521 47.6067 104.015 45.94C104.085 45.9223 104.16 45.9236 104.229 45.9438C104.298 45.964 104.36 46.0021 104.405 46.0533C104.453 46.1036 104.482 46.1658 104.489 46.2314C104.495 46.297 104.479 46.3629 104.442 46.42C104.397 46.4933 100.055 53.8533 101.99 66.5867C102.975 72.8723 106.261 78.6945 111.342 83.1533C111.397 83.1949 111.437 83.25 111.457 83.3116C111.477 83.3733 111.476 83.4388 111.455 83.5C111.432 83.5615 111.391 83.616 111.335 83.6574C111.279 83.6987 111.212 83.725 111.14 83.7333C106.212 84.2333 100.767 84.8933 95.5021 85.5333C89.4346 86.2733 83.6971 86.9733 79.6921 87.3C77.3371 87.4467 75.1921 87.54 73.2496 87.54ZM103.445 46.7267C96.8146 48.3267 90.1396 49.52 84.2146 50.5733C79.8196 51.36 76.0246 52.0333 73.2871 52.7L73.1371 52.74C60.2671 55.8933 53.1796 57.6333 54.1771 71.4067C54.6046 77.3 56.2921 81.1733 59.4796 83.6C63.3046 86.5067 69.5146 87.4333 79.6321 86.6133C83.6221 86.2933 89.3821 85.5933 95.3821 84.8533C100.37 84.2467 105.522 83.62 110.24 83.1333C105.375 78.6139 102.228 72.8526 101.24 66.66C99.6121 55.86 102.41 48.84 103.43 46.7267H103.445Z" fill="#2D5385"/>
<path d="M181.625 106.453C170.278 108.293 157.543 94.6533 149.9 74.1733C146.061 63.7649 143.829 52.9419 143.263 42C142.213 20.3 148.723 3.40666 160.13 1.56C174.238 -0.726669 190.49 20.8933 196.43 49.86C202.37 78.8267 195.74 104.167 181.625 106.453Z" fill="#1264D1"/>
<path d="M162.199 1.4C175.797 1.4 190.774 22.3133 196.429 49.8667C202.369 78.8333 195.739 104.167 181.624 106.453C180.941 106.565 180.249 106.621 179.554 106.62C168.754 106.62 157.054 93.4133 149.899 74.1733C146.061 63.7649 143.828 52.9419 143.262 42C142.212 20.3 148.722 3.40667 160.129 1.56C160.812 1.44805 161.505 1.39226 162.199 1.39333V1.4ZM162.199 0.726665C161.46 0.726131 160.721 0.786387 159.994 0.906666C148.437 2.77333 141.409 19.3 142.512 42.0267C143.086 53.0292 145.331 63.9123 149.187 74.38C156.649 94.38 168.567 107.28 179.554 107.28C180.294 107.281 181.032 107.22 181.759 107.1C188.899 105.947 194.412 99.2733 197.277 88.3067C200.097 77.5333 200.059 63.84 197.164 49.74C194.427 36.4067 189.372 24.02 182.914 14.94C176.457 5.86 169.069 0.733332 162.207 0.733332L162.199 0.726665Z" fill="#2D5385"/>
<path d="M172.909 66.8L149.899 74.1733C146.061 63.7649 143.828 52.9419 143.262 42H169.189L172.909 66.8Z" fill="white"/>
<path d="M172.908 66.8137C176.49 66.3758 178.537 60.4766 177.479 53.6374C176.42 46.7982 172.659 41.6089 169.076 42.0468C165.494 42.4847 163.448 48.384 164.506 55.2232C165.564 62.0624 169.326 67.2516 172.908 66.8137Z" fill="#D5E6FB"/>
<path d="M115.339 118.54C115.254 118.542 115.17 118.518 115.102 118.471C115.034 118.425 114.986 118.359 114.966 118.285C114.945 118.211 114.954 118.133 114.991 118.064C115.028 117.995 115.09 117.94 115.167 117.907C117.498 116.833 119.991 116.063 122.569 115.62C122.668 115.608 122.767 115.631 122.847 115.683C122.926 115.736 122.98 115.813 122.997 115.9C123.004 115.943 123.002 115.988 122.99 116.03C122.978 116.073 122.957 116.113 122.928 116.148C122.899 116.183 122.862 116.213 122.82 116.236C122.777 116.258 122.731 116.273 122.682 116.28C120.187 116.719 117.774 117.466 115.512 118.5C115.459 118.527 115.4 118.54 115.339 118.54Z" fill="#2D5385"/>
<path d="M110.6 113.4C110.505 113.398 110.414 113.365 110.345 113.307C110.31 113.276 110.282 113.24 110.263 113.2C110.244 113.16 110.234 113.117 110.234 113.073C110.234 113.03 110.244 112.987 110.263 112.947C110.282 112.907 110.31 112.87 110.345 112.84C112.631 110.872 115.611 109.666 118.782 109.427C118.881 109.419 118.978 109.447 119.054 109.503C119.13 109.559 119.178 109.639 119.187 109.727C119.192 109.77 119.188 109.814 119.173 109.856C119.159 109.898 119.135 109.937 119.104 109.97C119.073 110.004 119.034 110.031 118.99 110.051C118.946 110.071 118.899 110.083 118.85 110.087C115.869 110.336 113.068 111.465 110.892 113.293C110.855 113.328 110.809 113.356 110.759 113.374C110.708 113.393 110.654 113.401 110.6 113.4Z" fill="#2D5385"/>
<path d="M123.612 122.207C123.562 122.215 123.512 122.215 123.463 122.207C123.413 122.198 123.366 122.181 123.325 122.156C123.283 122.131 123.247 122.1 123.219 122.062C123.191 122.025 123.172 121.984 123.162 121.94C123.152 121.896 123.152 121.851 123.162 121.807C123.171 121.764 123.191 121.722 123.219 121.685C123.246 121.648 123.282 121.616 123.324 121.591C123.366 121.566 123.412 121.549 123.462 121.54L125.959 120.593C126.051 120.558 126.154 120.556 126.247 120.589C126.34 120.621 126.414 120.685 126.454 120.767C126.494 120.848 126.496 120.94 126.459 121.023C126.423 121.105 126.351 121.171 126.259 121.207L123.762 122.153C123.717 122.181 123.666 122.199 123.612 122.207Z" fill="#2D5385"/>
<path d="M93.41 147.58C93.41 147.58 98.3225 144.153 98.4425 143.793C98.5625 143.433 75.1925 123.793 75.1925 123.793L62 131.173L93.41 147.58Z" fill="#2D5385"/>
<path d="M93.4104 147.913C93.3442 147.914 93.2792 147.898 93.2229 147.867L61.7754 131.46C61.7198 131.431 61.6734 131.391 61.6405 131.342C61.6077 131.293 61.5896 131.237 61.5879 131.18C61.5875 131.122 61.6039 131.066 61.6354 131.016C61.667 130.965 61.7126 130.923 61.7679 130.893L75.0129 123.48C75.0837 123.442 75.1666 123.425 75.2492 123.432C75.3317 123.439 75.4093 123.47 75.4704 123.52C98.9979 143.333 98.8929 143.633 98.8029 143.893C98.8029 144.007 98.6454 144.347 93.6429 147.847C93.5759 147.891 93.4941 147.915 93.4104 147.913ZM62.6604 131.167L93.3579 147.167C95.3304 145.787 97.4004 144.273 97.9554 143.767C96.4554 142.233 83.7879 131.453 75.1479 124.173L62.6604 131.167Z" fill="#2D5385"/>
<path d="M94.8208 147.94L65.5183 126.093L9.42578 157.66L76.7908 165.973L94.8208 147.94Z" fill="#1264D1"/>
<path d="M64.4522 84.7533C64.3765 84.752 64.3029 84.7312 64.2403 84.6933C64.1777 84.6554 64.1288 84.6021 64.0997 84.54C59.5472 74.1333 59.0972 64.3067 62.8172 56.8667C62.8922 56.72 62.9372 56.62 62.9597 56.5733C62.9595 56.5316 62.9691 56.4903 62.9879 56.452C63.0068 56.4138 63.0343 56.3794 63.0689 56.3512C63.1035 56.323 63.1443 56.3014 63.1888 56.288C63.2333 56.2746 63.2804 56.2696 63.3272 56.2733C63.43 56.2802 63.5258 56.3222 63.5943 56.3906C63.6629 56.459 63.6989 56.5485 63.6947 56.64C63.6692 56.8168 63.6028 56.9871 63.4997 57.14C59.8622 64.4133 60.3197 74.06 64.7972 84.2933C64.8321 84.3757 64.8297 84.4668 64.7905 84.5476C64.7514 84.6285 64.6785 84.6926 64.5872 84.7267C64.5453 84.745 64.499 84.7542 64.4522 84.7533Z" fill="white"/>
<path d="M78.8066 54.3467C78.7195 54.3451 78.6356 54.3172 78.5687 54.2675C78.5019 54.2178 78.4562 54.1493 78.4391 54.0733C78.4293 54.0308 78.4292 53.987 78.4386 53.9445C78.4481 53.9019 78.4669 53.8615 78.4942 53.8255C78.5214 53.7895 78.5564 53.7587 78.5972 53.7348C78.638 53.711 78.6837 53.6946 78.7316 53.6867L95.2316 50.8067C95.2795 50.797 95.3291 50.7961 95.3773 50.8041C95.4256 50.8121 95.4715 50.8288 95.5123 50.8532C95.553 50.8775 95.5877 50.909 95.6143 50.9457C95.6408 50.9824 95.6586 51.0236 95.6666 51.0667C95.6765 51.1096 95.6767 51.1538 95.6674 51.1968C95.658 51.2397 95.6392 51.2807 95.612 51.3172C95.5849 51.3537 95.5499 51.3851 95.509 51.4096C95.4682 51.4341 95.4224 51.4513 95.3741 51.46L78.8741 54.34L78.8066 54.3467Z" fill="white"/>
<path d="M78.8066 57.2267C78.7195 57.2251 78.6356 57.1972 78.5687 57.1475C78.5019 57.0978 78.4562 57.0293 78.4391 56.9533C78.4293 56.9108 78.4292 56.867 78.4386 56.8245C78.4481 56.7819 78.4669 56.7415 78.4942 56.7055C78.5214 56.6695 78.5564 56.6387 78.5972 56.6148C78.638 56.591 78.6837 56.5746 78.7316 56.5667L95.2316 53.6867C95.2795 53.677 95.3291 53.6761 95.3773 53.6841C95.4256 53.6921 95.4715 53.7088 95.5123 53.7331C95.553 53.7575 95.5877 53.789 95.6143 53.8257C95.6408 53.8624 95.6586 53.9036 95.6666 53.9467C95.6765 53.9896 95.6767 54.0338 95.6674 54.0767C95.658 54.1197 95.6392 54.1607 95.612 54.1972C95.5849 54.2337 95.5499 54.2651 95.509 54.2896C95.4682 54.3141 95.4224 54.3312 95.3741 54.34L78.8741 57.22L78.8066 57.2267Z" fill="white"/>
<path d="M78.8074 60.54C78.721 60.54 78.6372 60.5135 78.5702 60.4649C78.5032 60.4163 78.4572 60.3486 78.4399 60.2733C78.422 60.1869 78.4425 60.0976 78.497 60.0243C78.5515 59.9509 78.6359 59.8992 78.7324 59.88L95.2324 57C95.3298 56.9844 95.4302 57.0037 95.5117 57.0537C95.5932 57.1036 95.6492 57.1802 95.6674 57.2667C95.6783 57.3092 95.6793 57.3533 95.6703 57.3962C95.6613 57.4391 95.6425 57.4799 95.6151 57.5162C95.5877 57.5524 95.5523 57.5832 95.511 57.6068C95.4696 57.6304 95.4234 57.6462 95.3749 57.6533L78.8749 60.5333L78.8074 60.54Z" fill="white"/>
<path d="M46.6475 120.587C46.5535 120.585 46.4633 120.553 46.3942 120.497C46.325 120.44 46.2817 120.363 46.2725 120.28C45.5225 112.947 38.7725 107.613 32.675 105.033C24.86 101.76 9.82999 97.8267 0.867487 99.3267C0.784104 99.3432 0.696827 99.3328 0.621259 99.2974C0.545691 99.262 0.486754 99.2038 0.454985 99.1333C0.422108 99.0637 0.41682 98.9862 0.439984 98.9135C0.463149 98.8408 0.513393 98.7773 0.582486 98.7333C1.33249 98.2667 2.02249 97.8067 2.76499 97.3333C11.84 91.5467 22.1225 84.98 23.4725 74.4467C25.6175 57.6467 10.0775 42.3867 9.91999 42.2333C9.86707 42.1734 9.83831 42.0995 9.83831 42.0233C9.83831 41.9472 9.86707 41.8732 9.91999 41.8133C9.96945 41.7519 10.0409 41.7073 10.1227 41.6867C10.2044 41.6661 10.2916 41.6708 10.37 41.7C10.565 41.7733 30.275 49.0867 49.925 39.4133C69.2825 29.8867 68.615 11.04 68.6075 10.8533C68.6039 10.7877 68.6219 10.7225 68.6592 10.6657C68.6964 10.6089 68.7514 10.5629 68.8175 10.5333C68.8851 10.5074 68.9594 10.4987 69.0322 10.5081C69.1051 10.5175 69.1735 10.5447 69.23 10.5867C69.425 10.74 89.0525 25.92 103.348 24.9333C108.605 24.6089 113.691 23.1373 118.156 20.6488C122.621 18.1604 126.326 14.7318 128.945 10.6667C128.987 10.5875 129.063 10.5264 129.156 10.4964C129.248 10.4665 129.35 10.4701 129.44 10.5067C129.484 10.5259 129.524 10.5527 129.557 10.5855C129.589 10.6184 129.615 10.6567 129.631 10.6982C129.647 10.7397 129.653 10.7836 129.65 10.8273C129.647 10.8711 129.634 10.9139 129.613 10.9533C126.934 15.1264 123.135 18.6453 118.555 21.1962C113.975 23.7472 108.755 25.2509 103.362 25.5733C90.0275 26.5133 72.8375 14.18 69.3125 11.5333C69.2225 15.1733 67.8125 31.3267 50.24 39.9667C33.2825 48.3533 16.25 44.2333 11.42 42.76C14.81 46.4333 26.09 59.88 24.215 74.52C22.8275 85.3533 12.4025 92.0067 3.21499 97.8533L2.27749 98.4533C11.5025 97.5533 25.5275 101.273 33.0275 104.407C39.2975 107.033 46.2725 112.567 47.0525 120.2C47.0608 120.287 47.0301 120.374 46.9669 120.442C46.9037 120.509 46.8132 120.552 46.715 120.56L46.6475 120.587Z" fill="#D5E6FB"/>
<path d="M159.756 161.233C159.654 161.233 159.557 161.197 159.486 161.133C159.343 161 145.026 147.967 124.048 150.467C123.999 150.473 123.949 150.471 123.901 150.46C123.854 150.449 123.809 150.43 123.77 150.403C123.73 150.376 123.698 150.342 123.673 150.304C123.649 150.266 123.634 150.224 123.628 150.18C123.615 150.092 123.642 150.004 123.703 149.934C123.763 149.864 123.852 149.818 123.951 149.807C142.378 147.593 155.766 157.18 159.201 159.94C158.451 155.653 157.423 138.907 180.951 124.34C194.338 116.06 215.931 118.913 225.651 122.473C216.651 113.04 208.401 102.02 212.646 90.8867C216.501 80.76 233.856 69.5533 237.478 67.28C212.053 60.1267 201.381 47.7 203.901 28.22C203.912 28.1316 203.962 28.0507 204.04 27.995C204.118 27.9394 204.217 27.9136 204.317 27.9233C204.416 27.9331 204.507 27.9775 204.57 28.0469C204.633 28.1163 204.662 28.2049 204.651 28.2933C202.161 47.6267 212.901 59.84 238.438 66.8467C238.507 66.8647 238.569 66.8999 238.616 66.9481C238.663 66.9964 238.693 67.0556 238.704 67.1188C238.714 67.182 238.704 67.2465 238.674 67.3047C238.644 67.3628 238.596 67.4121 238.536 67.4467C238.326 67.5733 217.498 80.2333 213.366 91.1C209.076 102.367 218.016 113.633 227.323 123.167C227.382 123.225 227.416 123.299 227.42 123.377C227.424 123.455 227.396 123.532 227.343 123.594C227.289 123.656 227.213 123.699 227.127 123.716C227.041 123.733 226.951 123.723 226.873 123.687C218.233 119.933 195.283 116.293 181.386 124.887C154.731 141.387 160.078 160.613 160.138 160.807C160.159 160.878 160.152 160.953 160.119 161.021C160.087 161.088 160.03 161.144 159.958 161.18C159.897 161.213 159.827 161.232 159.756 161.233Z" fill="#D5E6FB"/>
</svg>
